<svg width="118" height="84" viewBox="0 0 118 84" fill="none" xmlns="http://www.w3.org/2000/svg">
<mask id="path-1-outside-1_233_12662" maskUnits="userSpaceOnUse" x="-0.347168" y="-0.222656" width="118" height="78" fill="black">
<rect fill="white" x="-0.347168" y="-0.222656" width="118" height="78"/>
<path fill-rule="evenodd" clip-rule="evenodd" d="M67.8248 4.81006C69.707 4.56586 71.5504 5.70972 72.1594 7.53314C72.5606 8.69959 72.3547 9.76836 71.8439 10.8501C72.6542 11.8001 73.3598 12.868 74.063 13.8998C75.0232 13.1582 78.7738 10.8943 79.8589 10.4693C80.3313 10.2848 80.9394 10.2639 81.2816 10.7039C81.5815 11.0898 81.3907 11.6406 81.1101 11.9826C80.2408 13.0213 75.7684 16.0592 75.7684 16.0592L79.5031 21.7432L84.8835 22.9L85.2914 22.4512L97.6087 20.9376L98.9249 31.8372L94.7689 32.0453L96.0751 38.8848L101.329 37.1449C101.329 37.1449 100.01 45.66 99.3052 49.9076C100.323 51.2374 101.929 52.4152 103.678 51.9641C107.594 50.9541 109.843 45.8907 108.888 42.1546C107.757 42.4834 106.552 42.5678 105.52 41.8913C107.386 39.7176 107.241 36.7087 106.454 34.079C109.534 35.663 112.888 38.2849 112.813 42.0671C112.185 41.5769 111.799 41.4979 111.009 41.5987C113.244 46.6955 111.013 51.6513 107.961 55.8874C107.348 56.7375 106.639 57.5384 106.073 58.4185C105.077 59.9664 104.979 61.9674 105.347 63.7268C103.828 62.6848 102.308 62.2006 100.46 62.52L98.6341 72.1083C93.5042 72.6199 88.2822 72.5956 83.1349 72.8204V72.5598C80.8793 72.566 78.6114 72.5725 76.3848 72.1559C75.5458 71.999 74.7087 71.6776 73.8629 71.599C73.8579 71.7183 73.8258 71.9599 73.8258 71.9599C70.8757 72.1881 67.9264 72.4277 64.9768 72.662C62.808 72.8559 60.872 72.8447 58.6781 72.6772C57.3749 72.5776 52.4697 72.1984 52.4697 72.1984L52.3983 71.9164L43.0446 72.5842L43.0631 72.1984L30.8892 73.0878L30.8251 71.4515L24.1822 71.6643L23.4213 64.0984C22.5737 66.8166 21.8238 69.5655 21.0348 72.3014C17.8077 72.4828 14.5621 72.7267 11.3301 72.7925C9.02388 65.5173 4.65283 50.8849 4.65283 50.8849L5.6099 50.8199C5.38655 40.5547 5.13696 30.2838 4.76881 20.0226C9.63598 16.7446 17.695 15.1205 22.8945 18.1876C25.7114 19.8493 27.1845 22.5817 27.9869 25.6888C30.2928 25.8131 31.8645 26.1363 33.9099 27.2631C34.0333 25.409 34.5546 20.3908 34.5546 20.3908C34.5546 20.3908 37.3427 19.307 38.7984 18.9106C41.5998 18.1473 45.0951 18.1369 47.9483 18.5634C51.6802 19.1211 53.7315 20.5045 55.9314 23.4951C57.1157 23.2956 58.3206 23.1925 59.5123 23.0471L64.5937 22.3861C65.2457 22.302 66.4569 22.2809 67.0139 22.0563C67.4256 21.8902 68.0984 21.1323 68.0984 21.1323C69.8782 23.3351 71.6093 25.5775 73.3637 27.8007L75.225 23.5148L72.072 18.4612C72.072 18.4612 66.762 21.9027 65.6491 21.7812C65.1454 21.7292 64.7693 21.3015 64.8702 20.7895C65.0648 19.8045 66.2105 19.2069 66.9356 18.6695C68.2087 17.7259 69.5149 16.8343 70.8013 15.91C70.246 14.9043 69.72 13.9036 69.2228 12.867C66.9077 13.1533 64.6765 11.8539 64.3157 9.40325C63.986 7.16386 65.6472 5.11526 67.8248 4.81006ZM41.3686 50.6169L39.9636 50.8282L40.45 62.2758L42.2043 62.138L41.3686 50.6169ZM57.3623 51.4978L51.8817 51.9127L52.3631 61.7094L55.0007 61.5982L57.3623 51.4978ZM67.3595 50.653L65.9145 50.8319C65.9145 50.8319 67.2089 54.2916 67.8716 56.0157C69.1526 53.7911 71.4201 52.3177 73.7274 51.352C73.199 51.337 67.5075 51.0595 67.5075 51.0595L67.3595 50.653ZM19.7302 46.864L6.84169 50.6993L15.6587 49.9767L21.9922 49.9656L22.07 49.4898L23.103 49.4526C23.103 49.4526 21.6364 48.7231 20.6236 47.7428C20.3102 47.4784 19.7302 46.864 19.7302 46.864ZM50.5336 41.5185C50.5336 41.5185 48.3689 42.6867 47.1638 43.0373C47.3948 45.1909 47.8223 49.5089 47.8223 49.5089L46.0361 49.7986L50.7832 49.7561L50.5336 41.5185ZM65.0877 35.5994L65.8108 39.3202L62.5147 40.7101L62.774 41.349L68.2388 40.4813L68.2837 39.4681L65.0877 35.5994ZM68.681 7.51926C67.9655 7.72821 67.4241 8.39962 67.6873 9.17248C67.9477 9.95445 69.103 10.427 69.6195 9.62701C70.1036 8.87721 69.7317 7.44888 68.681 7.51926Z"/>
</mask>
<path fill-rule="evenodd" clip-rule="evenodd" d="M67.8248 4.81006C69.707 4.56586 71.5504 5.70972 72.1594 7.53314C72.5606 8.69959 72.3547 9.76836 71.8439 10.8501C72.6542 11.8001 73.3598 12.868 74.063 13.8998C75.0232 13.1582 78.7738 10.8943 79.8589 10.4693C80.3313 10.2848 80.9394 10.2639 81.2816 10.7039C81.5815 11.0898 81.3907 11.6406 81.1101 11.9826C80.2408 13.0213 75.7684 16.0592 75.7684 16.0592L79.5031 21.7432L84.8835 22.9L85.2914 22.4512L97.6087 20.9376L98.9249 31.8372L94.7689 32.0453L96.0751 38.8848L101.329 37.1449C101.329 37.1449 100.01 45.66 99.3052 49.9076C100.323 51.2374 101.929 52.4152 103.678 51.9641C107.594 50.9541 109.843 45.8907 108.888 42.1546C107.757 42.4834 106.552 42.5678 105.52 41.8913C107.386 39.7176 107.241 36.7087 106.454 34.079C109.534 35.663 112.888 38.2849 112.813 42.0671C112.185 41.5769 111.799 41.4979 111.009 41.5987C113.244 46.6955 111.013 51.6513 107.961 55.8874C107.348 56.7375 106.639 57.5384 106.073 58.4185C105.077 59.9664 104.979 61.9674 105.347 63.7268C103.828 62.6848 102.308 62.2006 100.46 62.52L98.6341 72.1083C93.5042 72.6199 88.2822 72.5956 83.1349 72.8204V72.5598C80.8793 72.566 78.6114 72.5725 76.3848 72.1559C75.5458 71.999 74.7087 71.6776 73.8629 71.599C73.8579 71.7183 73.8258 71.9599 73.8258 71.9599C70.8757 72.1881 67.9264 72.4277 64.9768 72.662C62.808 72.8559 60.872 72.8447 58.6781 72.6772C57.3749 72.5776 52.4697 72.1984 52.4697 72.1984L52.3983 71.9164L43.0446 72.5842L43.0631 72.1984L30.8892 73.0878L30.8251 71.4515L24.1822 71.6643L23.4213 64.0984C22.5737 66.8166 21.8238 69.5655 21.0348 72.3014C17.8077 72.4828 14.5621 72.7267 11.3301 72.7925C9.02388 65.5173 4.65283 50.8849 4.65283 50.8849L5.6099 50.8199C5.38655 40.5547 5.13696 30.2838 4.76881 20.0226C9.63598 16.7446 17.695 15.1205 22.8945 18.1876C25.7114 19.8493 27.1845 22.5817 27.9869 25.6888C30.2928 25.8131 31.8645 26.1363 33.9099 27.2631C34.0333 25.409 34.5546 20.3908 34.5546 20.3908C34.5546 20.3908 37.3427 19.307 38.7984 18.9106C41.5998 18.1473 45.0951 18.1369 47.9483 18.5634C51.6802 19.1211 53.7315 20.5045 55.9314 23.4951C57.1157 23.2956 58.3206 23.1925 59.5123 23.0471L64.5937 22.3861C65.2457 22.302 66.4569 22.2809 67.0139 22.0563C67.4256 21.8902 68.0984 21.1323 68.0984 21.1323C69.8782 23.3351 71.6093 25.5775 73.3637 27.8007L75.225 23.5148L72.072 18.4612C72.072 18.4612 66.762 21.9027 65.6491 21.7812C65.1454 21.7292 64.7693 21.3015 64.8702 20.7895C65.0648 19.8045 66.2105 19.2069 66.9356 18.6695C68.2087 17.7259 69.5149 16.8343 70.8013 15.91C70.246 14.9043 69.72 13.9036 69.2228 12.867C66.9077 13.1533 64.6765 11.8539 64.3157 9.40325C63.986 7.16386 65.6472 5.11526 67.8248 4.81006ZM41.3686 50.6169L39.9636 50.8282L40.45 62.2758L42.2043 62.138L41.3686 50.6169ZM57.3623 51.4978L51.8817 51.9127L52.3631 61.7094L55.0007 61.5982L57.3623 51.4978ZM67.3595 50.653L65.9145 50.8319C65.9145 50.8319 67.2089 54.2916 67.8716 56.0157C69.1526 53.7911 71.4201 52.3177 73.7274 51.352C73.199 51.337 67.5075 51.0595 67.5075 51.0595L67.3595 50.653ZM19.7302 46.864L6.84169 50.6993L15.6587 49.9767L21.9922 49.9656L22.07 49.4898L23.103 49.4526C23.103 49.4526 21.6364 48.7231 20.6236 47.7428C20.3102 47.4784 19.7302 46.864 19.7302 46.864ZM50.5336 41.5185C50.5336 41.5185 48.3689 42.6867 47.1638 43.0373C47.3948 45.1909 47.8223 49.5089 47.8223 49.5089L46.0361 49.7986L50.7832 49.7561L50.5336 41.5185ZM65.0877 35.5994L65.8108 39.3202L62.5147 40.7101L62.774 41.349L68.2388 40.4813L68.2837 39.4681L65.0877 35.5994ZM68.681 7.51926C67.9655 7.72821 67.4241 8.39962 67.6873 9.17248C67.9477 9.95445 69.103 10.427 69.6195 9.62701C70.1036 8.87721 69.7317 7.44888 68.681 7.51926Z" fill="#212021"/>
<path fill-rule="evenodd" clip-rule="evenodd" d="M67.8248 4.81006C69.707 4.56586 71.5504 5.70972 72.1594 7.53314C72.5606 8.69959 72.3547 9.76836 71.8439 10.8501C72.6542 11.8001 73.3598 12.868 74.063 13.8998C75.0232 13.1582 78.7738 10.8943 79.8589 10.4693C80.3313 10.2848 80.9394 10.2639 81.2816 10.7039C81.5815 11.0898 81.3907 11.6406 81.1101 11.9826C80.2408 13.0213 75.7684 16.0592 75.7684 16.0592L79.5031 21.7432L84.8835 22.9L85.2914 22.4512L97.6087 20.9376L98.9249 31.8372L94.7689 32.0453L96.0751 38.8848L101.329 37.1449C101.329 37.1449 100.01 45.66 99.3052 49.9076C100.323 51.2374 101.929 52.4152 103.678 51.9641C107.594 50.9541 109.843 45.8907 108.888 42.1546C107.757 42.4834 106.552 42.5678 105.52 41.8913C107.386 39.7176 107.241 36.7087 106.454 34.079C109.534 35.663 112.888 38.2849 112.813 42.0671C112.185 41.5769 111.799 41.4979 111.009 41.5987C113.244 46.6955 111.013 51.6513 107.961 55.8874C107.348 56.7375 106.639 57.5384 106.073 58.4185C105.077 59.9664 104.979 61.9674 105.347 63.7268C103.828 62.6848 102.308 62.2006 100.46 62.52L98.6341 72.1083C93.5042 72.6199 88.2822 72.5956 83.1349 72.8204V72.5598C80.8793 72.566 78.6114 72.5725 76.3848 72.1559C75.5458 71.999 74.7087 71.6776 73.8629 71.599C73.8579 71.7183 73.8258 71.9599 73.8258 71.9599C70.8757 72.1881 67.9264 72.4277 64.9768 72.662C62.808 72.8559 60.872 72.8447 58.6781 72.6772C57.3749 72.5776 52.4697 72.1984 52.4697 72.1984L52.3983 71.9164L43.0446 72.5842L43.0631 72.1984L30.8892 73.0878L30.8251 71.4515L24.1822 71.6643L23.4213 64.0984C22.5737 66.8166 21.8238 69.5655 21.0348 72.3014C17.8077 72.4828 14.5621 72.7267 11.3301 72.7925C9.02388 65.5173 4.65283 50.8849 4.65283 50.8849L5.6099 50.8199C5.38655 40.5547 5.13696 30.2838 4.76881 20.0226C9.63598 16.7446 17.695 15.1205 22.8945 18.1876C25.7114 19.8493 27.1845 22.5817 27.9869 25.6888C30.2928 25.8131 31.8645 26.1363 33.9099 27.2631C34.0333 25.409 34.5546 20.3908 34.5546 20.3908C34.5546 20.3908 37.3427 19.307 38.7984 18.9106C41.5998 18.1473 45.0951 18.1369 47.9483 18.5634C51.6802 19.1211 53.7315 20.5045 55.9314 23.4951C57.1157 23.2956 58.3206 23.1925 59.5123 23.0471L64.5937 22.3861C65.2457 22.302 66.4569 22.2809 67.0139 22.0563C67.4256 21.8902 68.0984 21.1323 68.0984 21.1323C69.8782 23.3351 71.6093 25.5775 73.3637 27.8007L75.225 23.5148L72.072 18.4612C72.072 18.4612 66.762 21.9027 65.6491 21.7812C65.1454 21.7292 64.7693 21.3015 64.8702 20.7895C65.0648 19.8045 66.2105 19.2069 66.9356 18.6695C68.2087 17.7259 69.5149 16.8343 70.8013 15.91C70.246 14.9043 69.72 13.9036 69.2228 12.867C66.9077 13.1533 64.6765 11.8539 64.3157 9.40325C63.986 7.16386 65.6472 5.11526 67.8248 4.81006ZM41.3686 50.6169L39.9636 50.8282L40.45 62.2758L42.2043 62.138L41.3686 50.6169ZM57.3623 51.4978L51.8817 51.9127L52.3631 61.7094L55.0007 61.5982L57.3623 51.4978ZM67.3595 50.653L65.9145 50.8319C65.9145 50.8319 67.2089 54.2916 67.8716 56.0157C69.1526 53.7911 71.4201 52.3177 73.7274 51.352C73.199 51.337 67.5075 51.0595 67.5075 51.0595L67.3595 50.653ZM19.7302 46.864L6.84169 50.6993L15.6587 49.9767L21.9922 49.9656L22.07 49.4898L23.103 49.4526C23.103 49.4526 21.6364 48.7231 20.6236 47.7428C20.3102 47.4784 19.7302 46.864 19.7302 46.864ZM50.5336 41.5185C50.5336 41.5185 48.3689 42.6867 47.1638 43.0373C47.3948 45.1909 47.8223 49.5089 47.8223 49.5089L46.0361 49.7986L50.7832 49.7561L50.5336 41.5185ZM65.0877 35.5994L65.8108 39.3202L62.5147 40.7101L62.774 41.349L68.2388 40.4813L68.2837 39.4681L65.0877 35.5994ZM68.681 7.51926C67.9655 7.72821 67.4241 8.39962 67.6873 9.17248C67.9477 9.95445 69.103 10.427 69.6195 9.62701C70.1036 8.87721 69.7317 7.44888 68.681 7.51926Z" stroke="white" stroke-width="9.30569" stroke-linejoin="round" mask="url(#path-1-outside-1_233_12662)"/>
<mask id="path-2-outside-2_233_12662" maskUnits="userSpaceOnUse" x="9.20215" y="71.4531" width="89" height="10" fill="black">
<rect fill="white" x="9.20215" y="71.4531" width="89" height="10"/>
<path d="M30.2959 74.5683C31.3236 74.5683 32.157 75.6099 32.1572 76.8944C32.1572 78.4118 31.3238 79.2206 30.2959 79.2206C29.2682 79.2205 28.4346 78.4117 28.4346 76.8944C28.4348 75.3775 29.2683 74.5684 30.2959 74.5683ZM21.9424 74.4706L21.9336 75.4784L20.7178 75.4735V76.164H21.7607V77.1317L20.7461 77.1415V77.9511L21.9395 77.955L21.9355 79.0106L19.4941 79.0243L19.4932 74.4696L21.9424 74.4706ZM38.7793 74.4706L38.7705 75.4784L37.5557 75.4735V76.164H38.5977V77.1317L37.583 77.1415V77.9511L38.7764 77.955L38.7725 79.0106L36.3311 79.0243V74.4696L38.7793 74.4706ZM24.5459 74.4794C25.3578 74.4707 26.4774 74.3301 27.1855 74.8016C27.859 75.2503 28.0067 76.2828 27.5273 76.9325C27.113 77.4928 26.4747 77.5848 25.8779 77.5849V79.0067L24.5576 79.0204C24.5665 77.5067 24.5629 75.9928 24.5459 74.4794ZM32.6445 74.4794C33.4565 74.4707 34.5761 74.33 35.2842 74.8016C35.9576 75.2503 36.1051 76.2828 35.626 76.9325C35.2117 77.4929 34.5733 77.5848 33.9766 77.5849V79.0067L32.6562 79.0204C32.6651 77.5067 32.6615 75.9928 32.6445 74.4794ZM52.6602 79.0204L51.3945 79.0116L51.3926 74.4804L52.6758 74.4755L52.6602 79.0204ZM45.7979 74.4765L45.79 75.4823L44.5566 75.4774V76.1659H45.6143V77.1317L44.584 77.1415V77.9491L45.7959 77.953L45.791 79.0058L43.3145 79.0194L43.3135 74.4755L45.7979 74.4765ZM86.3496 79.0028L85.0713 79.0175L84.9561 78.4599H84.0195L83.9238 79.0175H82.583L83.7227 74.4774L85.3643 74.4755L86.3496 79.0028ZM95.5762 79.0028L94.2969 79.0175L94.1826 78.4599H93.2461L93.1494 79.0175H91.8086L92.9492 74.4774L94.5898 74.4755L95.5762 79.0028ZM69.5889 75.5614C69.1404 75.5581 68.7371 75.5112 68.3379 75.5614L68.3477 76.1766C68.366 76.1768 69.0527 76.182 69.4512 76.1766V77.2225H68.4248L68.4199 77.9452L69.585 77.954L69.5889 79.0018C68.7649 79.0188 67.9384 79.0117 67.1143 79.0155C67.0945 77.504 67.1082 75.9902 67.1064 74.4784H69.5898L69.5889 75.5614ZM72.7412 75.5595L71.9795 75.5663L71.9932 79.0048L70.6709 79.0155L70.6699 75.5663L69.9248 75.5624L69.9287 74.4794L72.7422 74.4784C72.7347 74.8385 72.7406 75.1994 72.7412 75.5595ZM91.8945 75.5624L91.1348 75.5663L91.1426 78.3729L91.1406 79.0116L89.8311 79.0145C89.8073 77.8666 89.8248 76.7156 89.8232 75.5673L89.0684 75.5624L89.0732 74.4784H91.8994L91.8945 75.5624ZM50.7637 74.4784L50.7646 75.4325H49.6416V76.1727H50.6826L50.6787 77.1317H49.7217L49.7334 79.0038L48.4521 79.0126L48.4531 74.4755L50.7637 74.4784ZM88.1592 74.4755C88.1431 75.6324 88.1553 76.7919 88.1553 77.9491L89.168 77.9569L89.165 79.0077L86.8691 79.0106L86.8672 74.4765L88.1592 74.4755ZM58.4287 74.4755C58.5736 75.2506 58.6921 76.0313 58.7842 76.8143C58.9149 76.0329 59.0817 75.255 59.2354 74.4774L60.8623 74.4813C60.8909 75.8931 61.1206 77.5986 61.334 79.0028C60.8797 79.0152 60.4224 79.006 59.9678 79.0067C59.9456 78.1225 59.9521 77.2344 59.8721 76.3534C59.6478 77.2149 59.5286 78.1269 59.3359 78.9999C58.9554 79.0092 58.5731 79.0042 58.1924 79.0058C58.1195 78.1212 57.9026 77.2026 57.7676 76.3212L57.6367 78.9911C57.1544 79.0127 56.6702 78.9987 56.1875 78.994C56.413 77.6338 56.6426 75.7039 56.7744 74.4765L58.4287 74.4755ZM79.2812 74.4755C79.4262 75.2506 79.5447 76.0313 79.6367 76.8143C79.7674 76.0329 79.9342 75.255 80.0879 74.4774L81.7148 74.4813C81.7435 75.8931 81.9731 77.5986 82.1865 79.0028C81.7322 79.0152 81.2749 79.006 80.8203 79.0067C80.7981 78.1225 80.8046 77.2344 80.7246 76.3534C80.5004 77.2149 80.3811 78.1269 80.1885 78.9999C79.8079 79.0092 79.4256 79.0042 79.0449 79.0058C78.972 78.1212 78.7552 77.2026 78.6201 76.3212L78.4893 78.9911C78.0069 79.0127 77.5228 78.9987 77.04 78.994C77.2655 77.6338 77.4951 75.7039 77.627 74.4765L79.2812 74.4755ZM64.9873 74.5077C65.4537 74.4792 66.3369 74.6659 66.3369 74.6659L66.3418 76.0409C66.3418 76.0409 65.8887 75.4028 65.5996 75.4345C65.3108 75.4661 65.1886 75.5887 65.1885 75.8036C65.2291 76.2037 66.2048 76.4738 66.4102 77.1493C66.5206 77.5128 66.4645 77.9151 66.2871 78.247C66.0846 78.6266 65.7934 78.8531 65.3857 78.9735C64.8048 79.0999 63.9567 78.8014 63.9326 78.7929L63.9141 77.4599C64.3077 77.7868 64.9494 78.1746 65.1885 77.747C65.4667 77.2484 64.1372 76.9009 63.9326 76.285C63.6658 75.4814 64.2594 74.5524 64.9873 74.5077ZM40.5898 74.4784L41.084 75.871L41.5039 74.4784L42.9062 74.4833L41.6855 77.0868V78.9862L40.3701 79.0009V77.0868L39.2549 74.4755L40.5898 74.4784ZM54.8037 77.9501L55.8145 77.953V78.9989L53.4893 78.995L53.4756 74.4804L54.8076 74.4755L54.8037 77.9501ZM14.9795 75.4735H14.2148V78.9472H12.9277V75.4891L12.2021 75.4862V74.4696H14.9795V75.4735ZM16.6631 76.0907H17.4287V74.4589L18.6504 74.4618V78.9472H17.4287V77.0936H16.6631V78.9472H15.4385V74.4589H16.6631V76.0907ZM30.2705 75.6542C29.9496 75.6547 29.6895 76.193 29.6895 76.8563C29.6895 77.5198 29.9495 78.0579 30.2705 78.0585C30.5917 78.0585 30.8525 77.5201 30.8525 76.8563C30.8524 76.1927 30.5917 75.6542 30.2705 75.6542ZM84.1914 77.5477L84.8037 77.5585L84.5352 75.8886H84.4697L84.1914 77.5477ZM93.417 77.5477L94.0293 77.5585L93.7617 75.8886H93.6953L93.417 77.5477ZM33.8828 76.5526C33.894 76.554 34.495 76.6229 34.4951 75.9081C34.495 75.4347 33.8947 75.4708 33.8828 75.4716V76.5526ZM25.7852 76.5526C25.8002 76.5544 26.3973 76.6205 26.3975 75.9081C26.3974 75.4359 25.7999 75.4706 25.7852 75.4716V76.5526Z"/>
</mask>
<path d="M30.2959 74.5683C31.3236 74.5683 32.157 75.6099 32.1572 76.8944C32.1572 78.4118 31.3238 79.2206 30.2959 79.2206C29.2682 79.2205 28.4346 78.4117 28.4346 76.8944C28.4348 75.3775 29.2683 74.5684 30.2959 74.5683ZM21.9424 74.4706L21.9336 75.4784L20.7178 75.4735V76.164H21.7607V77.1317L20.7461 77.1415V77.9511L21.9395 77.955L21.9355 79.0106L19.4941 79.0243L19.4932 74.4696L21.9424 74.4706ZM38.7793 74.4706L38.7705 75.4784L37.5557 75.4735V76.164H38.5977V77.1317L37.583 77.1415V77.9511L38.7764 77.955L38.7725 79.0106L36.3311 79.0243V74.4696L38.7793 74.4706ZM24.5459 74.4794C25.3578 74.4707 26.4774 74.3301 27.1855 74.8016C27.859 75.2503 28.0067 76.2828 27.5273 76.9325C27.113 77.4928 26.4747 77.5848 25.8779 77.5849V79.0067L24.5576 79.0204C24.5665 77.5067 24.5629 75.9928 24.5459 74.4794ZM32.6445 74.4794C33.4565 74.4707 34.5761 74.33 35.2842 74.8016C35.9576 75.2503 36.1051 76.2828 35.626 76.9325C35.2117 77.4929 34.5733 77.5848 33.9766 77.5849V79.0067L32.6562 79.0204C32.6651 77.5067 32.6615 75.9928 32.6445 74.4794ZM52.6602 79.0204L51.3945 79.0116L51.3926 74.4804L52.6758 74.4755L52.6602 79.0204ZM45.7979 74.4765L45.79 75.4823L44.5566 75.4774V76.1659H45.6143V77.1317L44.584 77.1415V77.9491L45.7959 77.953L45.791 79.0058L43.3145 79.0194L43.3135 74.4755L45.7979 74.4765ZM86.3496 79.0028L85.0713 79.0175L84.9561 78.4599H84.0195L83.9238 79.0175H82.583L83.7227 74.4774L85.3643 74.4755L86.3496 79.0028ZM95.5762 79.0028L94.2969 79.0175L94.1826 78.4599H93.2461L93.1494 79.0175H91.8086L92.9492 74.4774L94.5898 74.4755L95.5762 79.0028ZM69.5889 75.5614C69.1404 75.5581 68.7371 75.5112 68.3379 75.5614L68.3477 76.1766C68.366 76.1768 69.0527 76.182 69.4512 76.1766V77.2225H68.4248L68.4199 77.9452L69.585 77.954L69.5889 79.0018C68.7649 79.0188 67.9384 79.0117 67.1143 79.0155C67.0945 77.504 67.1082 75.9902 67.1064 74.4784H69.5898L69.5889 75.5614ZM72.7412 75.5595L71.9795 75.5663L71.9932 79.0048L70.6709 79.0155L70.6699 75.5663L69.9248 75.5624L69.9287 74.4794L72.7422 74.4784C72.7347 74.8385 72.7406 75.1994 72.7412 75.5595ZM91.8945 75.5624L91.1348 75.5663L91.1426 78.3729L91.1406 79.0116L89.8311 79.0145C89.8073 77.8666 89.8248 76.7156 89.8232 75.5673L89.0684 75.5624L89.0732 74.4784H91.8994L91.8945 75.5624ZM50.7637 74.4784L50.7646 75.4325H49.6416V76.1727H50.6826L50.6787 77.1317H49.7217L49.7334 79.0038L48.4521 79.0126L48.4531 74.4755L50.7637 74.4784ZM88.1592 74.4755C88.1431 75.6324 88.1553 76.7919 88.1553 77.9491L89.168 77.9569L89.165 79.0077L86.8691 79.0106L86.8672 74.4765L88.1592 74.4755ZM58.4287 74.4755C58.5736 75.2506 58.6921 76.0313 58.7842 76.8143C58.9149 76.0329 59.0817 75.255 59.2354 74.4774L60.8623 74.4813C60.8909 75.8931 61.1206 77.5986 61.334 79.0028C60.8797 79.0152 60.4224 79.006 59.9678 79.0067C59.9456 78.1225 59.9521 77.2344 59.8721 76.3534C59.6478 77.2149 59.5286 78.1269 59.3359 78.9999C58.9554 79.0092 58.5731 79.0042 58.1924 79.0058C58.1195 78.1212 57.9026 77.2026 57.7676 76.3212L57.6367 78.9911C57.1544 79.0127 56.6702 78.9987 56.1875 78.994C56.413 77.6338 56.6426 75.7039 56.7744 74.4765L58.4287 74.4755ZM79.2812 74.4755C79.4262 75.2506 79.5447 76.0313 79.6367 76.8143C79.7674 76.0329 79.9342 75.255 80.0879 74.4774L81.7148 74.4813C81.7435 75.8931 81.9731 77.5986 82.1865 79.0028C81.7322 79.0152 81.2749 79.006 80.8203 79.0067C80.7981 78.1225 80.8046 77.2344 80.7246 76.3534C80.5004 77.2149 80.3811 78.1269 80.1885 78.9999C79.8079 79.0092 79.4256 79.0042 79.0449 79.0058C78.972 78.1212 78.7552 77.2026 78.6201 76.3212L78.4893 78.9911C78.0069 79.0127 77.5228 78.9987 77.04 78.994C77.2655 77.6338 77.4951 75.7039 77.627 74.4765L79.2812 74.4755ZM64.9873 74.5077C65.4537 74.4792 66.3369 74.6659 66.3369 74.6659L66.3418 76.0409C66.3418 76.0409 65.8887 75.4028 65.5996 75.4345C65.3108 75.4661 65.1886 75.5887 65.1885 75.8036C65.2291 76.2037 66.2048 76.4738 66.4102 77.1493C66.5206 77.5128 66.4645 77.9151 66.2871 78.247C66.0846 78.6266 65.7934 78.8531 65.3857 78.9735C64.8048 79.0999 63.9567 78.8014 63.9326 78.7929L63.9141 77.4599C64.3077 77.7868 64.9494 78.1746 65.1885 77.747C65.4667 77.2484 64.1372 76.9009 63.9326 76.285C63.6658 75.4814 64.2594 74.5524 64.9873 74.5077ZM40.5898 74.4784L41.084 75.871L41.5039 74.4784L42.9062 74.4833L41.6855 77.0868V78.9862L40.3701 79.0009V77.0868L39.2549 74.4755L40.5898 74.4784ZM54.8037 77.9501L55.8145 77.953V78.9989L53.4893 78.995L53.4756 74.4804L54.8076 74.4755L54.8037 77.9501ZM14.9795 75.4735H14.2148V78.9472H12.9277V75.4891L12.2021 75.4862V74.4696H14.9795V75.4735ZM16.6631 76.0907H17.4287V74.4589L18.6504 74.4618V78.9472H17.4287V77.0936H16.6631V78.9472H15.4385V74.4589H16.6631V76.0907ZM30.2705 75.6542C29.9496 75.6547 29.6895 76.193 29.6895 76.8563C29.6895 77.5198 29.9495 78.0579 30.2705 78.0585C30.5917 78.0585 30.8525 77.5201 30.8525 76.8563C30.8524 76.1927 30.5917 75.6542 30.2705 75.6542ZM84.1914 77.5477L84.8037 77.5585L84.5352 75.8886H84.4697L84.1914 77.5477ZM93.417 77.5477L94.0293 77.5585L93.7617 75.8886H93.6953L93.417 77.5477ZM33.8828 76.5526C33.894 76.554 34.495 76.6229 34.4951 75.9081C34.495 75.4347 33.8947 75.4708 33.8828 75.4716V76.5526ZM25.7852 76.5526C25.8002 76.5544 26.3973 76.6205 26.3975 75.9081C26.3974 75.4359 25.7999 75.4706 25.7852 75.4716V76.5526Z" fill="#212021"/>
<path d="M30.2959 74.5683V72.5003H30.2956L30.2959 74.5683ZM32.1572 76.8944H34.2252V76.8941L32.1572 76.8944ZM30.2959 79.2206L30.2956 81.2885H30.2959V79.2206ZM28.4346 76.8944L26.3666 76.8942V76.8944H28.4346ZM21.9424 74.4706L24.0102 74.4886C24.015 73.9372 23.7994 73.4067 23.4113 73.015C23.0231 72.6233 22.4946 72.4029 21.9432 72.4027L21.9424 74.4706ZM21.9336 75.4784L21.9253 77.5463C23.0636 77.5509 23.9915 76.6347 24.0014 75.4964L21.9336 75.4784ZM20.7178 75.4735L20.7261 73.4056C20.1762 73.4034 19.6481 73.6203 19.2585 74.0083C18.8689 74.3964 18.6498 74.9236 18.6498 75.4735H20.7178ZM20.7178 76.164H18.6498C18.6498 77.306 19.5757 78.2319 20.7178 78.2319V76.164ZM21.7607 76.164H23.8287C23.8287 75.0219 22.9028 74.096 21.7607 74.096V76.164ZM21.7607 77.1317L21.7806 79.1996C22.9149 79.1886 23.8287 78.266 23.8287 77.1317H21.7607ZM20.7461 77.1415L20.7262 75.0737C19.5919 75.0846 18.6782 76.0072 18.6782 77.1415H20.7461ZM20.7461 77.9511H18.6782C18.6782 79.0905 19.5999 80.0153 20.7393 80.019L20.7461 77.9511ZM21.9395 77.955L24.0074 77.9626C24.0094 77.414 23.7934 76.8871 23.4068 76.4978C23.0202 76.1086 22.4948 75.8888 21.9462 75.8871L21.9395 77.955ZM21.9355 79.0106L21.9471 81.0785C23.0817 81.0722 23.9993 80.1529 24.0035 79.0183L21.9355 79.0106ZM19.4941 79.0243L17.4262 79.0247C17.4263 79.5751 17.6458 80.1028 18.0361 80.4908C18.4265 80.8788 18.9554 81.0953 19.5057 81.0922L19.4941 79.0243ZM19.4932 74.4696L19.494 72.4017C18.9453 72.4015 18.4191 72.6193 18.0311 73.0072C17.643 73.3952 17.4251 73.9214 17.4252 74.4701L19.4932 74.4696ZM38.7793 74.4706L40.8471 74.4886C40.852 73.9372 40.6363 73.4067 40.2482 73.015C39.8601 72.6233 39.3316 72.4029 38.7801 72.4027L38.7793 74.4706ZM38.7705 75.4784L38.7622 77.5463C39.9005 77.5509 40.8284 76.6347 40.8384 75.4964L38.7705 75.4784ZM37.5557 75.4735L37.564 73.4056C37.0141 73.4034 36.486 73.6203 36.0964 74.0083C35.7067 74.3964 35.4877 74.9236 35.4877 75.4735H37.5557ZM37.5557 76.164H35.4877C35.4877 77.306 36.4136 78.2319 37.5557 78.2319V76.164ZM38.5977 76.164H40.6656C40.6656 75.0219 39.7397 74.096 38.5977 74.096V76.164ZM38.5977 77.1317L38.6176 79.1996C39.7518 79.1886 40.6656 78.266 40.6656 77.1317H38.5977ZM37.583 77.1415L37.5631 75.0737C36.4288 75.0846 35.5151 76.0072 35.5151 77.1415H37.583ZM37.583 77.9511H35.5151C35.5151 79.0905 36.4368 80.0153 37.5762 80.019L37.583 77.9511ZM38.7764 77.955L40.8443 77.9626C40.8463 77.414 40.6303 76.8871 40.2437 76.4978C39.8571 76.1086 39.3317 75.8888 38.7831 75.8871L38.7764 77.955ZM38.7725 79.0106L38.784 81.0785C39.9186 81.0722 40.8362 80.1529 40.8404 79.0183L38.7725 79.0106ZM36.3311 79.0243H34.2631C34.2631 79.5748 34.4826 80.1025 34.8729 80.4906C35.2632 80.8788 35.7922 81.0953 36.3426 81.0922L36.3311 79.0243ZM36.3311 74.4696L36.3319 72.4017C35.7833 72.4015 35.2571 72.6192 34.8691 73.0071C34.4811 73.3949 34.2631 73.921 34.2631 74.4696H36.3311ZM24.5459 74.4794L24.5239 72.4116C23.9753 72.4174 23.4514 72.641 23.0677 73.0332C22.6841 73.4254 22.4719 73.954 22.4781 74.5026L24.5459 74.4794ZM27.1855 74.8016L28.332 73.0806L28.3316 73.0804L27.1855 74.8016ZM27.5273 76.9325L29.1901 78.162L29.1914 78.1602L27.5273 76.9325ZM25.8779 77.5849L25.8779 75.5169C24.7358 75.5169 23.81 76.4428 23.81 77.5849H25.8779ZM25.8779 79.0067L25.8993 81.0745C27.033 81.0628 27.9459 80.1405 27.9459 79.0067H25.8779ZM24.5576 79.0204L22.4897 79.0083C22.4865 79.5625 22.7059 80.0949 23.0987 80.4859C23.4915 80.877 24.0248 81.094 24.579 81.0882L24.5576 79.0204ZM32.6445 74.4794L32.6224 72.4116C32.0738 72.4174 31.55 72.6411 31.1663 73.0332C30.7827 73.4254 30.5706 73.954 30.5767 74.5026L32.6445 74.4794ZM35.2842 74.8016L36.4308 73.0807L36.4306 73.0806L35.2842 74.8016ZM35.626 76.9325L37.2889 78.1617L37.2902 78.16L35.626 76.9325ZM33.9766 77.5849L33.9764 75.5169C32.8344 75.517 31.9086 76.4428 31.9086 77.5849H33.9766ZM33.9766 79.0067L33.998 81.0745C35.1316 81.0628 36.0445 80.1405 36.0445 79.0067H33.9766ZM32.6562 79.0204L30.5884 79.0083C30.5851 79.5625 30.8045 80.0949 31.1973 80.4859C31.5901 80.877 32.1234 81.094 32.6777 81.0882L32.6562 79.0204ZM52.6602 79.0204L52.6458 81.0883C53.1955 81.0921 53.7241 80.8769 54.1148 80.4902C54.5055 80.1035 54.7262 79.5772 54.7281 79.0275L52.6602 79.0204ZM51.3945 79.0116L49.3266 79.0125C49.3271 80.1486 50.2441 81.0716 51.3802 81.0795L51.3945 79.0116ZM51.3926 74.4804L51.3847 72.4124C50.2454 72.4168 49.3242 73.3419 49.3246 74.4813L51.3926 74.4804ZM52.6758 74.4755L54.7437 74.4826C54.7456 73.9315 54.5275 73.4025 54.1378 73.013C53.748 72.6234 53.219 72.4055 52.6679 72.4076L52.6758 74.4755ZM45.7979 74.4765L47.8657 74.4925C47.87 73.9414 47.6541 73.4115 47.2661 73.0202C46.878 72.6289 46.3498 72.4087 45.7987 72.4085L45.7979 74.4765ZM45.79 75.4823L45.7819 77.5502C46.9209 77.5547 47.8491 76.6374 47.8579 75.4984L45.79 75.4823ZM44.5566 75.4774L44.5648 73.4095C44.015 73.4073 43.4869 73.6242 43.0973 74.0123C42.7077 74.4003 42.4887 74.9276 42.4887 75.4774H44.5566ZM44.5566 76.1659H42.4887C42.4887 77.308 43.4146 78.2338 44.5566 78.2338V76.1659ZM45.6143 76.1659H47.6822C47.6822 75.0238 46.7563 74.098 45.6143 74.098V76.1659ZM45.6143 77.1317L45.6339 79.1996C46.7682 79.1888 47.6822 78.2662 47.6822 77.1317H45.6143ZM44.584 77.1415L44.5644 75.0737C43.43 75.0844 42.5161 76.0071 42.5161 77.1415H44.584ZM44.584 77.9491H42.5161C42.5161 79.0886 43.4378 80.0134 44.5773 80.017L44.584 77.9491ZM45.7959 77.953L47.8638 77.9626C47.8664 77.4137 47.6505 76.8862 47.2639 76.4965C46.8772 76.1068 46.3515 75.8869 45.8026 75.8851L45.7959 77.953ZM45.791 79.0058L45.8024 81.0737C46.9363 81.0674 47.8537 80.1492 47.8589 79.0153L45.791 79.0058ZM43.3145 79.0194L41.2465 79.0199C41.2466 79.5702 41.4661 80.0978 41.8564 80.4859C42.2467 80.8739 42.7755 81.0904 43.3259 81.0873L43.3145 79.0194ZM43.3135 74.4755L43.3143 72.4075C42.7656 72.4073 42.2394 72.6252 41.8514 73.0131C41.4634 73.401 41.2454 73.9273 41.2455 74.4759L43.3135 74.4755ZM86.3496 79.0028L86.3733 81.0706C86.9948 81.0635 87.5801 80.7772 87.9673 80.2911C88.3544 79.8049 88.5024 79.1703 88.3702 78.563L86.3496 79.0028ZM85.0713 79.0175L83.0462 79.436C83.2464 80.4052 84.1054 81.0966 85.095 81.0853L85.0713 79.0175ZM84.9561 78.4599L86.9812 78.0413C86.7827 77.0809 85.9368 76.3919 84.9561 76.3919V78.4599ZM84.0195 78.4599V76.3919C83.0124 76.3919 82.1518 77.1174 81.9814 78.1101L84.0195 78.4599ZM83.9238 79.0175V81.0854C84.9309 81.0854 85.7916 80.3599 85.962 79.3673L83.9238 79.0175ZM82.583 79.0175L80.5773 78.514C80.4222 79.132 80.5606 79.7869 80.9524 80.2893C81.3443 80.7917 81.9459 81.0854 82.583 81.0854V79.0175ZM83.7227 74.4774L83.7202 72.4095C82.7729 72.4106 81.9476 73.0552 81.7169 73.974L83.7227 74.4774ZM85.3643 74.4755L87.3849 74.0357C87.1778 73.0844 86.3353 72.4064 85.3618 72.4075L85.3643 74.4755ZM95.5762 79.0028L95.5998 81.0706C96.2214 81.0635 96.8068 80.7772 97.1939 80.2909C97.5811 79.8046 97.729 79.17 97.5967 78.5626L95.5762 79.0028ZM94.2969 79.0175L92.271 79.4326C92.47 80.4034 93.3296 81.0966 94.3205 81.0853L94.2969 79.0175ZM94.1826 78.4599L96.2085 78.0448C96.0113 77.0827 95.1647 76.3919 94.1826 76.3919V78.4599ZM93.2461 78.4599V76.3919C92.2403 76.3919 91.3804 77.1156 91.2086 78.1066L93.2461 78.4599ZM93.1494 79.0175V81.0854C94.1552 81.0854 95.0151 80.3617 95.1869 79.3707L93.1494 79.0175ZM91.8086 79.0175L89.803 78.5136C89.6477 79.1316 89.786 79.7867 90.1779 80.2892C90.5698 80.7916 91.1714 81.0854 91.8086 81.0854V79.0175ZM92.9492 74.4774L92.9468 72.4095C91.9997 72.4106 91.1744 73.055 90.9436 73.9736L92.9492 74.4774ZM94.5898 74.4755L96.6104 74.0353C96.4032 73.0842 95.5608 72.4064 94.5874 72.4075L94.5898 74.4755ZM69.5889 75.5614L69.5736 77.6293C70.1243 77.6334 70.654 77.4176 71.045 77.0297C71.4361 76.6419 71.6563 76.1141 71.6568 75.5633L69.5889 75.5614ZM68.3379 75.5614L68.0796 73.5097C67.0331 73.6414 66.2535 74.5396 66.2702 75.5942L68.3379 75.5614ZM68.3477 76.1767L66.28 76.2095C66.2978 77.3325 67.2087 78.2359 68.3319 78.2445L68.3477 76.1767ZM69.4512 76.1767H71.5191C71.5191 75.6234 71.2974 75.0932 70.9036 74.7047C70.5098 74.3161 69.9767 74.1015 69.4235 74.1089L69.4512 76.1767ZM69.4512 77.2225V79.2905C70.5933 79.2905 71.5191 78.3646 71.5191 77.2225H69.4512ZM68.4248 77.2225V75.1546C67.2882 75.1546 66.3646 76.072 66.3569 77.2086L68.4248 77.2225ZM68.4199 77.9452L66.352 77.9312C66.3443 79.0727 67.2629 80.0045 68.4043 80.0131L68.4199 77.9452ZM69.585 77.954L71.6529 77.9463C71.6487 76.8133 70.7335 75.8947 69.6006 75.8861L69.585 77.954ZM69.5889 79.0018L69.6315 81.0693C70.7597 81.0461 71.661 80.1226 71.6568 78.9941L69.5889 79.0018ZM67.1143 79.0155L65.0465 79.0425C65.0613 80.1778 65.9886 81.0887 67.1239 81.0834L67.1143 79.0155ZM67.1064 74.4784V72.4105C66.5576 72.4105 66.0312 72.6287 65.6433 73.017C65.2555 73.4053 65.0379 73.9319 65.0385 74.4808L67.1064 74.4784ZM69.5898 74.4784L71.6578 74.4803C71.6583 73.9315 71.4406 73.405 71.0527 73.0168C70.6649 72.6286 70.1386 72.4105 69.5898 72.4105V74.4784ZM72.7412 75.5595L72.7598 77.6273C73.8959 77.6171 74.8111 76.6922 74.8091 75.5559L72.7412 75.5595ZM71.9795 75.5663L71.9609 73.4985C70.8229 73.5087 69.9071 74.4365 69.9116 75.5745L71.9795 75.5663ZM71.9932 79.0048L72.01 81.0726C73.1487 81.0634 74.0656 80.1353 74.0611 78.9966L71.9932 79.0048ZM70.6709 79.0155L68.603 79.0161C68.6031 79.5674 68.8234 80.0957 69.2148 80.4839C69.6062 80.8721 70.1365 81.0879 70.6877 81.0834L70.6709 79.0155ZM70.6699 75.5663L72.7379 75.5657C72.7375 74.4281 71.8184 73.5044 70.6808 73.4984L70.6699 75.5663ZM69.9248 75.5624L67.8569 75.5549C67.8528 76.6957 68.7732 77.6243 69.914 77.6303L69.9248 75.5624ZM69.9287 74.4794L69.928 72.4115C68.7891 72.4118 67.8649 73.333 67.8608 74.4719L69.9287 74.4794ZM72.7422 74.4784L74.8097 74.5214C74.8212 73.9655 74.6084 73.4284 74.2193 73.0312C73.8302 72.634 73.2975 72.4103 72.7415 72.4105L72.7422 74.4784ZM91.8945 75.5624L91.9052 77.6303C93.0395 77.6245 93.9573 76.706 93.9624 75.5717L91.8945 75.5624ZM91.1348 75.5663L91.1241 73.4984C89.984 73.5043 89.0637 74.4319 89.0668 75.5721L91.1348 75.5663ZM91.1426 78.3729L93.2105 78.3793L93.2105 78.3672L91.1426 78.3729ZM91.1406 79.0116L91.1452 81.0795C92.2831 81.077 93.2051 80.1557 93.2085 79.0179L91.1406 79.0116ZM89.8311 79.0145L87.7636 79.0573C87.7868 80.1843 88.7085 81.085 89.8357 81.0825L89.8311 79.0145ZM89.8232 75.5673L91.8912 75.5645C91.8897 74.4287 90.9724 73.5067 89.8366 73.4994L89.8232 75.5673ZM89.0684 75.5624L87.0005 75.5531C86.9953 76.6936 87.9145 77.6229 89.055 77.6303L89.0684 75.5624ZM89.0732 74.4784V72.4105C87.9348 72.4105 87.0105 73.3307 87.0053 74.4691L89.0732 74.4784ZM91.8994 74.4784L93.9673 74.4877C93.9698 73.9377 93.753 73.4093 93.365 73.0195C92.9769 72.6296 92.4495 72.4105 91.8994 72.4105V74.4784ZM50.7637 74.4784L52.8316 74.4763C52.8304 73.3361 51.9065 72.4119 50.7663 72.4105L50.7637 74.4784ZM50.7646 75.4325V77.5004C51.3135 77.5004 51.8398 77.2823 52.2276 76.894C52.6155 76.5057 52.8331 75.9792 52.8326 75.4304L50.7646 75.4325ZM49.6416 75.4325V73.3646C48.4995 73.3646 47.5737 74.2904 47.5737 75.4325H49.6416ZM49.6416 76.1727H47.5737C47.5737 77.3148 48.4995 78.2407 49.6416 78.2407V76.1727ZM50.6826 76.1727L52.7505 76.1812C52.7528 75.6313 52.5359 75.1031 52.1478 74.7135C51.7598 74.3238 51.2325 74.1048 50.6826 74.1048V76.1727ZM50.6787 77.1317V79.1997C51.8175 79.1997 52.742 78.2789 52.7466 77.1402L50.6787 77.1317ZM49.7217 77.1317V75.0638C49.171 75.0638 48.643 75.2834 48.2549 75.6741C47.8667 76.0647 47.6503 76.594 47.6538 77.1447L49.7217 77.1317ZM49.7334 79.0038L49.7476 81.0717C50.8892 81.0638 51.8084 80.1324 51.8013 78.9909L49.7334 79.0038ZM48.4521 79.0126L46.3842 79.0121C46.3841 79.5631 46.6039 80.0914 46.9948 80.4797C47.3857 80.868 47.9154 81.0842 48.4663 81.0805L48.4521 79.0126ZM48.4531 74.4755L48.4557 72.4075C47.9069 72.4069 47.3803 72.6244 46.992 73.0121C46.6036 73.3999 46.3853 73.9262 46.3852 74.475L48.4531 74.4755ZM88.1592 74.4755L90.2269 74.5042C90.2346 73.9506 90.0199 73.417 89.631 73.0229C89.2421 72.6288 88.7113 72.4071 88.1576 72.4075L88.1592 74.4755ZM88.1553 77.9491H86.0873C86.0873 79.085 87.0035 80.0082 88.1393 80.017L88.1553 77.9491ZM89.168 77.9569L91.2359 77.9627C91.2391 76.8246 90.322 75.8978 89.1839 75.8891L89.168 77.9569ZM89.165 79.0077L89.1677 81.0756C90.3065 81.0742 91.2298 80.1523 91.233 79.0135L89.165 79.0077ZM86.8691 79.0106L84.8012 79.0115C84.8014 79.5603 85.0198 80.0864 85.4081 80.4741C85.7965 80.8618 86.323 81.0793 86.8718 81.0786L86.8691 79.0106ZM86.8672 74.4765L86.8656 72.4085C85.7238 72.4094 84.7988 73.3355 84.7993 74.4773L86.8672 74.4765ZM58.4287 74.4755L60.4614 74.0954C60.2784 73.1164 59.4235 72.407 58.4275 72.4075L58.4287 74.4755ZM58.7842 76.8143L56.7304 77.0558C56.8506 78.0783 57.7046 78.8566 58.7339 78.8817C59.7631 78.9067 60.654 78.1709 60.8238 77.1554L58.7842 76.8143ZM59.2354 74.4774L59.2403 72.4095C58.2509 72.4071 57.3984 73.1059 57.2066 74.0766L59.2354 74.4774ZM60.8623 74.4813L62.9298 74.4394C62.907 73.3158 61.9911 72.4161 60.8673 72.4134L60.8623 74.4813ZM61.334 79.0028L61.3902 81.07C61.9829 81.0539 62.5401 80.7841 62.9204 80.3293C63.3007 79.8745 63.4675 79.2783 63.3784 78.6921L61.334 79.0028ZM59.9678 79.0067L57.9005 79.0586C57.9287 80.1815 58.848 81.0766 59.9713 81.0747L59.9678 79.0067ZM59.8721 76.3534L61.9315 76.1663C61.8406 75.1654 61.0432 74.3748 60.0415 74.2924C59.0399 74.2101 58.124 74.8598 57.8708 75.8325L59.8721 76.3534ZM59.3359 78.9999L59.3863 81.0672C60.3375 81.0441 61.1502 80.3747 61.3553 79.4455L59.3359 78.9999ZM58.1924 79.0058L56.1314 79.1756C56.2201 80.2514 57.1213 81.078 58.2008 81.0737L58.1924 79.0058ZM57.7676 76.3212L59.8116 76.008C59.6508 74.9585 58.7214 74.2013 57.661 74.256C56.6007 74.3107 55.7541 75.1595 55.7021 76.2199L57.7676 76.3212ZM57.6367 78.9911L57.7293 81.057C58.7953 81.0092 59.6499 80.1582 59.7022 79.0923L57.6367 78.9911ZM56.1875 78.994L54.1474 78.6559C54.0486 79.2518 54.2154 79.8612 54.6038 80.3238C54.9923 80.7864 55.5636 81.0561 56.1677 81.0619L56.1875 78.994ZM56.7744 74.4765L56.7732 72.4085C55.717 72.4091 54.8311 73.2055 54.7183 74.2556L56.7744 74.4765ZM79.2812 74.4755L81.314 74.0954C81.1309 73.1164 80.276 72.407 79.28 72.4075L79.2812 74.4755ZM79.6367 76.8143L77.5829 77.0558C77.7031 78.0783 78.5572 78.8566 79.5864 78.8817C80.6156 78.9067 81.5065 78.1709 81.6763 77.1554L79.6367 76.8143ZM80.0879 74.4774L80.0929 72.4095C79.1034 72.4071 78.251 73.1059 78.0592 74.0766L80.0879 74.4774ZM81.7148 74.4813L83.7823 74.4394C83.7596 73.3158 82.8436 72.4161 81.7198 72.4134L81.7148 74.4813ZM82.1865 79.0028L82.2427 81.07C82.8354 81.0539 83.3926 80.7841 83.773 80.3293C84.1533 79.8745 84.3201 79.2783 84.231 78.6921L82.1865 79.0028ZM80.8203 79.0067L78.753 79.0586C78.7812 80.1815 79.7006 81.0766 80.8238 81.0747L80.8203 79.0067ZM80.7246 76.3534L82.7841 76.1663C82.6931 75.1654 81.8957 74.3748 80.8941 74.2924C79.8924 74.2101 78.9766 74.8598 78.7234 75.8325L80.7246 76.3534ZM80.1885 78.9999L80.2388 81.0672C81.1901 81.0441 82.0028 80.3747 82.2078 79.4455L80.1885 78.9999ZM79.0449 79.0058L76.984 79.1756C77.0727 80.2514 77.9739 81.078 79.0533 81.0737L79.0449 79.0058ZM78.6201 76.3212L80.6642 76.008C80.5034 74.9585 79.5739 74.2013 78.5136 74.256C77.4533 74.3107 76.6066 75.1595 76.5547 76.2199L78.6201 76.3212ZM78.4893 78.9911L78.5818 81.057C79.6478 81.0092 80.5025 80.1582 80.5547 79.0923L78.4893 78.9911ZM77.04 78.994L74.9999 78.6559C74.9012 79.2518 75.0679 79.8612 75.4564 80.3238C75.8448 80.7864 76.4161 81.0561 77.0202 81.0619L77.04 78.994ZM77.627 74.4765L77.6257 72.4085C76.5696 72.4091 75.6836 73.2055 75.5708 74.2556L77.627 74.4765ZM64.9873 74.5077L64.8612 72.4436L64.8606 72.4437L64.9873 74.5077ZM66.3369 74.6659L68.4048 74.6586C68.4014 73.6841 67.718 72.8442 66.7646 72.6427L66.3369 74.6659ZM66.3418 76.0409L64.6557 77.2381C65.1775 77.9731 66.1153 78.2854 66.9736 78.01C67.8319 77.7346 68.4129 76.9349 68.4097 76.0336L66.3418 76.0409ZM65.5996 75.4345L65.3746 73.3788L65.3742 73.3789L65.5996 75.4345ZM65.1885 75.8036L63.1205 75.8024C63.1205 75.8726 63.124 75.9427 63.1311 76.0125L65.1885 75.8036ZM66.4102 77.1493L68.3887 76.548L68.3886 76.5477L66.4102 77.1493ZM66.2871 78.247L64.4634 77.272L64.4626 77.2735L66.2871 78.247ZM65.3857 78.9735L65.8252 80.9942C65.8744 80.9835 65.9232 80.971 65.9714 80.9568L65.3857 78.9735ZM63.9326 78.7929L61.8649 78.8216C61.8769 79.6867 62.4262 80.4528 63.2416 80.7419L63.9326 78.7929ZM63.9141 77.4599L65.2354 75.8691C64.6146 75.3535 63.7506 75.2461 63.0224 75.594C62.2943 75.942 61.8351 76.6817 61.8463 77.4886L63.9141 77.4599ZM65.1885 77.747L66.9935 78.756L66.9943 78.7547L65.1885 77.747ZM63.9326 76.285L61.97 76.9367L61.9701 76.937L63.9326 76.285ZM40.5898 74.4784L42.5387 73.7869C42.2465 72.9634 41.4682 72.4124 40.5944 72.4105L40.5898 74.4784ZM41.084 75.871L39.1351 76.5625C39.434 77.4048 40.2402 77.9598 41.1337 77.9383C42.0272 77.9168 42.8058 77.3237 43.0639 76.468L41.084 75.871ZM41.5039 74.4784L41.5111 72.4105C40.5963 72.4073 39.7881 73.0055 39.524 73.8814L41.5039 74.4784ZM42.9062 74.4833L44.7786 75.3612C45.0784 74.7218 45.0312 73.9737 44.6534 73.3771C44.2757 72.7804 43.6196 72.4178 42.9135 72.4154L42.9062 74.4833ZM41.6855 77.0868L39.8132 76.2089C39.6844 76.4837 39.6176 76.7834 39.6176 77.0868H41.6855ZM41.6855 78.9862L41.7086 81.054C42.8416 81.0414 43.7535 80.1193 43.7535 78.9862H41.6855ZM40.3701 79.0009H38.3022C38.3022 79.5533 38.5232 80.0828 38.916 80.4712C39.3088 80.8597 39.8407 81.0748 40.3931 81.0687L40.3701 79.0009ZM40.3701 77.0868H42.438C42.438 76.8076 42.3815 76.5314 42.2719 76.2746L40.3701 77.0868ZM39.2549 74.4755L39.2594 72.4076C38.564 72.406 37.9143 72.7542 37.5305 73.3341C37.1466 73.9141 37.08 74.6481 37.3531 75.2877L39.2549 74.4755ZM54.8037 77.9501L52.7358 77.9478C52.7345 79.0884 53.6571 80.0147 54.7977 80.018L54.8037 77.9501ZM55.8145 77.953H57.8824C57.8824 76.8133 56.9602 75.8884 55.8204 75.8851L55.8145 77.953ZM55.8145 78.9989L55.811 81.0668C56.36 81.0678 56.8869 80.8503 57.2755 80.4624C57.664 80.0745 57.8824 79.548 57.8824 78.9989H55.8145ZM53.4893 78.995L51.4213 79.0013C51.4248 80.1396 52.3475 81.061 53.4858 81.0629L53.4893 78.995ZM53.4756 74.4804L53.468 72.4124C52.3264 72.4166 51.4042 73.3451 51.4077 74.4866L53.4756 74.4804ZM54.8076 74.4755L56.8755 74.4778C56.8762 73.9276 56.6575 73.3999 56.268 73.0114C55.8785 72.6228 55.3502 72.4055 54.8 72.4076L54.8076 74.4755ZM14.9795 75.4735V77.5415C16.1216 77.5415 17.0474 76.6156 17.0474 75.4735H14.9795ZM14.2148 75.4735V73.4056C13.0728 73.4056 12.1469 74.3314 12.1469 75.4735H14.2148ZM14.2148 78.9472V81.0151C15.3569 81.0151 16.2828 80.0892 16.2828 78.9472H14.2148ZM12.9277 78.9472H10.8598C10.8598 80.0892 11.7856 81.0151 12.9277 81.0151V78.9472ZM12.9277 75.4892H14.9957C14.9957 74.3503 14.0749 73.4258 12.9361 73.4212L12.9277 75.4892ZM12.2021 75.4862H10.1342C10.1342 76.625 11.055 77.5495 12.1938 77.5541L12.2021 75.4862ZM12.2021 74.4696V72.4017C11.0601 72.4017 10.1342 73.3275 10.1342 74.4696H12.2021ZM14.9795 74.4696H17.0474C17.0474 73.3275 16.1216 72.4017 14.9795 72.4017V74.4696ZM16.6631 76.0907H14.5952C14.5952 77.2328 15.521 78.1586 16.6631 78.1586V76.0907ZM17.4287 76.0907V78.1586C18.5708 78.1586 19.4966 77.2328 19.4966 76.0907H17.4287ZM17.4287 74.4589L17.4337 72.391C16.8844 72.3896 16.3571 72.6069 15.9682 72.9949C15.5793 73.3828 15.3608 73.9096 15.3608 74.4589H17.4287ZM18.6504 74.4618H20.7183C20.7183 73.3217 19.7955 72.3966 18.6553 72.3939L18.6504 74.4618ZM18.6504 78.9472V81.0151C19.7925 81.0151 20.7183 80.0892 20.7183 78.9472H18.6504ZM17.4287 78.9472H15.3608C15.3608 80.0892 16.2866 81.0151 17.4287 81.0151V78.9472ZM17.4287 77.0936H19.4966C19.4966 75.9516 18.5708 75.0257 17.4287 75.0257V77.0936ZM16.6631 77.0936V75.0257C15.521 75.0257 14.5952 75.9516 14.5952 77.0936H16.6631ZM16.6631 78.9472V81.0151C17.8052 81.0151 18.731 80.0892 18.731 78.9472H16.6631ZM15.4385 78.9472H13.3705C13.3705 80.0892 14.2964 81.0151 15.4385 81.0151V78.9472ZM15.4385 74.4589V72.3909C14.2964 72.3909 13.3705 73.3168 13.3705 74.4589H15.4385ZM16.6631 74.4589H18.731C18.731 73.3168 17.8052 72.3909 16.6631 72.3909V74.4589ZM30.2705 75.6542V73.5863L30.2671 73.5863L30.2705 75.6542ZM29.6895 76.8563L27.6215 76.8561V76.8563H29.6895ZM30.2705 78.0585L30.267 80.1264H30.2705V78.0585ZM30.8525 76.8563H32.9205V76.8561L30.8525 76.8563ZM84.1914 77.5477L82.152 77.2056C82.0524 77.7993 82.2164 78.4068 82.6012 78.8697C82.986 79.3325 83.5533 79.6048 84.1551 79.6154L84.1914 77.5477ZM84.8037 77.5585L84.7674 79.6261C85.3795 79.6368 85.9649 79.3758 86.3659 78.9134C86.767 78.4509 86.9426 77.8345 86.8454 77.2301L84.8037 77.5585ZM84.5352 75.8886L86.5769 75.5602C86.4156 74.5578 85.5505 73.8206 84.5352 73.8206V75.8886ZM84.4697 75.8886V73.8206C83.4597 73.8206 82.5974 74.5503 82.4303 75.5465L84.4697 75.8886ZM93.417 77.5477L91.3776 77.2056C91.278 77.7993 91.442 78.4068 91.8268 78.8697C92.2115 79.3325 92.7789 79.6048 93.3807 79.6154L93.417 77.5477ZM94.0293 77.5585L93.993 79.6261C94.6049 79.6368 95.1901 79.376 95.5911 78.9138C95.9922 78.4516 96.168 77.8355 96.0712 77.2313L94.0293 77.5585ZM93.7617 75.8886L95.8036 75.5614C95.6429 74.5584 94.7775 73.8206 93.7617 73.8206V75.8886ZM93.6953 75.8886V73.8206C92.6852 73.8206 91.823 74.5503 91.6559 75.5465L93.6953 75.8886ZM33.8828 76.5526H31.8149C31.8149 77.5992 32.5968 78.4808 33.636 78.6058L33.8828 76.5526ZM34.4951 75.9081L36.563 75.9086V75.9077L34.4951 75.9081ZM33.8828 75.4716L33.7505 73.4079C32.662 73.4777 31.8149 74.3809 31.8149 75.4716H33.8828ZM25.7852 76.5526H23.7172C23.7172 77.6005 24.501 78.4828 25.5417 78.6062L25.7852 76.5526ZM26.3975 75.9081L28.4654 75.9086V75.9077L26.3975 75.9081ZM25.7852 75.4716L25.6535 73.4078C24.5647 73.4773 23.7172 74.3806 23.7172 75.4716H25.7852ZM30.2959 74.5683V76.6362C30.1956 76.6362 30.1104 76.6092 30.0537 76.5792C30.0014 76.5515 29.9876 76.5296 29.9972 76.5416C30.0209 76.5712 30.0893 76.6892 30.0893 76.8948L32.1572 76.8944L34.2252 76.8941C34.2248 74.922 32.8723 72.5003 30.2959 72.5003V74.5683ZM32.1572 76.8944H30.0893C30.0893 77.2829 29.9855 77.3464 30.0438 77.2785C30.0711 77.2468 30.1167 77.2093 30.1765 77.1826C30.2347 77.1566 30.2794 77.1527 30.2959 77.1527V79.2206V81.2885C31.3817 81.2885 32.4308 80.8463 33.1802 79.9746C33.9123 79.1229 34.2252 78.0234 34.2252 76.8944H32.1572ZM30.2959 79.2206L30.2962 77.1527C30.3127 77.1527 30.3573 77.1566 30.4155 77.1826C30.4752 77.2093 30.5207 77.2467 30.548 77.2784C30.6063 77.3462 30.5025 77.2827 30.5025 76.8944H28.4346H26.3666C26.3666 78.0234 26.6796 79.1229 27.4117 79.9745C28.161 80.8461 29.21 81.2884 30.2956 81.2885L30.2959 79.2206ZM28.4346 76.8944L30.5025 76.8947C30.5025 76.5066 30.6063 76.4428 30.5482 76.5105C30.521 76.5421 30.4755 76.5795 30.4158 76.6062C30.3576 76.6322 30.3129 76.6362 30.2962 76.6362L30.2959 74.5683L30.2956 72.5003C29.2097 72.5005 28.1608 72.9431 27.4117 73.8146C26.6799 74.666 26.3668 75.7653 26.3666 76.8942L28.4346 76.8944ZM21.9424 74.4706L19.8745 74.4526L19.8657 75.4604L21.9336 75.4784L24.0014 75.4964L24.0102 74.4886L21.9424 74.4706ZM21.9336 75.4784L21.9419 73.4105L20.7261 73.4056L20.7178 75.4735L20.7095 77.5414L21.9253 77.5463L21.9336 75.4784ZM20.7178 75.4735H18.6498V76.164H20.7178H22.7857V75.4735H20.7178ZM20.7178 76.164V78.2319H21.7607V76.164V74.096H20.7178V76.164ZM21.7607 76.164H19.6928V77.1317H21.7607H23.8287V76.164H21.7607ZM21.7607 77.1317L21.7408 75.0639L20.7262 75.0737L20.7461 77.1415L20.766 79.2093L21.7806 79.1996L21.7607 77.1317ZM20.7461 77.1415H18.6782V77.9511H20.7461H22.814V77.1415H20.7461ZM20.7461 77.9511L20.7393 80.019L21.9327 80.0229L21.9395 77.955L21.9462 75.8871L20.7529 75.8831L20.7461 77.9511ZM21.9395 77.955L19.8715 77.9473L19.8676 79.003L21.9355 79.0106L24.0035 79.0183L24.0074 77.9626L21.9395 77.955ZM21.9355 79.0106L21.924 76.9427L19.4826 76.9564L19.4941 79.0243L19.5057 81.0922L21.9471 81.0785L21.9355 79.0106ZM19.4941 79.0243L21.5621 79.0239L21.5611 74.4692L19.4932 74.4696L17.4252 74.4701L17.4262 79.0247L19.4941 79.0243ZM19.4932 74.4696L19.4923 76.5375L21.9416 76.5385L21.9424 74.4706L21.9432 72.4027L19.494 72.4017L19.4932 74.4696ZM38.7793 74.4706L36.7114 74.4526L36.7027 75.4604L38.7705 75.4784L40.8384 75.4964L40.8471 74.4886L38.7793 74.4706ZM38.7705 75.4784L38.7788 73.4105L37.564 73.4056L37.5557 75.4735L37.5474 77.5414L38.7622 77.5463L38.7705 75.4784ZM37.5557 75.4735H35.4877V76.164H37.5557H39.6236V75.4735H37.5557ZM37.5557 76.164V78.2319H38.5977V76.164V74.096H37.5557V76.164ZM38.5977 76.164H36.5297V77.1317H38.5977H40.6656V76.164H38.5977ZM38.5977 77.1317L38.5778 75.0639L37.5631 75.0737L37.583 77.1415L37.6029 79.2093L38.6176 79.1996L38.5977 77.1317ZM37.583 77.1415H35.5151V77.9511H37.583H39.6509V77.1415H37.583ZM37.583 77.9511L37.5762 80.019L38.7696 80.0229L38.7764 77.955L38.7831 75.8871L37.5898 75.8831L37.583 77.9511ZM38.7764 77.955L36.7085 77.9473L36.7045 79.003L38.7725 79.0106L40.8404 79.0183L40.8443 77.9626L38.7764 77.955ZM38.7725 79.0106L38.7609 76.9427L36.3195 76.9564L36.3311 79.0243L36.3426 81.0922L38.784 81.0785L38.7725 79.0106ZM36.3311 79.0243H38.399V74.4696H36.3311H34.2631V79.0243H36.3311ZM36.3311 74.4696L36.3302 76.5375L38.7785 76.5385L38.7793 74.4706L38.7801 72.4027L36.3319 72.4017L36.3311 74.4696ZM24.5459 74.4794L24.5679 76.5472C24.7964 76.5448 25.0836 76.5323 25.2644 76.5268C25.4786 76.5202 25.6522 76.5186 25.8048 76.526C26.1575 76.543 26.1569 76.6012 26.0395 76.5229L27.1855 74.8016L28.3316 73.0804C27.506 72.5306 26.5915 72.4233 26.0044 72.3949C25.4718 72.3692 24.7204 72.4095 24.5239 72.4116L24.5459 74.4794ZM27.1855 74.8016L26.0391 76.5227C25.8154 76.3737 25.7573 76.1868 25.7451 76.1079C25.7333 76.0316 25.7344 75.8795 25.8633 75.7048L27.5273 76.9325L29.1914 78.1602C30.3233 76.626 30.0552 74.2285 28.332 73.0806L27.1855 74.8016ZM27.5273 76.9325L25.8646 75.7031C25.8992 75.6562 25.9488 75.6068 26.0089 75.5656C26.0665 75.5261 26.1128 75.5084 26.1313 75.5023C26.1471 75.4972 26.1379 75.5021 26.0915 75.5075C26.0446 75.5129 25.9768 75.5169 25.8779 75.5169L25.8779 77.5849L25.878 79.6528C26.5904 79.6528 28.1492 79.5697 29.1901 78.162L27.5273 76.9325ZM25.8779 77.5849H23.81V79.0067H25.8779H27.9459V77.5849H25.8779ZM25.8779 79.0067L25.8565 76.9389L24.5362 76.9526L24.5576 79.0204L24.579 81.0882L25.8993 81.0745L25.8779 79.0067ZM24.5576 79.0204L26.6255 79.0325C26.6345 77.5074 26.6308 75.9818 26.6137 74.4562L24.5459 74.4794L22.4781 74.5026C22.4949 76.0038 22.4985 77.5059 22.4897 79.0083L24.5576 79.0204ZM32.6445 74.4794L32.6666 76.5472C32.8952 76.5448 33.1824 76.5322 33.3632 76.5267C33.5774 76.5202 33.751 76.5185 33.9036 76.5259C34.2562 76.5429 34.2554 76.6011 34.1377 76.5227L35.2842 74.8016L36.4306 73.0806C35.6049 72.5305 34.6902 72.4232 34.1031 72.3949C33.5705 72.3691 32.8189 72.4095 32.6224 72.4116L32.6445 74.4794ZM35.2842 74.8016L34.1376 76.5226C33.9138 76.3735 33.8559 76.1867 33.8437 76.1078C33.8319 76.0317 33.8329 75.8797 33.9617 75.7051L35.626 76.9325L37.2902 78.16C38.4216 76.6259 38.1538 74.2287 36.4308 73.0807L35.2842 74.8016ZM35.626 76.9325L33.963 75.7033C33.9977 75.6563 34.0474 75.6069 34.1076 75.5656C34.1652 75.5261 34.2115 75.5083 34.23 75.5023C34.2459 75.4972 34.2366 75.5021 34.1902 75.5075C34.1432 75.5129 34.0754 75.5169 33.9764 75.5169L33.9766 77.5849L33.9767 79.6528C34.6886 79.6527 36.248 79.5699 37.2889 78.1617L35.626 76.9325ZM33.9766 77.5849H31.9086V79.0067H33.9766H36.0445V77.5849H33.9766ZM33.9766 79.0067L33.9552 76.9389L32.6348 76.9526L32.6562 79.0204L32.6777 81.0882L33.998 81.0745L33.9766 79.0067ZM32.6562 79.0204L34.7241 79.0325C34.7331 77.5074 34.7295 75.9818 34.7123 74.4562L32.6445 74.4794L30.5767 74.5026C30.5936 76.0038 30.5972 77.5059 30.5884 79.0083L32.6562 79.0204ZM52.6602 79.0204L52.6745 76.9525L51.4089 76.9437L51.3945 79.0116L51.3802 81.0795L52.6458 81.0883L52.6602 79.0204ZM51.3945 79.0116L53.4625 79.0107L53.4605 74.4795L51.3926 74.4804L49.3246 74.4813L49.3266 79.0125L51.3945 79.0116ZM51.3926 74.4804L51.4004 76.5483L52.6837 76.5434L52.6758 74.4755L52.6679 72.4076L51.3847 72.4124L51.3926 74.4804ZM52.6758 74.4755L50.6079 74.4684L50.5922 79.0133L52.6602 79.0204L54.7281 79.0275L54.7437 74.4826L52.6758 74.4755ZM45.7979 74.4765L43.73 74.4604L43.7222 75.4663L45.79 75.4823L47.8579 75.4984L47.8657 74.4925L45.7979 74.4765ZM45.79 75.4823L45.7982 73.4144L44.5648 73.4095L44.5566 75.4774L44.5485 77.5453L45.7819 77.5502L45.79 75.4823ZM44.5566 75.4774H42.4887V76.1659H44.5566H46.6246V75.4774H44.5566ZM44.5566 76.1659V78.2338H45.6143V76.1659V74.098H44.5566V76.1659ZM45.6143 76.1659H43.5463V77.1317H45.6143H47.6822V76.1659H45.6143ZM45.6143 77.1317L45.5947 75.0639L44.5644 75.0737L44.584 77.1415L44.6036 79.2093L45.6339 79.1996L45.6143 77.1317ZM44.584 77.1415H42.5161V77.9491H44.584H46.6519V77.1415H44.584ZM44.584 77.9491L44.5773 80.017L45.7892 80.0209L45.7959 77.953L45.8026 75.8851L44.5906 75.8812L44.584 77.9491ZM45.7959 77.953L43.728 77.9434L43.7231 78.9962L45.791 79.0058L47.8589 79.0153L47.8638 77.9626L45.7959 77.953ZM45.791 79.0058L45.7796 76.9379L43.303 76.9515L43.3145 79.0194L43.3259 81.0873L45.8024 81.0737L45.791 79.0058ZM43.3145 79.0194L45.3824 79.019L45.3814 74.475L43.3135 74.4755L41.2455 74.4759L41.2465 79.0199L43.3145 79.0194ZM43.3135 74.4755L43.3127 76.5434L45.797 76.5444L45.7979 74.4765L45.7987 72.4085L43.3143 72.4075L43.3135 74.4755ZM86.3496 79.0028L86.3259 76.935L85.0476 76.9497L85.0713 79.0175L85.095 81.0853L86.3733 81.0706L86.3496 79.0028ZM85.0713 79.0175L87.0964 78.599L86.9812 78.0413L84.9561 78.4599L82.9309 78.8784L83.0462 79.436L85.0713 79.0175ZM84.9561 78.4599V76.3919H84.0195V78.4599V80.5278H84.9561V78.4599ZM84.0195 78.4599L81.9814 78.1101L81.8857 78.6677L83.9238 79.0175L85.962 79.3673L86.0577 78.8097L84.0195 78.4599ZM83.9238 79.0175V76.9495H82.583V79.0175V81.0854H83.9238V79.0175ZM82.583 79.0175L84.5887 79.5209L85.7284 74.9809L83.7227 74.4774L81.7169 73.974L80.5773 78.514L82.583 79.0175ZM83.7227 74.4774L83.7251 76.5454L85.3667 76.5434L85.3643 74.4755L85.3618 72.4075L83.7202 72.4095L83.7227 74.4774ZM85.3643 74.4755L83.3436 74.9153L84.329 79.4426L86.3496 79.0028L88.3702 78.563L87.3849 74.0357L85.3643 74.4755ZM95.5762 79.0028L95.5525 76.935L94.2732 76.9497L94.2969 79.0175L94.3205 81.0853L95.5998 81.0706L95.5762 79.0028ZM94.2969 79.0175L96.3227 78.6024L96.2085 78.0448L94.1826 78.4599L92.1568 78.875L92.271 79.4326L94.2969 79.0175ZM94.1826 78.4599V76.3919H93.2461V78.4599V80.5278H94.1826V78.4599ZM93.2461 78.4599L91.2086 78.1066L91.1119 78.6642L93.1494 79.0175L95.1869 79.3707L95.2836 78.8131L93.2461 78.4599ZM93.1494 79.0175V76.9495H91.8086V79.0175V81.0854H93.1494V79.0175ZM91.8086 79.0175L93.8142 79.5214L94.9548 74.9813L92.9492 74.4774L90.9436 73.9736L89.803 78.5136L91.8086 79.0175ZM92.9492 74.4774L92.9517 76.5454L94.5923 76.5434L94.5898 74.4755L94.5874 72.4075L92.9468 72.4095L92.9492 74.4774ZM94.5898 74.4755L92.5693 74.9157L93.5556 79.443L95.5762 79.0028L97.5967 78.5626L96.6104 74.0353L94.5898 74.4755ZM69.5889 75.5614L69.6042 73.4935C69.3964 73.492 69.3052 73.4828 69.0035 73.4742C68.7623 73.4674 68.4371 73.4647 68.0796 73.5097L68.3379 75.5614L68.5961 77.6132C68.6379 77.6079 68.714 77.6035 68.8863 77.6084C68.9981 77.6116 69.3328 77.6275 69.5736 77.6293L69.5889 75.5614ZM68.3379 75.5614L66.2702 75.5942L66.28 76.2095L68.3477 76.1767L70.4153 76.1438L70.4056 75.5286L68.3379 75.5614ZM68.3477 76.1767L68.3319 78.2445C68.3444 78.2446 69.0543 78.2501 69.4788 78.2444L69.4512 76.1767L69.4235 74.1089C69.0511 74.1139 68.3876 74.109 68.3635 74.1088L68.3477 76.1767ZM69.4512 76.1767H67.3832V77.2225H69.4512H71.5191V76.1767H69.4512ZM69.4512 77.2225V75.1546H68.4248V77.2225V79.2905H69.4512V77.2225ZM68.4248 77.2225L66.3569 77.2086L66.352 77.9312L68.4199 77.9452L70.4878 77.9592L70.4927 77.2365L68.4248 77.2225ZM68.4199 77.9452L68.4043 80.0131L69.5694 80.0219L69.585 77.954L69.6006 75.8861L68.4355 75.8773L68.4199 77.9452ZM69.585 77.954L67.517 77.9617L67.521 79.0096L69.5889 79.0018L71.6568 78.9941L71.6529 77.9463L69.585 77.954ZM69.5889 79.0018L69.5462 76.9344C68.743 76.9509 67.9669 76.9436 67.1046 76.9476L67.1143 79.0155L67.1239 81.0834C67.9099 81.0797 68.7869 81.0867 69.6315 81.0693L69.5889 79.0018ZM67.1143 79.0155L69.182 78.9885C69.1625 77.4923 69.1762 76.017 69.1744 74.476L67.1064 74.4784L65.0385 74.4808C65.0402 75.9634 65.0266 77.5156 65.0465 79.0425L67.1143 79.0155ZM67.1064 74.4784V76.5463H69.5898V74.4784V72.4105H67.1064V74.4784ZM69.5898 74.4784L67.5219 74.4765L67.5209 75.5596L69.5889 75.5614L71.6568 75.5633L71.6578 74.4803L69.5898 74.4784ZM72.7412 75.5595L72.7227 73.4916L71.9609 73.4985L71.9795 75.5663L71.9981 77.6341L72.7598 77.6273L72.7412 75.5595ZM71.9795 75.5663L69.9116 75.5745L69.9253 79.013L71.9932 79.0048L74.0611 78.9966L74.0474 75.5581L71.9795 75.5663ZM71.9932 79.0048L71.9764 76.9369L70.6541 76.9477L70.6709 79.0155L70.6877 81.0834L72.01 81.0726L71.9932 79.0048ZM70.6709 79.0155L72.7388 79.0149L72.7379 75.5657L70.6699 75.5663L68.602 75.5669L68.603 79.0161L70.6709 79.0155ZM70.6699 75.5663L70.6808 73.4984L69.9356 73.4945L69.9248 75.5624L69.914 77.6303L70.6591 77.6342L70.6699 75.5663ZM69.9248 75.5624L71.9927 75.5699L71.9966 74.4868L69.9287 74.4794L67.8608 74.4719L67.8569 75.5549L69.9248 75.5624ZM69.9287 74.4794L69.9294 76.5473L72.7429 76.5463L72.7422 74.4784L72.7415 72.4105L69.928 72.4115L69.9287 74.4794ZM72.7422 74.4784L70.6747 74.4354C70.6666 74.8261 70.6727 75.2437 70.6733 75.563L72.7412 75.5595L74.8091 75.5559C74.8085 75.1551 74.8028 74.8508 74.8097 74.5214L72.7422 74.4784ZM91.8945 75.5624L91.8839 73.4945L91.1241 73.4984L91.1348 75.5663L91.1454 77.6342L91.9052 77.6303L91.8945 75.5624ZM91.1348 75.5663L89.0668 75.5721L89.0747 78.3787L91.1426 78.3729L93.2105 78.3672L93.2027 75.5605L91.1348 75.5663ZM91.1426 78.3729L89.0747 78.3666L89.0727 79.0053L91.1406 79.0116L93.2085 79.0179L93.2105 78.3793L91.1426 78.3729ZM91.1406 79.0116L91.136 76.9437L89.8264 76.9466L89.8311 79.0145L89.8357 81.0825L91.1452 81.0795L91.1406 79.0116ZM89.8311 79.0145L91.8985 78.9718C91.8753 77.8489 91.8928 76.7601 91.8912 75.5645L89.8232 75.5673L87.7553 75.57C87.7568 76.6712 87.7393 77.8844 87.7636 79.0573L89.8311 79.0145ZM89.8232 75.5673L89.8366 73.4994L89.0817 73.4945L89.0684 75.5624L89.055 77.6303L89.8099 77.6352L89.8232 75.5673ZM89.0684 75.5624L91.1363 75.5717L91.1412 74.4877L89.0732 74.4784L87.0053 74.4691L87.0005 75.5531L89.0684 75.5624ZM89.0732 74.4784V76.5463H91.8994V74.4784V72.4105H89.0732V74.4784ZM91.8994 74.4784L89.8315 74.4691L89.8266 75.5531L91.8945 75.5624L93.9624 75.5717L93.9673 74.4877L91.8994 74.4784ZM50.7637 74.4784L48.6957 74.4805L48.6967 75.4346L50.7646 75.4325L52.8326 75.4304L52.8316 74.4763L50.7637 74.4784ZM50.7646 75.4325V73.3646H49.6416V75.4325V77.5004H50.7646V75.4325ZM49.6416 75.4325H47.5737V76.1727H49.6416H51.7095V75.4325H49.6416ZM49.6416 76.1727V78.2407H50.6826V76.1727V74.1048H49.6416V76.1727ZM50.6826 76.1727L48.6147 76.1643L48.6108 77.1233L50.6787 77.1317L52.7466 77.1402L52.7505 76.1812L50.6826 76.1727ZM50.6787 77.1317V75.0638H49.7217V77.1317V79.1997H50.6787V77.1317ZM49.7217 77.1317L47.6538 77.1447L47.6655 79.0167L49.7334 79.0038L51.8013 78.9909L51.7896 77.1188L49.7217 77.1317ZM49.7334 79.0038L49.7192 76.9359L48.438 76.9447L48.4521 79.0126L48.4663 81.0805L49.7476 81.0717L49.7334 79.0038ZM48.4521 79.0126L50.5201 79.013L50.5211 74.4759L48.4531 74.4755L46.3852 74.475L46.3842 79.0121L48.4521 79.0126ZM48.4531 74.4755L48.4505 76.5434L50.7611 76.5463L50.7637 74.4784L50.7663 72.4105L48.4557 72.4075L48.4531 74.4755ZM88.1592 74.4755L86.0914 74.4468C86.0751 75.6222 86.0873 76.8215 86.0873 77.9491H88.1553H90.2232C90.2232 76.7623 90.2111 75.6426 90.2269 74.5042L88.1592 74.4755ZM88.1553 77.9491L88.1393 80.017L89.152 80.0248L89.168 77.9569L89.1839 75.8891L88.1712 75.8812L88.1553 77.9491ZM89.168 77.9569L87.1 77.9512L87.0971 79.0019L89.165 79.0077L91.233 79.0135L91.2359 77.9627L89.168 77.9569ZM89.165 79.0077L89.1624 76.9398L86.8665 76.9427L86.8691 79.0106L86.8718 81.0786L89.1677 81.0756L89.165 79.0077ZM86.8691 79.0106L88.9371 79.0097L88.9351 74.4756L86.8672 74.4765L84.7993 74.4773L84.8012 79.0115L86.8691 79.0106ZM86.8672 74.4765L86.8688 76.5444L88.1607 76.5434L88.1592 74.4755L88.1576 72.4075L86.8656 72.4085L86.8672 74.4765ZM58.4287 74.4755L56.396 74.8555C56.5323 75.5843 56.6437 76.3188 56.7304 77.0558L58.7842 76.8143L60.838 76.5729C60.7405 75.7439 60.615 74.917 60.4614 74.0954L58.4287 74.4755ZM58.7842 76.8143L60.8238 77.1554C60.9478 76.4139 61.1017 75.7 61.2641 74.8783L59.2354 74.4774L57.2066 74.0766C57.0617 74.8101 56.8819 75.6519 56.7446 76.4733L58.7842 76.8143ZM59.2354 74.4774L59.2304 76.5454L60.8573 76.5493L60.8623 74.4813L60.8673 72.4134L59.2403 72.4095L59.2354 74.4774ZM60.8623 74.4813L58.7948 74.5233C58.8264 76.0836 59.0759 77.9078 59.2895 79.3135L61.334 79.0028L63.3784 78.6921C63.1653 77.2895 62.9554 75.7027 62.9298 74.4394L60.8623 74.4813ZM61.334 79.0028L61.2778 76.9357C60.8563 76.9471 60.4818 76.9379 59.9643 76.9388L59.9678 79.0067L59.9713 81.0747C60.3631 81.074 60.903 81.0832 61.3902 81.07L61.334 79.0028ZM59.9678 79.0067L62.0351 78.9548C62.0151 78.1605 62.0197 77.1373 61.9315 76.1663L59.8721 76.3534L57.8126 76.5405C57.8845 77.3316 57.876 78.0845 57.9005 79.0586L59.9678 79.0067ZM59.8721 76.3534L57.8708 75.8325C57.7384 76.3413 57.6412 76.8481 57.5584 77.2978C57.4716 77.7692 57.4028 78.1637 57.3166 78.5542L59.3359 78.9999L61.3553 79.4455C61.4618 78.9631 61.5489 78.465 61.6259 78.0469C61.7069 77.6069 61.7815 77.227 61.8733 76.8744L59.8721 76.3534ZM59.3359 78.9999L59.2856 76.9326C58.9314 76.9412 58.6134 76.9361 58.184 76.9378L58.1924 79.0058L58.2008 81.0737C58.5328 81.0723 58.9794 81.0771 59.3863 81.0672L59.3359 78.9999ZM58.1924 79.0058L60.2533 78.8359C60.1744 77.8784 59.9085 76.6397 59.8116 76.008L57.7676 76.3212L55.7235 76.6344C55.8968 77.7656 56.0645 78.364 56.1314 79.1756L58.1924 79.0058ZM57.7676 76.3212L55.7021 76.2199L55.5713 78.8899L57.6367 78.9911L59.7022 79.0923L59.833 76.4224L57.7676 76.3212ZM57.6367 78.9911L57.5442 76.9252C57.136 76.9435 56.7446 76.9314 56.2073 76.9262L56.1875 78.994L56.1677 81.0619C56.5959 81.066 57.1728 81.0819 57.7293 81.057L57.6367 78.9911ZM56.1875 78.994L58.2276 79.3322C58.4631 77.9112 58.6978 75.9331 58.8305 74.6973L56.7744 74.4765L54.7183 74.2556C54.5874 75.4747 54.3628 77.3564 54.1474 78.6559L56.1875 78.994ZM56.7744 74.4765L56.7756 76.5444L58.4299 76.5434L58.4287 74.4755L58.4275 72.4075L56.7732 72.4085L56.7744 74.4765ZM79.2812 74.4755L77.2485 74.8555C77.3848 75.5843 77.4963 76.3188 77.5829 77.0558L79.6367 76.8143L81.6905 76.5729C81.593 75.7439 81.4676 74.917 81.314 74.0954L79.2812 74.4755ZM79.6367 76.8143L81.6763 77.1554C81.8003 76.4139 81.9542 75.7 82.1166 74.8783L80.0879 74.4774L78.0592 74.0766C77.9143 74.8101 77.7345 75.6519 77.5971 76.4733L79.6367 76.8143ZM80.0879 74.4774L80.0829 76.5454L81.7099 76.5493L81.7148 74.4813L81.7198 72.4134L80.0929 72.4095L80.0879 74.4774ZM81.7148 74.4813L79.6473 74.5233C79.679 76.0836 79.9284 77.9078 80.1421 79.3135L82.1865 79.0028L84.231 78.6921C84.0178 77.2895 83.808 75.7027 83.7823 74.4394L81.7148 74.4813ZM82.1865 79.0028L82.1303 76.9357C81.7088 76.9471 81.3343 76.9379 80.8168 76.9388L80.8203 79.0067L80.8238 81.0747C81.2156 81.074 81.7556 81.0832 82.2427 81.07L82.1865 79.0028ZM80.8203 79.0067L82.8876 78.9548C82.8677 78.1605 82.8723 77.1373 82.7841 76.1663L80.7246 76.3534L78.6652 76.5405C78.737 77.3316 78.7286 78.0845 78.753 79.0586L80.8203 79.0067ZM80.7246 76.3534L78.7234 75.8325C78.5909 76.3413 78.4938 76.8481 78.411 77.2978C78.3241 77.7692 78.2553 78.1637 78.1691 78.5542L80.1885 78.9999L82.2078 79.4455C82.3143 78.9631 82.4014 78.465 82.4784 78.0469C82.5595 77.6069 82.6341 77.227 82.7258 76.8744L80.7246 76.3534ZM80.1885 78.9999L80.1382 76.9326C79.7839 76.9412 79.4659 76.9361 79.0365 76.9378L79.0449 79.0058L79.0533 81.0737C79.3854 81.0723 79.8319 81.0771 80.2388 81.0672L80.1885 78.9999ZM79.0449 79.0058L81.1059 78.8359C81.0269 77.8784 80.761 76.6397 80.6642 76.008L78.6201 76.3212L76.576 76.6344C76.7494 77.7656 76.9171 78.364 76.984 79.1756L79.0449 79.0058ZM78.6201 76.3212L76.5547 76.2199L76.4238 78.8899L78.4893 78.9911L80.5547 79.0923L80.6856 76.4224L78.6201 76.3212ZM78.4893 78.9911L78.3967 76.9252C77.9885 76.9435 77.5971 76.9314 77.0599 76.9262L77.04 78.994L77.0202 81.0619C77.4484 81.066 78.0253 81.0819 78.5818 81.057L78.4893 78.9911ZM77.04 78.994L79.0801 79.3322C79.3157 77.9112 79.5503 75.9331 79.6831 74.6973L77.627 74.4765L75.5708 74.2556C75.4399 75.4747 75.2153 77.3564 74.9999 78.6559L77.04 78.994ZM77.627 74.4765L77.6282 76.5444L79.2825 76.5434L79.2812 74.4755L79.28 72.4075L77.6257 72.4085L77.627 74.4765ZM64.9873 74.5077L65.1134 76.5718C65.1012 76.5725 65.2409 76.5765 65.5213 76.6198C65.6322 76.6369 65.7334 76.6551 65.8069 76.669C65.8432 76.6759 65.8716 76.6815 65.8896 76.6851C65.8986 76.6869 65.905 76.6883 65.9084 76.689C65.91 76.6893 65.911 76.6895 65.9112 76.6895C65.9112 76.6896 65.9111 76.6895 65.9108 76.6895C65.9106 76.6894 65.9104 76.6894 65.9102 76.6893C65.91 76.6893 65.9099 76.6893 65.9098 76.6892C65.9097 76.6892 65.9095 76.6892 65.9095 76.6892C65.9094 76.6892 65.9092 76.6891 66.3369 74.6659C66.7646 72.6427 66.7644 72.6427 66.7643 72.6426C66.7642 72.6426 66.7641 72.6426 66.764 72.6426C66.7638 72.6425 66.7636 72.6425 66.7633 72.6424C66.7629 72.6423 66.7623 72.6422 66.7617 72.6421C66.7606 72.6418 66.7592 72.6415 66.7576 72.6412C66.7544 72.6405 66.7503 72.6397 66.7454 72.6387C66.7356 72.6367 66.7225 72.634 66.7065 72.6307C66.6744 72.6243 66.6301 72.6155 66.5763 72.6054C66.4697 72.5852 66.3209 72.5584 66.1527 72.5324C65.8749 72.4895 65.3398 72.4144 64.8612 72.4436L64.9873 74.5077ZM66.3369 74.6659L64.269 74.6733L64.2739 76.0483L66.3418 76.0409L68.4097 76.0336L68.4048 74.6586L66.3369 74.6659ZM66.3418 76.0409C68.0279 74.8437 68.0277 74.8434 68.0275 74.8431C68.0275 74.843 68.0273 74.8428 68.0271 74.8426C68.0269 74.8422 68.0266 74.8418 68.0263 74.8414C68.0257 74.8406 68.0251 74.8398 68.0245 74.8389C68.0232 74.8371 68.0218 74.8352 68.0203 74.8331C68.0173 74.8289 68.0138 74.824 68.0098 74.8185C68.0018 74.8075 67.9918 74.7939 67.98 74.7781C67.9566 74.7466 67.9253 74.7054 67.8875 74.6577C67.8146 74.5656 67.7048 74.4332 67.5706 74.2934C67.4473 74.165 67.2449 73.9686 66.9839 73.7948C66.7938 73.6682 66.193 73.2892 65.3746 73.3788L65.5996 75.4345L65.8247 77.4901C65.4607 77.53 65.1747 77.4549 65.0141 77.3972C64.8514 77.3386 64.7415 77.2705 64.6912 77.237C64.5965 77.1739 64.5615 77.1311 64.5876 77.1582C64.6028 77.174 64.6244 77.1991 64.6455 77.2257C64.6547 77.2373 64.661 77.2457 64.6635 77.2491C64.6647 77.2506 64.6647 77.2507 64.6635 77.249C64.6629 77.2482 64.6619 77.2469 64.6606 77.2451C64.66 77.2442 64.6593 77.2432 64.6584 77.242C64.658 77.2414 64.6576 77.2408 64.6571 77.2402C64.6569 77.2398 64.6567 77.2395 64.6564 77.2392C64.6563 77.239 64.6561 77.2387 64.6561 77.2387C64.6559 77.2384 64.6557 77.2381 66.3418 76.0409ZM65.5996 75.4345L65.3742 73.3789C65.021 73.4176 64.4124 73.5429 63.8841 74.0299C63.2864 74.581 63.1208 75.2809 63.1205 75.8024L65.1885 75.8036L67.2564 75.8048C67.2562 76.1114 67.1518 76.6426 66.6875 77.0707C66.2925 77.4348 65.8894 77.483 65.825 77.4901L65.5996 75.4345ZM65.1885 75.8036L63.1311 76.0125C63.2221 76.9084 63.7909 77.4475 63.9693 77.6112C64.1777 77.8025 64.4489 77.9924 64.5125 78.0392C64.6401 78.133 64.6563 78.1527 64.6435 78.1393C64.6221 78.1169 64.5037 77.9877 64.4317 77.7509L66.4102 77.1493L68.3886 76.5477C68.2139 75.9731 67.8965 75.5569 67.6332 75.2814C67.3784 75.0149 67.1097 74.8153 66.9626 74.7072C66.8651 74.6355 66.8348 74.6144 66.7823 74.5749C66.7396 74.5427 66.7432 74.5433 66.7659 74.5642C66.7852 74.5819 66.8748 74.6648 66.971 74.8108C67.0726 74.965 67.209 75.2317 67.2458 75.5947L65.1885 75.8036ZM66.4102 77.1493L64.4316 77.7506C64.3968 77.636 64.3946 77.5374 64.4032 77.4647C64.4118 77.393 64.4327 77.3295 64.4634 77.272L66.2871 78.247L68.1108 79.2219C68.5167 78.4626 68.6765 77.4949 68.3887 76.548L66.4102 77.1493ZM66.2871 78.247L64.4626 77.2735C64.4786 77.2436 64.528 77.1674 64.6223 77.0921C64.7144 77.0185 64.7897 76.9933 64.8 76.9903L65.3857 78.9735L65.9714 80.9568C66.8828 80.6876 67.6347 80.1142 68.1116 79.2204L66.2871 78.247ZM65.3857 78.9735L64.9463 76.9528C65.0049 76.9401 65.0433 76.9376 65.055 76.937C65.0676 76.9364 65.0662 76.9372 65.0492 76.9361C65.0116 76.9337 64.9508 76.9257 64.8719 76.9092C64.7109 76.8757 64.5898 76.8318 64.6236 76.8438L63.9326 78.7929L63.2416 80.7419C63.2995 80.7624 63.6145 80.872 64.0288 80.9583C64.3817 81.0317 65.0932 81.1534 65.8252 80.9942L65.3857 78.9735ZM63.9326 78.7929L66.0003 78.7641L65.9818 77.4311L63.9141 77.4599L61.8463 77.4886L61.8649 78.8216L63.9326 78.7929ZM63.9141 77.4599L62.5928 79.0506C62.8568 79.27 63.3391 79.6315 63.9222 79.8369C64.2137 79.9395 64.7237 80.0734 65.3238 79.9612C66.0317 79.8289 66.6365 79.3947 66.9935 78.756L65.1885 77.747L63.3834 76.7379C63.4852 76.5559 63.6432 76.3582 63.8722 76.1931C64.1015 76.0279 64.3447 75.9367 64.5639 75.8958C64.9641 75.821 65.2443 75.9176 65.2963 75.9359C65.4004 75.9726 65.365 75.9767 65.2354 75.8691L63.9141 77.4599ZM65.1885 77.747L66.9943 78.7547C67.2425 78.3099 67.3573 77.7723 67.2603 77.2131C67.1719 76.7027 66.9345 76.3325 66.7611 76.113C66.4547 75.7251 66.0527 75.4535 65.9273 75.3658C65.6968 75.2045 65.6464 75.1725 65.5952 75.129C65.5332 75.0761 65.7651 75.2418 65.8951 75.6331L63.9326 76.285L61.9701 76.937C62.0917 77.3028 62.2759 77.5879 62.4403 77.794C62.6041 77.9993 62.7756 78.1601 62.9133 78.2774C63.1603 78.4878 63.4632 78.6894 63.5559 78.7542C63.5891 78.7775 63.6131 78.7947 63.6317 78.8084C63.6407 78.815 63.6473 78.82 63.6519 78.8236C63.6565 78.8271 63.6585 78.8288 63.6583 78.8286C63.6581 78.8284 63.6549 78.8258 63.6493 78.8209C63.6438 78.816 63.6348 78.8079 63.6233 78.7968C63.6017 78.7758 63.5623 78.7357 63.5156 78.6766C63.431 78.5694 63.2535 78.313 63.1852 77.9195C63.1085 77.4771 63.204 77.0594 63.3827 76.7393L65.1885 77.747ZM63.9326 76.285L65.8952 75.6334C65.9834 75.8991 65.9097 76.0944 65.8531 76.1874C65.8107 76.257 65.6021 76.5418 65.114 76.5717L64.9873 74.5077L64.8606 72.4437C63.6445 72.5183 62.7752 73.29 62.3208 74.0362C61.8521 74.8057 61.615 75.8674 61.97 76.9367L63.9326 76.285ZM40.5898 74.4784L38.641 75.1699L39.1351 76.5625L41.084 75.871L43.0329 75.1794L42.5387 73.7869L40.5898 74.4784ZM41.084 75.871L43.0639 76.468L43.4838 75.0754L41.5039 74.4784L39.524 73.8814L39.1041 75.274L41.084 75.871ZM41.5039 74.4784L41.4967 76.5463L42.899 76.5512L42.9062 74.4833L42.9135 72.4154L41.5111 72.4105L41.5039 74.4784ZM42.9062 74.4833L41.0339 73.6054L39.8132 76.2089L41.6855 77.0868L43.5579 77.9647L44.7786 75.3612L42.9062 74.4833ZM41.6855 77.0868H39.6176V78.9862H41.6855H43.7535V77.0868H41.6855ZM41.6855 78.9862L41.6625 76.9184L40.3471 76.9331L40.3701 79.0009L40.3931 81.0687L41.7086 81.054L41.6855 78.9862ZM40.3701 79.0009H42.438V77.0868H40.3701H38.3022V79.0009H40.3701ZM40.3701 77.0868L42.2719 76.2746L41.1566 73.6633L39.2549 74.4755L37.3531 75.2877L38.4684 77.899L40.3701 77.0868ZM39.2549 74.4755L39.2503 76.5434L40.5853 76.5463L40.5898 74.4784L40.5944 72.4105L39.2594 72.4076L39.2549 74.4755ZM54.8037 77.9501L54.7977 80.018L55.8085 80.0209L55.8145 77.953L55.8204 75.8851L54.8097 75.8822L54.8037 77.9501ZM55.8145 77.953H53.7465V78.9989H55.8145H57.8824V77.953H55.8145ZM55.8145 78.9989L55.8179 76.931L53.4927 76.9271L53.4893 78.995L53.4858 81.0629L55.811 81.0668L55.8145 78.9989ZM53.4893 78.995L55.5572 78.9887L55.5435 74.4741L53.4756 74.4804L51.4077 74.4866L51.4213 79.0013L53.4893 78.995ZM53.4756 74.4804L53.4832 76.5483L54.8152 76.5434L54.8076 74.4755L54.8 72.4076L53.468 72.4124L53.4756 74.4804ZM54.8076 74.4755L52.7397 74.4732L52.7358 77.9478L54.8037 77.9501L56.8716 77.9524L56.8755 74.4778L54.8076 74.4755ZM14.9795 75.4735V73.4056H14.2148V75.4735V77.5415H14.9795V75.4735ZM14.2148 75.4735H12.1469V78.9472H14.2148H16.2828V75.4735H14.2148ZM14.2148 78.9472V76.8792H12.9277V78.9472V81.0151H14.2148V78.9472ZM12.9277 78.9472H14.9957V75.4892H12.9277H10.8598V78.9472H12.9277ZM12.9277 75.4892L12.9361 73.4212L12.2105 73.4183L12.2021 75.4862L12.1938 77.5541L12.9194 77.5571L12.9277 75.4892ZM12.2021 75.4862H14.2701V74.4696H12.2021H10.1342V75.4862H12.2021ZM12.2021 74.4696V76.5375H14.9795V74.4696V72.4017H12.2021V74.4696ZM14.9795 74.4696H12.9116V75.4735H14.9795H17.0474V74.4696H14.9795ZM16.6631 76.0907V78.1586H17.4287V76.0907V74.0228H16.6631V76.0907ZM17.4287 76.0907H19.4966V74.4589H17.4287H15.3608V76.0907H17.4287ZM17.4287 74.4589L17.4238 76.5268L18.6454 76.5297L18.6504 74.4618L18.6553 72.3939L17.4337 72.391L17.4287 74.4589ZM18.6504 74.4618H16.5825V78.9472H18.6504H20.7183V74.4618H18.6504ZM18.6504 78.9472V76.8792H17.4287V78.9472V81.0151H18.6504V78.9472ZM17.4287 78.9472H19.4966V77.0936H17.4287H15.3608V78.9472H17.4287ZM17.4287 77.0936V75.0257H16.6631V77.0936V79.1616H17.4287V77.0936ZM16.6631 77.0936H14.5952V78.9472H16.6631H18.731V77.0936H16.6631ZM16.6631 78.9472V76.8792H15.4385V78.9472V81.0151H16.6631V78.9472ZM15.4385 78.9472H17.5064V74.4589H15.4385H13.3705V78.9472H15.4385ZM15.4385 74.4589V76.5268H16.6631V74.4589V72.3909H15.4385V74.4589ZM16.6631 74.4589H14.5952V76.0907H16.6631H18.731V74.4589H16.6631ZM30.2705 75.6542L30.2671 73.5863C28.8665 73.5886 28.196 74.6967 27.9978 75.1069C27.7298 75.6615 27.6216 76.2824 27.6215 76.8561L29.6895 76.8563L31.7574 76.8566C31.7574 76.767 31.7793 76.7871 31.7216 76.9065C31.6928 76.966 31.6051 77.1309 31.4071 77.3043C31.1964 77.489 30.8082 77.7212 30.274 77.7221L30.2705 75.6542ZM29.6895 76.8563H27.6215C27.6215 77.4302 27.7296 78.0512 27.9977 78.6059C28.1963 79.0166 28.8668 80.1241 30.267 80.1264L30.2705 78.0585L30.274 75.9906C30.8079 75.9915 31.1959 76.2234 31.4068 76.4081C31.6048 76.5816 31.6927 76.7466 31.7215 76.8061C31.7793 76.9257 31.7574 76.946 31.7574 76.8563H29.6895ZM30.2705 78.0585V80.1264C31.6719 80.1264 32.3441 79.0186 32.5432 78.6076C32.8119 78.0526 32.9205 77.431 32.9205 76.8563H30.8525H28.7846C28.7846 76.9455 28.7627 76.9249 28.8208 76.805C28.8497 76.7454 28.9378 76.5802 29.1362 76.4069C29.3475 76.2222 29.7362 75.9906 30.2705 75.9906V78.0585ZM30.8525 76.8563L32.9205 76.8561C32.9204 76.2816 32.8118 75.66 32.5431 75.1052C32.3444 74.6947 31.6722 73.5863 30.2705 73.5863V75.6542V77.7221C29.7359 77.7221 29.3471 77.4903 29.1359 77.3056C28.9376 77.1322 28.8495 76.9672 28.8207 76.9076C28.7627 76.7879 28.7846 76.7675 28.7846 76.8566L30.8525 76.8563ZM84.1914 77.5477L84.1551 79.6154L84.7674 79.6261L84.8037 77.5585L84.84 75.4909L84.2277 75.4801L84.1914 77.5477ZM84.8037 77.5585L86.8454 77.2301L86.5769 75.5602L84.5352 75.8886L82.4935 76.2169L82.762 77.8868L84.8037 77.5585ZM84.5352 75.8886V73.8206H84.4697V75.8886V77.9565H84.5352V75.8886ZM84.4697 75.8886L82.4303 75.5465L82.152 77.2056L84.1914 77.5477L86.2308 77.8899L86.5092 76.2307L84.4697 75.8886ZM93.417 77.5477L93.3807 79.6154L93.993 79.6261L94.0293 77.5585L94.0656 75.4909L93.4533 75.4801L93.417 77.5477ZM94.0293 77.5585L96.0712 77.2313L95.8036 75.5614L93.7617 75.8886L91.7198 76.2157L91.9874 77.8857L94.0293 77.5585ZM93.7617 75.8886V73.8206H93.6953V75.8886V77.9565H93.7617V75.8886ZM93.6953 75.8886L91.6559 75.5465L91.3776 77.2056L93.417 77.5477L95.4564 77.8899L95.7347 76.2307L93.6953 75.8886ZM33.8828 76.5526L33.636 78.6058C33.7561 78.6202 34.3896 78.6946 35.0796 78.3672C35.4701 78.1819 35.8785 77.8663 36.1733 77.376C36.4624 76.8951 36.5629 76.3781 36.563 75.9086L34.4951 75.9081L32.4272 75.9076C32.4272 75.7954 32.4526 75.538 32.6287 75.245C32.8103 74.9428 33.0678 74.7439 33.3067 74.6306C33.6933 74.4472 34.0208 74.4864 34.1296 74.4995L33.8828 76.5526ZM34.4951 75.9081L36.563 75.9077C36.5629 75.3093 36.3564 74.7245 35.9427 74.2618C35.5668 73.8413 35.1298 73.6435 34.8419 73.5484C34.3034 73.3706 33.8261 73.403 33.7505 73.4079L33.8828 75.4716L34.0152 77.5353C33.9514 77.5394 33.7802 77.5534 33.5449 77.4757C33.4086 77.4306 33.1224 77.3125 32.8594 77.0184C32.5587 76.682 32.4272 76.2702 32.4272 75.9085L34.4951 75.9081ZM33.8828 75.4716H31.8149V76.5526H33.8828H35.9507V75.4716H33.8828ZM25.7852 76.5526L25.5417 78.6062C25.6655 78.6209 26.2997 78.6935 26.9891 78.3637C27.3791 78.1772 27.7854 77.8609 28.0782 77.3716C28.3654 76.8918 28.4653 76.3766 28.4654 75.9086L26.3975 75.9081L24.3295 75.9076C24.3296 75.7958 24.3547 75.5395 24.5294 75.2476C24.7098 74.9463 24.9659 74.7469 25.2047 74.6326C25.5917 74.4475 25.9199 74.4862 26.0287 74.4991L25.7852 76.5526ZM26.3975 75.9081L28.4654 75.9077C28.4653 75.3109 28.2599 74.7273 27.8477 74.2648C27.4728 73.8441 27.0367 73.6456 26.7486 73.5499C26.2101 73.3711 25.7325 73.4028 25.6535 73.4078L25.7852 75.4716L25.9168 77.5353C25.8526 77.5394 25.681 77.5533 25.445 77.4749C25.3081 77.4295 25.0223 77.3107 24.7599 77.0163C24.4603 76.6801 24.3296 76.2692 24.3295 75.9085L26.3975 75.9081ZM25.7852 75.4716H23.7172V76.5526H25.7852H27.8531V75.4716H25.7852Z" fill="white" mask="url(#path-2-outside-2_233_12662)"/>
<path d="M6.38281 20.7194C6.76907 20.4602 7.22365 20.2676 7.64146 20.0648C9.65887 19.086 11.6477 18.6304 13.855 18.3492C17.0279 17.9448 20.3823 17.9773 23.0195 20.0502C25.0536 21.649 26.2685 24.4144 26.575 26.95C27.1086 26.8847 27.6471 26.8177 28.185 26.8062C30.9184 26.7479 33.2362 27.9864 35.1671 29.8465C35.3329 27.0431 35.7555 24.2422 35.9539 21.4363C37.0203 21.0638 38.0945 20.652 39.2001 20.4156C42.2937 19.7544 46.9818 19.7723 49.9399 21.017C51.9475 21.8618 53.4603 23.3843 54.2813 25.4124C55.23 25.3316 56.1836 25.1573 57.1297 25.0398C59.9024 24.6955 62.678 24.3007 65.4544 23.996C65.4973 24.5493 65.5938 25.1052 65.6553 25.6577C66.2991 25.0207 66.9872 24.189 67.7383 23.6985C69.0478 25.5168 70.5073 27.2656 71.8938 29.0272C72.4818 29.7744 73.1193 30.5134 73.6395 31.3099C74.4147 29.6746 75.0813 27.9728 75.7968 26.3091C76.2682 25.2129 76.8618 24.0888 77.1985 22.9473C79.8886 23.5117 82.6098 23.9748 85.282 24.6214C85.5261 24.233 85.7557 23.8223 86.0755 23.4917C87.1729 23.2088 88.4279 23.1891 89.5558 23.0536L95.6234 22.2635C95.9104 24.5071 96.2731 26.7622 96.4216 29.0198C93.884 29.1186 91.3534 29.3298 88.8159 29.4223C88.9528 30.3338 89.0998 31.2438 89.2566 32.152L92.7025 32.2109C93.0583 33.7456 93.317 35.3128 93.6231 36.8588C92.4301 37.4174 91.2065 37.9108 89.9959 38.4299C89.855 39.5631 89.8925 40.9691 89.8068 42.1616C92.7454 41.2069 95.6563 40.1708 98.5979 39.2247C98.5443 39.8697 98.3982 40.5229 98.3079 41.1655C97.9903 43.3468 97.6406 45.5232 97.258 47.6939C93.7478 47.8561 90.2315 48.1873 86.7283 48.4708C85.1106 48.6017 83.4875 48.7615 81.866 48.8203C81.8522 47.2209 81.7665 45.6238 81.7213 44.0251L81.5285 36.2819C81.4872 34.8125 81.4045 33.3454 81.4083 31.875C80.7663 32.7587 80.2314 33.7731 79.6575 34.7069C78.8991 35.9395 78.065 37.1724 77.3871 38.4501C77.3992 39.5141 77.5973 40.6102 77.7182 41.6698L78.15 45.7844C78.2678 46.8776 78.4193 47.9693 78.4836 49.0673C75.4503 48.8639 72.3994 48.8485 69.3619 48.7111C69.4945 47.8323 69.5229 46.9144 69.5917 46.0274C69.7899 43.4712 69.8834 40.8982 70.1648 38.3494C69.1811 36.9686 67.8116 35.455 66.7214 34.1144C65.6424 32.7877 64.3896 31.0623 63.2117 29.8677C61.6463 30.0324 60.0447 30.0873 58.4715 30.1649C58.688 31.3797 58.8942 32.5962 59.0903 33.8144C60.2345 33.875 61.3906 33.8578 62.5368 33.8706C62.8538 35.1502 63.046 36.4685 63.3237 37.7584C62.1534 38.2691 60.9798 38.7721 59.8031 39.2674C60.3058 40.6028 60.7365 41.9635 61.2048 43.3116C62.8758 43.1675 64.5859 42.7504 66.2388 42.4474C66.4699 43.8165 66.6819 45.1921 66.8849 46.5657C66.9737 47.1669 67.027 47.7719 67.1397 48.3694C64.7826 48.6505 62.3993 48.7229 60.0341 48.9104L55.4368 49.2771C54.4894 49.3521 53.5422 49.4542 52.5916 49.4729C52.5668 47.0961 52.4345 44.7039 52.3572 42.3269C52.2964 40.4601 52.2946 38.5901 52.239 36.7222C51.7815 37.0925 51.3782 37.5433 50.9199 37.9205C48.9821 39.5154 46.8504 40.64 44.3707 41.0434C44.51 41.8604 44.5713 42.7011 44.6615 43.5253C44.7726 44.5412 44.9089 45.5613 44.9745 46.5813L44.3618 46.6888C44.4421 47.0676 44.4684 47.4669 44.5128 47.8519C43.3702 47.8838 42.1688 48.1877 41.0426 48.3851L36.8452 49.0841C35.6445 49.2937 34.4387 49.5454 33.2279 49.6825C33.441 48.4696 33.4262 47.2094 33.626 45.9891C32.32 46.8091 31.0168 47.4023 29.4827 47.6245C27.0711 47.974 24.5814 47.2566 22.6432 45.7872C20.351 44.0495 19.0214 41.4698 18.6245 38.6364C18.6105 38.7593 18.63 38.9004 18.525 38.9797C18.3352 39.1232 17.9578 39.0531 17.7376 39.0159C17.6855 39.0072 17.6406 38.9929 17.5906 38.9763C17.2419 39.0855 16.8926 39.1926 16.5427 39.2976C17.0199 41.4788 17.5551 43.6513 18.048 45.8297C14.3832 46.8081 10.793 48.0752 7.1292 49.0615C7.0336 47.7992 7.04298 46.5248 7.01091 45.2596C6.93913 43.1834 6.88231 41.1068 6.84046 39.0298C6.6322 32.9279 6.47964 26.8242 6.38281 20.7194Z" fill="white"/>
<path d="M17.5942 38.9746C17.9322 38.8409 18.2676 38.6919 18.6282 38.6348C18.6141 38.7577 18.6337 38.8987 18.5287 38.9781C18.3389 39.1215 17.9615 39.0514 17.7412 39.0143C17.6891 39.0056 17.6443 38.9913 17.5942 38.9746Z" fill="#111010"/>
<path d="M16.1819 19.407C17.8349 19.28 19.7267 19.5493 21.196 20.3309C23.1513 21.3708 24.3457 23.271 24.9809 25.3569C25.6488 27.5501 25.3265 29.5133 24.2744 31.515C22.8996 34.1308 20.6509 36.405 17.907 37.5409C17.0144 37.9105 16.0261 38.1487 15.1028 38.4348C15.5528 40.6222 16.1539 42.7804 16.5887 44.97C16.391 45.0366 16.1812 45.0848 15.9799 45.1409C13.424 45.9205 10.8641 46.6864 8.30003 47.4383C8.23619 46.014 8.24013 44.5863 8.19869 43.1613L7.90863 32.7365C7.81117 28.9702 7.5977 25.1905 7.60111 21.4239C8.31702 21.129 9.01026 20.7651 9.73709 20.5003C11.7989 19.7489 14.0073 19.5134 16.1819 19.407Z" fill="#EE1D22"/>
<path d="M15.3161 23.8285C15.8024 23.7997 16.3331 23.8724 16.7995 24.0098C17.7673 24.2949 18.6781 24.9994 19.163 25.8967C19.6103 26.7243 19.6979 27.7924 19.4204 28.6896C19.006 30.0294 17.85 30.9607 16.6567 31.579C15.3864 32.3185 14.1455 32.175 12.7567 31.9955C12.7331 29.6319 12.7957 27.2611 12.8187 24.897C13.5695 24.1872 14.3148 23.935 15.3161 23.8285Z" fill="white"/>
<path d="M15.0595 25.0663C15.3181 25.0464 15.5995 25.0392 15.8571 25.068C16.6258 25.1541 17.4014 25.5403 17.8777 26.1636C18.2608 26.6587 18.428 27.2895 18.3413 27.9115C18.1999 28.9026 17.4651 29.582 16.7121 30.1499C15.7828 30.755 15.0248 30.8304 13.9497 30.7947C13.9868 29.0192 13.9728 27.2417 14.0241 25.4669C14.3514 25.2698 14.6872 25.144 15.0595 25.0663Z" fill="#212021"/>
<path d="M42.3891 21.2763C44.5482 21.1677 46.6409 21.3029 48.7242 21.9087C50.6832 22.4784 52.0696 23.823 53.0383 25.5948L51.875 25.728C51.875 25.728 52.1465 31.7877 52.1551 34.8036C49.7917 37.943 46.3626 39.6728 42.4906 40.0654C42.6095 42.313 43.1498 46.802 43.1498 46.802L34.6455 48.215L34.9524 44.8924C36.0818 43.5644 37.071 42.1546 37.5546 40.447C38.4792 37.1822 38.125 34.0939 36.2566 31.1943C36.6927 28.2623 36.7982 25.2611 37.1298 22.3122C38.9318 21.7021 40.4882 21.3672 42.3891 21.2763Z" fill="#EE1D22"/>
<path d="M43.9615 25.6413C44.5816 25.6211 45.2208 25.7165 45.7993 25.9462C46.7545 26.3255 47.6007 27.1046 48.0026 28.0626C48.3887 28.9831 48.4052 29.9414 48.0192 30.8633C47.4542 32.2134 46.243 32.9445 44.9592 33.4781C43.5114 34.0437 42.4022 33.7923 40.9629 33.4123C41.1138 31.9191 41.3109 30.4194 41.5071 28.9316C41.6165 28.1009 41.6825 27.2206 41.8841 26.4103C42.5026 25.8926 43.1774 25.73 43.9615 25.6413Z" fill="white"/>
<path d="M43.5212 26.891C43.8722 26.8727 44.2389 26.8387 44.5877 26.8917C45.371 27.0107 46.1293 27.4283 46.6021 28.0784C46.9703 28.5847 47.1394 29.2449 47.0374 29.8665C46.9043 30.6773 46.3956 31.2191 45.757 31.6797C44.7785 32.2186 43.9269 32.3203 42.835 32.1315C42.9564 31.0217 43.1059 29.9091 43.2412 28.8005C43.3139 28.2045 43.3257 27.4545 43.5212 26.891Z" fill="#212021"/>
<path d="M33.3748 29.8696C37.3718 33.1079 37.8638 39.3532 34.6719 43.3338C33.1558 45.2245 30.8009 46.4102 28.3851 46.4506C23.8223 46.5272 19.8974 42.4691 19.8403 37.9C24.3159 35.3681 26.2923 32.0862 27.1473 28.0342C30.1318 27.8798 32.2665 28.9721 33.3748 29.8696Z" fill="#EE1D22"/>
<path d="M27.7859 35.0278C30.0061 34.6724 32.0902 36.2036 32.4357 38.4439C32.7812 40.6842 31.2565 42.7814 29.0341 43.1229C26.8214 43.4629 24.7531 41.9334 24.4092 39.7029C24.0653 37.4724 25.5754 35.3816 27.7859 35.0278Z" fill="white"/>
<path d="M28.0309 36.2327C29.5834 36.0149 31.0167 37.1082 31.2316 38.6741C31.4467 40.2399 30.3618 41.6848 28.8091 41.9007C27.2577 42.1164 25.8264 41.0234 25.6116 39.4589C25.3968 37.8943 26.4797 36.4503 28.0309 36.2327Z" fill="#212021"/>
<path d="M28.1908 39.0586C28.267 39.0611 28.3452 39.0605 28.4204 39.075C28.6262 39.1147 28.8443 39.2924 28.9496 39.4728C29.0816 39.699 29.0793 39.9701 29.0162 40.2178C28.9232 40.5834 28.6968 40.7497 28.3951 40.9321C28.3693 40.9297 28.3434 40.9281 28.3176 40.9249C28.0926 40.8965 27.8309 40.7076 27.7093 40.5175C27.558 40.2813 27.5534 39.9939 27.6203 39.729C27.7035 39.3995 27.9209 39.2282 28.1908 39.0586Z" fill="white"/>
<path d="M94.5193 23.7031L95.0642 27.8301L87.3399 28.2895L88.1939 33.3535L91.7431 33.405L92.2121 36.1234L88.8436 37.5982L88.477 43.9328L97.0729 41.0065L96.248 46.5011L83.0683 47.4855L82.6597 31.3909L86.7828 24.6275L94.5193 23.7031Z" fill="#EE1D22"/>
<path d="M77.9923 24.3672L83.8142 25.5544L76.1407 38.0996L77.1198 47.7663L70.6853 47.519L71.4186 37.8969L64.0811 28.8792L67.5692 25.5169L73.9699 33.6937L77.9923 24.3672Z" fill="#EE1D22"/>
<path d="M64.3654 25.3691L61.1267 28.7288L56.9372 28.8222L58.0252 35.0211L61.5129 35.0595L61.8881 37.0249L58.3035 38.5801L60.3648 44.713L65.225 43.9139L65.6444 47.2453L53.8027 48.084L53.1597 26.7662C55.5996 26.4703 64.3654 25.3691 64.3654 25.3691Z" fill="#EE1D22"/>
<path d="M48.5178 51.6441L49.2723 51.6367C49.5407 55.6948 49.5761 59.7651 49.8421 63.8238C51.8253 63.6501 53.8108 63.5038 55.7979 63.3848C55.8187 64.909 55.9094 66.4314 55.9511 67.9553L59.6322 52.569C61.1075 52.5574 62.5839 52.5741 64.0593 52.579C64.524 54.0423 65.1436 55.4788 65.6893 56.9149C66.5578 59.2004 67.4003 61.5013 68.2974 63.7751C68.9816 65.433 69.5648 67.1392 70.2242 68.8084C69.4826 68.928 68.6965 68.9225 67.946 68.9771C66.954 69.0492 65.9647 69.1694 64.9709 69.2134C64.6477 68.2244 64.3137 67.2384 64.053 66.2302C63.17 66.3844 62.2844 66.523 61.3967 66.6457C61.2343 67.556 61.0837 68.4684 60.945 69.3827C59.2094 69.3937 57.446 69.1024 55.7073 69.0221C55.7887 68.7457 55.8437 68.4611 55.9043 68.1795C54.7157 68.3873 53.0141 68.4055 51.7591 68.4979C49.5778 68.6585 47.3619 68.926 45.1757 68.9259C45.1623 67.8345 45.0575 66.7479 45.0136 65.6581C44.7864 61.0138 44.5208 56.3715 44.2168 51.7317C45.6479 51.7317 47.0856 51.6645 48.5178 51.6441Z" fill="white"/>
<path d="M60.1239 53.3203L63.2344 53.3222L68.7045 67.792L65.3813 68.0297L64.4677 65.0297L60.3901 65.667L59.9487 68.1951L56.6724 68.0076L60.1239 53.3203Z" fill="#EE1D22"/>
<path d="M61.7059 56.8633L63.6907 62.2334L59.1621 62.887L59.9508 57.0113L61.7059 56.8633Z" fill="white"/>
<path d="M61.0602 57.4336L62.6074 61.6433L60.4458 61.9774L61.0602 57.4336Z" fill="#212021"/>
<path d="M45.0029 52.4282L48.2047 52.4082L48.7215 64.6106L54.6988 64.2033L54.7635 67.0726C54.7635 67.0726 48.0225 67.6428 45.8997 67.8068L45.0029 52.4282Z" fill="#EE1D22"/>
<path d="M17.8579 51.9012C19.885 51.8306 21.9348 51.8912 23.9638 51.8949C23.7605 52.7546 23.4713 53.5923 23.2283 54.4411L21.4156 60.6856L19.7568 66.4156C19.5159 67.237 19.3355 68.1127 19.0296 68.91C17.1171 69.0814 15.1692 69.1899 13.2502 69.2321C13.0471 68.6884 12.9075 68.1183 12.7363 67.5633C12.3489 66.3225 11.971 65.0787 11.6027 63.832C10.99 61.9918 10.4801 60.1127 9.90024 58.2615L8.87166 54.8971C8.6223 54.0836 8.34756 53.2804 8.15967 52.4492C10.1414 52.3725 12.1707 52.1771 14.141 51.9405C14.2269 52.6821 14.471 53.4481 14.6239 54.1825C15.0436 56.1987 15.4717 58.2435 15.9606 60.2426C16.6062 57.466 17.19 54.672 17.8579 51.9012Z" fill="white"/>
<path d="M18.4111 52.5879L22.535 52.5967L18.1319 67.8453L13.7198 68.0762L9.16797 53.1108L13.2105 52.7419L14.8193 60.2484L16.6389 60.2411L18.4111 52.5879Z" fill="#EE1D22"/>
<path d="M81.5148 51.8093C81.863 51.7652 82.2326 51.7744 82.5839 51.7598C82.5938 52.7914 83.0468 54.6951 83.2435 55.8008C80.9248 56.3489 77.0079 55.9839 75.1753 57.5824C74.3487 58.3035 73.9519 59.2891 73.8813 60.3743C73.8122 61.4381 74.0194 62.5084 74.7359 63.3248C76.2898 65.0952 78.9689 65.3413 81.149 65.4769C81.1039 64.0182 80.8039 62.5712 80.7534 61.1082C79.9614 61.319 79.1808 61.5622 78.3842 61.7613C78.359 60.763 78.235 59.696 78.0751 58.7101C80.1848 58.7021 82.3137 58.7165 84.4227 58.7948L84.4434 62.0298C84.4396 64.3658 84.4633 66.7019 84.5153 69.0374C80.4917 69.2625 74.6913 69.2085 71.4193 66.5647C69.9864 65.407 69.0537 63.7591 68.8561 61.9092C68.6255 59.7514 69.1527 57.716 70.5087 56.0209C72.5562 53.4615 75.8868 52.3359 79.027 51.9634C79.8512 51.8656 80.6861 51.9002 81.5148 51.8093Z" fill="white"/>
<path d="M81.965 54.823C81.8104 54.0487 81.7048 53.2729 81.6038 52.4902C78.1901 52.5595 74.1935 53.1861 71.6465 55.7038C70.3155 57.0195 69.5362 58.7389 69.5255 60.6288C69.5159 62.3277 70.0331 63.9415 71.2466 65.1633C74.2048 68.1419 79.5185 67.8912 83.3906 67.9069C83.3577 65.0769 83.2988 59.498 83.2988 59.498L78.9339 59.4471L78.9889 60.2235L81.3627 59.6466C81.3627 59.6466 81.7558 64.0722 82.0009 66.1938C79.468 66.2248 76.7335 66.0236 74.6171 64.453C72.5058 62.8863 72.0894 59.5162 73.6859 57.4183C75.5529 54.965 79.1979 55.2287 81.965 54.823Z" fill="#EE1D22"/>
<path d="M94.9563 51.808C95.1545 51.7709 95.3917 51.7814 95.5945 51.7715C95.7453 53.045 95.8424 54.3333 96.0338 55.6009C94.1099 55.72 92.1532 55.7489 90.2248 55.7786C90.3197 56.7006 90.5332 57.6301 90.6633 58.5511C91.5273 58.6244 92.4019 58.5968 93.2697 58.6619C93.4648 59.5268 93.5934 60.4005 93.709 61.2788C92.8328 61.6184 91.942 61.9107 91.0696 62.2653L90.8026 65.7992L97.3469 63.9026C97.1977 65.1071 96.9237 66.3019 96.6903 67.4924C96.5977 67.911 96.5113 68.331 96.4325 68.7522C95.104 68.9039 93.7732 68.8896 92.441 68.9518C90.1919 69.0765 87.9429 69.1844 85.6923 69.2755L85.563 52.7174C88.6966 52.4434 91.828 52.1403 94.9563 51.808Z" fill="white"/>
<path d="M94.5016 52.6094L94.7579 54.5001L88.9352 54.5891L89.6844 59.2137L92.3053 59.3394L92.4806 60.4928L89.9736 61.4233L89.5466 66.8666L95.9264 65.0552L95.4489 67.6737L86.403 68.1043L86.2959 53.3258L94.5016 52.6094Z" fill="#EE1D22"/>
<path d="M35.2326 52.214C35.9695 52.1774 36.7111 52.1824 37.4488 52.1719C37.4566 53.3062 37.556 54.4342 37.5985 55.567L37.9662 64.3187C39.9407 64.1988 41.9546 64.1026 43.9174 63.8582C44.0057 65.4787 44.0134 67.0971 44.0893 68.7166C43.1247 68.7625 42.1606 68.8554 41.1967 68.9199C40.1986 68.9213 39.19 69.0357 38.1943 69.1115L33.3526 69.4651C33.3215 68.0968 33.1859 66.7185 33.1086 65.3511L32.7075 57.9404C32.5954 56.0436 32.4427 54.1432 32.3848 52.2444C33.3341 52.2405 34.2834 52.2304 35.2326 52.214Z" fill="white"/>
<path d="M36.3556 52.8867L36.8797 65.1223L42.8595 64.6787L42.9482 67.6587L33.9939 68.2144L33.1313 52.9691L36.3556 52.8867Z" fill="#EE1D22"/>
<path d="M29.9587 50.9618C30.0205 50.9535 30.0968 50.9659 30.1598 50.9688C30.2514 51.0965 30.2549 51.224 30.2712 51.3769C30.3497 52.1136 30.3608 52.8616 30.4326 53.6015C30.7552 56.6466 31.0461 59.6951 31.3052 62.7464C31.4573 64.488 31.6825 66.2267 31.8026 67.9704C30.1056 68.0378 28.3979 68.0616 26.699 68.1009C26.6283 68.0857 26.611 68.0668 26.5569 68.021C26.1971 64.831 25.9131 61.6342 25.5828 58.4416C25.3331 56.0285 25.0191 53.6116 24.8379 51.193C26.5454 51.1439 28.2514 51.0292 29.9587 50.9618Z" fill="white"/>
<path d="M29.186 51.7168L30.6089 66.8783L27.1975 66.998L25.6914 51.8785L29.186 51.7168Z" fill="#EE1D22"/>
<path d="M73.8291 76.1766L75.405 76.1758L75.3974 77.052L73.832 77.0613L73.8291 76.1766Z" fill="#212021"/>
</svg>
