<svg preserveAspectRatio="none" width="100%" height="100%" overflow="visible" style="display: block;" viewBox="0 0 142.2 58.2082" fill="none" xmlns="http://www.w3.org/2000/svg">
<path id="Union" d="M43.9338 0.500023L44.1668 0.942407C44.3788 0.830745 44.4818 0.584388 44.4123 0.355073C44.3429 0.125758 44.1205 -0.0220462 43.8822 0.00269532L43.9338 0.500023ZM40.1682 26.041L39.8534 26.4295C39.9415 26.5009 40.0512 26.5402 40.1646 26.541L40.1682 26.041ZM135.743 26.7364L135.747 26.2364H135.747L135.743 26.7364ZM141.687 33.1358L142.186 33.1691V33.1691L141.687 33.1358ZM140.482 51.1592L139.983 51.1258V51.1259L140.482 51.1592ZM134.54 56.7598L134.537 56.2598V56.2598L134.54 56.7598ZM7.78929 57.708L7.79299 58.208H7.79303L7.78929 57.708ZM1.75609 52.0821L1.25706 52.1132L1.25706 52.1132L1.75609 52.0821ZM0.511947 32.1709L1.01097 32.1397L1.01097 32.1397L0.511947 32.1709ZM6.54417 25.7969L6.54054 26.2969H6.54055L6.54417 25.7969ZM23.9241 25.9229L23.9204 26.4229C24.0607 26.4239 24.1949 26.366 24.2903 26.2633C24.3858 26.1605 24.4337 26.0225 24.4224 25.8827L23.9241 25.9229ZM43.9338 0.500023L43.7008 0.0576379C37.6558 3.2417 34.4883 8.05302 33.9526 12.9935C33.4175 17.928 35.5175 22.916 39.8534 26.4295L40.1682 26.041L40.483 25.6526C36.3885 22.3347 34.4513 17.6703 34.9467 13.1013C35.4415 8.53816 38.372 3.99466 44.1668 0.942407L43.9338 0.500023ZM40.1682 26.041L40.1646 26.541L135.74 27.2363L135.743 26.7364L135.747 26.2364L40.1718 25.5411L40.1682 26.041ZM135.743 26.7364L135.74 27.2363C138.906 27.2594 141.399 29.9436 141.188 33.1024L141.687 33.1358L142.186 33.1691C142.435 29.4357 139.488 26.2636 135.747 26.2364L135.743 26.7364ZM141.687 33.1358L141.188 33.1024L139.983 51.1258L140.482 51.1592L140.981 51.1926L142.186 33.1691L141.687 33.1358ZM140.482 51.1592L139.983 51.1259C139.791 53.999 137.416 56.2383 134.537 56.2598L134.54 56.7598L134.544 57.2598C137.947 57.2343 140.754 54.5878 140.981 51.1925L140.482 51.1592ZM134.54 56.7598L134.537 56.2598L7.78555 57.208L7.78929 57.708L7.79303 58.208L134.544 57.2598L134.54 56.7598ZM7.78929 57.708L7.78559 57.208C4.86564 57.2297 2.43728 54.9652 2.25511 52.0509L1.75609 52.0821L1.25706 52.1132C1.47235 55.5575 4.34214 58.2336 7.79299 58.208L7.78929 57.708ZM1.75609 52.0821L2.25511 52.0509L1.01097 32.1397L0.511947 32.1709L0.0129206 32.2021L1.25706 52.1132L1.75609 52.0821ZM0.511947 32.1709L1.01097 32.1397C0.812092 28.9576 3.35223 26.2737 6.54054 26.2969L6.54417 25.7969L6.54781 25.2969C2.7799 25.2695 -0.222126 28.4414 0.012921 32.2021L0.511947 32.1709ZM6.54417 25.7969L6.54055 26.2969L23.9204 26.4229L23.9241 25.9229L23.9277 25.4229L6.5478 25.2969L6.54417 25.7969ZM23.9241 25.9229L24.4224 25.8827C23.4613 13.9629 31.3595 2.30811 43.9855 0.99735L43.9338 0.500023L43.8822 0.00269532C30.6268 1.3788 22.4285 13.5955 23.4257 25.9631L23.9241 25.9229Z" fill="var(--stroke-0, black)"/>
</svg>
