<svg xmlns="http://www.w3.org/2000/svg" fill="none" overflow="visible" preserveAspectRatio="none" style="display:block" viewBox="0 0 117.5 81.2"><mask id="a" width="118" height="78" x="-.3" y="-.3" fill="#000" maskUnits="userSpaceOnUse"><path fill="#fff" d="M-.3-.3h118v78H-.3z"/><path fill-rule="evenodd" d="M67.8 4.7a4 4 0 0 1 4.4 2.7q.6 1.7-.4 3.3 1.3 1.5 2.3 3c1-.7 4.7-3 5.8-3.4q.7-.3 1.4.3.3.7-.2 1.3c-.9 1-5.3 4-5.3 4l3.7 5.7 5.4 1.2.4-.5 12.3-1.5 1.3 11-4.1.1 1.3 6.9 5.2-1.8-2 12.8c1 1.3 2.6 2.5 4.4 2 3.9-1 6.1-6 5.2-9.8q-1.7.7-3.4-.2c1.9-2.2 1.7-5.2 1-7.8 3 1.5 6.4 4.2 6.3 8q-.7-.7-1.8-.5c2.2 5 0 10-3 14.3l-2 2.5q-1.3 2.4-.7 5.3-2.2-1.6-4.8-1.2L98.6 72q-7.7.6-15.5.7v-.3q-3.3.1-6.7-.4l-2.5-.5v.3l-9 .7q-3 .3-6.2 0l-6.2-.4-.1-.3-9.4.7V72L31 73v-1.7l-6.7.2-.8-7.5-2.4 8.2-9.7.5c-2.3-7.3-6.6-22-6.6-22h1l-1-30.8c5-3.3 13-4.9 18.2-1.8 2.8 1.6 4.3 4.4 5 7.5 2.4 0 4 .4 6 1.5l.7-6.8s2.7-1.1 4.2-1.5c2.8-.8 6.3-.8 9.1-.4 3.8.6 5.8 2 8 5l3.6-.5 5-.6c.7-.1 2-.1 2.5-.4.4-.1 1.1-.9 1.1-.9l5.3 6.7 1.8-4.3-3.1-5s-5.3 3.4-6.5 3.3q-.8-.2-.7-1c.2-1 1.3-1.6 2-2.2l3.9-2.7-1.6-3c-2.3.2-4.5-1-4.9-3.5a4 4 0 0 1 3.5-4.6M41.4 50.5l-1.4.2.5 11.5 1.7-.2zm16 .9-5.5.4.5 9.8 2.6-.1zm10-.9-1.5.2 2 5.2q2.2-3.2 5.8-4.7l-6.2-.3zm-47.7-3.8L6.8 50.6l8.9-.7H22v-.5h1.1s-1.5-.8-2.5-1.8zm30.8-5.3s-2.1 1.2-3.3 1.5l.6 6.5-1.8.3h4.8zm14.6-6 .7 3.8-3.3 1.4.3.6 5.4-.8v-1zm3.6-28c-.7.2-1.3.9-1 1.6.2.8 1.4 1.3 2 .5.4-.7 0-2.2-1-2.1" clip-rule="evenodd"/></mask><path fill="var(--fill-0, #212021)" fill-rule="evenodd" d="M67.8 4.7a4 4 0 0 1 4.4 2.7q.6 1.7-.4 3.3 1.3 1.5 2.3 3c1-.7 4.7-3 5.8-3.4q.7-.3 1.4.3.3.7-.2 1.3c-.9 1-5.3 4-5.3 4l3.7 5.7 5.4 1.2.4-.5 12.3-1.5 1.3 11-4.1.1 1.3 6.9 5.2-1.8-2 12.8c1 1.3 2.6 2.5 4.4 2 3.9-1 6.1-6 5.2-9.8q-1.7.7-3.4-.2c1.9-2.2 1.7-5.2 1-7.8 3 1.5 6.4 4.2 6.3 8q-.7-.7-1.8-.5c2.2 5 0 10-3 14.3l-2 2.5q-1.3 2.4-.7 5.3-2.2-1.6-4.8-1.2L98.6 72q-7.7.6-15.5.7v-.3q-3.3.1-6.7-.4l-2.5-.5v.3l-9 .7q-3 .3-6.2 0l-6.2-.4-.1-.3-9.4.7V72L31 73v-1.7l-6.7.2-.8-7.5-2.4 8.2-9.7.5c-2.3-7.3-6.6-22-6.6-22h1l-1-30.8c5-3.3 13-4.9 18.2-1.8 2.8 1.6 4.3 4.4 5 7.5 2.4 0 4 .4 6 1.5l.7-6.8s2.7-1.1 4.2-1.5c2.8-.8 6.3-.8 9.1-.4 3.8.6 5.8 2 8 5l3.6-.5 5-.6c.7-.1 2-.1 2.5-.4.4-.1 1.1-.9 1.1-.9l5.3 6.7 1.8-4.3-3.1-5s-5.3 3.4-6.5 3.3q-.8-.2-.7-1c.2-1 1.3-1.6 2-2.2l3.9-2.7-1.6-3c-2.3.2-4.5-1-4.9-3.5a4 4 0 0 1 3.5-4.6M41.4 50.5l-1.4.2.5 11.5 1.7-.2zm16 .9-5.5.4.5 9.8 2.6-.1zm10-.9-1.5.2 2 5.2q2.2-3.2 5.8-4.7l-6.2-.3zm-47.7-3.8L6.8 50.6l8.9-.7H22v-.5h1.1s-1.5-.8-2.5-1.8zm30.8-5.3s-2.1 1.2-3.3 1.5l.6 6.5-1.8.3h4.8zm14.6-6 .7 3.8-3.3 1.4.3.6 5.4-.8v-1zm3.6-28c-.7.2-1.3.9-1 1.6.2.8 1.4 1.3 2 .5.4-.7 0-2.2-1-2.1" clip-rule="evenodd"/><path stroke="var(--stroke-0, white)" stroke-linejoin="round" stroke-width="9.3" d="M67.8 4.7a4 4 0 0 1 4.4 2.7q.6 1.7-.4 3.3 1.3 1.5 2.3 3c1-.7 4.7-3 5.8-3.4q.7-.3 1.4.3.3.7-.2 1.3c-.9 1-5.3 4-5.3 4l3.7 5.7 5.4 1.2.4-.5 12.3-1.5 1.3 11-4.1.1 1.3 6.9 5.2-1.8-2 12.8c1 1.3 2.6 2.5 4.4 2 3.9-1 6.1-6 5.2-9.8q-1.7.7-3.4-.2c1.9-2.2 1.7-5.2 1-7.8 3 1.5 6.4 4.2 6.3 8q-.7-.7-1.8-.5c2.2 5 0 10-3 14.3l-2 2.5q-1.3 2.4-.7 5.3-2.2-1.6-4.8-1.2L98.6 72q-7.7.6-15.5.7v-.3q-3.3.1-6.7-.4l-2.5-.5v.3l-9 .7q-3 .3-6.2 0l-6.2-.4-.1-.3-9.4.7V72L31 73v-1.7l-6.7.2-.8-7.5-2.4 8.2-9.7.5c-2.3-7.3-6.6-22-6.6-22h1l-1-30.8c5-3.3 13-4.9 18.2-1.8 2.8 1.6 4.3 4.4 5 7.5 2.4 0 4 .4 6 1.5l.7-6.8s2.7-1.1 4.2-1.5c2.8-.8 6.3-.8 9.1-.4 3.8.6 5.8 2 8 5l3.6-.5 5-.6c.7-.1 2-.1 2.5-.4.4-.1 1.1-.9 1.1-.9l5.3 6.7 1.8-4.3-3.1-5s-5.3 3.4-6.5 3.3q-.8-.2-.7-1c.2-1 1.3-1.6 2-2.2l3.9-2.7-1.6-3c-2.3.2-4.5-1-4.9-3.5a4 4 0 0 1 3.5-4.6ZM41.4 50.5l-1.4.2.5 11.5 1.7-.2zm16 .9-5.5.4.5 9.8 2.6-.1zm10-.9-1.5.2 2 5.2q2.2-3.2 5.8-4.7l-6.2-.3zm-47.7-3.8L6.8 50.6l8.9-.7H22v-.5h1.1s-1.5-.8-2.5-1.8zm30.8-5.3s-2.1 1.2-3.3 1.5l.6 6.5-1.8.3h4.8zm14.6-6 .7 3.8-3.3 1.4.3.6 5.4-.8v-1zm3.6-28c-.7.2-1.3.9-1 1.6.2.8 1.4 1.3 2 .5.4-.7 0-2.2-1-2.1Z" clip-rule="evenodd" mask="url(#a)"/><mask id="b" width="89" height="10" x="9.2" y="71.3" fill="#000" maskUnits="userSpaceOnUse"><path fill="#fff" d="M9.2 71.3h89v10h-89z"/><path d="M30.3 74.4q1.7.2 1.9 2.4Q32 79 30.3 79t-1.9-2.3q.2-2.3 1.9-2.4m-8.4 0v1h-1.2v.6h1v1h-1v.8H22v1l-2.4.1v-4.6zm16.9 0v1h-1.2v.6h1v1h-1v.8h1.2v1l-2.5.1v-4.6zm-14.3 0c.9 0 2-.2 2.7.3s.8 1.5.3 2.1q-.6.8-1.6.7v1.4h-1.3zm8.1 0c.9 0 2-.2 2.7.3s.8 1.5.3 2.1q-.7.8-1.6.7v1.4h-1.3zm20 4.5h-1.2v-4.5h1.3zm-6.8-4.5v1h-1.2v.6h1v1h-1v.8h1.2v1l-2.5.1v-4.5zm40.5 4.5h-1.2l-.1-.6h-1v.6h-1.4l1.1-4.5h1.7zm9.3 0h-1.3l-.1-.6h-1v.6h-1.4l1.1-4.5h1.7zm-26-3.5h-1.3v.7h1.2v1h-1v.7h1v1h-2.4v-4.4h2.5zm3.1 0H72V79h-1.3v-3.5h-.8v-1h2.8zm19.2 0H91V79h-1.3v-3.5h-.7v-1h2.8zm-41.1-1v1h-1.2v.6h1v1h-.9V79h-1.2v-4.5zm37.4 0v3.4h1v1h-2.3v-4.4zm-29.8 0 .4 2.3.4-2.3H61q0 2.2.4 4.5H60l-.1-2.7-.6 2.7h-1.1q-.1-1.4-.4-2.7l-.2 2.7h-1.4l.6-4.5zm20.9 0 .3 2.3.5-2.3h1.6q.1 2.2.5 4.5h-1.4v-2.7l-.6 2.7H79q0-1.4-.4-2.7l-.1 2.7H77c.3-1.4.5-3.3.6-4.5zm-14.3 0 1.3.1V76s-.4-.6-.7-.6q-.4 0-.4.4c0 .4 1 .7 1.2 1.3q.1.6-.1 1.1t-1 .8l-1.4-.2v-1.4c.4.4 1 .8 1.3.3s-1-.8-1.3-1.4c-.2-.8.4-1.8 1-1.8m-24.4 0 .5 1.3.4-1.3h1.4L41.7 77v1.9h-1.3v-2l-1.1-2.5zm14.2 3.4h1v1h-2.3v-4.4h1.3zM15 75.4h-.8v3.4H13v-3.4h-.7v-1H15zm1.7.6h.7v-1.7h1.2v4.5h-1.2V77h-.7v1.8h-1.3v-4.5h1.3zm13.6-.5q-.6.1-.6 1.2t.6 1.2q.5 0 .6-1.2 0-1-.6-1.2m53.9 2h.6l-.3-1.7zm9.2 0h.6l-.2-1.7h-.1zm-59.5-1s.6 0 .6-.7c0-.5-.6-.5-.6-.5zm-8.1 0s.6 0 .6-.7c0-.5-.6-.5-.6-.5z"/></mask><path fill="var(--fill-0, #212021)" d="M30.3 74.4q1.7.2 1.9 2.4Q32 79 30.3 79t-1.9-2.3q.2-2.3 1.9-2.4m-8.4 0v1h-1.2v.6h1v1h-1v.8H22v1l-2.4.1v-4.6zm16.9 0v1h-1.2v.6h1v1h-1v.8h1.2v1l-2.5.1v-4.6zm-14.3 0c.9 0 2-.2 2.7.3s.8 1.5.3 2.1q-.6.8-1.6.7v1.4h-1.3zm8.1 0c.9 0 2-.2 2.7.3s.8 1.5.3 2.1q-.7.8-1.6.7v1.4h-1.3zm20 4.5h-1.2v-4.5h1.3zm-6.8-4.5v1h-1.2v.6h1v1h-1v.8h1.2v1l-2.5.1v-4.5zm40.5 4.5h-1.2l-.1-.6h-1v.6h-1.4l1.1-4.5h1.7zm9.3 0h-1.3l-.1-.6h-1v.6h-1.4l1.1-4.5h1.7zm-26-3.5h-1.3v.7h1.2v1h-1v.7h1v1h-2.4v-4.4h2.5zm3.1 0H72V79h-1.3v-3.5h-.8v-1h2.8zm19.2 0H91V79h-1.3v-3.5h-.7v-1h2.8zm-41.1-1v1h-1.2v.6h1v1h-.9V79h-1.2v-4.5zm37.4 0v3.4h1v1h-2.3v-4.4zm-29.8 0 .4 2.3.4-2.3H61q0 2.2.4 4.5H60l-.1-2.7-.6 2.7h-1.1q-.1-1.4-.4-2.7l-.2 2.7h-1.4l.6-4.5zm20.9 0 .3 2.3.5-2.3h1.6q.1 2.2.5 4.5h-1.4v-2.7l-.6 2.7H79q0-1.4-.4-2.7l-.1 2.7H77c.3-1.4.5-3.3.6-4.5zm-14.3 0 1.3.1V76s-.4-.6-.7-.6q-.4 0-.4.4c0 .4 1 .7 1.2 1.3q.1.6-.1 1.1t-1 .8l-1.4-.2v-1.4c.4.4 1 .8 1.3.3s-1-.8-1.3-1.4c-.2-.8.4-1.8 1-1.8m-24.4 0 .5 1.3.4-1.3h1.4L41.7 77v1.9h-1.3v-2l-1.1-2.5zm14.2 3.4h1v1h-2.3v-4.4h1.3zM15 75.4h-.8v3.4H13v-3.4h-.7v-1H15zm1.7.6h.7v-1.7h1.2v4.5h-1.2V77h-.7v1.8h-1.3v-4.5h1.3zm13.6-.5q-.6.1-.6 1.2t.6 1.2q.5 0 .6-1.2 0-1-.6-1.2m53.9 2h.6l-.3-1.7zm9.2 0h.6l-.2-1.7h-.1zm-59.5-1s.6 0 .6-.7c0-.5-.6-.5-.6-.5zm-8.1 0s.6 0 .6-.7c0-.5-.6-.5-.6-.5z"/><path fill="var(--stroke-0, white)" d="M30.3 74.4v-2zm1.9 2.4h2zM30.3 79v2zm-1.9-2.3h-2zM22 74.3H24a2 2 0 0 0-2-2zm0 1v2.1q1.9-.2 2.1-2zm-1.2 0v-2a2 2 0 0 0-2 2zm0 .7h-2q.2 2 2 2.1zm1 0h2.1q-.2-1.8-2-2zm0 1v2q2-.2 2.1-2zm-1 0v-2a2 2 0 0 0-2 2zm0 .8h-2q.2 1.9 2 2.1zm1.2 0H24a2 2 0 0 0-2-2zm0 1V81c1.2 0 2.1-1 2.1-2.1zm-2.4.1h-2a2 2 0 0 0 2 2zm0-4.6v-2a2 2 0 0 0-2 2zm19.3 0h2a2 2 0 0 0-2-2zm0 1v2.1q1.8-.2 2-2zm-1.2 0v-2a2 2 0 0 0-2.1 2zm0 .7h-2.1c0 1.2 1 2.1 2 2.1zm1 0h2q-.2-1.8-2-2zm0 1v2q1.9-.2 2-2zm-1 0v-2a2 2 0 0 0-2 2zm0 .8h-2q.1 1.9 2 2.1zm1.2 0h2a2 2 0 0 0-2-2zm0 1V81c1.1 0 2-1 2-2.1zm-2.5.1h-2a2 2 0 0 0 2 2zm0-4.6v-2a2 2 0 0 0-2 2zm-11.8 0v-2a2 2 0 0 0-2 2zm2.7.4 1.1-1.7zm.3 2.1 1.7 1.2zm-1.6.7v-2.1a2 2 0 0 0-2 2zm0 1.4v2q1.8-.2 2-2zm-1.3 0h-2.1a2 2 0 0 0 2 2zm8-4.5v-2.1a2 2 0 0 0-2 2zm2.7.3 1.1-1.7zm.3 2.1 1.7 1.2zm-1.6.7v-2.1a2 2 0 0 0-2 2zm0 1.4v2q1.8-.2 2-2zm-1.3 0h-2.1a2 2 0 0 0 2 2zm20 0v2a2 2 0 0 0 2-2zm-1.3 0h-2q.1 1.8 2 2zm0-4.5v-2.1a2 2 0 0 0-2 2zm1.3 0h2a2 2 0 0 0-2-2.1zm-6.9 0h2a2 2 0 0 0-2-2.1zm0 1v2q1.8-.2 2-2zm-1.2 0v-2.1a2 2 0 0 0-2.1 2zm0 .6h-2.1c0 1.2 1 2.1 2 2.1zm1 0h2q-.1-1.8-2-2zm0 1v2q1.9-.2 2-2zm-1 0v-2a2 2 0 0 0-2 2zm0 .8h-2q.1 1.9 2 2zm1.2 0h2a2 2 0 0 0-2-2zm0 1V81c1.1 0 2-1 2-2.1zm-2.5.1h-2a2 2 0 0 0 2 2zm0-4.5v-2.1a2 2 0 0 0-2 2zm43 4.5v2a2 2 0 0 0 2-2.5zm-1.2 0-2 .4a2 2 0 0 0 2 1.7zm-.1-.6 2-.4a2 2 0 0 0-2-1.6zm-1 0v-2a2 2 0 0 0-2 1.7zm0 .6v2a2 2 0 0 0 2-1.7zm-1.4 0-2-.5a2 2 0 0 0 2 2.6zm1.1-4.5v-2.1a2 2 0 0 0-2 1.6zm1.7 0 2-.5a2 2 0 0 0-2-1.6zm10.2 4.5v2a2 2 0 0 0 2-2.5zm-1.3 0-2 .4a2 2 0 0 0 2 1.7zm-.1-.6 2-.4a2 2 0 0 0-2-1.6zm-1 0v-2a2 2 0 0 0-2 1.7zm0 .6v2a2 2 0 0 0 2-1.7zm-1.4 0-2-.5a2 2 0 0 0 2 2.6zm1.1-4.5v-2.1a2 2 0 0 0-2 1.6zm1.7 0 2-.5a2 2 0 0 0-2-1.6zm-25 1v2.1a2 2 0 0 0 2-2zm-1.3 0-.2-2a2 2 0 0 0-1.8 2zm0 .7h-2c0 1.1 1 2 2 2zm1.2 0h2a2 2 0 0 0-2-2.1zm0 1v2c1 0 2-.9 2-2zm-1 0v-2a2 2 0 0 0-2.1 2zm0 .7h-2.1q.2 1.8 2 2zm1 0h2.2c0-1.1-1-2-2.1-2zm0 1 .1 2.1q1.9-.2 2-2zm-2.4 0-2 .1q.2 1.9 2 2zm0-4.4v-2.1a2 2 0 0 0-2 2zm2.5 0h2a2 2 0 0 0-2-2.1zm3.1 1v2.1c1.2 0 2.1-1 2.1-2zm-.7 0v-2a2 2 0 0 0-2 2zm0 3.5v2q1.8-.2 2-2zm-1.3 0h-2.1a2 2 0 0 0 2 2zm0-3.5h2q-.2-1.8-2-2zm-.8 0h-2q.2 2 2 2.1zm0-1v-2.1a2 2 0 0 0-2 2zm2.8 0h2.1a2 2 0 0 0-2-2.1zm19.2 1v2.1c1.1 0 2-1 2-2zm-.8 0v-2a2 2 0 0 0-2 2zm0 2.8h2.1zm0 .7v2q2-.2 2.1-2zm-1.3 0h-2c0 1.2 1 2 2 2zm0-3.5h2c0-1-.8-2-2-2zm-.7 0H87c0 1.2 1 2.1 2 2.1zm0-1v-2.1a2 2 0 0 0-2.1 2zm2.8 0h2a2 2 0 0 0-2-2.1zm-41.1 0h2q-.2-2-2-2.1zm0 1v2a2 2 0 0 0 2-2zm-1.2 0v-2.2a2 2 0 0 0-2 2.1zm0 .6h-2q.2 2 2 2.1zm1 0h2.2a2 2 0 0 0-2.1-2zm0 1v2q2-.1 2.1-2zm-.9 0v-2a2 2 0 0 0-2 2zm0 1.9v2q2-.2 2.1-2zm-1.2 0h-2.1a2 2 0 0 0 2 2zm0-4.5v-2.1a2 2 0 0 0-2.1 2zm39.7 0h2a2 2 0 0 0-2-2.1zm0 3.4H86q.2 1.9 2 2zm1 0h2q-.2-1.8-2-2zm0 1V81c1.1 0 2-1 2-2.1zm-2.3 0h-2.1a2 2 0 0 0 2 2.2zm0-4.4v-2.1a2 2 0 0 0-2.1 2zm-28.5 0 2-.4a2 2 0 0 0-2-1.7zm.4 2.3-2 .2a2 2 0 0 0 4 .1zm.4-2.3v-2.1a2 2 0 0 0-2 1.7zm1.7 0h2c0-1.2-1-2.1-2-2.1zm.4 4.5v2a2 2 0 0 0 2-2.3zm-1.3 0h-2.1c0 1.2 1 2 2 2zm-.1-2.7 2-.2a2 2 0 0 0-4-.3zm-.6 2.7v2a2 2 0 0 0 2-1.6zm-1.1 0-2 .2c0 1 1 1.9 2 1.9zm-.4-2.7 2-.3a2 2 0 0 0-4.1.2zm-.2 2.7.1 2c1 0 2-.9 2-2zm-1.4 0-2-.4a2 2 0 0 0 2 2.4zm.6-4.5v-2.1c-1 0-2 .8-2 1.8zm22.5 0 2-.4a2 2 0 0 0-2-1.7zm.3 2.3-2 .2a2 2 0 0 0 4 .1zm.5-2.3v-2.1a2 2 0 0 0-2 1.7zm1.6 0h2q-.2-2-2-2.1zm.5 4.5v2a2 2 0 0 0 2-2.3zm-1.4 0h-2q.2 1.9 2 2zm0-2.7 2-.2a2 2 0 0 0-4-.3zm-.6 2.7v2a2 2 0 0 0 2-1.6zm-1.2 0-2 .2c0 1 1 1.9 2 1.9zm-.4-2.7 2-.3a2 2 0 0 0-4 .2zm-.1 2.7v2q1.8-.2 2-2zm-1.5 0-2-.4a2 2 0 0 0 2 2.4zm.6-4.5v-2.1c-1 0-2 .8-2 1.8zm-12.6 0-.1-2zm1.3.1h2.1a2 2 0 0 0-1.6-2zm0 1.4-1.6 1.2a2 2 0 0 0 3.7-1.2zm-.7-.6-.2-2zm-.4.4h-2v.2zm1.2 1.3 2-.6zm-.1 1.1-1.8-1zm-1 .8.5 2h.2zm-1.4-.2h-2a2 2 0 0 0 1.3 2zm0-1.4 1.3-1.6a2 2 0 0 0-3.4 1.7zm1.3.3 1.8 1zm-1.3-1.4-2 .6zm-23.3-1.8 2-.7a2 2 0 0 0-2-1.4zm.5 1.3-2 .7a2 2 0 0 0 4 0zm.4-1.3v-2.1a2 2 0 0 0-2 1.5zm1.4 0 1.9.8a2 2 0 0 0-1.9-3zM41.7 77l-1.9-1-.2 1zm0 1.9v2q1.8-.2 2-2zm-1.3 0h-2.1a2 2 0 0 0 2 2zm0-2h2l-.1-.7zm-1.1-2.5v-2.1a2 2 0 0 0-2 2.9zm15.5 3.4h-2q.2 1.9 2 2zm1 0h2q-.1-1.8-2-2zm0 1V81a2 2 0 0 0 2-2zm-2.3 0h-2q.1 2 2 2.1zm0-4.4v-2.1a2 2 0 0 0-2 2zm1.3 0h2a2 2 0 0 0-2-2.1zm-39.8 1v2c1.1 0 2-1 2-2zm-.8 0v-2.1a2 2 0 0 0-2 2zm0 3.4v2q1.9-.1 2-2zm-1.3 0h-2q.2 1.9 2 2zm0-3.4H15c0-1.2-1-2.1-2-2.1zm-.7 0h-2q.2 1.8 2 2zm0-1v-2.1a2 2 0 0 0-2 2zm2.8 0h2q-.2-2-2-2.1zm1.7 1.6h-2.1c0 1.1 1 2 2 2zm.7 0v2q2-.2 2.1-2zm0-1.7v-2a2 2 0 0 0-2 2zm1.2 0h2.1q-.2-1.8-2-2zm0 4.5v2q2-.1 2.1-2zm-1.2 0h-2q.2 1.9 2 2zm0-1.8h2.1c0-1.2-1-2.1-2-2.1zm-.7 0v-2.1a2 2 0 0 0-2.1 2zm0 1.8v2q1.8-.1 2-2zm-1.3 0h-2q.2 1.9 2 2zm0-4.5v-2a2 2 0 0 0-2 2zm1.3 0h2q-.2-1.8-2-2zm13.6 1.2v-2zm-.6 1.2h-2zm.6 1.2V80zm.6-1.2h2zm53.3.7-2-.3a2 2 0 0 0 2 2.4zm.6 0v2.1a2 2 0 0 0 2-2.4zm-.3-1.6 2-.4a2 2 0 0 0-2-1.7zm0 0v-2.1a2 2 0 0 0-2 1.7zm9 1.6-2.1-.3a2 2 0 0 0 2 2.4zm.5 0v2.1a2 2 0 0 0 2-2.4zm-.2-1.6 2-.4a2 2 0 0 0-2-1.7zm-.1 0v-2.1a2 2 0 0 0-2 1.7zm-59.8.6h-2c0 1 .7 2 1.7 2zm.6-.6h2zm-.6-.5-.1-2c-1.1 0-2 1-2 2zm-8.1 1.1h-2c0 1 .7 2 1.7 2zm.6-.6h2zm-.6-.5-.1-2c-1.1 0-2 1-2 2zm4.5-.9v2.1H30v.3h4.2c0-2-1.3-4.4-3.9-4.4zm1.9 2.4H30q0 .5 0 .4l.2-.2v4.1q1.6 0 2.9-1.2 1-1.4 1-3.1zM30.3 79v-2h.2v-.3h-4.1q0 1.7 1 3 1.2 1.5 2.9 1.4zm-1.9-2.3h2.1q0-.6 0-.4l-.2.1v-4.1q-1.6 0-2.9 1.3-1 1.4-1 3zM22 74.3h-2v1H24v-1zm0 1v-2h-1.2v4.1H22zm-1.2 0h-2v.7h4v-.6zm0 .7v2.1h1V74h-1zm1 0h-2v1h4.1v-1zm0 1v-2h-1v4h1zm-1 0h-2v.8h4.1V77zm0 .8V80H22v-4.1h-1.1zm1.2 0h-2v1H24v-1zm0 1v-2h-2.4V81H22zm-2.4.1h2v-4.6h-4V79zm0-4.6v2.1h2.4v-4.1h-2.4zm19.3 0h-2l-.1 1h4.1v-1zm0 1v-2h-1.2v4.1h1.2zm-1.2 0h-2.1v.7h4.1v-.6zm0 .7v2.1h1V74h-1zm1 0h-2v1h4v-1zm0 1v-2h-1v4h1zm-1 0h-2v.8h4V77zm0 .8V80h1.2v-4.1h-1.2zm1.2 0h-2l-.1 1h4.1v-1zm0 1v-2h-2.5V81h2.5zm-2.5.1h2.1v-4.6h-4.1V79zm0-4.6v2.1h2.5v-4.1h-2.5zm-11.8 0v2.1H26l1.2-1.7 1.1-1.7q-1.3-.8-2.3-.7h-1.5zm2.7.4L26 76.4l-.3-.4.2-.4 1.6 1.2 1.7 1.2c1.1-1.5.9-3.9-.9-5zm.3 2.1L26 75.6l.2-.2h-.2v4.1a4 4 0 0 0 3.3-1.5zm-1.6.7h-2v1.4h4v-1.4zm0 1.4v-2h-1.4v4H26zm-1.3 0h2v-4.6h-4.1V79zm8-4.5v2h1.5l1.2-1.7 1.1-1.7q-1.3-.8-2.3-.7h-1.5zm2.7.3L34 76.4l-.3-.4.2-.4 1.6 1.2 1.7 1.2c1.1-1.5.9-3.9-.9-5zm.3 2.1L34 75.6l.2-.2H34v4.1a4 4 0 0 0 3.3-1.5zm-1.6.7h-2v1.4h4v-1.4zm0 1.4v-2h-1.4v4H34zm-1.3 0h2v-4.6h-4.1V79zm20 0v-2h-1.3v4h1.2zm-1.3 0h2v-4.5h-4v4.5zm0-4.5v2h1.3v-4.1h-1.3zm1.3 0h-2l-.1 4.5h4.1v-4.5zm-6.9 0h-2v1h4v-1zm0 1v-2.1h-1.2v4.1h1.2zm-1.2 0h-2.1v.6h4.1v-.6zm0 .6v2.1h1V74h-1zm1 0h-2v1h4v-1zm0 1v-2h-1v4h1zm-1 0h-2v.8h4V77zm0 .8v2l1.2.1v-4.1h-1.2zm1.2 0h-2v1h4v-1zm0 1v-2h-2.5V81h2.5zm-2.5.1h2v-4.5h-4v4.5zm0-4.5v2h2.5v-4.1h-2.5zm43 4.5v-2H85v4h1.4zm-1.2 0 2-.4-.1-.6-2 .4-2 .5v.5zm-.1-.6v-2h-1v4.1h1zm-1 0-2-.3-.1.5 2 .4 2 .3.2-.5zm0 .6v-2h-1.4v4h1.3zm-1.4 0 2 .5 1.1-4.5-2-.5-2-.5-1.1 4.5zm1.1-4.5v2h1.7v-4.1h-1.7zm1.7 0-2 .4 1 4.5 2-.4 2-.5-1-4.5zm10.2 4.5v-2h-1.3v4h1.3zm-1.3 0 2-.4v-.6l-2.1.4-2 .5v.5zm-.1-.6v-2h-1v4.1h1zm-1 0-2-.3v.5l2 .4 2 .3v-.5zm0 .6v-2h-1.4v4h1.3zm-1.4 0 2 .5 1.2-4.5-2-.5-2-.5-1.2 4.5zm1.1-4.5v2h1.7v-4.1h-1.7zm1.7 0-2 .4 1 4.5 2-.4 2-.5-1-4.5zm-25 1v-2H68l.3 2 .3 2h.3l.7.1zm-1.3 0h-2v.7h4.1v-.7zm0 .7v2h1.2V74h-1.1zm1.2 0h-2.1v1h4.1v-1zm0 1v-2h-1v4h1zm-1 0h-2.1v.7h4v-.7zm0 .7-.1 2 1.2.1v-4.1h-1.2zm1 0h-2v1h4.2v-1zm0 1v-2h-2.4V81h2.5zm-2.4 0h2v-4.4h-4v4.5zm0-4.4v2h2.5v-4.1H67zm2.5 0h-2v1h4v-1zm3.1 1v-2H72v4.1h.8zm-.7 0h-2V79h4v-3.5zm0 3.5v-2h-1.3v4H72zm-1.3 0h2v-3.5h-4.1V79zm0-3.5v-2h-.8v4.1h.8zm-.8 0h2l.1-1h-4.1v1zm0-1v2h2.8v-4.1H70zm2.8 0h-2v1h4.1v-1zm19.2 1v-2H91v4.1h.8zm-.8 0h-2v2.9h4.1v-2.9zm0 2.8h-2v.7h4.1v-.6zm0 .7v-2h-1.3v4h1.3zm-1.3 0H92v-3.5h-4.1V79zm0-3.5v-2h-.7v4.1h.7zm-.7 0h2v-1H87v1zm0-1v2h2.8v-4.1h-2.8zm2.8 0h-2v1h4v-1zm-41.1 0h-2.1v1h4.1v-1zm0 1v-2.2h-1.2v4.1h1.2zm-1.2 0h-2v.6h4.1v-.7zm0 .6v2.1h1V74h-1zm1 0h-2v1h4.1v-1zm0 1v-2h-.9v4h1zm-.9 0h-2V79h4.1V77zm0 1.9v-2h-1.3v4h1.3zm-1.2 0h2v-4.5h-4.1v4.5zm0-4.5v2h2.3v-4.1h-2.3zm39.7 0H86v3.4h4.1v-3.4zm0 3.4v2l1 .1v-4.1h-1zm1 0H87v1h4.1v-1zm0 1v-2h-2.3V81h2.3zm-2.3 0h2v-4.4h-4.1v4.5zm0-4.4v2h1.3v-4.1h-1.3zm-28.5 0-2 .3.3 2.2 2-.2 2.1-.3-.3-2.4zm.4 2.3 2 .3.5-2.2-2-.4-2-.4-.6 2.3zm.4-2.3v2H61v-4.1h-1.7zm1.7 0h-2.1q.1 2.6.5 4.8l2-.3 2-.3-.4-4.3zm.4 4.5v-2H60v4h1.4zm-1.3 0h2V76l-2.1.2-2 .2V79zm-.1-2.7-2-.5-.3 1.5-.3 1.2 2 .5 2 .4.3-1.4.3-1.1zm-.6 2.7v-2h-1.1v4h1.2zm-1.1 0 2-.2c0-1-.3-2.2-.4-2.8l-2 .3-2 .3q.2 1.4.3 2.6zm-.4-2.7-2.1-.1-.1 2.7h2l2.1.2.1-2.7zm-.2 2.7v-2.1h-1.4v4.1h1.5zm-1.4 0 2 .3c.3-1.4.5-3.4.6-4.6l-2-.2-2-.3-.7 4.4zm.6-4.5v2h1.6v-4.1h-1.6zm22.5 0-2 .3q0 1.2.3 2.2l2-.2 2-.3-.3-2.4zm.3 2.3 2 .3.5-2.2-2-.4-2-.4-.5 2.3zm.5-2.3v2h1.6v-4.1h-1.6zm1.6 0h-2q0 2.6.4 4.8l2-.3 2.1-.3q-.4-2.2-.4-4.3zm.5 4.5v-2h-1.4v4h1.4zm-1.4 0h2V76l-2 .2-2.1.2V79zm0-2.7-2-.5-.4 1.5-.2 1.2 2 .5 2 .4.3-1.4.2-1.1zm-.6 2.7v-2H79v4h1.2zm-1.2 0 2.1-.2c0-1-.3-2.2-.4-2.8l-2 .3-2.1.3.4 2.6zm-.4-2.7-2-.1-.2 2.7h2l2.2.2v-2.7zm-.1 2.7-.1-2.1h-1.3v4.1h1.5zm-1.5 0 2 .3.7-4.6-2-.2-2.1-.3-.6 4.4zm.6-4.5v2h1.7v-4.1h-1.7zm-12.6 0 .1 2 .4.1h.4l.9-4-2-.2zm1.3.1h-2V76h4.1v-1.4zm0 1.4 1.7-1.2-.4-.5-.6-.5q-.3-.4-1.6-.4l.2 2 .2 2-1.1-.2h-.1zm-.7-.6-.2-2q-.7 0-1.5.6-.8 1-.8 1.8h4.2a2 2 0 0 1-1.5 1.7zm-.4.4-2 .2c0 .9.6 1.4.8 1.6l.5.4.1.1-.2-.4 2-.6 2-.6q-.3-.9-.8-1.2l-.6-.6-.2-.1.2.2.2.8zm1.2 1.3-2 .6v-.5l1.9 1 1.8 1q.7-1.2.3-2.7zm-.1 1.1-1.8-1 .1-.1.2-.1.6 2 .6 2q1.3-.5 2.1-1.8zm-1 .8-.4-2h.2l-.2-.1h-.3l-.7 1.9-.7 2 .8.1q.6.2 1.8 0zm-1.4-.2H66v-1.4h-4.2v1.4zm0-1.4L62.6 79q.4.4 1.3.8.5.3 1.4.1 1 0 1.7-1.2l-1.8-1-1.8-1a2 2 0 0 1 1.9-.8zm1.3.3 1.8 1a2 2 0 0 0-.2-2.6l-.9-.8-.3-.2q0 0 .3.5l-2 .7-2 .6.5.9.5.5.7.4v.1-.1l-.4-.8q0-.7.2-1.2zm-1.3-1.4 2-.7v.6q0 .2-.8.3l-.1-2-.1-2c-1.3 0-2.1.8-2.6 1.5q-.7 1.2-.3 3zm-23.3-1.8-2 .6.5 1.4 2-.7 2-.6-.6-1.4zm.5 1.3 2 .6.4-1.3-2-.6-2-.6-.4 1.4zm.4-1.3v2h1.4v-4.1h-1.4zm1.4 0-1.9-1-1.2 2.7 1.9.9 1.9.8 1.2-2.6zM41.7 77h-2v1.9h4v-2zm0 1.9v-2.1h-1.4V81h1.4zm-1.3 0h2v-2h-4.1v2zm0-2 1.9-.7-1.1-2.7-2 .9-1.8.8 1 2.6zm-1.1-2.5v2h1.3v-4.1h-1.3zm15.5 3.4v2l1 .1v-4.1h-1zm1 0h-2v1h4v-1zm0 1v-2h-2.3v4.1h2.3zm-2.3 0h2v-4.4h-4v4.5zm0-4.4v2h1.3v-4.1h-1.3zm1.3 0h-2v3.4h4v-3.4zm-39.8 1v-2.1h-.8v4.1h.8zm-.8 0h-2v3.4h4v-3.4zm0 3.4v-2H13v4h1.3zm-1.3 0H15v-3.4h-4.1v3.4zm0-3.4v-2.1h-.7v4.1h.7zm-.7 0h2v-1h-4v1zm0-1v2H15v-4.1h-2.8zm2.8 0h-2v1h4v-1zm1.7 1.6v2h.7V74h-.7zm.7 0h2.1v-1.7h-4.1V76zm0-1.7v2.1h1.2v-4.1h-1.2zm1.2 0h-2v4.5h4.1v-4.5zm0 4.5v-2h-1.2v4h1.2zm-1.2 0h2.1V77h-4.1v1.8zm0-1.8v-2.1h-.7V79h.7zm-.7 0h-2.1v1.8h4.1V77zm0 1.8v-2h-1.3v4h1.3zm-1.3 0h2.1v-4.5h-4.1v4.5zm0-4.5v2.1h1.3v-4.1h-1.3zm1.3 0h-2.1V76h4.1v-1.7zm13.6 1.2v-2c-1.4 0-2.1 1-2.3 1.5l-.4 1.7h4.2l-.4.5q-.3.4-1.1.4zm-.6 1.2h-2q0 .9.3 1.8c.2.4.9 1.5 2.3 1.5v-4.1q.8 0 1.1.4l.3.4q0 .1 0 0zm.6 1.2V80c1.4 0 2-1.1 2.2-1.5a4 4 0 0 0 .4-1.8h-4.1q0 .1 0 0l.3-.4q.3-.4 1.2-.4zm.6-1.2h2l-.4-1.7c-.2-.4-.8-1.5-2.2-1.5v4.1q-.9 0-1.2-.4l-.3-.4q0-.2 0 0zm53.3.7v2l.6.1v-4.1h-.6zm.6 0 2-.3-.2-1.7-2 .4-2.1.3.3 1.7zm-.3-1.6v-2.1zv2.1zm0 0-2-.4-.3 1.7 2 .3 2 .4.3-1.7zm9 1.6-.1 2 .6.1v-4.1h-.5zm.5 0 2-.3-.2-1.7-2 .4-2 .3.2 1.7zm-.2-1.6v-2.1h-.1v4.1zm-.1 0-2-.4-.3 1.7 2 .3 2 .4.3-1.7zm-59.8.6-.3 2q.4.3 1.5-.2.6-.2 1-1 .6-.7.5-1.4h-4.1l.1-.7.7-.6q.6-.2.8-.1zm.6-.6h2a3 3 0 0 0-1.7-2.4q-.9-.2-1-.1v2l.2 2.1h-.5q-.1 0-.6-.5t-.5-1.1zm-.6-.5h-2v1.1h4v-1zm-8.1 1.1-.3 2q.4.3 1.5-.2.6-.2 1-1 .6-.7.5-1.4h-4.1l.1-.7.7-.6q.6-.2.8-.1zm.6-.6h2a3 3 0 0 0-1.7-2.4q-.9-.2-1-.1v2l.2 2.1h-.5q-.1 0-.6-.5t-.5-1.1zm-.6-.5h-2v1.1h4v-1z" mask="url(#b)"/><path fill="var(--fill-0, white)" d="m6.4 20.6 1.2-.7q3-1.4 6.3-1.7c3.1-.4 6.5-.3 9.1 1.7 2 1.6 3.3 4.4 3.6 7l1.6-.2q4 .2 7 3 .3-4.2.8-8.4 1.5-.6 3.2-1c3-.7 7.8-.7 10.7.6a8 8 0 0 1 4.4 4.4q1.5-.1 2.8-.4l8.4-1q0 .7.2 1.6l2-2q2 2.8 4.2 5.4l1.7 2.3 2.2-5 1.4-3.4q4 .8 8 1.7l.9-1.1q1.6-.3 3.5-.5l6-.8q.6 3.4.8 6.8l-7.6.4.5 2.7h3.4l1 4.7-3.7 1.6-.2 3.7 8.8-2.9-.3 2-1 6.5q-5.3.3-10.6.7l-4.8.4-.2-4.8-.2-7.7v-4.4q-1 1.3-1.8 2.8l-2.3 3.7.3 3.2.5 4.2.3 3.2q-4.5-.2-9.1-.3l.2-2.7.6-7.7Q68.5 36 66.7 34c-1-1.3-2.3-3-3.5-4.3l-4.7.3.6 3.7h3.4q.5 2 .8 4L59.8 39l1.4 4q2.6-.2 5-.8l.7 4.1.2 1.8q-3.5.4-7 .6l-4.7.4-2.8.1-.2-7.1-.2-5.6-1.3 1.2q-2.9 2.5-6.5 3.1l.3 2.5.3 3-.6.2.1 1.1q-1.7.1-3.5.6l-4.2.7-3.6.6.4-3.7q-1.9 1.3-4.1 1.6c-2.4.4-5-.4-6.9-1.8a11 11 0 0 1-4-7.2v.4h-1q-.6 0-1 .3l1.4 6.5Q12.6 47.4 7.1 49v-3.8q-.2-3-.3-6.2z"/><path fill="var(--fill-0, #111010)" d="m17.6 38.9 1-.4v.4h-1"/><path fill="var(--fill-0, #ee1d22)" d="M16.2 19.3q2.6-.2 5 1 2.9 1.6 3.8 5 .9 3-.7 6a13 13 0 0 1-6.4 6.1l-2.8 1 1.5 6.4-.6.2-7.7 2.3-.1-4.3-.3-10.4q-.2-5.6-.3-11.3l2.1-1q3.2-1 6.5-1"/><path fill="var(--fill-0, white)" d="M15.3 23.7q.7 0 1.5.2a4 4 0 0 1 2.4 1.9q.6 1.3.2 2.8c-.4 1.3-1.6 2.2-2.7 2.9q-2 .9-4 .4l.1-7.1q1.1-1 2.5-1.1"/><path fill="var(--fill-0, #212021)" d="M15 25h.9a3 3 0 0 1 2 1q.6.8.4 1.8-.3 1.5-1.6 2.2t-2.8.7l.1-5.4z"/><path fill="var(--fill-0, #ee1d22)" d="M42.4 21.2a19 19 0 0 1 6.3.6q3 1 4.3 3.7l-1.1.1.3 9a14 14 0 0 1-9.7 5.3c.1 2.3.6 6.8.6 6.8L34.6 48l.4-3.3a12 12 0 0 0 2.6-4.5q1.4-4.8-1.3-9.2.5-4.5.8-9 2.6-.8 5.3-1"/><path fill="var(--fill-0, white)" d="M44 25.5q.9 0 1.8.3A4 4 0 0 1 48 28q.6 1.6 0 2.8c-.5 1.4-1.8 2.1-3 2.7q-2 .6-4-.1l.5-4.5.4-2.5q1-.7 2-.8"/><path fill="var(--fill-0, #212021)" d="M43.5 26.8h1a3 3 0 0 1 2.1 1.2q.6.8.4 1.7-.2 1.2-1.2 1.9a4 4 0 0 1-3 .4l.4-3.3q0-1 .3-2"/><path fill="var(--fill-0, #ee1d22)" d="M33.4 29.7c4 3.3 4.5 9.5 1.3 13.5a8 8 0 0 1-6.3 3.1c-4.6.1-8.5-4-8.6-8.5 4.5-2.6 6.5-5.8 7.3-9.9 3-.1 5.2 1 6.3 1.8"/><path fill="var(--fill-0, white)" d="M27.8 34.9A4 4 0 0 1 29 43a4 4 0 0 1-1.2-8.1"/><path fill="var(--fill-0, #212021)" d="M28 36.1c1.6-.2 3 .9 3.2 2.5.2 1.5-.8 3-2.4 3.2s-3-.9-3.2-2.5c-.2-1.5.9-3 2.4-3.2"/><path fill="var(--fill-0, white)" d="M28.2 39h.2q.3 0 .5.4.3.3.1.7 0 .5-.6.7l-.7-.4v-.8q0-.4.5-.7"/><path fill="var(--fill-0, #ee1d22)" d="m94.5 23.6.6 4.1-7.8.5.9 5h3.5l.5 2.8-3.4 1.5-.3 6.3 8.6-3-.9 5.6-13.1 1-.4-16.1 4-6.8zM78 24.2l5.8 1.2L76.1 38l1 9.6-6.4-.2.7-9.6-7.3-9 3.5-3.4 6.4 8.2z"/><path fill="var(--fill-0, #ee1d22)" d="M64.4 25.2 61 28.6l-4.2.1 1.1 6.2h3.5l.4 2-3.6 1.6 2 6 5-.7.3 3.3-11.8.9-.6-21.4z"/><path fill="var(--fill-0, white)" d="M48.5 51.5h.8l.5 12.2 6-.4.2 4.5 3.6-15.4h4.5q.7 2.3 1.6 4.4l2.6 6.9 2 5-2.4.2-3 .2-.8-3-2.7.4-.5 2.8q-2.6-.1-5.2-.4l.2-.8c-1.2.2-2.9.2-4.1.3q-3.3.3-6.6.4l-.2-3.3-.8-13.9z"/><path fill="var(--fill-0, #ee1d22)" d="M60.1 53.2h3.1l5.5 14.5-3.3.2-1-3-4 .6-.5 2.6-3.2-.2z"/><path fill="var(--fill-0, white)" d="m61.7 56.7 2 5.4-4.5.7.8-6z"/><path fill="var(--fill-0, #212021)" d="m61 57.3 1.6 4.2-2.2.4z"/><path fill="var(--fill-0, #ee1d22)" d="M45 52.3h3.2l.5 12.2 6-.4v2.8l-8.8.8z"/><path fill="var(--fill-0, white)" d="M17.9 51.8h6q-.2 1.3-.7 2.5l-1.8 6.3-1.6 5.7-.8 2.5q-2.8.3-5.8.3l-.5-1.7-1.1-3.7-1.7-5.6-1-3.3q-.5-1.2-.7-2.5 3 0 6-.5.1 1.1.4 2.3l1.4 6z"/><path fill="var(--fill-0, #ee1d22)" d="M18.4 52.5h4.1l-4.4 15.2-4.4.3-4.5-15 4-.4 1.6 7.5h1.8z"/><path fill="var(--fill-0, white)" d="M81.5 51.7h1c0 1 .5 2.9.7 4-2.3.5-6.2.2-8 1.8a4 4 0 0 0-1.3 2.8q-.1 1.5.8 2.9c1.6 1.8 4.3 2 6.4 2.2Q81 63 80.8 61l-2.4.6-.3-3h6.3V62l.1 7c-4 .2-9.8.2-13-2.5a7 7 0 0 1-2.6-4.6q-.4-3.3 1.6-5.9c2-2.6 5.4-3.7 8.5-4q1.3-.2 2.5-.2"/><path fill="var(--fill-0, #ee1d22)" d="m82 54.7-.4-2.3c-3.4 0-7.4.7-10 3.2a7 7 0 0 0-2 4.9q-.1 2.6 1.6 4.5c3 3 8.3 2.8 12.2 2.8l-.1-8.4h-4.4v.7l2.5-.6.6 6.6c-2.5 0-5.3-.2-7.4-1.8a5 5 0 0 1-1-7c2-2.5 5.6-2.2 8.4-2.6"/><path fill="var(--fill-0, white)" d="M95 51.7h.6l.4 3.8-5.8.2.5 2.7 2.6.1.4 2.7-2.6 1-.3 3.5 6.5-2q-.2 2-.6 3.7l-.3 1.2q-2 .3-4 .2l-6.7.4-.1-16.6z"/><path fill="var(--fill-0, #ee1d22)" d="m94.5 52.5.3 1.9h-5.9l.8 4.7 2.6.1.2 1.2-2.5.9-.5 5.4L96 65l-.5 2.7-9 .4-.1-14.8z"/><path fill="var(--fill-0, white)" d="M35.2 52h2.2l.2 3.4.4 8.8q3-.1 6-.5v4.9l-2.8.2-3 .2-4.8.3-.3-4-.4-7.5-.3-5.7z"/><path fill="var(--fill-0, #ee1d22)" d="m36.4 52.8.5 12.2 6-.4v3l-9 .5-.8-15.3z"/><path fill="var(--fill-0, white)" d="M30 50.8h.2v.5l.2 2.2q.5 4.5.9 9.1l.5 5.2-5.1.2-.1-.1-1-9.6-.8-7.2z"/><path fill="var(--fill-0, #ee1d22)" d="m29.2 51.6 1.4 15.2h-3.4l-1.5-15z"/><path fill="var(--fill-0, #212021)" d="M73.8 76h1.6v1h-1.6z"/></svg>