<svg preserveAspectRatio="none" width="100%" height="100%" overflow="visible" style="display: block;" viewBox="0 0 100.686 69.5695" fill="none" xmlns="http://www.w3.org/2000/svg">
<g id="SVG">
<g id="Subtract">
<mask id="path-1-outside-1_0_72" maskUnits="userSpaceOnUse" x="-0.0118241" y="-0.0116298" width="101" height="67" fill="black">
<rect fill="white" x="-0.0118241" y="-0.0116298" width="101" height="67"/>
<path fill-rule="evenodd" clip-rule="evenodd" d="M58.1356 4.01642C59.7489 3.8071 61.3289 4.78755 61.851 6.35048C62.1948 7.35029 62.0184 8.26638 61.5805 9.19361C62.2751 10.0079 62.8799 10.9232 63.4826 11.8076C64.3057 11.172 67.5204 9.23145 68.4505 8.86715C68.8554 8.70905 69.3766 8.6911 69.6699 9.06825C69.927 9.39904 69.7635 9.87115 69.523 10.1643C68.7779 11.0546 64.9444 13.6585 64.9444 13.6585L68.1456 18.5305L72.7573 19.5221L73.1069 19.1374L83.6646 17.84L84.7928 27.1826L81.2305 27.3609L82.3501 33.2233L86.8537 31.732C86.8537 31.732 85.7229 39.0307 85.1188 42.6714C85.9913 43.8113 87.3676 44.8208 88.8667 44.4341C92.2237 43.5685 94.1513 39.2284 93.3322 36.026C92.3629 36.3078 91.3305 36.3802 90.4456 35.8003C92.0453 33.9372 91.9212 31.3581 91.2464 29.1041C93.886 30.4618 96.7612 32.7091 96.6971 35.9511C96.1586 35.5308 95.828 35.4632 95.1504 35.5496C97.0664 39.9183 95.1542 44.166 92.5379 47.797C92.0125 48.5257 91.4051 49.2121 90.9198 49.9665C90.0657 51.2932 89.9824 53.0084 90.2973 54.5165C88.9953 53.6234 87.6926 53.2083 86.1086 53.482L84.5436 61.7006C80.1465 62.1392 75.6705 62.1183 71.2586 62.311V62.0876C69.3251 62.093 67.3813 62.0985 65.4728 61.7415C64.7535 61.6069 64.036 61.3315 63.3111 61.264C63.3068 61.3663 63.2793 61.5734 63.2793 61.5734C60.7506 61.769 58.2227 61.9744 55.6944 62.1752C53.8355 62.3414 52.176 62.3318 50.2956 62.1882C49.1785 62.1029 44.9741 61.7778 44.9741 61.7778L44.9129 61.5361L36.8954 62.1085L36.9113 61.7778L26.4765 62.5402L26.4216 61.1377L20.7276 61.32L20.0754 54.835C19.3489 57.1649 18.7061 59.5211 18.0299 61.8661C15.2638 62.0217 12.4818 62.2306 9.71159 62.2871C7.73479 56.0512 3.98818 43.5092 3.98818 43.5092L4.80852 43.4534C4.61707 34.6547 4.40314 25.851 4.08759 17.0558C8.25945 14.246 15.1672 12.8539 19.6239 15.4828C22.0383 16.9072 23.3011 19.2493 23.9888 21.9125C25.9653 22.019 27.3124 22.2961 29.0656 23.2619C29.1715 21.6726 29.6183 17.3713 29.6183 17.3713C29.6183 17.3713 32.0081 16.4424 33.2558 16.1025C35.657 15.4483 38.653 15.4395 41.0986 15.805C44.2973 16.2831 46.0556 17.4688 47.9413 20.0321C48.9564 19.8612 49.9891 19.7728 51.0106 19.6482L55.3661 19.0816C55.9249 19.0095 56.9631 18.9914 57.4406 18.7989C57.7934 18.6565 58.3701 18.0069 58.3701 18.0069C59.8956 19.895 61.3794 21.8171 62.8832 23.7227L64.4786 20.0491L61.776 15.7174C61.776 15.7174 57.2246 18.6672 56.2707 18.5631C55.8389 18.5185 55.5166 18.152 55.6031 17.7131C55.7699 16.8688 56.7519 16.3565 57.3734 15.8959C58.4646 15.0871 59.5843 14.3229 60.6869 13.5307C60.2109 12.6686 59.76 11.8109 59.3338 10.9224C57.3495 11.1678 55.4371 10.054 55.1278 7.95343C54.8452 6.03396 56.2691 4.27801 58.1356 4.01642ZM35.4589 43.2794L34.2545 43.4605L34.6715 53.2728L36.1751 53.1547L35.4589 43.2794ZM49.1677 44.0345L44.4701 44.3901L44.8827 52.7873L47.1435 52.692L49.1677 44.0345ZM57.7368 43.3104L56.4982 43.4637C56.4982 43.4637 57.6076 46.4292 58.1757 47.907C59.2737 46.0001 61.2173 44.7372 63.1949 43.9095C62.7421 43.8966 57.8636 43.6588 57.8636 43.6588L57.7368 43.3104ZM16.9116 40.0627L5.86434 43.3501L13.4218 42.7307L18.8505 42.7212L18.9172 42.3134L19.8026 42.2814C19.8026 42.2814 18.5456 41.6561 17.6774 40.8159C17.4088 40.5892 16.9116 40.0627 16.9116 40.0627ZM43.3146 35.4808C43.3146 35.4808 41.4591 36.4821 40.4262 36.7826C40.6242 38.6286 40.9906 42.3297 40.9906 42.3297L39.4596 42.5781L43.5285 42.5416L43.3146 35.4808ZM55.7895 30.4073L56.4093 33.5965L53.5841 34.7879L53.8063 35.3355L58.4904 34.5918L58.5289 33.7233L55.7895 30.4073ZM58.8694 6.33859C58.2562 6.51769 57.7921 7.09318 58.0177 7.75563C58.2409 8.42589 59.2312 8.8309 59.6739 8.14522C60.0888 7.50254 59.7701 6.27826 58.8694 6.33859Z"/>
</mask>
<path fill-rule="evenodd" clip-rule="evenodd" d="M58.1356 4.01642C59.7489 3.8071 61.3289 4.78755 61.851 6.35048C62.1948 7.35029 62.0184 8.26638 61.5805 9.19361C62.2751 10.0079 62.8799 10.9232 63.4826 11.8076C64.3057 11.172 67.5204 9.23145 68.4505 8.86715C68.8554 8.70905 69.3766 8.6911 69.6699 9.06825C69.927 9.39904 69.7635 9.87115 69.523 10.1643C68.7779 11.0546 64.9444 13.6585 64.9444 13.6585L68.1456 18.5305L72.7573 19.5221L73.1069 19.1374L83.6646 17.84L84.7928 27.1826L81.2305 27.3609L82.3501 33.2233L86.8537 31.732C86.8537 31.732 85.7229 39.0307 85.1188 42.6714C85.9913 43.8113 87.3676 44.8208 88.8667 44.4341C92.2237 43.5685 94.1513 39.2284 93.3322 36.026C92.3629 36.3078 91.3305 36.3802 90.4456 35.8003C92.0453 33.9372 91.9212 31.3581 91.2464 29.1041C93.886 30.4618 96.7612 32.7091 96.6971 35.9511C96.1586 35.5308 95.828 35.4632 95.1504 35.5496C97.0664 39.9183 95.1542 44.166 92.5379 47.797C92.0125 48.5257 91.4051 49.2121 90.9198 49.9665C90.0657 51.2932 89.9824 53.0084 90.2973 54.5165C88.9953 53.6234 87.6926 53.2083 86.1086 53.482L84.5436 61.7006C80.1465 62.1392 75.6705 62.1183 71.2586 62.311V62.0876C69.3251 62.093 67.3813 62.0985 65.4728 61.7415C64.7535 61.6069 64.036 61.3315 63.3111 61.264C63.3068 61.3663 63.2793 61.5734 63.2793 61.5734C60.7506 61.769 58.2227 61.9744 55.6944 62.1752C53.8355 62.3414 52.176 62.3318 50.2956 62.1882C49.1785 62.1029 44.9741 61.7778 44.9741 61.7778L44.9129 61.5361L36.8954 62.1085L36.9113 61.7778L26.4765 62.5402L26.4216 61.1377L20.7276 61.32L20.0754 54.835C19.3489 57.1649 18.7061 59.5211 18.0299 61.8661C15.2638 62.0217 12.4818 62.2306 9.71159 62.2871C7.73479 56.0512 3.98818 43.5092 3.98818 43.5092L4.80852 43.4534C4.61707 34.6547 4.40314 25.851 4.08759 17.0558C8.25945 14.246 15.1672 12.8539 19.6239 15.4828C22.0383 16.9072 23.3011 19.2493 23.9888 21.9125C25.9653 22.019 27.3124 22.2961 29.0656 23.2619C29.1715 21.6726 29.6183 17.3713 29.6183 17.3713C29.6183 17.3713 32.0081 16.4424 33.2558 16.1025C35.657 15.4483 38.653 15.4395 41.0986 15.805C44.2973 16.2831 46.0556 17.4688 47.9413 20.0321C48.9564 19.8612 49.9891 19.7728 51.0106 19.6482L55.3661 19.0816C55.9249 19.0095 56.9631 18.9914 57.4406 18.7989C57.7934 18.6565 58.3701 18.0069 58.3701 18.0069C59.8956 19.895 61.3794 21.8171 62.8832 23.7227L64.4786 20.0491L61.776 15.7174C61.776 15.7174 57.2246 18.6672 56.2707 18.5631C55.8389 18.5185 55.5166 18.152 55.6031 17.7131C55.7699 16.8688 56.7519 16.3565 57.3734 15.8959C58.4646 15.0871 59.5843 14.3229 60.6869 13.5307C60.2109 12.6686 59.76 11.8109 59.3338 10.9224C57.3495 11.1678 55.4371 10.054 55.1278 7.95343C54.8452 6.03396 56.2691 4.27801 58.1356 4.01642ZM35.4589 43.2794L34.2545 43.4605L34.6715 53.2728L36.1751 53.1547L35.4589 43.2794ZM49.1677 44.0345L44.4701 44.3901L44.8827 52.7873L47.1435 52.692L49.1677 44.0345ZM57.7368 43.3104L56.4982 43.4637C56.4982 43.4637 57.6076 46.4292 58.1757 47.907C59.2737 46.0001 61.2173 44.7372 63.1949 43.9095C62.7421 43.8966 57.8636 43.6588 57.8636 43.6588L57.7368 43.3104ZM16.9116 40.0627L5.86434 43.3501L13.4218 42.7307L18.8505 42.7212L18.9172 42.3134L19.8026 42.2814C19.8026 42.2814 18.5456 41.6561 17.6774 40.8159C17.4088 40.5892 16.9116 40.0627 16.9116 40.0627ZM43.3146 35.4808C43.3146 35.4808 41.4591 36.4821 40.4262 36.7826C40.6242 38.6286 40.9906 42.3297 40.9906 42.3297L39.4596 42.5781L43.5285 42.5416L43.3146 35.4808ZM55.7895 30.4073L56.4093 33.5965L53.5841 34.7879L53.8063 35.3355L58.4904 34.5918L58.5289 33.7233L55.7895 30.4073ZM58.8694 6.33859C58.2562 6.51769 57.7921 7.09318 58.0177 7.75563C58.2409 8.42589 59.2312 8.8309 59.6739 8.14522C60.0888 7.50254 59.7701 6.27826 58.8694 6.33859Z" fill="var(--fill-0, #212021)"/>
<path fill-rule="evenodd" clip-rule="evenodd" d="M58.1356 4.01642C59.7489 3.8071 61.3289 4.78755 61.851 6.35048C62.1948 7.35029 62.0184 8.26638 61.5805 9.19361C62.2751 10.0079 62.8799 10.9232 63.4826 11.8076C64.3057 11.172 67.5204 9.23145 68.4505 8.86715C68.8554 8.70905 69.3766 8.6911 69.6699 9.06825C69.927 9.39904 69.7635 9.87115 69.523 10.1643C68.7779 11.0546 64.9444 13.6585 64.9444 13.6585L68.1456 18.5305L72.7573 19.5221L73.1069 19.1374L83.6646 17.84L84.7928 27.1826L81.2305 27.3609L82.3501 33.2233L86.8537 31.732C86.8537 31.732 85.7229 39.0307 85.1188 42.6714C85.9913 43.8113 87.3676 44.8208 88.8667 44.4341C92.2237 43.5685 94.1513 39.2284 93.3322 36.026C92.3629 36.3078 91.3305 36.3802 90.4456 35.8003C92.0453 33.9372 91.9212 31.3581 91.2464 29.1041C93.886 30.4618 96.7612 32.7091 96.6971 35.9511C96.1586 35.5308 95.828 35.4632 95.1504 35.5496C97.0664 39.9183 95.1542 44.166 92.5379 47.797C92.0125 48.5257 91.4051 49.2121 90.9198 49.9665C90.0657 51.2932 89.9824 53.0084 90.2973 54.5165C88.9953 53.6234 87.6926 53.2083 86.1086 53.482L84.5436 61.7006C80.1465 62.1392 75.6705 62.1183 71.2586 62.311V62.0876C69.3251 62.093 67.3813 62.0985 65.4728 61.7415C64.7535 61.6069 64.036 61.3315 63.3111 61.264C63.3068 61.3663 63.2793 61.5734 63.2793 61.5734C60.7506 61.769 58.2227 61.9744 55.6944 62.1752C53.8355 62.3414 52.176 62.3318 50.2956 62.1882C49.1785 62.1029 44.9741 61.7778 44.9741 61.7778L44.9129 61.5361L36.8954 62.1085L36.9113 61.7778L26.4765 62.5402L26.4216 61.1377L20.7276 61.32L20.0754 54.835C19.3489 57.1649 18.7061 59.5211 18.0299 61.8661C15.2638 62.0217 12.4818 62.2306 9.71159 62.2871C7.73479 56.0512 3.98818 43.5092 3.98818 43.5092L4.80852 43.4534C4.61707 34.6547 4.40314 25.851 4.08759 17.0558C8.25945 14.246 15.1672 12.8539 19.6239 15.4828C22.0383 16.9072 23.3011 19.2493 23.9888 21.9125C25.9653 22.019 27.3124 22.2961 29.0656 23.2619C29.1715 21.6726 29.6183 17.3713 29.6183 17.3713C29.6183 17.3713 32.0081 16.4424 33.2558 16.1025C35.657 15.4483 38.653 15.4395 41.0986 15.805C44.2973 16.2831 46.0556 17.4688 47.9413 20.0321C48.9564 19.8612 49.9891 19.7728 51.0106 19.6482L55.3661 19.0816C55.9249 19.0095 56.9631 18.9914 57.4406 18.7989C57.7934 18.6565 58.3701 18.0069 58.3701 18.0069C59.8956 19.895 61.3794 21.8171 62.8832 23.7227L64.4786 20.0491L61.776 15.7174C61.776 15.7174 57.2246 18.6672 56.2707 18.5631C55.8389 18.5185 55.5166 18.152 55.6031 17.7131C55.7699 16.8688 56.7519 16.3565 57.3734 15.8959C58.4646 15.0871 59.5843 14.3229 60.6869 13.5307C60.2109 12.6686 59.76 11.8109 59.3338 10.9224C57.3495 11.1678 55.4371 10.054 55.1278 7.95343C54.8452 6.03396 56.2691 4.27801 58.1356 4.01642ZM35.4589 43.2794L34.2545 43.4605L34.6715 53.2728L36.1751 53.1547L35.4589 43.2794ZM49.1677 44.0345L44.4701 44.3901L44.8827 52.7873L47.1435 52.692L49.1677 44.0345ZM57.7368 43.3104L56.4982 43.4637C56.4982 43.4637 57.6076 46.4292 58.1757 47.907C59.2737 46.0001 61.2173 44.7372 63.1949 43.9095C62.7421 43.8966 57.8636 43.6588 57.8636 43.6588L57.7368 43.3104ZM16.9116 40.0627L5.86434 43.3501L13.4218 42.7307L18.8505 42.7212L18.9172 42.3134L19.8026 42.2814C19.8026 42.2814 18.5456 41.6561 17.6774 40.8159C17.4088 40.5892 16.9116 40.0627 16.9116 40.0627ZM43.3146 35.4808C43.3146 35.4808 41.4591 36.4821 40.4262 36.7826C40.6242 38.6286 40.9906 42.3297 40.9906 42.3297L39.4596 42.5781L43.5285 42.5416L43.3146 35.4808ZM55.7895 30.4073L56.4093 33.5965L53.5841 34.7879L53.8063 35.3355L58.4904 34.5918L58.5289 33.7233L55.7895 30.4073ZM58.8694 6.33859C58.2562 6.51769 57.7921 7.09318 58.0177 7.75563C58.2409 8.42589 59.2312 8.8309 59.6739 8.14522C60.0888 7.50254 59.7701 6.27826 58.8694 6.33859Z" stroke="var(--stroke-0, white)" stroke-width="7.9763" stroke-linejoin="round" mask="url(#path-1-outside-1_0_72)"/>
</g>
<g id="Union">
<mask id="path-2-outside-2_0_72" maskUnits="userSpaceOnUse" x="8.45888" y="61.7121" width="76" height="8" fill="black">
<rect fill="white" x="8.45888" y="61.7121" width="76" height="8"/>
<path d="M25.9677 63.8097C26.8486 63.8098 27.5633 64.7027 27.5634 65.8039C27.5632 67.1042 26.8486 67.797 25.9677 67.797C25.0869 67.7968 24.3731 67.104 24.3729 65.8039C24.373 64.5035 25.0869 63.8099 25.9677 63.8097ZM18.8075 63.7267L18.8007 64.591L17.7587 64.5861V65.1789H18.6522V66.008L17.7821 66.0167V66.7101L18.8056 66.713L18.8017 67.6183L16.7099 67.63L16.7089 63.7257L18.8075 63.7267ZM33.2401 63.7267L33.2333 64.591L32.1913 64.5861V65.1789H33.0849V66.008L32.2147 66.0167V66.7101L33.2382 66.713L33.2343 67.6183L31.1415 67.63V63.7257L33.2401 63.7267ZM21.0399 63.7345C21.7359 63.7271 22.6958 63.6066 23.3026 64.0109C23.8794 64.3956 24.0053 65.2804 23.5946 65.8371C23.2396 66.317 22.6929 66.3956 22.1815 66.3957V67.6154L21.0497 67.6271C21.0573 66.3297 21.0545 65.0317 21.0399 63.7345ZM27.9813 63.7345C28.6773 63.7271 29.637 63.6065 30.244 64.0109C30.8212 64.3955 30.9477 65.2802 30.537 65.8371C30.1819 66.3173 29.6345 66.3957 29.1229 66.3957V67.6154L27.9921 67.6271C27.9997 66.3297 27.9959 65.0317 27.9813 63.7345ZM39.2489 64.5939L38.1913 64.589V65.1798H39.0976V66.007L38.2157 66.0158V66.7082L39.2538 66.7111L39.2499 67.6134L37.1268 67.6261L37.1259 63.7316H39.2558L39.2489 64.5939ZM45.1386 67.6261L44.0526 67.6183L44.0507 63.7345L45.1513 63.7316L45.1386 67.6261ZM74.0145 67.6115L72.9188 67.6242L72.8202 67.1457H72.0175L71.9345 67.6242H70.786L71.7636 63.7326L73.1698 63.7316L74.0145 67.6115ZM81.9227 67.6115L80.8261 67.6242L80.7284 67.1457H79.9257L79.8427 67.6242H78.6933L79.6708 63.7326L81.078 63.7316L81.9227 67.6115ZM59.6474 64.6613C59.2629 64.6584 58.9173 64.6182 58.5751 64.6613L58.5839 65.1886C58.5993 65.1887 59.1875 65.1932 59.5292 65.1886V66.0851H58.6503L58.6464 66.7042L59.6444 66.7121L59.6474 67.6105C58.9414 67.625 58.2334 67.6189 57.5272 67.6222C57.5103 66.3267 57.5219 65.0293 57.5204 63.7335L59.6493 63.7326L59.6474 64.6613ZM62.3495 64.6593L61.6972 64.6652L61.7089 67.6125L60.5751 67.6222V64.6652L59.9354 64.6623L59.9384 63.7345L62.3505 63.7326C62.3441 64.0412 62.349 64.3507 62.3495 64.6593ZM78.7714 63.7335L78.7665 64.6623L78.1161 64.6652L78.122 67.0714L78.121 67.6183L76.9989 67.6212C76.9786 66.6373 76.9924 65.6505 76.9911 64.6662L76.3446 64.6623L76.3485 63.7326L78.7714 63.7335ZM43.5116 63.7335L43.5126 64.5519H42.5507V65.1857H43.4423L43.4384 66.007H42.619L42.6288 67.6125L41.5311 67.6193L41.5321 63.7316L43.5116 63.7335ZM75.5653 63.7316C75.5516 64.7231 75.5624 65.7164 75.5624 66.7082L76.4306 66.715L76.4276 67.6154L74.4599 67.6183L74.4579 63.7316H75.5653ZM50.0819 63.7316C50.2061 64.3959 50.3087 65.0645 50.3876 65.7355C50.4996 65.0657 50.6426 64.3991 50.7743 63.7326L52.1679 63.7355C52.1924 64.9456 52.3892 66.4078 52.5722 67.6115C52.1828 67.6221 51.7909 67.6137 51.4013 67.6144C51.3822 66.8564 51.3879 66.0952 51.3192 65.34C51.127 66.0785 51.0254 66.8602 50.8602 67.6085C50.5341 67.6165 50.2061 67.6121 49.8798 67.6134C49.8173 66.8553 49.6313 66.0681 49.5155 65.3126L49.4032 67.6007C48.9898 67.6192 48.5748 67.6076 48.161 67.6037C48.3543 66.4378 48.551 64.7837 48.664 63.7316H50.0819ZM67.9559 63.7316C68.0801 64.3959 68.1817 65.0645 68.2606 65.7355C68.3726 65.0657 68.5157 64.399 68.6474 63.7326L70.0419 63.7355C70.0664 64.9456 70.2632 66.4078 70.4462 67.6115C70.0568 67.6221 69.665 67.6137 69.2753 67.6144C69.2563 66.8564 69.2619 66.0952 69.1933 65.34C69.001 66.0785 68.8985 66.8602 68.7333 67.6085C68.4073 67.6165 68.0799 67.6121 67.7538 67.6134C67.6913 66.8553 67.5043 66.0681 67.3886 65.3126L67.2772 67.6007C66.8639 67.6193 66.4487 67.6076 66.0351 67.6037C66.2283 66.4378 66.425 64.7836 66.538 63.7316H67.9559ZM55.704 63.7589C56.1038 63.7345 56.8602 63.8947 56.8602 63.8947L56.8651 65.0724C56.8651 65.0724 56.4762 64.5258 56.2284 64.5529C55.981 64.5801 55.876 64.6851 55.8759 64.8693C55.9107 65.2122 56.7467 65.4436 56.9227 66.0226C57.0175 66.3342 56.9702 66.6786 56.8183 66.963C56.6446 67.2886 56.3944 67.4829 56.0448 67.5861C55.5436 67.6948 54.8111 67.4349 54.7997 67.4308L54.7841 66.2892C55.1215 66.5694 55.6709 66.9015 55.8759 66.5353C56.1148 66.108 54.9755 65.8102 54.7997 65.2824C54.571 64.5935 55.08 63.7971 55.704 63.7589ZM34.7919 63.7335L35.2157 64.9269L35.5751 63.7326L36.7772 63.7375L35.7313 65.9689V67.5968L34.6034 67.6095V65.9689L33.6474 63.7316L34.7919 63.7335ZM46.9755 66.7091L47.8417 66.7111V67.6076L45.8485 67.6046L45.8368 63.7345L46.9784 63.7316L46.9755 66.7091ZM12.8407 64.5861H12.1845V67.5636H11.0819V64.5998L10.4589 64.5978V63.7257H12.8407V64.5861ZM14.2831 65.1144H14.9384V63.716L15.9862 63.7179V67.5626H14.9384V65.9738H14.2831V67.5626H13.2333V63.716H14.2831V65.1144ZM25.9472 64.7404C25.6719 64.7404 25.4482 65.2017 25.4481 65.7707C25.4482 66.3395 25.6719 66.8009 25.9472 66.8009C26.2223 66.8006 26.4452 66.3394 26.4452 65.7707C26.4452 65.2019 26.2223 64.7407 25.9472 64.7404ZM72.1649 66.3644L72.6893 66.3732L72.4599 64.9416H72.4032L72.1649 66.3644ZM80.0722 66.3644L80.5966 66.3732L80.3671 64.9416H80.3104L80.0722 66.3644ZM22.1015 65.5119C22.1151 65.5135 22.6265 65.5689 22.6268 64.9591C22.6268 64.554 22.1133 64.5844 22.1015 64.5851V65.5119ZM29.0429 65.5119C29.0531 65.5131 29.5669 65.571 29.5673 64.9591C29.5673 64.5523 29.0506 64.5846 29.0429 64.5851V65.5119Z"/>
</mask>
<path d="M25.9677 63.8097C26.8486 63.8098 27.5633 64.7027 27.5634 65.8039C27.5632 67.1042 26.8486 67.797 25.9677 67.797C25.0869 67.7968 24.3731 67.104 24.3729 65.8039C24.373 64.5035 25.0869 63.8099 25.9677 63.8097ZM18.8075 63.7267L18.8007 64.591L17.7587 64.5861V65.1789H18.6522V66.008L17.7821 66.0167V66.7101L18.8056 66.713L18.8017 67.6183L16.7099 67.63L16.7089 63.7257L18.8075 63.7267ZM33.2401 63.7267L33.2333 64.591L32.1913 64.5861V65.1789H33.0849V66.008L32.2147 66.0167V66.7101L33.2382 66.713L33.2343 67.6183L31.1415 67.63V63.7257L33.2401 63.7267ZM21.0399 63.7345C21.7359 63.7271 22.6958 63.6066 23.3026 64.0109C23.8794 64.3956 24.0053 65.2804 23.5946 65.8371C23.2396 66.317 22.6929 66.3956 22.1815 66.3957V67.6154L21.0497 67.6271C21.0573 66.3297 21.0545 65.0317 21.0399 63.7345ZM27.9813 63.7345C28.6773 63.7271 29.637 63.6065 30.244 64.0109C30.8212 64.3955 30.9477 65.2802 30.537 65.8371C30.1819 66.3173 29.6345 66.3957 29.1229 66.3957V67.6154L27.9921 67.6271C27.9997 66.3297 27.9959 65.0317 27.9813 63.7345ZM39.2489 64.5939L38.1913 64.589V65.1798H39.0976V66.007L38.2157 66.0158V66.7082L39.2538 66.7111L39.2499 67.6134L37.1268 67.6261L37.1259 63.7316H39.2558L39.2489 64.5939ZM45.1386 67.6261L44.0526 67.6183L44.0507 63.7345L45.1513 63.7316L45.1386 67.6261ZM74.0145 67.6115L72.9188 67.6242L72.8202 67.1457H72.0175L71.9345 67.6242H70.786L71.7636 63.7326L73.1698 63.7316L74.0145 67.6115ZM81.9227 67.6115L80.8261 67.6242L80.7284 67.1457H79.9257L79.8427 67.6242H78.6933L79.6708 63.7326L81.078 63.7316L81.9227 67.6115ZM59.6474 64.6613C59.2629 64.6584 58.9173 64.6182 58.5751 64.6613L58.5839 65.1886C58.5993 65.1887 59.1875 65.1932 59.5292 65.1886V66.0851H58.6503L58.6464 66.7042L59.6444 66.7121L59.6474 67.6105C58.9414 67.625 58.2334 67.6189 57.5272 67.6222C57.5103 66.3267 57.5219 65.0293 57.5204 63.7335L59.6493 63.7326L59.6474 64.6613ZM62.3495 64.6593L61.6972 64.6652L61.7089 67.6125L60.5751 67.6222V64.6652L59.9354 64.6623L59.9384 63.7345L62.3505 63.7326C62.3441 64.0412 62.349 64.3507 62.3495 64.6593ZM78.7714 63.7335L78.7665 64.6623L78.1161 64.6652L78.122 67.0714L78.121 67.6183L76.9989 67.6212C76.9786 66.6373 76.9924 65.6505 76.9911 64.6662L76.3446 64.6623L76.3485 63.7326L78.7714 63.7335ZM43.5116 63.7335L43.5126 64.5519H42.5507V65.1857H43.4423L43.4384 66.007H42.619L42.6288 67.6125L41.5311 67.6193L41.5321 63.7316L43.5116 63.7335ZM75.5653 63.7316C75.5516 64.7231 75.5624 65.7164 75.5624 66.7082L76.4306 66.715L76.4276 67.6154L74.4599 67.6183L74.4579 63.7316H75.5653ZM50.0819 63.7316C50.2061 64.3959 50.3087 65.0645 50.3876 65.7355C50.4996 65.0657 50.6426 64.3991 50.7743 63.7326L52.1679 63.7355C52.1924 64.9456 52.3892 66.4078 52.5722 67.6115C52.1828 67.6221 51.7909 67.6137 51.4013 67.6144C51.3822 66.8564 51.3879 66.0952 51.3192 65.34C51.127 66.0785 51.0254 66.8602 50.8602 67.6085C50.5341 67.6165 50.2061 67.6121 49.8798 67.6134C49.8173 66.8553 49.6313 66.0681 49.5155 65.3126L49.4032 67.6007C48.9898 67.6192 48.5748 67.6076 48.161 67.6037C48.3543 66.4378 48.551 64.7837 48.664 63.7316H50.0819ZM67.9559 63.7316C68.0801 64.3959 68.1817 65.0645 68.2606 65.7355C68.3726 65.0657 68.5157 64.399 68.6474 63.7326L70.0419 63.7355C70.0664 64.9456 70.2632 66.4078 70.4462 67.6115C70.0568 67.6221 69.665 67.6137 69.2753 67.6144C69.2563 66.8564 69.2619 66.0952 69.1933 65.34C69.001 66.0785 68.8985 66.8602 68.7333 67.6085C68.4073 67.6165 68.0799 67.6121 67.7538 67.6134C67.6913 66.8553 67.5043 66.0681 67.3886 65.3126L67.2772 67.6007C66.8639 67.6193 66.4487 67.6076 66.0351 67.6037C66.2283 66.4378 66.425 64.7836 66.538 63.7316H67.9559ZM55.704 63.7589C56.1038 63.7345 56.8602 63.8947 56.8602 63.8947L56.8651 65.0724C56.8651 65.0724 56.4762 64.5258 56.2284 64.5529C55.981 64.5801 55.876 64.6851 55.8759 64.8693C55.9107 65.2122 56.7467 65.4436 56.9227 66.0226C57.0175 66.3342 56.9702 66.6786 56.8183 66.963C56.6446 67.2886 56.3944 67.4829 56.0448 67.5861C55.5436 67.6948 54.8111 67.4349 54.7997 67.4308L54.7841 66.2892C55.1215 66.5694 55.6709 66.9015 55.8759 66.5353C56.1148 66.108 54.9755 65.8102 54.7997 65.2824C54.571 64.5935 55.08 63.7971 55.704 63.7589ZM34.7919 63.7335L35.2157 64.9269L35.5751 63.7326L36.7772 63.7375L35.7313 65.9689V67.5968L34.6034 67.6095V65.9689L33.6474 63.7316L34.7919 63.7335ZM46.9755 66.7091L47.8417 66.7111V67.6076L45.8485 67.6046L45.8368 63.7345L46.9784 63.7316L46.9755 66.7091ZM12.8407 64.5861H12.1845V67.5636H11.0819V64.5998L10.4589 64.5978V63.7257H12.8407V64.5861ZM14.2831 65.1144H14.9384V63.716L15.9862 63.7179V67.5626H14.9384V65.9738H14.2831V67.5626H13.2333V63.716H14.2831V65.1144ZM25.9472 64.7404C25.6719 64.7404 25.4482 65.2017 25.4481 65.7707C25.4482 66.3395 25.6719 66.8009 25.9472 66.8009C26.2223 66.8006 26.4452 66.3394 26.4452 65.7707C26.4452 65.2019 26.2223 64.7407 25.9472 64.7404ZM72.1649 66.3644L72.6893 66.3732L72.4599 64.9416H72.4032L72.1649 66.3644ZM80.0722 66.3644L80.5966 66.3732L80.3671 64.9416H80.3104L80.0722 66.3644ZM22.1015 65.5119C22.1151 65.5135 22.6265 65.5689 22.6268 64.9591C22.6268 64.554 22.1133 64.5844 22.1015 64.5851V65.5119ZM29.0429 65.5119C29.0531 65.5131 29.5669 65.571 29.5673 64.9591C29.5673 64.5523 29.0506 64.5846 29.0429 64.5851V65.5119Z" fill="var(--fill-0, #212021)"/>
<path d="M25.9677 63.8097L25.9678 62.0372L25.9672 62.0372L25.9677 63.8097ZM27.5634 65.8039L29.3359 65.8041V65.8038L27.5634 65.8039ZM25.9677 67.797L25.9672 69.5695H25.9678L25.9677 67.797ZM24.3729 65.8039L22.6004 65.8038V65.8041L24.3729 65.8039ZM18.8075 63.7267L20.58 63.7407C20.5837 63.2684 20.3987 62.814 20.0661 62.4786C19.7335 62.1432 19.2807 61.9544 18.8083 61.9542L18.8075 63.7267ZM18.8007 64.591L18.7924 66.3635C19.7691 66.368 20.5654 65.5817 20.5731 64.605L18.8007 64.591ZM17.7587 64.5861L17.767 62.8136C17.2955 62.8114 16.8425 62.9971 16.5083 63.3298C16.1741 63.6624 15.9862 64.1145 15.9862 64.5861H17.7587ZM17.7587 65.1789H15.9862C15.9862 66.1578 16.7798 66.9514 17.7587 66.9514V65.1789ZM18.6522 65.1789H20.4247C20.4247 64.1999 19.6312 63.4063 18.6522 63.4063V65.1789ZM18.6522 66.008L18.6701 67.7804C19.642 67.7706 20.4247 66.9799 20.4247 66.008H18.6522ZM17.7821 66.0167L17.7642 64.2443C16.7923 64.2541 16.0096 65.0448 16.0096 66.0167H17.7821ZM17.7821 66.7101H16.0096C16.0096 67.6871 16.8001 68.4798 17.777 68.4826L17.7821 66.7101ZM18.8056 66.713L20.5781 66.7207C20.5801 66.2501 20.3949 65.7981 20.0634 65.4642C19.7319 65.1303 19.2812 64.9419 18.8106 64.9405L18.8056 66.713ZM18.8017 67.6183L18.8116 69.3908C19.7836 69.3853 20.57 68.598 20.5741 67.626L18.8017 67.6183ZM16.7099 67.63L14.9373 67.6305C14.9375 68.1022 15.1256 68.5545 15.4602 68.887C15.7947 69.2196 16.248 69.4052 16.7198 69.4025L16.7099 67.63ZM16.7089 63.7257L16.7097 61.9532C16.2394 61.953 15.7883 62.1397 15.4557 62.4722C15.1231 62.8048 14.9362 63.2559 14.9364 63.7262L16.7089 63.7257ZM33.2401 63.7267L35.0126 63.7407C35.0163 63.2684 34.8313 62.814 34.4987 62.4786C34.1661 62.1432 33.7133 61.9544 33.241 61.9542L33.2401 63.7267ZM33.2333 64.591L33.225 66.3635C34.2017 66.368 34.998 65.5817 35.0058 64.605L33.2333 64.591ZM32.1913 64.5861L32.1996 62.8136C31.7281 62.8114 31.2751 62.9971 30.9409 63.3298C30.6067 63.6624 30.4188 64.1145 30.4188 64.5861H32.1913ZM32.1913 65.1789H30.4188C30.4188 66.1578 31.2124 66.9514 32.1913 66.9514V65.1789ZM33.0849 65.1789H34.8574C34.8574 64.1999 34.0638 63.4063 33.0849 63.4063V65.1789ZM33.0849 66.008L33.1028 67.7804C34.0747 67.7706 34.8574 66.9799 34.8574 66.008H33.0849ZM32.2147 66.0167L32.1968 64.2443C31.2249 64.2541 30.4422 65.0448 30.4422 66.0167H32.2147ZM32.2147 66.7101H30.4422C30.4422 67.6871 31.2327 68.4798 32.2097 68.4826L32.2147 66.7101ZM33.2382 66.713L35.0107 66.7207C35.0127 66.2501 34.8276 65.7981 34.496 65.4642C34.1645 65.1303 33.7138 64.9419 33.2432 64.9405L33.2382 66.713ZM33.2343 67.6183L33.2442 69.3908C34.2163 69.3854 35.0026 68.598 35.0068 67.626L33.2343 67.6183ZM31.1415 67.63H29.369C29.369 68.1018 29.5571 68.5542 29.8917 68.8869C30.2262 69.2196 30.6796 69.4052 31.1514 69.4025L31.1415 67.63ZM31.1415 63.7257L31.1423 61.9532C30.6721 61.953 30.221 62.1397 29.8884 62.4721C29.5558 62.8045 29.369 63.2555 29.369 63.7257H31.1415ZM21.0399 63.7345L21.0209 61.9621C20.5507 61.9672 20.1018 62.1588 19.7729 62.495C19.4441 62.8311 19.2623 63.2842 19.2675 63.7544L21.0399 63.7345ZM23.3026 64.0109L24.2862 62.5363L24.2854 62.5357L23.3026 64.0109ZM23.5946 65.8371L25.0196 66.8912L25.021 66.8894L23.5946 65.8371ZM22.1815 66.3957L22.1814 64.6231C21.2025 64.6232 20.409 65.4168 20.409 66.3957H22.1815ZM22.1815 67.6154L22.1999 69.3878C23.1716 69.3777 23.954 68.5872 23.954 67.6154H22.1815ZM21.0497 67.6271L19.2772 67.6167C19.2744 68.0918 19.4625 68.5481 19.7992 68.8833C20.1358 69.2184 20.593 69.4044 21.0681 69.3995L21.0497 67.6271ZM27.9813 63.7345L27.9625 61.9621C27.4922 61.9671 27.0432 62.1588 26.7144 62.4949C26.3855 62.8311 26.2037 63.2842 26.2089 63.7544L27.9813 63.7345ZM30.244 64.0109L31.227 62.5359L31.2268 62.5357L30.244 64.0109ZM30.537 65.8371L31.9621 66.891L31.9634 66.8893L30.537 65.8371ZM29.1229 66.3957V64.6231C28.144 64.6231 27.3504 65.4167 27.3504 66.3957H29.1229ZM29.1229 67.6154L29.1413 69.3878C30.113 69.3777 30.8955 68.5871 30.8955 67.6154H29.1229ZM27.9921 67.6271L26.2196 67.6167C26.2168 68.0918 26.4049 68.5481 26.7415 68.8833C27.0782 69.2184 27.5354 69.4044 28.0104 69.3995L27.9921 67.6271ZM39.2489 64.5939L39.2407 66.3664C40.2174 66.3709 41.0136 65.5846 41.0214 64.6079L39.2489 64.5939ZM38.1913 64.589L38.1995 62.8165C37.728 62.8143 37.275 63.0001 36.9408 63.3328C36.6067 63.6654 36.4188 64.1175 36.4188 64.589H38.1913ZM38.1913 65.1798H36.4188C36.4188 66.1588 37.2124 66.9523 38.1913 66.9523V65.1798ZM39.0976 65.1798H40.8701C40.8701 64.2009 40.0765 63.4073 39.0976 63.4073V65.1798ZM39.0976 66.007L39.1152 67.7794C40.0872 67.7697 40.8701 66.979 40.8701 66.007H39.0976ZM38.2157 66.0158L38.198 64.2433C37.2261 64.253 36.4432 65.0437 36.4432 66.0158H38.2157ZM38.2157 66.7082H36.4432C36.4432 67.6851 37.2337 68.4779 38.2107 68.4807L38.2157 66.7082ZM39.2538 66.7111L41.0263 66.7188C41.0283 66.2482 40.8432 65.7961 40.5116 65.4622C40.1801 65.1283 39.7294 64.9399 39.2588 64.9386L39.2538 66.7111ZM39.2499 67.6134L39.2605 69.3859C40.2323 69.3801 41.0182 68.5929 41.0224 67.6211L39.2499 67.6134ZM37.1268 67.6261L35.3543 67.6266C35.3545 68.0984 35.5427 68.5508 35.8774 68.8834C36.2121 69.216 36.6656 69.4014 37.1374 69.3986L37.1268 67.6261ZM37.1259 63.7316V61.9591C36.6557 61.9591 36.2048 62.1459 35.8724 62.4784C35.5399 62.8109 35.3532 63.2619 35.3534 63.732L37.1259 63.7316ZM39.2558 63.7316L41.0282 63.7456C41.032 63.2731 40.8469 62.8187 40.5141 62.4832C40.1813 62.1478 39.7283 61.9591 39.2558 61.9591V63.7316ZM45.1386 67.6261L45.1258 69.3986C45.5971 69.402 46.0504 69.2175 46.3854 68.886C46.7204 68.5545 46.9095 68.1032 46.9111 67.6319L45.1386 67.6261ZM44.0526 67.6183L42.2801 67.6192C42.2806 68.5928 43.0663 69.3838 44.0399 69.3908L44.0526 67.6183ZM44.0507 63.7345L44.046 61.962C43.0685 61.9646 42.2777 62.758 42.2782 63.7354L44.0507 63.7345ZM45.1513 63.7316L46.9238 63.7374C46.9253 63.2655 46.7386 62.8124 46.405 62.4786C46.0714 62.1448 45.6185 61.9578 45.1465 61.9591L45.1513 63.7316ZM74.0145 67.6115L74.0351 69.3839C74.5678 69.3777 75.0694 69.1323 75.4012 68.7155C75.733 68.2988 75.8598 67.7549 75.7465 67.2344L74.0145 67.6115ZM72.9188 67.6242L71.1828 67.982C71.3542 68.8133 72.0907 69.4064 72.9394 69.3966L72.9188 67.6242ZM72.8202 67.1457L74.5562 66.7878C74.3864 65.9641 73.6612 65.3731 72.8202 65.3731V67.1457ZM72.0175 67.1457V65.3731C71.1554 65.3731 70.4184 65.9933 70.271 66.8427L72.0175 67.1457ZM71.9345 67.6242V69.3967C72.7965 69.3967 73.5336 68.7765 73.6809 67.9271L71.9345 67.6242ZM70.786 67.6242L69.0669 67.1923C68.9339 67.7221 69.0524 68.2835 69.3883 68.7142C69.7242 69.1449 70.2399 69.3967 70.786 69.3967V67.6242ZM71.7636 63.7326L71.7623 61.9601C70.9502 61.9606 70.2423 62.5131 70.0445 63.3007L71.7636 63.7326ZM73.1698 63.7316L74.9018 63.3545C74.7243 62.5395 74.0027 61.9585 73.1686 61.9591L73.1698 63.7316ZM81.9227 67.6115L81.9433 69.3839C82.4759 69.3777 82.9776 69.1323 83.3094 68.7155C83.6412 68.2988 83.768 67.7549 83.6547 67.2344L81.9227 67.6115ZM80.8261 67.6242L79.0893 67.9786C79.2593 68.8115 79.9966 69.4064 80.8466 69.3966L80.8261 67.6242ZM80.7284 67.1457L82.4651 66.7912C82.2967 65.9659 81.5707 65.3731 80.7284 65.3731V67.1457ZM79.9257 67.1457V65.3731C79.0636 65.3731 78.3266 65.9933 78.1792 66.8427L79.9257 67.1457ZM79.8427 67.6242V69.3967C80.7047 69.3967 81.4418 68.7765 81.5891 67.9271L79.8427 67.6242ZM78.6933 67.6242L76.9741 67.1923C76.8411 67.7221 76.9597 68.2835 77.2955 68.7142C77.6314 69.1449 78.1471 69.3967 78.6933 69.3967V67.6242ZM79.6708 63.7326L79.6696 61.9601C78.8574 61.9606 78.1495 62.5131 77.9517 63.3007L79.6708 63.7326ZM81.078 63.7316L82.81 63.3545C82.6325 62.5395 81.9109 61.9585 81.0768 61.9591L81.078 63.7316ZM59.6474 64.6613L59.6342 66.4337C60.1059 66.4372 60.5596 66.2526 60.8947 65.9206C61.2299 65.5886 61.4189 65.1367 61.4199 64.665L59.6474 64.6613ZM58.5751 64.6613L58.3537 62.9026C57.4562 63.0156 56.7877 63.7863 56.8028 64.6908L58.5751 64.6613ZM58.5839 65.1886L56.8116 65.2182C56.8276 66.1802 57.6082 66.9537 58.5703 66.9611L58.5839 65.1886ZM59.5292 65.1886H61.3017C61.3017 64.7144 61.1117 64.26 60.7741 63.9269C60.4366 63.5939 59.9797 63.4099 59.5055 63.4163L59.5292 65.1886ZM59.5292 66.0851V67.8576C60.5081 67.8576 61.3017 67.064 61.3017 66.0851H59.5292ZM58.6503 66.0851V64.3126C57.6757 64.3126 56.884 65.0994 56.8778 66.0739L58.6503 66.0851ZM58.6464 66.7042L56.8739 66.6931C56.8677 67.6709 57.6547 68.4691 58.6325 68.4767L58.6464 66.7042ZM59.6444 66.7121L61.4169 66.7063C61.4138 65.735 60.6295 64.9472 59.6583 64.9396L59.6444 66.7121ZM59.6474 67.6105L59.6839 69.3826C60.6506 69.3627 61.423 68.5717 61.4199 67.6047L59.6474 67.6105ZM57.5272 67.6222L55.7549 67.6454C55.7676 68.6184 56.5624 69.3993 57.5355 69.3947L57.5272 67.6222ZM57.5204 63.7335L57.5196 61.961C57.0493 61.9612 56.5983 62.1484 56.266 62.4812C55.9337 62.814 55.7473 63.2653 55.7479 63.7356L57.5204 63.7335ZM59.6493 63.7326L61.4218 63.7363C61.4228 63.2654 61.2364 62.8135 60.9037 62.4802C60.571 62.147 60.1194 61.9598 59.6485 61.9601L59.6493 63.7326ZM62.3495 64.6593L62.3654 66.4318C63.3393 66.423 64.1237 65.6302 64.122 64.6563L62.3495 64.6593ZM61.6972 64.6652L61.6812 62.8927C60.7058 62.9015 59.9208 63.6968 59.9247 64.6722L61.6972 64.6652ZM61.7089 67.6125L61.7241 69.3849C62.6998 69.3765 63.4853 68.5811 63.4814 67.6054L61.7089 67.6125ZM60.5751 67.6222H58.8026C58.8026 68.095 58.9914 68.5481 59.3271 68.881C59.6629 69.2138 60.1176 69.3987 60.5904 69.3947L60.5751 67.6222ZM60.5751 64.6652H62.3476C62.3476 63.6894 61.559 62.8972 60.5832 62.8927L60.5751 64.6652ZM59.9354 64.6623L58.1629 64.6567C58.1598 65.6346 58.9494 66.4303 59.9273 66.4347L59.9354 64.6623ZM59.9384 63.7345L59.9369 61.962C58.9608 61.9628 58.169 62.7527 58.1659 63.7289L59.9384 63.7345ZM62.3505 63.7326L64.1226 63.7695C64.1325 63.2928 63.95 62.8323 63.6163 62.4918C63.2826 62.1513 62.8258 61.9597 62.349 61.9601L62.3505 63.7326ZM78.7714 63.7335L80.5439 63.7429C80.5463 63.2713 80.3608 62.8181 80.0283 62.4837C79.6958 62.1493 79.2437 61.9612 78.7721 61.961L78.7714 63.7335ZM78.7665 64.6623L78.7745 66.4347C79.7467 66.4304 80.5339 65.6437 80.539 64.6716L78.7665 64.6623ZM78.1161 64.6652L78.1081 62.8927C77.1306 62.8971 76.3412 63.692 76.3436 64.6695L78.1161 64.6652ZM78.122 67.0714L79.8945 67.0746L79.8945 67.0671L78.122 67.0714ZM78.121 67.6183L78.1256 69.3908C79.1015 69.3883 79.8918 68.5974 79.8935 67.6215L78.121 67.6183ZM76.9989 67.6212L75.2268 67.6579C75.2468 68.6241 76.0371 69.3963 77.0035 69.3937L76.9989 67.6212ZM76.9911 64.6662L78.7636 64.6638C78.7623 63.69 77.9756 62.8996 77.0018 62.8937L76.9911 64.6662ZM76.3446 64.6623L74.5721 64.6548C74.568 65.6325 75.3563 66.4288 76.3339 66.4347L76.3446 64.6623ZM76.3485 63.7326L76.3492 61.9601C75.3729 61.9597 74.5801 62.7488 74.576 63.7251L76.3485 63.7326ZM43.5116 63.7335L45.2841 63.7314C45.283 62.754 44.4908 61.962 43.5134 61.961L43.5116 63.7335ZM43.5126 64.5519V66.3244C43.9831 66.3244 44.4342 66.1374 44.7667 65.8045C45.0992 65.4716 45.2857 65.0203 45.2851 64.5498L43.5126 64.5519ZM42.5507 64.5519V62.7794C41.5717 62.7794 40.7782 63.573 40.7782 64.5519H42.5507ZM42.5507 65.1857H40.7782C40.7782 66.1646 41.5717 66.9582 42.5507 66.9582V65.1857ZM43.4423 65.1857L45.2148 65.1941C45.217 64.7226 45.0313 64.2696 44.6986 63.9353C44.366 63.6011 43.9138 63.4132 43.4423 63.4132V65.1857ZM43.4384 66.007V67.7795C44.414 67.7795 45.2062 66.991 45.2109 66.0154L43.4384 66.007ZM42.619 66.007V64.2345C42.1471 64.2345 41.6946 64.4227 41.3619 64.7574C41.0292 65.0922 40.8437 65.5458 40.8466 66.0178L42.619 66.007ZM42.6288 67.6125L42.6398 69.3849C43.6186 69.3788 44.4072 68.5805 44.4013 67.6017L42.6288 67.6125ZM41.5311 67.6193L39.7586 67.6188C39.7585 68.0909 39.9467 68.5436 40.2815 68.8764C40.6164 69.2092 41.0701 69.3947 41.5422 69.3918L41.5311 67.6193ZM41.5321 63.7316L41.5339 61.9591C41.0635 61.9586 40.6123 62.1451 40.2795 62.4775C39.9468 62.8098 39.7597 63.2608 39.7596 63.7311L41.5321 63.7316ZM75.5653 63.7316L77.3377 63.7562C77.3442 63.2819 77.1604 62.8247 76.8273 62.487C76.4943 62.1492 76.0397 61.9591 75.5653 61.9591V63.7316ZM75.5624 66.7082H73.7899C73.7899 67.6816 74.575 68.4729 75.5484 68.4806L75.5624 66.7082ZM76.4306 66.715L78.2031 66.7208C78.2062 65.745 77.4202 64.9502 76.4445 64.9425L76.4306 66.715ZM76.4276 67.6154L76.4303 69.3879C77.4059 69.3864 78.197 68.5968 78.2001 67.6211L76.4276 67.6154ZM74.4599 67.6183L72.6873 67.6192C72.6876 68.0896 72.8748 68.5406 73.2077 68.8729C73.5407 69.2052 73.9921 69.3915 74.4625 69.3908L74.4599 67.6183ZM74.4579 63.7316V61.9591C73.9876 61.9591 73.5367 62.1459 73.2042 62.4786C72.8718 62.8112 72.6852 63.2622 72.6854 63.7325L74.4579 63.7316ZM50.0819 63.7316L51.8242 63.4058C51.6674 62.5671 50.9352 61.9591 50.0819 61.9591V63.7316ZM50.3876 65.7355L48.6272 65.9425C48.7302 66.8189 49.4623 67.486 50.3445 67.5075C51.2266 67.529 51.9903 66.8982 52.1358 66.0279L50.3876 65.7355ZM50.7743 63.7326L50.778 61.9601C49.9302 61.9583 49.1998 62.5572 49.0354 63.389L50.7743 63.7326ZM52.1679 63.7355L53.94 63.6996C53.9205 62.7363 53.1351 61.965 52.1716 61.963L52.1679 63.7355ZM52.5722 67.6115L52.6203 69.3833C53.1283 69.3695 53.606 69.1383 53.932 68.7485C54.2579 68.3586 54.4009 67.8476 54.3245 67.3451L52.5722 67.6115ZM51.4013 67.6144L49.6293 67.6589C49.6535 68.6214 50.4415 69.3885 51.4043 69.3869L51.4013 67.6144ZM51.3192 65.34L53.0845 65.1796C53.0065 64.3217 52.323 63.644 51.4645 63.5734C50.6059 63.5028 49.8209 64.0598 49.6039 64.8934L51.3192 65.34ZM50.8602 67.6085L50.9034 69.3805C51.7188 69.3607 52.4153 68.787 52.5911 67.9905L50.8602 67.6085ZM49.8798 67.6134L48.1133 67.7591C48.1893 68.6812 48.9618 69.3897 49.887 69.3859L49.8798 67.6134ZM49.5155 65.3126L51.2676 65.0442C51.1298 64.1446 50.3331 63.4956 49.4243 63.5425C48.5154 63.5893 47.7898 64.3168 47.7451 65.2258L49.5155 65.3126ZM49.4032 67.6007L49.4825 69.3715C50.3962 69.3306 51.1288 68.6011 51.1736 67.6876L49.4032 67.6007ZM48.161 67.6037L46.4124 67.3138C46.3277 67.8246 46.4706 68.3469 46.8036 68.7435C47.1366 69.14 47.6263 69.3711 48.144 69.3761L48.161 67.6037ZM48.664 63.7316V61.9591C47.7583 61.9591 46.9983 62.6418 46.9016 63.5423L48.664 63.7316ZM67.9559 63.7316L69.6983 63.4058C69.5415 62.5671 68.8093 61.9591 67.9559 61.9591V63.7316ZM68.2606 65.7355L66.5002 65.9425C66.6033 66.8189 67.3353 67.486 68.2175 67.5075C69.0997 67.529 69.8633 66.8982 70.0089 66.0279L68.2606 65.7355ZM68.6474 63.7326L68.6511 61.9601C67.8032 61.9583 67.0728 62.5572 66.9085 63.389L68.6474 63.7326ZM70.0419 63.7355L71.814 63.6996C71.7945 62.7363 71.0091 61.965 70.0456 61.963L70.0419 63.7355ZM70.4462 67.6115L70.4944 69.3833C71.0024 69.3695 71.48 69.1383 71.806 68.7485C72.132 68.3586 72.2749 67.8476 72.1986 67.3451L70.4462 67.6115ZM69.2753 67.6144L67.5033 67.6589C67.5275 68.6214 68.3155 69.3885 69.2783 69.3869L69.2753 67.6144ZM69.1933 65.34L70.9585 65.1796C70.8805 64.3217 70.197 63.644 69.3385 63.5734C68.4799 63.5028 67.695 64.0598 67.4779 64.8934L69.1933 65.34ZM68.7333 67.6085L68.7764 69.3805C69.5918 69.3607 70.2884 68.787 70.4642 67.9905L68.7333 67.6085ZM67.7538 67.6134L65.9873 67.7591C66.0633 68.6812 66.8358 69.3897 67.761 69.3859L67.7538 67.6134ZM67.3886 65.3126L69.1406 65.0442C69.0028 64.1445 68.2059 63.4955 67.2969 63.5425C66.388 63.5895 65.6624 64.3174 65.6182 65.2265L67.3886 65.3126ZM67.2772 67.6007L67.3566 69.3715C68.2706 69.3305 69.0032 68.6007 69.0477 67.6869L67.2772 67.6007ZM66.0351 67.6037L64.2864 67.3138C64.2017 67.8246 64.3447 68.3469 64.6776 68.7435C65.0106 69.14 65.5003 69.3711 66.018 69.3761L66.0351 67.6037ZM66.538 63.7316V61.9591C65.6323 61.9591 64.8723 62.6418 64.7756 63.5423L66.538 63.7316ZM55.704 63.7589L55.5959 61.9897L55.5957 61.9897L55.704 63.7589ZM56.8602 63.8947L58.6327 63.8873C58.6293 63.0527 58.044 62.3335 57.2274 62.1606L56.8602 63.8947ZM56.8651 65.0724L55.4208 66.0999C55.8686 66.7294 56.6726 66.9963 57.408 66.7598C58.1434 66.5232 58.6408 65.8376 58.6376 65.0651L56.8651 65.0724ZM56.2284 64.5529L56.0355 62.7909L56.0348 62.791L56.2284 64.5529ZM55.8759 64.8693L54.1034 64.8683C54.1033 64.9284 54.1064 64.9885 54.1124 65.0484L55.8759 64.8693ZM56.9227 66.0226L55.2269 66.5382L55.227 66.5385L56.9227 66.0226ZM56.8183 66.963L55.2549 66.1278L55.2543 66.1289L56.8183 66.963ZM56.0448 67.5861L56.4207 69.3183C56.4631 69.3091 56.5052 69.2983 56.5468 69.286L56.0448 67.5861ZM54.7997 67.4308L53.0274 67.4551C53.0375 68.196 53.5074 68.8524 54.2055 69.1008L54.7997 67.4308ZM54.7841 66.2892L55.9165 64.9256C55.3844 64.4837 54.6439 64.3917 54.0199 64.6899C53.3959 64.988 53.0023 65.6219 53.0117 66.3135L54.7841 66.2892ZM55.8759 66.5353L57.4226 67.401L57.423 67.4002L55.8759 66.5353ZM54.7997 65.2824L53.1175 65.8409L53.118 65.8425L54.7997 65.2824ZM34.7919 63.7335L36.4622 63.1403C36.2115 62.4344 35.544 61.9623 34.7949 61.961L34.7919 63.7335ZM35.2157 64.9269L33.5454 65.5201C33.8018 66.2421 34.4932 66.7176 35.2591 66.6989C36.0251 66.6801 36.6923 66.1713 36.9131 65.4376L35.2157 64.9269ZM35.5751 63.7326L35.5823 61.9601C34.7974 61.9569 34.1039 62.4702 33.8778 63.2218L35.5751 63.7326ZM36.7772 63.7375L38.3822 64.4897C38.639 63.9419 38.5986 63.3009 38.275 62.7896C37.9515 62.2783 37.3895 61.9674 36.7844 61.965L36.7772 63.7375ZM35.7313 65.9689L34.1264 65.2166C34.016 65.4521 33.9588 65.7089 33.9588 65.9689H35.7313ZM35.7313 67.5968L35.7513 69.3692C36.7224 69.3583 37.5039 68.568 37.5039 67.5968H35.7313ZM34.6034 67.6095H32.8309C32.8309 68.0831 33.0204 68.5369 33.3571 68.8699C33.6939 69.2029 34.1498 69.3873 34.6234 69.3819L34.6034 67.6095ZM34.6034 65.9689H36.3759C36.3759 65.7295 36.3274 65.4925 36.2333 65.2724L34.6034 65.9689ZM33.6474 63.7316L33.6504 61.9591C33.0544 61.9581 32.4977 62.2567 32.1689 62.7538C31.8401 63.2509 31.7832 63.88 32.0174 64.4281L33.6474 63.7316ZM46.9755 66.7091L45.203 66.7074C45.202 67.6854 45.9934 68.4794 46.9715 68.4816L46.9755 66.7091ZM47.8417 66.7111H49.6142C49.6142 65.7337 48.8231 64.9408 47.8457 64.9386L47.8417 66.7111ZM47.8417 67.6076L47.8391 69.3801C48.3096 69.3808 48.7612 69.1943 49.0941 68.8618C49.4271 68.5294 49.6142 68.0781 49.6142 67.6076H47.8417ZM45.8485 67.6046L44.076 67.61C44.079 68.5858 44.8701 69.3757 45.8459 69.3771L45.8485 67.6046ZM45.8368 63.7345L45.8323 61.962C45.362 61.9632 44.9115 62.1512 44.58 62.4847C44.2484 62.8181 44.0629 63.2696 44.0643 63.7399L45.8368 63.7345ZM46.9784 63.7316L48.7509 63.7333C48.7514 63.2621 48.5642 62.8102 48.2308 62.4772C47.8973 62.1443 47.4451 61.9579 46.9739 61.9591L46.9784 63.7316ZM12.8407 64.5861V66.3586C13.8196 66.3586 14.6132 65.565 14.6132 64.5861H12.8407ZM12.1845 64.5861V62.8136C11.2055 62.8136 10.412 63.6072 10.412 64.5861H12.1845ZM12.1845 67.5636V69.3361C13.1634 69.3361 13.957 68.5426 13.957 67.5636H12.1845ZM11.0819 67.5636H9.30941C9.30941 68.5426 10.103 69.3361 11.0819 69.3361V67.5636ZM11.0819 64.5998H12.8544C12.8544 63.623 12.0642 62.8303 11.0875 62.8273L11.0819 64.5998ZM10.4589 64.5978H8.68637C8.68637 65.5746 9.47657 66.3672 10.4533 66.3703L10.4589 64.5978ZM10.4589 63.7257V61.9532C9.47995 61.9532 8.68637 62.7468 8.68637 63.7257H10.4589ZM12.8407 63.7257H14.6132C14.6132 62.7468 13.8196 61.9532 12.8407 61.9532V63.7257ZM14.2831 65.1144H12.5106C12.5106 66.0933 13.3042 66.8869 14.2831 66.8869V65.1144ZM14.9384 65.1144V66.8869C15.9173 66.8869 16.7109 66.0933 16.7109 65.1144H14.9384ZM14.9384 63.716L14.9417 61.9435C14.471 61.9426 14.0193 62.1289 13.6862 62.4614C13.3531 62.7939 13.1659 63.2453 13.1659 63.716H14.9384ZM15.9862 63.7179H17.7587C17.7587 62.7403 16.9672 61.9472 15.9895 61.9454L15.9862 63.7179ZM15.9862 67.5626V69.3352C16.9652 69.3352 17.7587 68.5416 17.7587 67.5626H15.9862ZM14.9384 67.5626H13.1659C13.1659 68.5416 13.9594 69.3352 14.9384 69.3352V67.5626ZM14.9384 65.9738H16.7109C16.7109 64.9948 15.9173 64.2013 14.9384 64.2013V65.9738ZM14.2831 65.9738V64.2013C13.3042 64.2013 12.5106 64.9948 12.5106 65.9738H14.2831ZM14.2831 67.5626V69.3352C15.262 69.3352 16.0556 68.5416 16.0556 67.5626H14.2831ZM13.2333 67.5626H11.4608C11.4608 68.5416 12.2544 69.3352 13.2333 69.3352V67.5626ZM13.2333 63.716V61.9435C12.2544 61.9435 11.4608 62.737 11.4608 63.716H13.2333ZM14.2831 63.716H16.0556C16.0556 62.737 15.262 61.9435 14.2831 61.9435V63.716ZM25.9472 64.7404L25.9492 62.9679H25.9472V64.7404ZM25.4481 65.7707L23.6756 65.7706V65.7708L25.4481 65.7707ZM25.9472 66.8009V68.5734L25.9492 68.5734L25.9472 66.8009ZM26.4452 65.7707L28.2177 65.7708V65.7706L26.4452 65.7707ZM72.1649 66.3644L70.4168 66.0716C70.3315 66.5806 70.4724 67.1015 70.8025 67.4982C71.1326 67.8949 71.6192 68.128 72.1352 68.1367L72.1649 66.3644ZM72.6893 66.3732L72.6596 68.1455C73.1839 68.1542 73.6851 67.9305 74.0286 67.5343C74.372 67.1382 74.5225 66.6103 74.4395 66.0926L72.6893 66.3732ZM72.4599 64.9416L74.21 64.661C74.0722 63.8013 73.3305 63.169 72.4599 63.169V64.9416ZM72.4032 64.9416V63.169C71.5373 63.169 70.7981 63.7947 70.655 64.6488L72.4032 64.9416ZM80.0722 66.3644L78.324 66.0716C78.2388 66.5806 78.3796 67.1015 78.7097 67.4982C79.0398 67.8949 79.5264 68.128 80.0425 68.1367L80.0722 66.3644ZM80.5966 66.3732L80.5669 68.1455C81.0911 68.1542 81.5923 67.9305 81.9358 67.5343C82.2793 67.1382 82.4297 66.6103 82.3467 66.0926L80.5966 66.3732ZM80.3671 64.9416L82.1172 64.661C81.9794 63.8013 81.2377 63.169 80.3671 63.169V64.9416ZM80.3104 64.9416V63.169C79.4445 63.169 78.7053 63.7947 78.5623 64.6488L80.3104 64.9416ZM22.1015 65.5119H20.3289C20.3289 66.4111 21.0022 67.1678 21.8953 67.2724L22.1015 65.5119ZM22.6268 64.9591L24.3994 64.9602V64.9591L22.6268 64.9591ZM22.1015 64.5851L21.9888 62.8162C21.0555 62.8756 20.3289 63.6499 20.3289 64.5851H22.1015ZM29.0429 65.5119H27.2704C27.2704 66.409 27.9407 67.1647 28.8314 67.2717L29.0429 65.5119ZM29.5673 64.9591L31.3398 64.9602V64.9591L29.5673 64.9591ZM29.0429 64.5851L28.9267 62.8164C27.9948 62.8776 27.2704 63.6513 27.2704 64.5851H29.0429ZM25.9677 63.8097L25.9675 65.5822C25.8816 65.5822 25.8086 65.5591 25.7602 65.5335C25.7154 65.5098 25.7037 65.4911 25.7119 65.5014C25.7323 65.5268 25.7909 65.6279 25.7909 65.8039L27.5634 65.8039L29.3359 65.8038C29.3358 64.1126 28.1757 62.0374 25.9678 62.0372L25.9677 63.8097ZM27.5634 65.8039L25.7909 65.8036C25.7908 66.1362 25.7019 66.1904 25.752 66.1322C25.7754 66.105 25.8145 66.0729 25.8656 66.0501C25.9154 66.0278 25.9535 66.0245 25.9676 66.0245L25.9677 67.797L25.9678 69.5695C26.898 69.5695 27.7971 69.1908 28.4396 68.4439C29.0673 67.7142 29.3358 66.7718 29.3359 65.8041L27.5634 65.8039ZM25.9677 67.797L25.9681 66.0245C25.9822 66.0245 26.0205 66.0279 26.0704 66.0502C26.1217 66.0731 26.1609 66.1053 26.1843 66.1326C26.2345 66.1909 26.1455 66.1366 26.1455 65.8036L24.3729 65.8039L22.6004 65.8041C22.6005 66.7713 22.8686 67.7135 23.4959 68.4433C24.138 69.1904 25.037 69.5693 25.9672 69.5695L25.9677 67.797ZM24.3729 65.8039L26.1455 65.8039C26.1455 65.4708 26.2345 65.4161 26.1846 65.4742C26.1613 65.5013 26.1222 65.5335 26.0708 65.5565C26.0209 65.5788 25.9824 65.5822 25.9681 65.5822L25.9677 63.8097L25.9672 62.0372C25.0364 62.0374 24.1373 62.417 23.4954 63.1643C22.8684 63.8943 22.6005 64.8365 22.6004 65.8038L24.3729 65.8039ZM18.8075 63.7267L17.0351 63.7127L17.0282 64.5769L18.8007 64.591L20.5731 64.605L20.58 63.7407L18.8075 63.7267ZM18.8007 64.591L18.809 62.8185L17.767 62.8136L17.7587 64.5861L17.7504 66.3586L18.7924 66.3635L18.8007 64.591ZM17.7587 64.5861H15.9862V65.1789H17.7587H19.5312V64.5861H17.7587ZM17.7587 65.1789V66.9514H18.6522V65.1789V63.4063H17.7587V65.1789ZM18.6522 65.1789H16.8797V66.008H18.6522H20.4247V65.1789H18.6522ZM18.6522 66.008L18.6343 64.2355L17.7642 64.2443L17.7821 66.0167L17.8 67.7892L18.6701 67.7804L18.6522 66.008ZM17.7821 66.0167H16.0096V66.7101H17.7821H19.5546V66.0167H17.7821ZM17.7821 66.7101L17.777 68.4826L18.8005 68.4855L18.8056 66.713L18.8106 64.9405L17.7872 64.9376L17.7821 66.7101ZM18.8056 66.713L17.0331 66.7054L17.0292 67.6107L18.8017 67.6183L20.5741 67.626L20.5781 66.7207L18.8056 66.713ZM18.8017 67.6183L18.7917 65.8458L16.6999 65.8575L16.7099 67.63L16.7198 69.4025L18.8116 69.3908L18.8017 67.6183ZM16.7099 67.63L18.4824 67.6296L18.4814 63.7253L16.7089 63.7257L14.9364 63.7262L14.9373 67.6305L16.7099 67.63ZM16.7089 63.7257L16.7081 65.4982L18.8067 65.4992L18.8075 63.7267L18.8083 61.9542L16.7097 61.9532L16.7089 63.7257ZM33.2401 63.7267L31.4677 63.7127L31.4608 64.5769L33.2333 64.591L35.0058 64.605L35.0126 63.7407L33.2401 63.7267ZM33.2333 64.591L33.2416 62.8185L32.1996 62.8136L32.1913 64.5861L32.183 66.3586L33.225 66.3635L33.2333 64.591ZM32.1913 64.5861H30.4188V65.1789H32.1913H33.9638V64.5861H32.1913ZM32.1913 65.1789V66.9514H33.0849V65.1789V63.4063H32.1913V65.1789ZM33.0849 65.1789H31.3123V66.008H33.0849H34.8574V65.1789H33.0849ZM33.0849 66.008L33.067 64.2355L32.1968 64.2443L32.2147 66.0167L32.2326 67.7892L33.1028 67.7804L33.0849 66.008ZM32.2147 66.0167H30.4422V66.7101H32.2147H33.9873V66.0167H32.2147ZM32.2147 66.7101L32.2097 68.4826L33.2331 68.4855L33.2382 66.713L33.2432 64.9405L32.2198 64.9376L32.2147 66.7101ZM33.2382 66.713L31.4657 66.7054L31.4618 67.6107L33.2343 67.6183L35.0068 67.626L35.0107 66.7207L33.2382 66.713ZM33.2343 67.6183L33.2243 65.8458L31.1316 65.8575L31.1415 67.63L31.1514 69.4025L33.2442 69.3908L33.2343 67.6183ZM31.1415 67.63H32.914V63.7257H31.1415H29.369V67.63H31.1415ZM31.1415 63.7257L31.1407 65.4982L33.2393 65.4992L33.2401 63.7267L33.241 61.9542L31.1423 61.9532L31.1415 63.7257ZM21.0399 63.7345L21.0589 65.5069C21.2547 65.5048 21.5009 65.4941 21.6558 65.4894C21.8394 65.4838 21.9883 65.4824 22.119 65.4887C22.4214 65.5034 22.4208 65.5532 22.3199 65.486L23.3026 64.0109L24.2854 62.5357C23.5776 62.0643 22.7936 61.9722 22.2904 61.9479C21.8335 61.9258 21.1899 61.9603 21.0209 61.9621L21.0399 63.7345ZM23.3026 64.0109L22.319 65.4855C22.1272 65.3575 22.0776 65.1972 22.0671 65.1295C22.057 65.0642 22.0581 64.9342 22.1683 64.7848L23.5946 65.8371L25.021 66.8894C25.9903 65.5755 25.7627 63.5212 24.2862 62.5363L23.3026 64.0109ZM23.5946 65.8371L22.1697 64.7829C22.1994 64.7427 22.242 64.7003 22.2935 64.665C22.3429 64.6311 22.3827 64.6158 22.3986 64.6107C22.4123 64.6062 22.4044 64.6105 22.3646 64.6151C22.3244 64.6197 22.2663 64.6231 22.1814 64.6231L22.1815 66.3957L22.1817 68.1682C22.7916 68.1681 24.1273 68.0973 25.0196 66.8912L23.5946 65.8371ZM22.1815 66.3957H20.409V67.6154H22.1815H23.954V66.3957H22.1815ZM22.1815 67.6154L22.1632 65.843L21.0313 65.8547L21.0497 67.6271L21.0681 69.3995L22.1999 69.3878L22.1815 67.6154ZM21.0497 67.6271L22.8222 67.6375C22.8298 66.3306 22.827 65.0225 22.8123 63.7146L21.0399 63.7345L19.2675 63.7544C19.282 65.0409 19.2848 66.3288 19.2772 67.6167L21.0497 67.6271ZM27.9813 63.7345L28.0002 65.5069C28.1961 65.5048 28.4423 65.4941 28.5973 65.4894C28.7809 65.4838 28.9297 65.4824 29.0605 65.4887C29.3627 65.5033 29.3621 65.5532 29.2613 65.486L30.244 64.0109L31.2268 62.5357C30.519 62.0642 29.735 61.9722 29.2317 61.9478C28.7751 61.9258 28.1309 61.9603 27.9625 61.9621L27.9813 63.7345ZM30.244 64.0109L29.2611 65.4859C29.0696 65.3583 29.0198 65.1983 29.0093 65.1305C28.9992 65.065 29.0001 64.9346 29.1106 64.7848L30.537 65.8371L31.9634 66.8893C32.9336 65.574 32.7033 63.5197 31.227 62.5359L30.244 64.0109ZM30.537 65.8371L29.1119 64.7831C29.1418 64.7427 29.1845 64.7002 29.2361 64.6648C29.2856 64.6309 29.3253 64.6157 29.3411 64.6106C29.3547 64.6062 29.3467 64.6104 29.3067 64.6151C29.2663 64.6197 29.208 64.6231 29.1229 64.6231V66.3957V68.1682C29.7319 68.1682 31.0693 68.0982 31.9621 66.891L30.537 65.8371ZM29.1229 66.3957H27.3504V67.6154H29.1229H30.8955V66.3957H29.1229ZM29.1229 67.6154L29.1046 65.843L27.9737 65.8547L27.9921 67.6271L28.0104 69.3995L29.1413 69.3878L29.1229 67.6154ZM27.9921 67.6271L29.7646 67.6375C29.7722 66.3297 29.7684 65.0216 29.7537 63.7146L27.9813 63.7345L26.2089 63.7544C26.2234 65.0418 26.2271 66.3297 26.2196 67.6167L27.9921 67.6271ZM39.2489 64.5939L39.2571 62.8214L38.1995 62.8165L38.1913 64.589L38.1831 66.3615L39.2407 66.3664L39.2489 64.5939ZM38.1913 64.589H36.4188V65.1798H38.1913H39.9638V64.589H38.1913ZM38.1913 65.1798V66.9523H39.0976V65.1798V63.4073H38.1913V65.1798ZM39.0976 65.1798H37.325V66.007H39.0976H40.8701V65.1798H39.0976ZM39.0976 66.007L39.0799 64.2346L38.198 64.2433L38.2157 66.0158L38.2334 67.7882L39.1152 67.7794L39.0976 66.007ZM38.2157 66.0158H36.4432V66.7082H38.2157H39.9882V66.0158H38.2157ZM38.2157 66.7082L38.2107 68.4807L39.2488 68.4836L39.2538 66.7111L39.2588 64.9386L38.2207 64.9356L38.2157 66.7082ZM39.2538 66.7111L37.4813 66.7034L37.4774 67.6058L39.2499 67.6134L41.0224 67.6211L41.0263 66.7188L39.2538 66.7111ZM39.2499 67.6134L39.2393 65.8409L37.1162 65.8536L37.1268 67.6261L37.1374 69.3986L39.2605 69.3859L39.2499 67.6134ZM37.1268 67.6261L38.8994 67.6257L38.8984 63.7311L37.1259 63.7316L35.3534 63.732L35.3543 67.6266L37.1268 67.6261ZM37.1259 63.7316V65.5041H39.2558V63.7316V61.9591H37.1259V63.7316ZM39.2558 63.7316L37.4833 63.7175L37.4765 64.5798L39.2489 64.5939L41.0214 64.6079L41.0282 63.7456L39.2558 63.7316ZM45.1386 67.6261L45.1513 65.8537L44.0654 65.8458L44.0526 67.6183L44.0399 69.3908L45.1258 69.3986L45.1386 67.6261ZM44.0526 67.6183L45.8251 67.6174L45.8232 63.7336L44.0507 63.7345L42.2782 63.7354L42.2801 67.6192L44.0526 67.6183ZM44.0507 63.7345L44.0554 65.507L45.156 65.5041L45.1513 63.7316L45.1465 61.9591L44.046 61.962L44.0507 63.7345ZM45.1513 63.7316L43.3788 63.7258L43.3661 67.6203L45.1386 67.6261L46.9111 67.6319L46.9238 63.7374L45.1513 63.7316ZM74.0145 67.6115L73.994 65.8391L72.8983 65.8518L72.9188 67.6242L72.9394 69.3966L74.0351 69.3839L74.0145 67.6115ZM72.9188 67.6242L74.6549 67.2663L74.5562 66.7878L72.8202 67.1457L71.0842 67.5035L71.1828 67.982L72.9188 67.6242ZM72.8202 67.1457V65.3731H72.0175V67.1457V68.9182H72.8202V67.1457ZM72.0175 67.1457L70.271 66.8427L70.188 67.3212L71.9345 67.6242L73.6809 67.9271L73.7639 67.4486L72.0175 67.1457ZM71.9345 67.6242V65.8517H70.786V67.6242V69.3967H71.9345V67.6242ZM70.786 67.6242L72.5051 68.056L73.4827 64.1644L71.7636 63.7326L70.0445 63.3007L69.0669 67.1923L70.786 67.6242ZM71.7636 63.7326L71.7648 65.5051L73.171 65.5041L73.1698 63.7316L73.1686 61.9591L71.7623 61.9601L71.7636 63.7326ZM73.1698 63.7316L71.4379 64.1087L72.2826 67.9886L74.0145 67.6115L75.7465 67.2344L74.9018 63.3545L73.1698 63.7316ZM81.9227 67.6115L81.9022 65.8391L80.8056 65.8518L80.8261 67.6242L80.8466 69.3966L81.9433 69.3839L81.9227 67.6115ZM80.8261 67.6242L82.5628 67.2697L82.4651 66.7912L80.7284 67.1457L78.9917 67.5001L79.0893 67.9786L80.8261 67.6242ZM80.7284 67.1457V65.3731H79.9257V67.1457V68.9182H80.7284V67.1457ZM79.9257 67.1457L78.1792 66.8427L78.0962 67.3212L79.8427 67.6242L81.5891 67.9271L81.6721 67.4486L79.9257 67.1457ZM79.8427 67.6242V65.8517H78.6933V67.6242V69.3967H79.8427V67.6242ZM78.6933 67.6242L80.4124 68.056L81.3899 64.1644L79.6708 63.7326L77.9517 63.3007L76.9741 67.1923L78.6933 67.6242ZM79.6708 63.7326L79.672 65.5051L81.0792 65.5041L81.078 63.7316L81.0768 61.9591L79.6696 61.9601L79.6708 63.7326ZM81.078 63.7316L79.3461 64.1087L80.1908 67.9886L81.9227 67.6115L83.6547 67.2344L82.81 63.3545L81.078 63.7316ZM59.6474 64.6613L59.6605 62.8888C59.4824 62.8875 59.4043 62.8796 59.1456 62.8723C58.9389 62.8664 58.6601 62.8641 58.3537 62.9026L58.5751 64.6613L58.7965 66.4199C58.8323 66.4154 58.8974 66.4117 59.0451 66.4159C59.141 66.4186 59.4279 66.4322 59.6342 66.4337L59.6474 64.6613ZM58.5751 64.6613L56.8028 64.6908L56.8116 65.2182L58.5839 65.1886L60.3561 65.1591L60.3474 64.6317L58.5751 64.6613ZM58.5839 65.1886L58.5703 66.9611C58.5808 66.9612 59.1889 66.9658 59.5529 66.961L59.5292 65.1886L59.5055 63.4163C59.1861 63.4205 58.6177 63.4163 58.5974 63.4162L58.5839 65.1886ZM59.5292 65.1886H57.7567V66.0851H59.5292H61.3017V65.1886H59.5292ZM59.5292 66.0851V64.3126H58.6503V66.0851V67.8576H59.5292V66.0851ZM58.6503 66.0851L56.8778 66.0739L56.8739 66.6931L58.6464 66.7042L60.4189 66.7154L60.4228 66.0963L58.6503 66.0851ZM58.6464 66.7042L58.6325 68.4767L59.6306 68.4845L59.6444 66.7121L59.6583 64.9396L58.6603 64.9318L58.6464 66.7042ZM59.6444 66.7121L57.8719 66.7178L57.8749 67.6163L59.6474 67.6105L61.4199 67.6047L61.4169 66.7063L59.6444 66.7121ZM59.6474 67.6105L59.6108 65.8384C58.9226 65.8525 58.2577 65.8463 57.5189 65.8497L57.5272 67.6222L57.5355 69.3947C58.209 69.3916 58.9602 69.3975 59.6839 69.3826L59.6474 67.6105ZM57.5272 67.6222L59.2996 67.5991C59.2828 66.3167 59.2944 65.052 59.2929 63.7315L57.5204 63.7335L55.7479 63.7356C55.7494 65.0066 55.7378 66.3366 55.7549 67.6454L57.5272 67.6222ZM57.5204 63.7335L57.5212 65.5061L59.6501 65.5051L59.6493 63.7326L59.6485 61.9601L57.5196 61.961L57.5204 63.7335ZM59.6493 63.7326L57.8768 63.7288L57.8748 64.6576L59.6474 64.6613L61.4199 64.665L61.4218 63.7363L59.6493 63.7326ZM62.3495 64.6593L62.3336 62.8869L61.6812 62.8927L61.6972 64.6652L61.7131 66.4376L62.3654 66.4318L62.3495 64.6593ZM61.6972 64.6652L59.9247 64.6722L59.9364 67.6195L61.7089 67.6125L63.4814 67.6054L63.4697 64.6581L61.6972 64.6652ZM61.7089 67.6125L61.6936 65.84L60.5598 65.8498L60.5751 67.6222L60.5904 69.3947L61.7241 69.3849L61.7089 67.6125ZM60.5751 67.6222H62.3476V64.6652H60.5751H58.8026V67.6222H60.5751ZM60.5751 64.6652L60.5832 62.8927L59.9436 62.8898L59.9354 64.6623L59.9273 66.4347L60.567 66.4377L60.5751 64.6652ZM59.9354 64.6623L61.7079 64.6679L61.7109 63.7401L59.9384 63.7345L58.1659 63.7289L58.1629 64.6567L59.9354 64.6623ZM59.9384 63.7345L59.9398 65.507L62.3519 65.5051L62.3505 63.7326L62.349 61.9601L59.9369 61.962L59.9384 63.7345ZM62.3505 63.7326L60.5784 63.6957C60.5714 64.0307 60.5765 64.3876 60.577 64.6624L62.3495 64.6593L64.122 64.6563C64.1214 64.3139 64.1167 64.0517 64.1226 63.7695L62.3505 63.7326ZM78.7714 63.7335L76.9989 63.7242L76.994 64.6529L78.7665 64.6623L80.539 64.6716L80.5439 63.7429L78.7714 63.7335ZM78.7665 64.6623L78.7585 62.8898L78.1081 62.8927L78.1161 64.6652L78.1241 66.4377L78.7745 66.4347L78.7665 64.6623ZM78.1161 64.6652L76.3436 64.6695L76.3495 67.0758L78.122 67.0714L79.8945 67.0671L79.8886 64.6609L78.1161 64.6652ZM78.122 67.0714L76.3495 67.0683L76.3485 67.6151L78.121 67.6183L79.8935 67.6215L79.8945 67.0746L78.122 67.0714ZM78.121 67.6183L78.1164 65.8458L76.9943 65.8487L76.9989 67.6212L77.0035 69.3937L78.1256 69.3908L78.121 67.6183ZM76.9989 67.6212L78.7711 67.5846C78.7512 66.6225 78.765 65.6855 78.7636 64.6638L76.9911 64.6662L75.2186 64.6685C75.2199 65.6155 75.206 66.6521 75.2268 67.6579L76.9989 67.6212ZM76.9911 64.6662L77.0018 62.8937L76.3553 62.8898L76.3446 64.6623L76.3339 66.4347L76.9804 66.4386L76.9911 64.6662ZM76.3446 64.6623L78.1171 64.6697L78.121 63.74L76.3485 63.7326L74.576 63.7251L74.5721 64.6548L76.3446 64.6623ZM76.3485 63.7326L76.3478 65.5051L78.7707 65.5061L78.7714 63.7335L78.7721 61.961L76.3492 61.9601L76.3485 63.7326ZM43.5116 63.7335L41.7391 63.7357L41.7401 64.554L43.5126 64.5519L45.2851 64.5498L45.2841 63.7314L43.5116 63.7335ZM43.5126 64.5519V62.7794H42.5507V64.5519V66.3244H43.5126V64.5519ZM42.5507 64.5519H40.7782V65.1857H42.5507H44.3232V64.5519H42.5507ZM42.5507 65.1857V66.9582H43.4423V65.1857V63.4132H42.5507V65.1857ZM43.4423 65.1857L41.6698 65.1773L41.6659 65.9986L43.4384 66.007L45.2109 66.0154L45.2148 65.1941L43.4423 65.1857ZM43.4384 66.007V64.2345H42.619V66.007V67.7795H43.4384V66.007ZM42.619 66.007L40.8466 66.0178L40.8563 67.6232L42.6288 67.6125L44.4013 67.6017L44.3915 65.9962L42.619 66.007ZM42.6288 67.6125L42.6178 65.84L41.5201 65.8468L41.5311 67.6193L41.5422 69.3918L42.6398 69.3849L42.6288 67.6125ZM41.5311 67.6193L43.3037 67.6197L43.3046 63.732L41.5321 63.7316L39.7596 63.7311L39.7586 67.6188L41.5311 67.6193ZM41.5321 63.7316L41.5304 65.5041L43.5099 65.5061L43.5116 63.7335L43.5134 61.961L41.5339 61.9591L41.5321 63.7316ZM75.5653 63.7316L73.793 63.707C73.779 64.7142 73.7899 65.7429 73.7899 66.7082H75.5624H77.3349C77.3349 65.6899 77.3241 64.7319 77.3377 63.7562L75.5653 63.7316ZM75.5624 66.7082L75.5484 68.4806L76.4166 68.4874L76.4306 66.715L76.4445 64.9425L75.5763 64.9357L75.5624 66.7082ZM76.4306 66.715L74.6581 66.7092L74.6551 67.6096L76.4276 67.6154L78.2001 67.6211L78.2031 66.7208L76.4306 66.715ZM76.4276 67.6154L76.425 65.8429L74.4572 65.8458L74.4599 67.6183L74.4625 69.3908L76.4303 69.3879L76.4276 67.6154ZM74.4599 67.6183L76.2324 67.6174L76.2304 63.7307L74.4579 63.7316L72.6854 63.7325L72.6873 67.6192L74.4599 67.6183ZM74.4579 63.7316V65.5041H75.5653V63.7316V61.9591H74.4579V63.7316ZM50.0819 63.7316L48.3396 64.0573C48.4567 64.6838 48.5532 65.3127 48.6272 65.9425L50.3876 65.7355L52.148 65.5285C52.0642 64.8162 51.9555 64.108 51.8242 63.4058L50.0819 63.7316ZM50.3876 65.7355L52.1358 66.0279C52.2421 65.3922 52.374 64.7805 52.5132 64.0762L50.7743 63.7326L49.0354 63.389C48.9112 64.0176 48.7571 64.7391 48.6394 65.4431L50.3876 65.7355ZM50.7743 63.7326L50.7706 65.5051L52.1641 65.508L52.1679 63.7355L52.1716 61.963L50.778 61.9601L50.7743 63.7326ZM52.1679 63.7355L50.3957 63.7714C50.4228 65.1088 50.6366 66.6728 50.8198 67.8778L52.5722 67.6115L54.3245 67.3451C54.1418 66.1429 53.962 64.7824 53.94 63.6996L52.1679 63.7355ZM52.5722 67.6115L52.524 65.8396C52.1623 65.8494 51.8447 65.8411 51.3983 65.8419L51.4013 67.6144L51.4043 69.3869C51.737 69.3863 52.2033 69.3947 52.6203 69.3833L52.5722 67.6115ZM51.4013 67.6144L53.1732 67.5699C53.1561 66.889 53.1601 66.012 53.0845 65.1796L51.3192 65.34L49.554 65.5004C49.6156 66.1785 49.6083 66.8238 49.6293 67.6589L51.4013 67.6144ZM51.3192 65.34L49.6039 64.8934C49.4902 65.33 49.4071 65.7648 49.3363 66.1502C49.262 66.5544 49.2032 66.8922 49.1294 67.2266L50.8602 67.6085L52.5911 67.9905C52.6825 67.5765 52.757 67.1493 52.8229 66.7909C52.8922 66.4137 52.956 66.0884 53.0346 65.7866L51.3192 65.34ZM50.8602 67.6085L50.8171 65.8366C50.5133 65.844 50.2418 65.8394 49.8726 65.8409L49.8798 67.6134L49.887 69.3859C50.1704 69.3848 50.5548 69.389 50.9034 69.3805L50.8602 67.6085ZM49.8798 67.6134L51.6463 67.4677C51.5786 66.6474 51.3504 65.5849 51.2676 65.0442L49.5155 65.3126L47.7635 65.5811C47.9121 66.5513 48.0559 67.0633 48.1133 67.7591L49.8798 67.6134ZM49.5155 65.3126L47.7451 65.2258L47.6328 67.5138L49.4032 67.6007L51.1736 67.6876L51.2859 65.3995L49.5155 65.3126ZM49.4032 67.6007L49.3239 65.83C48.9738 65.8457 48.6363 65.8356 48.178 65.8312L48.161 67.6037L48.144 69.3761C48.5133 69.3796 49.0057 69.3928 49.4825 69.3715L49.4032 67.6007ZM48.161 67.6037L49.9097 67.8935C50.1116 66.6755 50.3126 64.98 50.4263 63.9209L48.664 63.7316L46.9016 63.5423C46.7893 64.5874 46.597 66.2001 46.4124 67.3138L48.161 67.6037ZM48.664 63.7316V65.5041H50.0819V63.7316V61.9591H48.664V63.7316ZM67.9559 63.7316L66.2136 64.0573C66.3304 64.6821 66.426 65.3111 66.5002 65.9425L68.2606 65.7355L70.021 65.5285C69.9375 64.8179 69.8299 64.1096 69.6983 63.4058L67.9559 63.7316ZM68.2606 65.7355L70.0089 66.0279C70.1152 65.3923 70.2471 64.7805 70.3862 64.0762L68.6474 63.7326L66.9085 63.389C66.7843 64.0176 66.6301 64.7392 66.5124 65.4431L68.2606 65.7355ZM68.6474 63.7326L68.6436 65.5051L70.0382 65.508L70.0419 63.7355L70.0456 61.963L68.6511 61.9601L68.6474 63.7326ZM70.0419 63.7355L68.2697 63.7714C68.2968 65.1088 68.5106 66.6728 68.6938 67.8778L70.4462 67.6115L72.1986 67.3451C72.0158 66.1429 71.836 64.7824 71.814 63.6996L70.0419 63.7355ZM70.4462 67.6115L70.398 65.8396C70.0362 65.8495 69.7189 65.8411 69.2723 65.8419L69.2753 67.6144L69.2783 69.3869C69.6111 69.3863 70.0773 69.3947 70.4944 69.3833L70.4462 67.6115ZM69.2753 67.6144L71.0472 67.5699C71.0301 66.889 71.0341 66.012 70.9585 65.1796L69.1933 65.34L67.428 65.5004C67.4896 66.1785 67.4824 66.8238 67.5033 67.6589L69.2753 67.6144ZM69.1933 65.34L67.4779 64.8934C67.3644 65.3294 67.2811 65.7636 67.21 66.1491C67.1355 66.5532 67.0764 66.8915 67.0024 67.2266L68.7333 67.6085L70.4642 67.9905C70.5554 67.5772 70.6301 67.1504 70.6962 66.792C70.7658 66.4149 70.8298 66.089 70.9086 65.7866L69.1933 65.34ZM68.7333 67.6085L68.6902 65.8366C68.3866 65.8439 68.1156 65.8394 67.7466 65.8409L67.7538 67.6134L67.761 69.3859C68.0443 69.3848 68.428 69.389 68.7764 69.3805L68.7333 67.6085ZM67.7538 67.6134L69.5203 67.4677C69.4527 66.6484 69.2229 65.581 69.1406 65.0442L67.3886 65.3126L65.6365 65.5811C65.7858 66.5552 65.9298 67.0622 65.9873 67.7591L67.7538 67.6134ZM67.3886 65.3126L65.6182 65.2265L65.5068 67.5146L67.2772 67.6007L69.0477 67.6869L69.159 65.3988L67.3886 65.3126ZM67.2772 67.6007L67.1979 65.83C66.8479 65.8457 66.5103 65.8356 66.0521 65.8312L66.0351 67.6037L66.018 69.3761C66.3872 69.3796 66.8798 69.3928 67.3566 69.3715L67.2772 67.6007ZM66.0351 67.6037L67.7837 67.8935C67.9856 66.6754 68.1866 64.9799 68.3004 63.9209L66.538 63.7316L64.7756 63.5423C64.6634 64.5873 64.471 66.2001 64.2864 67.3138L66.0351 67.6037ZM66.538 63.7316V65.5041H67.9559V63.7316V61.9591H66.538V63.7316ZM55.704 63.7589L55.8121 65.5282C55.8015 65.5288 55.9209 65.5322 56.1611 65.5693C56.256 65.584 56.3426 65.5996 56.4056 65.6115C56.4366 65.6174 56.4609 65.6222 56.4763 65.6253C56.484 65.6269 56.4895 65.628 56.4924 65.6286C56.4938 65.6289 56.4946 65.6291 56.4948 65.6291C56.4948 65.6291 56.4947 65.6291 56.4945 65.629C56.4943 65.629 56.4941 65.629 56.4939 65.6289C56.4938 65.6289 56.4937 65.6289 56.4935 65.6288C56.4935 65.6288 56.4934 65.6288 56.4933 65.6288C56.4932 65.6288 56.4931 65.6288 56.8602 63.8947C57.2274 62.1606 57.2273 62.1606 57.2271 62.1606C57.2271 62.1605 57.227 62.1605 57.2269 62.1605C57.2267 62.1605 57.2265 62.1604 57.2263 62.1604C57.2259 62.1603 57.2254 62.1602 57.2249 62.1601C57.2239 62.1599 57.2227 62.1596 57.2214 62.1593C57.2186 62.1588 57.2151 62.158 57.2109 62.1572C57.2026 62.1554 57.1913 62.1531 57.1776 62.1504C57.1501 62.1448 57.1121 62.1373 57.066 62.1286C56.9746 62.1112 56.8472 62.0883 56.703 62.066C56.465 62.0292 56.0063 61.9647 55.5959 61.9897L55.704 63.7589ZM56.8602 63.8947L55.0878 63.902L55.0926 65.0798L56.8651 65.0724L58.6376 65.0651L58.6327 63.8873L56.8602 63.8947ZM56.8651 65.0724C58.3094 64.0449 58.3093 64.0447 58.3091 64.0444C58.309 64.0443 58.3089 64.0441 58.3088 64.0439C58.3085 64.0436 58.3083 64.0433 58.308 64.0429C58.3076 64.0423 58.307 64.0415 58.3065 64.0408C58.3054 64.0393 58.3042 64.0376 58.3029 64.0358C58.3003 64.0322 58.2973 64.028 58.2939 64.0233C58.287 64.0139 58.2785 64.0022 58.2684 63.9887C58.2483 63.9618 58.2214 63.9265 58.1889 63.8856C58.1264 63.8068 58.0322 63.6933 57.9171 63.5737C57.8113 63.4637 57.6378 63.2956 57.4142 63.1468C57.2514 63.0385 56.7365 62.7141 56.0355 62.7909L56.2284 64.5529L56.4213 66.3149C56.1095 66.349 55.8645 66.2848 55.7272 66.2354C55.5879 66.1853 55.4938 66.1271 55.4507 66.0984C55.3697 66.0445 55.3398 66.008 55.3623 66.0313C55.3754 66.0449 55.3939 66.0664 55.412 66.0892C55.4199 66.0992 55.4254 66.1064 55.4275 66.1093C55.4285 66.1106 55.4286 66.1107 55.4275 66.1093C55.427 66.1085 55.4262 66.1074 55.4251 66.1059C55.4245 66.1051 55.4239 66.1042 55.4232 66.1032C55.4228 66.1028 55.4225 66.1022 55.4221 66.1017C55.4219 66.1014 55.4217 66.1011 55.4215 66.1008C55.4214 66.1007 55.4212 66.1005 55.4212 66.1004C55.421 66.1002 55.4208 66.0999 56.8651 65.0724ZM56.2284 64.5529L56.0348 62.791C55.7319 62.8243 55.211 62.9318 54.7586 63.3485C54.2466 63.8201 54.1036 64.4197 54.1034 64.8683L55.8759 64.8693L57.6484 64.8703C57.6482 65.1348 57.5579 65.5898 57.1603 65.956C56.8223 66.2673 56.4775 66.3087 56.4221 66.3148L56.2284 64.5529ZM55.8759 64.8693L54.1124 65.0484C54.1904 65.8161 54.6778 66.2781 54.8307 66.4185C55.0094 66.5825 55.2418 66.7453 55.2962 66.7854C55.4056 66.8658 55.4195 66.8826 55.4084 66.8711C55.3901 66.8519 55.2886 66.7412 55.2269 66.5382L56.9227 66.0226L58.6186 65.507C58.4689 65.0145 58.1969 64.6578 57.9712 64.4217C57.7528 64.1932 57.5225 64.0222 57.3965 63.9295C57.3129 63.868 57.287 63.85 57.242 63.8161C57.2054 63.7886 57.2085 63.7891 57.228 63.807C57.2446 63.8222 57.3214 63.8933 57.4038 64.0184C57.4909 64.1506 57.6077 64.3792 57.6393 64.6902L55.8759 64.8693ZM56.9227 66.0226L55.227 66.5385C55.1975 66.4417 55.1954 66.3578 55.2028 66.295C55.2101 66.2331 55.2281 66.1779 55.2549 66.1278L56.8183 66.963L58.3816 67.7983C58.7307 67.1449 58.8647 66.3159 58.6185 65.5067L56.9227 66.0226ZM56.8183 66.963L55.2543 66.1289C55.2684 66.1025 55.311 66.0371 55.3916 65.9727C55.4702 65.91 55.5343 65.8887 55.5428 65.8862L56.0448 67.5861L56.5468 69.286C57.3266 69.0557 57.9728 68.5649 58.3823 67.7971L56.8183 66.963ZM56.0448 67.5861L55.669 65.8539C55.7194 65.8429 55.7524 65.8408 55.7622 65.8404C55.7728 65.8398 55.7714 65.8405 55.7565 65.8396C55.7236 65.8374 55.6709 65.8304 55.6028 65.8161C55.4642 65.787 55.3612 65.7492 55.3939 65.7609L54.7997 67.4308L54.2055 69.1008C54.2496 69.1164 54.5185 69.2107 54.8743 69.2854C55.1766 69.3489 55.79 69.4551 56.4207 69.3183L56.0448 67.5861ZM54.7997 67.4308L56.572 67.4066L56.5564 66.265L54.7841 66.2892L53.0117 66.3135L53.0274 67.4551L54.7997 67.4308ZM54.7841 66.2892L53.6517 67.6528C53.8778 67.8406 54.291 68.1504 54.7907 68.3265C55.0404 68.4144 55.4774 68.5292 55.9916 68.4331C56.5982 68.3199 57.1165 67.948 57.4226 67.401L55.8759 66.5353L54.3291 65.6697C54.4164 65.5137 54.5519 65.3443 54.7481 65.203C54.9446 65.0615 55.1531 64.9834 55.3409 64.9484C55.6839 64.8843 55.924 64.9671 55.9686 64.9829C56.058 65.0143 56.0277 65.018 55.9165 64.9256L54.7841 66.2892ZM55.8759 66.5353L57.423 67.4002C57.6359 67.0194 57.7349 66.5589 57.6522 66.0793C57.5767 65.6415 57.3734 65.3239 57.2247 65.1355C56.962 64.8025 56.6172 64.5696 56.5097 64.4944C56.312 64.356 56.2688 64.3286 56.2247 64.2911C56.1714 64.2457 56.3699 64.3874 56.4814 64.7223L54.7997 65.2824L53.118 65.8425C53.2223 66.1557 53.3803 66.3999 53.5212 66.5763C53.6616 66.7521 53.8085 66.8898 53.9265 66.9903C54.138 67.1704 54.3976 67.3432 54.4769 67.3986C54.5053 67.4185 54.5258 67.4332 54.5417 67.445C54.5494 67.4506 54.555 67.4549 54.559 67.4579C54.5629 67.461 54.5646 67.4623 54.5644 67.4622C54.5642 67.462 54.5614 67.4598 54.5566 67.4555C54.5518 67.4513 54.5441 67.4443 54.5342 67.4347C54.5156 67.4167 54.4818 67.3822 54.4418 67.3315C54.369 67.2393 54.2169 67.0192 54.1587 66.6816C54.0933 66.3021 54.1756 65.9443 54.3287 65.6704L55.8759 66.5353ZM54.7997 65.2824L56.4819 64.7239C56.5575 64.9517 56.4943 65.1192 56.4458 65.1988C56.4095 65.2584 56.2307 65.5025 55.8123 65.5281L55.704 63.7589L55.5957 61.9897C54.5533 62.0535 53.808 62.7149 53.4183 63.3545C53.0165 64.0141 52.8131 64.9242 53.1175 65.8409L54.7997 65.2824ZM34.7919 63.7335L33.1216 64.3268L33.5454 65.5201L35.2157 64.9269L36.886 64.3337L36.4622 63.1403L34.7919 63.7335ZM35.2157 64.9269L36.9131 65.4376L37.2724 64.2433L35.5751 63.7326L33.8778 63.2218L33.5184 64.4162L35.2157 64.9269ZM35.5751 63.7326L35.5679 65.5051L36.77 65.5099L36.7772 63.7375L36.7844 61.965L35.5823 61.9601L35.5751 63.7326ZM36.7772 63.7375L35.1723 62.9852L34.1264 65.2166L35.7313 65.9689L37.3363 66.7212L38.3822 64.4897L36.7772 63.7375ZM35.7313 65.9689H33.9588V67.5968H35.7313H37.5039V65.9689H35.7313ZM35.7313 67.5968L35.7114 65.8244L34.5835 65.8371L34.6034 67.6095L34.6234 69.3819L35.7513 69.3692L35.7313 67.5968ZM34.6034 67.6095H36.3759V65.9689H34.6034H32.8309V67.6095H34.6034ZM34.6034 65.9689L36.2333 65.2724L35.2773 63.0351L33.6474 63.7316L32.0174 64.4281L32.9735 66.6654L34.6034 65.9689ZM33.6474 63.7316L33.6443 65.5041L34.7889 65.5061L34.7919 63.7335L34.7949 61.961L33.6504 61.9591L33.6474 63.7316ZM46.9755 66.7091L46.9715 68.4816L47.8377 68.4836L47.8417 66.7111L47.8457 64.9386L46.9795 64.9366L46.9755 66.7091ZM47.8417 66.7111H46.0692V67.6076H47.8417H49.6142V66.7111H47.8417ZM47.8417 67.6076L47.8443 65.8351L45.8511 65.8321L45.8485 67.6046L45.8459 69.3771L47.8391 69.3801L47.8417 67.6076ZM45.8485 67.6046L47.621 67.5993L47.6093 63.7292L45.8368 63.7345L44.0643 63.7399L44.076 67.61L45.8485 67.6046ZM45.8368 63.7345L45.8414 65.507L46.983 65.5041L46.9784 63.7316L46.9739 61.9591L45.8323 61.962L45.8368 63.7345ZM46.9784 63.7316L45.2059 63.7298L45.203 66.7074L46.9755 66.7091L48.748 66.7109L48.7509 63.7333L46.9784 63.7316ZM12.8407 64.5861V62.8136H12.1845V64.5861V66.3586H12.8407V64.5861ZM12.1845 64.5861H10.412V67.5636H12.1845H13.957V64.5861H12.1845ZM12.1845 67.5636V65.7911H11.0819V67.5636V69.3361H12.1845V67.5636ZM11.0819 67.5636H12.8544V64.5998H11.0819H9.30941V67.5636H11.0819ZM11.0819 64.5998L11.0875 62.8273L10.4644 62.8253L10.4589 64.5978L10.4533 66.3703L11.0764 66.3723L11.0819 64.5998ZM10.4589 64.5978H12.2314V63.7257H10.4589H8.68637V64.5978H10.4589ZM10.4589 63.7257V65.4982H12.8407V63.7257V61.9532H10.4589V63.7257ZM12.8407 63.7257H11.0682V64.5861H12.8407H14.6132V63.7257H12.8407ZM14.2831 65.1144V66.8869H14.9384V65.1144V63.3419H14.2831V65.1144ZM14.9384 65.1144H16.7109V63.716H14.9384H13.1659V65.1144H14.9384ZM14.9384 63.716L14.9351 65.4885L15.9829 65.4904L15.9862 63.7179L15.9895 61.9454L14.9417 61.9435L14.9384 63.716ZM15.9862 63.7179H14.2137V67.5626H15.9862H17.7587V63.7179H15.9862ZM15.9862 67.5626V65.7901H14.9384V67.5626V69.3352H15.9862V67.5626ZM14.9384 67.5626H16.7109V65.9738H14.9384H13.1659V67.5626H14.9384ZM14.9384 65.9738V64.2013H14.2831V65.9738V67.7463H14.9384V65.9738ZM14.2831 65.9738H12.5106V67.5626H14.2831H16.0556V65.9738H14.2831ZM14.2831 67.5626V65.7901H13.2333V67.5626V69.3352H14.2831V67.5626ZM13.2333 67.5626H15.0058V63.716H13.2333H11.4608V67.5626H13.2333ZM13.2333 63.716V65.4885H14.2831V63.716V61.9435H13.2333V63.716ZM14.2831 63.716H12.5106V65.1144H14.2831H16.0556V63.716H14.2831ZM25.9472 64.7404V62.9679C24.7463 62.9679 24.17 63.9169 23.9993 64.2693C23.7688 64.745 23.6756 65.2779 23.6756 65.7706L25.4481 65.7707L27.2206 65.7707C27.2207 65.6944 27.2394 65.7122 27.1896 65.815C27.1648 65.8662 27.0892 66.0077 26.9192 66.1563C26.738 66.3145 26.405 66.5129 25.9472 66.5129V64.7404ZM25.4481 65.7707L23.6756 65.7708C23.6757 66.2634 23.7688 66.7963 23.9993 67.272C24.1699 67.6242 24.7462 68.5734 25.9472 68.5734V66.8009V65.0284C26.4051 65.0284 26.7382 65.2269 26.9193 65.3851C27.0893 65.5337 27.1648 65.6751 27.1896 65.7263C27.2394 65.829 27.2207 65.8468 27.2206 65.7705L25.4481 65.7707ZM25.9472 66.8009L25.9492 68.5734C27.15 68.5721 27.7251 67.6223 27.8952 67.2703C28.125 66.7948 28.2177 66.2625 28.2177 65.7708L26.4452 65.7707L24.6727 65.7705C24.6727 65.8475 24.6539 65.8302 24.7035 65.7276C24.7281 65.6765 24.8035 65.535 24.9734 65.3862C25.1544 65.2277 25.4873 65.0289 25.9451 65.0284L25.9472 66.8009ZM26.4452 65.7707L28.2177 65.7706C28.2177 65.2789 28.1251 64.7465 27.8952 64.271C27.725 63.9188 27.1499 62.9693 25.9492 62.9679L25.9472 64.7404L25.9451 66.5129C25.4874 66.5124 25.1545 66.3136 24.9735 66.1551C24.8036 66.0064 24.7282 65.8648 24.7035 65.8137C24.6539 65.7111 24.6727 65.6937 24.6727 65.7707L26.4452 65.7707ZM72.1649 66.3644L72.1352 68.1367L72.6596 68.1455L72.6893 66.3732L72.719 64.6009L72.1946 64.5921L72.1649 66.3644ZM72.6893 66.3732L74.4395 66.0926L74.21 64.661L72.4599 64.9416L70.7097 65.2221L70.9392 66.6537L72.6893 66.3732ZM72.4599 64.9416V63.169H72.4032V64.9416V66.7141H72.4599V64.9416ZM72.4032 64.9416L70.655 64.6488L70.4168 66.0716L72.1649 66.3644L73.9131 66.6572L74.1514 65.2343L72.4032 64.9416ZM80.0722 66.3644L80.0425 68.1367L80.5669 68.1455L80.5966 66.3732L80.6263 64.6009L80.1019 64.5921L80.0722 66.3644ZM80.5966 66.3732L82.3467 66.0926L82.1172 64.661L80.3671 64.9416L78.6169 65.2221L78.8464 66.6537L80.5966 66.3732ZM80.3671 64.9416V63.169H80.3104V64.9416V66.7141H80.3671V64.9416ZM80.3104 64.9416L78.5623 64.6488L78.324 66.0716L80.0722 66.3644L81.8203 66.6572L82.0586 65.2343L80.3104 64.9416ZM22.1015 65.5119L21.8953 67.2724C22.0031 67.285 22.546 67.3458 23.1358 67.0629C23.4692 66.9029 23.8167 66.632 24.0673 66.2134C24.3132 65.8026 24.3991 65.3615 24.3994 64.9602L22.6268 64.9591L20.8543 64.958C20.8544 64.8616 20.8762 64.6422 21.0257 64.3925C21.1799 64.1349 21.3986 63.9644 21.6025 63.8666C21.933 63.708 22.2134 63.7404 22.3076 63.7514L22.1015 65.5119ZM22.6268 64.9591L24.3994 64.9591C24.3994 64.4466 24.2227 63.9456 23.8684 63.5489C23.5465 63.1884 23.1721 63.0187 22.9252 62.9371C22.4636 62.7844 22.0542 62.812 21.9888 62.8162L22.1015 64.5851L22.2141 66.354C22.1606 66.3574 22.0138 66.3695 21.812 66.3027C21.695 66.2641 21.4497 66.1627 21.2244 65.9104C20.9668 65.6219 20.8543 65.2691 20.8543 64.9591L22.6268 64.9591ZM22.1015 64.5851H20.3289V65.5119H22.1015H23.874V64.5851H22.1015ZM29.0429 65.5119L28.8314 67.2717C28.9385 67.2846 29.481 67.3469 30.0714 67.0654C30.4056 66.9062 30.7545 66.6356 31.0063 66.2161C31.2534 65.8045 31.3395 65.3623 31.3398 64.9602L29.5673 64.9591L27.7948 64.958C27.7948 64.8619 27.8166 64.6418 27.9669 64.3915C28.122 64.1332 28.3417 63.9628 28.5461 63.8654C28.877 63.7076 29.1574 63.7404 29.2543 63.752L29.0429 65.5119ZM29.5673 64.9591L31.3398 64.9591C31.3398 64.4452 31.1622 63.943 30.8063 63.5459C30.4831 63.1853 30.1077 63.0163 29.8609 62.9353C29.3992 62.7837 28.9904 62.8122 28.9267 62.8164L29.0429 64.5851L29.1591 66.3538C29.1031 66.3575 28.9566 66.3696 28.7551 66.3035C28.6384 66.2652 28.3926 66.1643 28.1665 65.9121C27.9078 65.6234 27.7948 65.2697 27.7948 64.9591L29.5673 64.9591ZM29.0429 64.5851H27.2704V65.5119H29.0429H30.8154V64.5851H29.0429Z" fill="var(--stroke-0, white)" mask="url(#path-2-outside-2_0_72)"/>
</g>
<path id="Vector" d="M5.4706 17.653C5.80167 17.4308 6.19132 17.2657 6.54944 17.0919C8.27865 16.2529 9.98338 15.8624 11.8753 15.6213C14.595 15.2747 17.4702 15.3026 19.7306 17.0793C21.4741 18.4497 22.5155 20.8201 22.7781 22.9935C23.2356 22.9375 23.6971 22.88 24.1582 22.8702C26.5011 22.8202 28.4878 23.8818 30.1428 25.4762C30.2849 23.0733 30.6472 20.6725 30.8172 18.2674C31.7313 17.9481 32.652 17.5952 33.5997 17.3926C36.2514 16.8258 40.2697 16.8412 42.8052 17.908C44.526 18.6322 45.8228 19.9372 46.5264 21.6755C47.3396 21.6063 48.157 21.4569 48.968 21.3562C51.3446 21.0611 53.7236 20.7226 56.1034 20.4615C56.1401 20.9357 56.2229 21.4122 56.2756 21.8858C56.8274 21.3398 57.4173 20.6269 58.061 20.2065C59.1835 21.765 60.4344 23.264 61.6229 24.774C62.1269 25.4144 62.6733 26.0478 63.1192 26.7305C63.7836 25.3289 64.355 23.8701 64.9683 22.4441C65.3723 21.5045 65.8812 20.541 66.1697 19.5626C68.4755 20.0463 70.808 20.4433 73.0985 20.9975C73.3077 20.6646 73.5045 20.3126 73.7786 20.0292C74.7192 19.7867 75.7949 19.7698 76.7618 19.6537L81.9626 18.9764C82.2085 20.8996 82.5194 22.8325 82.6467 24.7675C80.4717 24.8522 78.3025 25.0333 76.1275 25.1126C76.2449 25.8939 76.3708 26.6739 76.5053 27.4524L79.4589 27.5028C79.7639 28.8183 79.9856 30.1616 80.248 31.4868C79.2254 31.9655 78.1766 32.3884 77.1389 32.8334C77.0182 33.8047 77.0504 35.0098 76.9769 36.0319C79.4956 35.2137 81.9908 34.3255 84.5121 33.5146C84.4662 34.0675 84.3409 34.6274 84.2635 35.1782C83.9913 37.0479 83.6916 38.9133 83.3636 40.774C80.3549 40.913 77.3409 41.1969 74.3381 41.4399C72.9515 41.5521 71.5603 41.689 70.1704 41.7394C70.1586 40.3685 70.0852 38.9996 70.0465 37.6293L69.8812 30.9922C69.8458 29.7327 69.7749 28.4753 69.7782 27.2149C69.2279 27.9724 68.7694 28.8418 68.2775 29.6422C67.6274 30.6987 66.9125 31.7555 66.3314 32.8507C66.3418 33.7627 66.5116 34.7023 66.6152 35.6104L66.9853 39.1373C67.0863 40.0742 67.2162 41.01 67.2713 41.9512C64.6713 41.7768 62.0563 41.7636 59.4526 41.6459C59.5663 40.8926 59.5907 40.1058 59.6497 39.3455C59.8196 37.1545 59.8997 34.9491 60.1408 32.7644C59.2977 31.5809 58.1238 30.2835 57.1894 29.1344C56.2645 27.9972 55.1907 26.5183 54.1811 25.4944C52.8393 25.6355 51.4665 25.6826 50.1181 25.7491C50.3036 26.7903 50.4804 27.8331 50.6484 28.8773C51.6292 28.9291 52.6201 28.9145 53.6026 28.9254C53.8743 30.0222 54.0391 31.1522 54.277 32.2578C53.2739 32.6956 52.268 33.1267 51.2594 33.5512C51.6903 34.6959 52.0594 35.8622 52.4609 37.0177C53.8931 36.8942 55.359 36.5366 56.7757 36.277C56.9738 37.4504 57.1555 38.6295 57.3295 39.8069C57.4057 40.3222 57.4514 40.8408 57.5479 41.353C55.5276 41.5939 53.4848 41.6559 51.4574 41.8166L47.5169 42.131C46.7048 42.1953 45.8929 42.2827 45.0782 42.2988C45.0569 40.2616 44.9434 38.2111 44.8772 36.1737C44.8251 34.5736 44.8235 32.9707 44.7759 31.3696C44.3837 31.687 44.0381 32.0734 43.6452 32.3967C41.9843 33.7638 40.1571 34.7277 38.0316 35.0735C38.1511 35.7738 38.2036 36.4944 38.2809 37.2009C38.3761 38.0717 38.4929 38.946 38.5492 39.8203L38.024 39.9125C38.0929 40.2372 38.1154 40.5794 38.1534 40.9094C37.1741 40.9367 36.1443 41.1972 35.179 41.3664L31.5812 41.9656C30.552 42.1452 29.5185 42.361 28.4807 42.4785C28.6633 41.4388 28.6507 40.3587 28.8219 39.3127C27.7025 40.0155 26.5854 40.524 25.2705 40.7145C23.2034 41.0141 21.0694 40.3991 19.408 39.1396C17.4434 37.6502 16.3037 35.439 15.9635 33.0104C15.9515 33.1158 15.9682 33.2366 15.8782 33.3047C15.7155 33.4276 15.392 33.3675 15.2033 33.3357C15.1586 33.3282 15.1202 33.316 15.0773 33.3017C14.7784 33.3953 14.479 33.4871 14.179 33.5771C14.5881 35.4467 15.0468 37.3088 15.4694 39.176C12.3281 40.0147 9.25079 41.1007 6.11036 41.9462C6.02841 40.8642 6.03646 39.7718 6.00897 38.6874C5.94744 36.9079 5.89874 35.1279 5.86287 33.3476C5.68436 28.1174 5.55359 22.8857 5.4706 17.653Z" fill="var(--fill-0, white)"/>
<path id="Vector_2" d="M15.08 33.3002C15.3696 33.1856 15.6571 33.0578 15.9662 33.0089C15.9542 33.1142 15.9709 33.2351 15.8809 33.3031C15.7182 33.4261 15.3947 33.366 15.206 33.3342C15.1613 33.3267 15.1229 33.3145 15.08 33.3002Z" fill="var(--fill-0, #111010)"/>
<path id="Vector_3" d="M13.8685 16.5281C15.2854 16.4192 16.9069 16.65 18.1664 17.3199C19.8423 18.2113 20.8661 19.84 21.4105 21.628C21.983 23.5078 21.7068 25.1906 20.805 26.9063C19.6266 29.1484 17.6991 31.0978 15.3472 32.0714C14.5821 32.3882 13.735 32.5924 12.9436 32.8376C13.3293 34.7125 13.8445 36.5624 14.2173 38.4392C14.0478 38.4963 13.868 38.5376 13.6954 38.5857C11.5047 39.2539 9.31041 39.9103 7.11267 40.5548C7.05796 39.3341 7.06133 38.1103 7.02581 36.8889L6.77719 27.9533C6.69365 24.7251 6.51068 21.4853 6.5136 18.2568C7.12723 18.0041 7.72144 17.6921 8.34444 17.4651C10.1117 16.8211 12.0046 16.6193 13.8685 16.5281Z" fill="var(--fill-0, #EE1D22)"/>
<path id="Vector_4" d="M13.1279 20.3179C13.5446 20.2933 13.9996 20.3556 14.3994 20.4734C15.2289 20.7177 16.0096 21.3215 16.4252 22.0906C16.8086 22.8001 16.8837 23.7156 16.6458 24.4846C16.2906 25.633 15.2997 26.4312 14.2769 26.9612C13.1881 27.595 12.1245 27.4721 10.9341 27.3182C10.9138 25.2922 10.9675 23.2601 10.9872 21.2338C11.6308 20.6254 12.2696 20.4092 13.1279 20.3179Z" fill="var(--fill-0, white)"/>
<path id="Vector_5" d="M12.9063 21.3788C13.1279 21.3618 13.3691 21.3556 13.5899 21.3803C14.2488 21.4541 14.9136 21.7852 15.3218 22.3194C15.6502 22.7438 15.7935 23.2844 15.7192 23.8176C15.598 24.6671 14.9682 25.2494 14.3228 25.7362C13.5262 26.2548 12.8765 26.3195 11.955 26.2889C11.9868 24.7671 11.9748 23.2435 12.0187 21.7222C12.2993 21.5532 12.5871 21.4454 12.9063 21.3788Z" fill="var(--fill-0, #212021)"/>
<path id="Vector_6" d="M36.3326 18.1302C38.1833 18.037 39.9769 18.153 41.7626 18.6722C43.4418 19.1606 44.6302 20.3131 45.4604 21.8317L44.4633 21.9459C44.4633 21.9459 44.696 27.1399 44.7034 29.7249C42.6777 32.4159 39.7385 33.8986 36.4196 34.2351C36.5215 36.1616 36.9846 40.0094 36.9846 40.0094L29.6952 41.2205L29.9583 38.3726C30.9263 37.2342 31.7742 36.0258 32.1887 34.5622C32.9813 31.7637 32.6777 29.1166 31.0762 26.6313C31.4499 24.1182 31.5404 21.5457 31.8246 19.0181C33.3691 18.4951 34.7032 18.2081 36.3326 18.1302Z" fill="var(--fill-0, #EE1D22)"/>
<path id="Vector_7" d="M37.6814 21.8717C38.2129 21.8545 38.7609 21.9362 39.2567 22.1331C40.0754 22.4582 40.8007 23.126 41.1452 23.9472C41.4762 24.7361 41.4903 25.5575 41.1595 26.3478C40.6752 27.5049 39.6371 28.1316 38.5366 28.589C37.2956 29.0738 36.3449 28.8583 35.1112 28.5326C35.2406 27.2527 35.4095 25.9673 35.5776 24.692C35.6714 23.98 35.7281 23.2254 35.9008 22.5308C36.4309 22.0871 37.0094 21.9478 37.6814 21.8717Z" fill="var(--fill-0, white)"/>
<path id="Vector_8" d="M37.3029 22.9428C37.6038 22.9271 37.9182 22.898 38.2171 22.9434C38.8885 23.0454 39.5385 23.4033 39.9437 23.9605C40.2593 24.3946 40.4042 24.9604 40.3168 25.4933C40.2027 26.1882 39.7667 26.6526 39.2194 27.0474C38.3806 27.5093 37.6507 27.5965 36.7147 27.4346C36.8188 26.4834 36.9469 25.5298 37.063 24.5795C37.1253 24.0687 37.1354 23.4258 37.3029 22.9428Z" fill="var(--fill-0, #212021)"/>
<path id="Vector_9" d="M28.6067 25.496C32.0327 28.2717 32.4545 33.6248 29.7185 37.0368C28.419 38.6573 26.4006 39.6737 24.3298 39.7083C20.4188 39.7739 17.0546 36.2956 17.0058 32.3792C20.842 30.209 22.536 27.3959 23.2689 23.9228C25.827 23.7905 27.6568 24.7267 28.6067 25.496Z" fill="var(--fill-0, #EE1D22)"/>
<path id="Vector_10" d="M23.8149 29.9173C25.718 29.6127 27.5044 30.9251 27.8005 32.8454C28.0967 34.7657 26.7898 36.5633 24.8849 36.8559C22.9883 37.1473 21.2155 35.8364 20.9206 33.9245C20.6259 32.0126 21.9203 30.2206 23.8149 29.9173Z" fill="var(--fill-0, white)"/>
<path id="Vector_11" d="M24.0265 30.95C25.3572 30.7634 26.5858 31.7005 26.77 33.0426C26.9543 34.3848 26.0244 35.6233 24.6936 35.8083C23.3637 35.9932 22.137 35.0564 21.9529 33.7153C21.7687 32.3743 22.6969 31.1365 24.0265 30.95Z" fill="var(--fill-0, #212021)"/>
<path id="Vector_12" d="M24.1629 33.3722C24.2282 33.3743 24.2952 33.3738 24.3597 33.3863C24.5361 33.4203 24.7231 33.5726 24.8132 33.7272C24.9264 33.9211 24.9244 34.1534 24.8704 34.3658C24.7906 34.6792 24.5966 34.8217 24.338 34.978C24.3159 34.9759 24.2937 34.9746 24.2716 34.9718C24.0787 34.9475 23.8544 34.7856 23.7501 34.6227C23.6205 34.4202 23.6165 34.1738 23.6739 33.9468C23.7452 33.6644 23.9316 33.5175 24.1629 33.3722Z" fill="var(--fill-0, white)"/>
<path id="Vector_13" d="M81.0149 20.2103L81.482 23.7477L74.8611 24.1415L75.5931 28.482L78.6353 28.5262L79.0373 30.8563L76.15 32.1203L75.8358 37.55L83.2037 35.0418L82.4967 39.7514L71.1998 40.5952L70.8495 26.7998L74.3836 21.0026L81.0149 20.2103Z" fill="var(--fill-0, #EE1D22)"/>
<path id="Vector_14" d="M66.8496 20.7796L71.8398 21.7973L65.2625 32.5502L66.1018 40.836L60.5865 40.624L61.215 32.3765L54.9257 24.647L57.9156 21.7651L63.4018 28.7738L66.8496 20.7796Z" fill="var(--fill-0, #EE1D22)"/>
<path id="Vector_15" d="M55.1692 21.6383L52.3933 24.5179L48.8022 24.5981L49.7348 29.9114L52.7243 29.9443L53.0459 31.629L49.9733 32.962L51.7402 38.2187L55.9061 37.5338L56.2655 40.3893L46.1155 41.1082L45.5643 22.8358C47.6557 22.5821 55.1692 21.6383 55.1692 21.6383Z" fill="var(--fill-0, #EE1D22)"/>
<path id="Vector_16" d="M41.5869 44.1598L42.2336 44.1534C42.4637 47.6318 42.494 51.1206 42.722 54.5995C44.4219 54.4506 46.1237 54.3252 47.8269 54.2232C47.8447 55.5296 47.9225 56.8346 47.9582 58.1408L51.1135 44.9525C52.378 44.9426 53.6435 44.9569 54.9082 44.9611C55.3065 46.2154 55.8375 47.4466 56.3053 48.6776C57.0497 50.6366 57.7719 52.6087 58.5408 54.5577C59.1273 55.9788 59.6272 57.4412 60.1924 58.872C59.5567 58.9745 58.8829 58.9698 58.2396 59.0166C57.3893 59.0784 56.5413 59.1815 55.6895 59.2192C55.4125 58.3714 55.1262 57.5263 54.9027 56.6621C54.1459 56.7943 53.3868 56.9131 52.6259 57.0182C52.4868 57.7985 52.3577 58.5806 52.2388 59.3642C50.7511 59.3737 49.2396 59.124 47.7492 59.0552C47.819 58.8182 47.8662 58.5743 47.9181 58.333C46.8994 58.5111 45.4409 58.5266 44.3651 58.6058C42.4954 58.7435 40.596 58.9728 38.7222 58.9727C38.7107 58.0372 38.6209 57.1059 38.5833 56.1718C38.3886 52.1909 38.1609 48.2118 37.9003 44.2348C39.1269 44.2348 40.3593 44.1772 41.5869 44.1598Z" fill="var(--fill-0, white)"/>
<path id="Vector_17" d="M51.5345 45.5965L54.2007 45.5982L58.8894 58.0008L56.0408 58.2046L55.2578 55.6331L51.7627 56.1794L51.3843 58.3463L48.5761 58.1856L51.5345 45.5965Z" fill="var(--fill-0, #EE1D22)"/>
<path id="Vector_18" d="M52.8893 48.6334L54.5905 53.2363L50.7089 53.7966L51.3849 48.7602L52.8893 48.6334Z" fill="var(--fill-0, white)"/>
<path id="Vector_19" d="M52.3371 49.1222L53.6632 52.7304L51.8104 53.0168L52.3371 49.1222Z" fill="var(--fill-0, #212021)"/>
<path id="Vector_20" d="M38.5741 44.8319L41.3185 44.8148L41.7615 55.274L46.8849 54.9248L46.9403 57.3843C46.9403 57.3843 41.1623 57.873 39.3428 58.0136L38.5741 44.8319Z" fill="var(--fill-0, #EE1D22)"/>
<path id="Vector_21" d="M15.3048 44.3801C17.0424 44.3196 18.7993 44.3715 20.5385 44.3747C20.3642 45.1115 20.1163 45.8296 19.9081 46.5571L18.3543 51.9096L16.9324 56.8209C16.726 57.525 16.5714 58.2756 16.3091 58.9591C14.6698 59.1059 13.0003 59.1989 11.3554 59.2351C11.1813 58.7691 11.0616 58.2805 10.9149 57.8047C10.5828 56.7411 10.2589 55.6751 9.94323 54.6065C9.4181 53.0292 8.98106 51.4185 8.484 49.8318L7.60236 46.948C7.38862 46.2507 7.15314 45.5622 6.99208 44.8498C8.69068 44.784 10.4301 44.6165 12.119 44.4138C12.1926 45.0494 12.4018 45.706 12.5329 46.3354C12.8926 48.0636 13.2596 49.8163 13.6786 51.5298C14.232 49.1499 14.7324 46.755 15.3048 44.3801Z" fill="var(--fill-0, white)"/>
<path id="Vector_22" d="M15.78 44.9688L19.3148 44.9764L15.5407 58.0466L11.7589 58.2446L7.85732 45.417L11.3223 45.1008L12.7013 51.535L14.2609 51.5287L15.78 44.9688Z" fill="var(--fill-0, #EE1D22)"/>
<path id="Vector_23" d="M69.8697 44.3014C70.1682 44.2635 70.485 44.2714 70.7861 44.2589C70.7946 45.1431 71.1829 46.7749 71.3515 47.7226C69.364 48.1924 66.0066 47.8795 64.4358 49.2497C63.7273 49.8678 63.3872 50.7126 63.3268 51.6428C63.2675 52.5546 63.4451 53.472 64.0593 54.1717C65.3912 55.6892 67.6875 55.9002 69.5562 56.0164C69.5175 54.7661 69.2604 53.5259 69.2171 52.2718C68.5382 52.4525 67.8692 52.6609 67.1864 52.8316C67.1647 51.9759 67.0585 51.0613 66.9214 50.2163C68.7298 50.2095 70.5545 50.2218 72.3622 50.2889L72.3799 53.0617C72.3767 55.0641 72.397 57.0664 72.4416 59.0683C68.9928 59.2613 64.021 59.2149 61.2165 56.9489C59.9882 55.9565 59.1888 54.544 59.0194 52.9584C58.8218 51.1088 59.2736 49.3642 60.4359 47.9113C62.1909 45.7175 65.0457 44.7527 67.7373 44.4334C68.4438 44.3496 69.1594 44.3792 69.8697 44.3014Z" fill="var(--fill-0, white)"/>
<path id="Union_2" d="M70.2542 46.8846C70.1217 46.2209 70.0312 45.5559 69.9446 44.8851C67.0186 44.9445 63.5929 45.4816 61.4098 47.6396C60.2689 48.7673 59.601 50.2411 59.5918 51.861C59.5835 53.3173 60.0269 54.7004 61.067 55.7477C63.6026 58.3008 68.1572 58.0859 71.4761 58.0994C71.4479 55.6737 71.3975 50.8918 71.3975 50.8918L67.6561 50.8481L67.7033 51.5136L69.7379 51.0191C69.7379 51.0191 70.0749 54.8125 70.285 56.631C68.1139 56.6575 65.7701 56.4851 63.956 55.1389C62.1463 53.796 61.7894 50.9073 63.1579 49.1092C64.7581 47.0063 67.8824 47.2324 70.2542 46.8846Z" fill="var(--fill-0, #EE1D22)"/>
<path id="Vector_24" d="M81.3892 44.3002C81.5591 44.2684 81.7624 44.2774 81.9362 44.2689C82.0654 45.3605 82.1488 46.4648 82.3127 47.5512C80.6637 47.6533 78.9866 47.6781 77.3337 47.7035C77.415 48.4939 77.598 49.2906 77.7095 50.08C78.45 50.1428 79.1997 50.1192 79.9435 50.175C80.1108 50.9163 80.221 51.6652 80.3201 52.418C79.569 52.7091 78.8055 52.9597 78.0578 53.2636L77.8289 56.2927L83.4383 54.667C83.3104 55.6994 83.0756 56.7236 82.8755 57.744C82.7961 58.1028 82.722 58.4627 82.6545 58.8238C81.5158 58.9538 80.3751 58.9415 79.2332 58.9949C77.3054 59.1018 75.3777 59.1942 73.4486 59.2723L73.3378 45.0797C76.0238 44.8448 78.7078 44.585 81.3892 44.3002Z" fill="var(--fill-0, white)"/>
<path id="Vector_25" d="M81.0001 44.9871L81.2198 46.6077L76.229 46.6841L76.8711 50.648L79.1176 50.7558L79.2678 51.7444L77.119 52.542L76.753 57.2077L82.2214 55.655L81.8121 57.8995L74.0585 58.2685L73.9667 45.6012L81.0001 44.9871Z" fill="var(--fill-0, #EE1D22)"/>
<path id="Vector_26" d="M30.1987 44.6483C30.8303 44.6168 31.466 44.6211 32.0983 44.6121C32.105 45.5845 32.1902 46.5513 32.2266 47.5223L32.5418 55.0237C34.2342 54.921 35.9604 54.8385 37.6428 54.629C37.7185 56.018 37.7251 57.4052 37.7902 58.7933C36.9634 58.8327 36.137 58.9123 35.3108 58.9676C34.4553 58.9688 33.5908 59.0669 32.7373 59.1318L28.5873 59.4349C28.5606 58.2621 28.4444 57.0807 28.3781 55.9086L28.0344 49.5566C27.9382 47.9308 27.8074 46.3019 27.7577 44.6743C28.5714 44.671 29.3851 44.6623 30.1987 44.6483Z" fill="var(--fill-0, white)"/>
<path id="Vector_27" d="M31.162 45.2249L31.6112 55.7126L36.7368 55.3324L36.8128 57.8867L29.1377 58.363L28.3983 45.2955L31.162 45.2249Z" fill="var(--fill-0, #EE1D22)"/>
<path id="Vector_28" d="M25.6782 43.575C25.7312 43.5679 25.7966 43.5785 25.8506 43.581C25.9291 43.6905 25.9321 43.7997 25.9461 43.9308C26.0134 44.5623 26.0229 45.2034 26.0844 45.8376C26.3609 48.4477 26.6103 51.0607 26.8324 53.6761C26.9627 55.1689 27.1558 56.6592 27.2587 58.1538C25.8042 58.2116 24.3404 58.232 22.8842 58.2657C22.8236 58.2527 22.8087 58.2365 22.7624 58.1972C22.454 55.4629 22.2105 52.7227 21.9274 49.9863C21.7134 47.9179 21.4443 45.8463 21.289 43.7732C22.7526 43.7311 24.2148 43.6328 25.6782 43.575Z" fill="var(--fill-0, white)"/>
<path id="Vector_29" d="M25.0168 44.222L26.2364 57.2176L23.3124 57.3202L22.0214 44.3606L25.0168 44.222Z" fill="var(--fill-0, #EE1D22)"/>
<path id="Vector_30" d="M63.2811 65.1875L64.6319 65.1869L64.6254 65.9379L63.2836 65.9458L63.2811 65.1875Z" fill="var(--fill-0, #212021)"/>
</g>
</svg>
