<svg preserveAspectRatio="none" width="100%" height="100%" overflow="visible" style="display: block;" viewBox="0 0 100.686 69.5698" fill="none" xmlns="http://www.w3.org/2000/svg">
<g id="svg">
<g id="Subtract">
<mask id="path-1-outside-1_0_11" maskUnits="userSpaceOnUse" x="-0.0118241" y="-0.0116298" width="101" height="67" fill="black">
<rect fill="white" x="-0.0118241" y="-0.0116298" width="101" height="67"/>
<path fill-rule="evenodd" clip-rule="evenodd" d="M58.1356 4.01642C59.7489 3.8071 61.3289 4.78755 61.851 6.35048C62.1948 7.35029 62.0184 8.26638 61.5805 9.19361C62.2751 10.0079 62.8799 10.9232 63.4826 11.8076C64.3057 11.172 67.5204 9.23145 68.4505 8.86715C68.8554 8.70905 69.3766 8.6911 69.6699 9.06825C69.927 9.39904 69.7635 9.87115 69.523 10.1643C68.7779 11.0546 64.9444 13.6585 64.9444 13.6585L68.1456 18.5305L72.7573 19.5221L73.1069 19.1374L83.6646 17.84L84.7928 27.1826L81.2305 27.3609L82.3501 33.2233L86.8537 31.732C86.8537 31.732 85.7229 39.0307 85.1188 42.6714C85.9913 43.8113 87.3676 44.8208 88.8667 44.4341C92.2237 43.5685 94.1513 39.2284 93.3322 36.026C92.3629 36.3078 91.3305 36.3802 90.4456 35.8003C92.0453 33.9372 91.9212 31.3581 91.2464 29.1041C93.886 30.4618 96.7612 32.7091 96.6971 35.9511C96.1586 35.5308 95.828 35.4632 95.1504 35.5496C97.0664 39.9183 95.1542 44.166 92.5379 47.797C92.0125 48.5257 91.4051 49.2121 90.9198 49.9665C90.0657 51.2932 89.9824 53.0084 90.2973 54.5165C88.9953 53.6234 87.6926 53.2083 86.1086 53.482L84.5436 61.7006C80.1465 62.1392 75.6705 62.1183 71.2586 62.311V62.0876C69.3251 62.093 67.3813 62.0985 65.4728 61.7415C64.7535 61.6069 64.036 61.3315 63.3111 61.264C63.3068 61.3663 63.2793 61.5734 63.2793 61.5734C60.7506 61.769 58.2227 61.9744 55.6944 62.1752C53.8355 62.3414 52.176 62.3318 50.2956 62.1882C49.1785 62.1029 44.9741 61.7778 44.9741 61.7778L44.9129 61.5361L36.8954 62.1085L36.9113 61.7778L26.4765 62.5402L26.4216 61.1377L20.7276 61.32L20.0754 54.835C19.3489 57.1649 18.7061 59.5211 18.0299 61.8661C15.2638 62.0217 12.4818 62.2306 9.71159 62.2871C7.73479 56.0512 3.98818 43.5092 3.98818 43.5092L4.80852 43.4534C4.61707 34.6547 4.40314 25.851 4.08759 17.0558C8.25945 14.246 15.1672 12.8539 19.6239 15.4828C22.0383 16.9072 23.3011 19.2493 23.9888 21.9125C25.9653 22.019 27.3124 22.2961 29.0656 23.2619C29.1715 21.6726 29.6183 17.3713 29.6183 17.3713C29.6183 17.3713 32.0081 16.4424 33.2558 16.1025C35.657 15.4483 38.653 15.4395 41.0986 15.805C44.2973 16.2831 46.0556 17.4688 47.9413 20.0321C48.9564 19.8612 49.9891 19.7728 51.0106 19.6482L55.3661 19.0816C55.9249 19.0095 56.9631 18.9914 57.4406 18.7989C57.7934 18.6565 58.3701 18.0069 58.3701 18.0069C59.8956 19.895 61.3794 21.8171 62.8832 23.7227L64.4786 20.0491L61.776 15.7174C61.776 15.7174 57.2246 18.6672 56.2707 18.5631C55.8389 18.5185 55.5166 18.152 55.6031 17.7131C55.7699 16.8688 56.7519 16.3565 57.3734 15.8959C58.4646 15.0871 59.5843 14.3229 60.6869 13.5307C60.2109 12.6686 59.76 11.8109 59.3338 10.9224C57.3495 11.1678 55.4371 10.054 55.1278 7.95343C54.8452 6.03396 56.2691 4.27801 58.1356 4.01642ZM35.4589 43.2794L34.2545 43.4605L34.6715 53.2728L36.1751 53.1547L35.4589 43.2794ZM49.1677 44.0345L44.4701 44.3901L44.8827 52.7873L47.1435 52.692L49.1677 44.0345ZM57.7368 43.3104L56.4982 43.4637C56.4982 43.4637 57.6076 46.4292 58.1757 47.907C59.2737 46.0001 61.2173 44.7372 63.1949 43.9095C62.7421 43.8966 57.8636 43.6588 57.8636 43.6588L57.7368 43.3104ZM16.9116 40.0627L5.86434 43.3501L13.4218 42.7307L18.8505 42.7212L18.9172 42.3134L19.8026 42.2814C19.8026 42.2814 18.5456 41.6561 17.6774 40.8159C17.4088 40.5892 16.9116 40.0627 16.9116 40.0627ZM43.3146 35.4808C43.3146 35.4808 41.4591 36.4821 40.4262 36.7826C40.6242 38.6286 40.9906 42.3297 40.9906 42.3297L39.4596 42.5781L43.5285 42.5416L43.3146 35.4808ZM55.7895 30.4073L56.4093 33.5965L53.5841 34.7879L53.8063 35.3355L58.4904 34.5918L58.5289 33.7233L55.7895 30.4073ZM58.8694 6.33859C58.2562 6.51769 57.7921 7.09318 58.0177 7.75563C58.2409 8.42589 59.2312 8.8309 59.6739 8.14522C60.0888 7.50254 59.7701 6.27826 58.8694 6.33859Z"/>
</mask>
<path fill-rule="evenodd" clip-rule="evenodd" d="M58.1356 4.01642C59.7489 3.8071 61.3289 4.78755 61.851 6.35048C62.1948 7.35029 62.0184 8.26638 61.5805 9.19361C62.2751 10.0079 62.8799 10.9232 63.4826 11.8076C64.3057 11.172 67.5204 9.23145 68.4505 8.86715C68.8554 8.70905 69.3766 8.6911 69.6699 9.06825C69.927 9.39904 69.7635 9.87115 69.523 10.1643C68.7779 11.0546 64.9444 13.6585 64.9444 13.6585L68.1456 18.5305L72.7573 19.5221L73.1069 19.1374L83.6646 17.84L84.7928 27.1826L81.2305 27.3609L82.3501 33.2233L86.8537 31.732C86.8537 31.732 85.7229 39.0307 85.1188 42.6714C85.9913 43.8113 87.3676 44.8208 88.8667 44.4341C92.2237 43.5685 94.1513 39.2284 93.3322 36.026C92.3629 36.3078 91.3305 36.3802 90.4456 35.8003C92.0453 33.9372 91.9212 31.3581 91.2464 29.1041C93.886 30.4618 96.7612 32.7091 96.6971 35.9511C96.1586 35.5308 95.828 35.4632 95.1504 35.5496C97.0664 39.9183 95.1542 44.166 92.5379 47.797C92.0125 48.5257 91.4051 49.2121 90.9198 49.9665C90.0657 51.2932 89.9824 53.0084 90.2973 54.5165C88.9953 53.6234 87.6926 53.2083 86.1086 53.482L84.5436 61.7006C80.1465 62.1392 75.6705 62.1183 71.2586 62.311V62.0876C69.3251 62.093 67.3813 62.0985 65.4728 61.7415C64.7535 61.6069 64.036 61.3315 63.3111 61.264C63.3068 61.3663 63.2793 61.5734 63.2793 61.5734C60.7506 61.769 58.2227 61.9744 55.6944 62.1752C53.8355 62.3414 52.176 62.3318 50.2956 62.1882C49.1785 62.1029 44.9741 61.7778 44.9741 61.7778L44.9129 61.5361L36.8954 62.1085L36.9113 61.7778L26.4765 62.5402L26.4216 61.1377L20.7276 61.32L20.0754 54.835C19.3489 57.1649 18.7061 59.5211 18.0299 61.8661C15.2638 62.0217 12.4818 62.2306 9.71159 62.2871C7.73479 56.0512 3.98818 43.5092 3.98818 43.5092L4.80852 43.4534C4.61707 34.6547 4.40314 25.851 4.08759 17.0558C8.25945 14.246 15.1672 12.8539 19.6239 15.4828C22.0383 16.9072 23.3011 19.2493 23.9888 21.9125C25.9653 22.019 27.3124 22.2961 29.0656 23.2619C29.1715 21.6726 29.6183 17.3713 29.6183 17.3713C29.6183 17.3713 32.0081 16.4424 33.2558 16.1025C35.657 15.4483 38.653 15.4395 41.0986 15.805C44.2973 16.2831 46.0556 17.4688 47.9413 20.0321C48.9564 19.8612 49.9891 19.7728 51.0106 19.6482L55.3661 19.0816C55.9249 19.0095 56.9631 18.9914 57.4406 18.7989C57.7934 18.6565 58.3701 18.0069 58.3701 18.0069C59.8956 19.895 61.3794 21.8171 62.8832 23.7227L64.4786 20.0491L61.776 15.7174C61.776 15.7174 57.2246 18.6672 56.2707 18.5631C55.8389 18.5185 55.5166 18.152 55.6031 17.7131C55.7699 16.8688 56.7519 16.3565 57.3734 15.8959C58.4646 15.0871 59.5843 14.3229 60.6869 13.5307C60.2109 12.6686 59.76 11.8109 59.3338 10.9224C57.3495 11.1678 55.4371 10.054 55.1278 7.95343C54.8452 6.03396 56.2691 4.27801 58.1356 4.01642ZM35.4589 43.2794L34.2545 43.4605L34.6715 53.2728L36.1751 53.1547L35.4589 43.2794ZM49.1677 44.0345L44.4701 44.3901L44.8827 52.7873L47.1435 52.692L49.1677 44.0345ZM57.7368 43.3104L56.4982 43.4637C56.4982 43.4637 57.6076 46.4292 58.1757 47.907C59.2737 46.0001 61.2173 44.7372 63.1949 43.9095C62.7421 43.8966 57.8636 43.6588 57.8636 43.6588L57.7368 43.3104ZM16.9116 40.0627L5.86434 43.3501L13.4218 42.7307L18.8505 42.7212L18.9172 42.3134L19.8026 42.2814C19.8026 42.2814 18.5456 41.6561 17.6774 40.8159C17.4088 40.5892 16.9116 40.0627 16.9116 40.0627ZM43.3146 35.4808C43.3146 35.4808 41.4591 36.4821 40.4262 36.7826C40.6242 38.6286 40.9906 42.3297 40.9906 42.3297L39.4596 42.5781L43.5285 42.5416L43.3146 35.4808ZM55.7895 30.4073L56.4093 33.5965L53.5841 34.7879L53.8063 35.3355L58.4904 34.5918L58.5289 33.7233L55.7895 30.4073ZM58.8694 6.33859C58.2562 6.51769 57.7921 7.09318 58.0177 7.75563C58.2409 8.42589 59.2312 8.8309 59.6739 8.14522C60.0888 7.50254 59.7701 6.27826 58.8694 6.33859Z" fill="var(--fill-0, #212021)"/>
<path fill-rule="evenodd" clip-rule="evenodd" d="M58.1356 4.01642C59.7489 3.8071 61.3289 4.78755 61.851 6.35048C62.1948 7.35029 62.0184 8.26638 61.5805 9.19361C62.2751 10.0079 62.8799 10.9232 63.4826 11.8076C64.3057 11.172 67.5204 9.23145 68.4505 8.86715C68.8554 8.70905 69.3766 8.6911 69.6699 9.06825C69.927 9.39904 69.7635 9.87115 69.523 10.1643C68.7779 11.0546 64.9444 13.6585 64.9444 13.6585L68.1456 18.5305L72.7573 19.5221L73.1069 19.1374L83.6646 17.84L84.7928 27.1826L81.2305 27.3609L82.3501 33.2233L86.8537 31.732C86.8537 31.732 85.7229 39.0307 85.1188 42.6714C85.9913 43.8113 87.3676 44.8208 88.8667 44.4341C92.2237 43.5685 94.1513 39.2284 93.3322 36.026C92.3629 36.3078 91.3305 36.3802 90.4456 35.8003C92.0453 33.9372 91.9212 31.3581 91.2464 29.1041C93.886 30.4618 96.7612 32.7091 96.6971 35.9511C96.1586 35.5308 95.828 35.4632 95.1504 35.5496C97.0664 39.9183 95.1542 44.166 92.5379 47.797C92.0125 48.5257 91.4051 49.2121 90.9198 49.9665C90.0657 51.2932 89.9824 53.0084 90.2973 54.5165C88.9953 53.6234 87.6926 53.2083 86.1086 53.482L84.5436 61.7006C80.1465 62.1392 75.6705 62.1183 71.2586 62.311V62.0876C69.3251 62.093 67.3813 62.0985 65.4728 61.7415C64.7535 61.6069 64.036 61.3315 63.3111 61.264C63.3068 61.3663 63.2793 61.5734 63.2793 61.5734C60.7506 61.769 58.2227 61.9744 55.6944 62.1752C53.8355 62.3414 52.176 62.3318 50.2956 62.1882C49.1785 62.1029 44.9741 61.7778 44.9741 61.7778L44.9129 61.5361L36.8954 62.1085L36.9113 61.7778L26.4765 62.5402L26.4216 61.1377L20.7276 61.32L20.0754 54.835C19.3489 57.1649 18.7061 59.5211 18.0299 61.8661C15.2638 62.0217 12.4818 62.2306 9.71159 62.2871C7.73479 56.0512 3.98818 43.5092 3.98818 43.5092L4.80852 43.4534C4.61707 34.6547 4.40314 25.851 4.08759 17.0558C8.25945 14.246 15.1672 12.8539 19.6239 15.4828C22.0383 16.9072 23.3011 19.2493 23.9888 21.9125C25.9653 22.019 27.3124 22.2961 29.0656 23.2619C29.1715 21.6726 29.6183 17.3713 29.6183 17.3713C29.6183 17.3713 32.0081 16.4424 33.2558 16.1025C35.657 15.4483 38.653 15.4395 41.0986 15.805C44.2973 16.2831 46.0556 17.4688 47.9413 20.0321C48.9564 19.8612 49.9891 19.7728 51.0106 19.6482L55.3661 19.0816C55.9249 19.0095 56.9631 18.9914 57.4406 18.7989C57.7934 18.6565 58.3701 18.0069 58.3701 18.0069C59.8956 19.895 61.3794 21.8171 62.8832 23.7227L64.4786 20.0491L61.776 15.7174C61.776 15.7174 57.2246 18.6672 56.2707 18.5631C55.8389 18.5185 55.5166 18.152 55.6031 17.7131C55.7699 16.8688 56.7519 16.3565 57.3734 15.8959C58.4646 15.0871 59.5843 14.3229 60.6869 13.5307C60.2109 12.6686 59.76 11.8109 59.3338 10.9224C57.3495 11.1678 55.4371 10.054 55.1278 7.95343C54.8452 6.03396 56.2691 4.27801 58.1356 4.01642ZM35.4589 43.2794L34.2545 43.4605L34.6715 53.2728L36.1751 53.1547L35.4589 43.2794ZM49.1677 44.0345L44.4701 44.3901L44.8827 52.7873L47.1435 52.692L49.1677 44.0345ZM57.7368 43.3104L56.4982 43.4637C56.4982 43.4637 57.6076 46.4292 58.1757 47.907C59.2737 46.0001 61.2173 44.7372 63.1949 43.9095C62.7421 43.8966 57.8636 43.6588 57.8636 43.6588L57.7368 43.3104ZM16.9116 40.0627L5.86434 43.3501L13.4218 42.7307L18.8505 42.7212L18.9172 42.3134L19.8026 42.2814C19.8026 42.2814 18.5456 41.6561 17.6774 40.8159C17.4088 40.5892 16.9116 40.0627 16.9116 40.0627ZM43.3146 35.4808C43.3146 35.4808 41.4591 36.4821 40.4262 36.7826C40.6242 38.6286 40.9906 42.3297 40.9906 42.3297L39.4596 42.5781L43.5285 42.5416L43.3146 35.4808ZM55.7895 30.4073L56.4093 33.5965L53.5841 34.7879L53.8063 35.3355L58.4904 34.5918L58.5289 33.7233L55.7895 30.4073ZM58.8694 6.33859C58.2562 6.51769 57.7921 7.09318 58.0177 7.75563C58.2409 8.42589 59.2312 8.8309 59.6739 8.14522C60.0888 7.50254 59.7701 6.27826 58.8694 6.33859Z" stroke="var(--stroke-0, white)" stroke-width="7.9763" stroke-linejoin="round" mask="url(#path-1-outside-1_0_11)"/>
</g>
<g id="Union">
<mask id="path-2-outside-2_0_11" maskUnits="userSpaceOnUse" x="8.45888" y="61.7113" width="76" height="8" fill="black">
<rect fill="white" x="8.45888" y="61.7113" width="76" height="8"/>
<path d="M25.9677 63.81C26.8487 63.81 27.5634 64.7029 27.5634 65.8041C27.5631 67.1043 26.8485 67.7972 25.9677 67.7973C25.087 67.7971 24.3732 67.1041 24.3729 65.8041C24.3729 64.5037 25.0868 63.8102 25.9677 63.81ZM18.8075 63.727L18.8007 64.5912L17.7587 64.5863V65.1781H18.6522V66.0072L17.7821 66.016V66.7104L18.8056 66.7133L18.8017 67.6186L16.7099 67.6303L16.7089 63.726L18.8075 63.727ZM33.2401 63.727L33.2333 64.5912L32.1913 64.5863V65.1781H33.0849V66.0072L32.2147 66.016V66.7104L33.2382 66.7133L33.2343 67.6186L31.1415 67.6303V63.726L33.2401 63.727ZM21.0399 63.7338C21.7359 63.7263 22.6958 63.6059 23.3026 64.0102C23.8796 64.3948 24.0052 65.2795 23.5946 65.8363C23.2396 66.3164 22.6929 66.3949 22.1815 66.3949V67.6147L21.0497 67.6264C21.0573 66.3289 21.0545 65.031 21.0399 63.7338ZM27.9813 63.7338C28.6773 63.7264 29.637 63.6059 30.244 64.0102C30.8213 64.3947 30.9477 65.2795 30.537 65.8363C30.1819 66.3168 29.6346 66.3949 29.1229 66.3949V67.6147L27.9921 67.6264C27.9997 66.3289 27.9959 65.031 27.9813 63.7338ZM45.1386 67.6264L44.0526 67.6186L44.0507 63.7348L45.1513 63.7309L45.1386 67.6264ZM39.2558 63.7318L39.2489 64.5942L38.1913 64.5893V65.1801H39.0976V66.0072L38.2157 66.016V66.7074L39.2538 66.7113L39.2499 67.6137L37.1268 67.6254L37.1259 63.7309L39.2558 63.7318ZM74.0145 67.6117L72.9188 67.6244L72.8202 67.1459H72.0175L71.9345 67.6244H70.786L71.7636 63.7318L73.1698 63.7309L74.0145 67.6117ZM81.9227 67.6117L80.8261 67.6244L80.7284 67.1459H79.9257L79.8427 67.6244H78.6933L79.6708 63.7318L81.078 63.7309L81.9227 67.6117ZM62.3495 64.6596L61.6972 64.6654L61.7089 67.6127L60.5751 67.6225V64.6654L59.9354 64.6615L59.9384 63.7338L62.3505 63.7328C62.3441 64.0415 62.349 64.3509 62.3495 64.6596ZM59.6474 64.6615C59.2629 64.6587 58.9173 64.6185 58.5751 64.6615L58.5839 65.1889C58.5993 65.189 59.1875 65.1934 59.5292 65.1889V66.0854H58.6503L58.6464 66.7045L59.6444 66.7123L59.6474 67.6108C58.9414 67.6253 58.2334 67.6182 57.5272 67.6215C57.5103 66.326 57.5219 65.0286 57.5204 63.7328H59.6493L59.6474 64.6615ZM78.7714 63.7338L78.7665 64.6625L78.1161 64.6654L78.122 67.0717L78.121 67.6186L76.9989 67.6215C76.9786 66.6376 76.9924 65.6507 76.9911 64.6664L76.3446 64.6625L76.3485 63.7328L78.7714 63.7338ZM43.5116 63.7328L43.5126 64.5512H42.5507V65.185H43.4423L43.4384 66.0072H42.619L42.6288 67.6127L41.5311 67.6195L41.5321 63.7309L43.5116 63.7328ZM75.5653 63.7309C75.5515 64.7225 75.5624 65.7165 75.5624 66.7084L76.4306 66.7143L76.4276 67.6147L74.4599 67.6176L74.4579 63.7318L75.5653 63.7309ZM50.0819 63.7309C50.2061 64.3952 50.3087 65.0637 50.3876 65.7348C50.4996 65.065 50.6426 64.3983 50.7743 63.7318L52.1679 63.7358C52.1924 64.9457 52.3892 66.4072 52.5722 67.6108C52.1828 67.6213 51.7909 67.614 51.4013 67.6147C51.3822 66.8567 51.3878 66.0954 51.3192 65.3402C51.127 66.0786 51.0254 66.8605 50.8602 67.6088C50.5341 67.6167 50.2061 67.6124 49.8798 67.6137C49.8173 66.8554 49.6313 66.0676 49.5155 65.3119L49.4032 67.601C48.9898 67.6195 48.5748 67.6079 48.161 67.6039C48.3543 66.4381 48.551 64.784 48.664 63.7318L50.0819 63.7309ZM67.9559 63.7309C68.0802 64.3952 68.1817 65.0637 68.2606 65.7348C68.3727 65.065 68.5157 64.3984 68.6474 63.7318L70.0419 63.7358C70.0664 64.9458 70.2633 66.4072 70.4462 67.6108C70.0568 67.6213 69.665 67.614 69.2753 67.6147C69.2563 66.8567 69.2619 66.0954 69.1933 65.3402C69.001 66.0787 68.8984 66.8605 68.7333 67.6088C68.4073 67.6167 68.0799 67.6124 67.7538 67.6137C67.6913 66.8554 67.5043 66.0676 67.3886 65.3119L67.2772 67.601C66.8639 67.6195 66.4487 67.6079 66.0351 67.6039C66.2283 66.4381 66.425 64.784 66.538 63.7318L67.9559 63.7309ZM55.704 63.7582C56.1023 63.7339 56.8548 63.8928 56.8602 63.894L56.8651 65.0727C56.8651 65.0727 56.4762 64.526 56.2284 64.5531C55.9809 64.5803 55.8759 64.6852 55.8759 64.8695C55.9107 65.2125 56.7467 65.4439 56.9227 66.0229C57.0174 66.3344 56.9703 66.6789 56.8183 66.9633C56.6446 67.2889 56.3944 67.4831 56.0448 67.5863C55.5449 67.6948 54.8147 67.4364 54.7997 67.4311L54.7841 66.2895C55.1214 66.5696 55.6708 66.9013 55.8759 66.5356C56.1148 66.1081 54.975 65.8097 54.7997 65.2817C54.5711 64.5928 55.08 63.7964 55.704 63.7582ZM34.7919 63.7328L35.2157 64.9272L35.5751 63.7328L36.7772 63.7377L35.7313 65.9692V67.5971L34.6034 67.6098V65.9692L33.6474 63.7309L34.7919 63.7328ZM46.9755 66.7084L47.8417 66.7113V67.6078L45.8485 67.6049L45.8368 63.7348L46.9784 63.7309L46.9755 66.7084ZM12.8407 64.5863H12.1845V67.5639H11.0819V64.6L10.4589 64.5971V63.726H12.8407V64.5863ZM14.2831 65.1137H14.9384V63.7162L15.9862 63.7182V67.5619H14.9384V65.974H14.2831V67.5619H13.2333V63.7162H14.2831V65.1137ZM25.9472 64.7406C25.6718 64.7406 25.4481 65.2019 25.4481 65.7709C25.4482 66.3397 25.6719 66.8012 25.9472 66.8012C26.2223 66.8009 26.4451 66.3395 26.4452 65.7709C26.4452 65.2021 26.2224 64.741 25.9472 64.7406ZM72.1649 66.3647L72.6893 66.3725L72.4599 64.9418H72.4032L72.1649 66.3647ZM80.0722 66.3647L80.5966 66.3725L80.3671 64.9418H80.3104L80.0722 66.3647ZM22.1015 65.5111C22.1131 65.5125 22.6267 65.5698 22.6268 64.9584C22.6266 64.554 22.1144 64.5836 22.1015 64.5844V65.5111ZM29.0429 65.5111C29.0529 65.5124 29.5671 65.5708 29.5673 64.9584C29.5671 64.5519 29.0506 64.5839 29.0429 64.5844V65.5111Z"/>
</mask>
<path d="M25.9677 63.81C26.8487 63.81 27.5634 64.7029 27.5634 65.8041C27.5631 67.1043 26.8485 67.7972 25.9677 67.7973C25.087 67.7971 24.3732 67.1041 24.3729 65.8041C24.3729 64.5037 25.0868 63.8102 25.9677 63.81ZM18.8075 63.727L18.8007 64.5912L17.7587 64.5863V65.1781H18.6522V66.0072L17.7821 66.016V66.7104L18.8056 66.7133L18.8017 67.6186L16.7099 67.6303L16.7089 63.726L18.8075 63.727ZM33.2401 63.727L33.2333 64.5912L32.1913 64.5863V65.1781H33.0849V66.0072L32.2147 66.016V66.7104L33.2382 66.7133L33.2343 67.6186L31.1415 67.6303V63.726L33.2401 63.727ZM21.0399 63.7338C21.7359 63.7263 22.6958 63.6059 23.3026 64.0102C23.8796 64.3948 24.0052 65.2795 23.5946 65.8363C23.2396 66.3164 22.6929 66.3949 22.1815 66.3949V67.6147L21.0497 67.6264C21.0573 66.3289 21.0545 65.031 21.0399 63.7338ZM27.9813 63.7338C28.6773 63.7264 29.637 63.6059 30.244 64.0102C30.8213 64.3947 30.9477 65.2795 30.537 65.8363C30.1819 66.3168 29.6346 66.3949 29.1229 66.3949V67.6147L27.9921 67.6264C27.9997 66.3289 27.9959 65.031 27.9813 63.7338ZM45.1386 67.6264L44.0526 67.6186L44.0507 63.7348L45.1513 63.7309L45.1386 67.6264ZM39.2558 63.7318L39.2489 64.5942L38.1913 64.5893V65.1801H39.0976V66.0072L38.2157 66.016V66.7074L39.2538 66.7113L39.2499 67.6137L37.1268 67.6254L37.1259 63.7309L39.2558 63.7318ZM74.0145 67.6117L72.9188 67.6244L72.8202 67.1459H72.0175L71.9345 67.6244H70.786L71.7636 63.7318L73.1698 63.7309L74.0145 67.6117ZM81.9227 67.6117L80.8261 67.6244L80.7284 67.1459H79.9257L79.8427 67.6244H78.6933L79.6708 63.7318L81.078 63.7309L81.9227 67.6117ZM62.3495 64.6596L61.6972 64.6654L61.7089 67.6127L60.5751 67.6225V64.6654L59.9354 64.6615L59.9384 63.7338L62.3505 63.7328C62.3441 64.0415 62.349 64.3509 62.3495 64.6596ZM59.6474 64.6615C59.2629 64.6587 58.9173 64.6185 58.5751 64.6615L58.5839 65.1889C58.5993 65.189 59.1875 65.1934 59.5292 65.1889V66.0854H58.6503L58.6464 66.7045L59.6444 66.7123L59.6474 67.6108C58.9414 67.6253 58.2334 67.6182 57.5272 67.6215C57.5103 66.326 57.5219 65.0286 57.5204 63.7328H59.6493L59.6474 64.6615ZM78.7714 63.7338L78.7665 64.6625L78.1161 64.6654L78.122 67.0717L78.121 67.6186L76.9989 67.6215C76.9786 66.6376 76.9924 65.6507 76.9911 64.6664L76.3446 64.6625L76.3485 63.7328L78.7714 63.7338ZM43.5116 63.7328L43.5126 64.5512H42.5507V65.185H43.4423L43.4384 66.0072H42.619L42.6288 67.6127L41.5311 67.6195L41.5321 63.7309L43.5116 63.7328ZM75.5653 63.7309C75.5515 64.7225 75.5624 65.7165 75.5624 66.7084L76.4306 66.7143L76.4276 67.6147L74.4599 67.6176L74.4579 63.7318L75.5653 63.7309ZM50.0819 63.7309C50.2061 64.3952 50.3087 65.0637 50.3876 65.7348C50.4996 65.065 50.6426 64.3983 50.7743 63.7318L52.1679 63.7358C52.1924 64.9457 52.3892 66.4072 52.5722 67.6108C52.1828 67.6213 51.7909 67.614 51.4013 67.6147C51.3822 66.8567 51.3878 66.0954 51.3192 65.3402C51.127 66.0786 51.0254 66.8605 50.8602 67.6088C50.5341 67.6167 50.2061 67.6124 49.8798 67.6137C49.8173 66.8554 49.6313 66.0676 49.5155 65.3119L49.4032 67.601C48.9898 67.6195 48.5748 67.6079 48.161 67.6039C48.3543 66.4381 48.551 64.784 48.664 63.7318L50.0819 63.7309ZM67.9559 63.7309C68.0802 64.3952 68.1817 65.0637 68.2606 65.7348C68.3727 65.065 68.5157 64.3984 68.6474 63.7318L70.0419 63.7358C70.0664 64.9458 70.2633 66.4072 70.4462 67.6108C70.0568 67.6213 69.665 67.614 69.2753 67.6147C69.2563 66.8567 69.2619 66.0954 69.1933 65.3402C69.001 66.0787 68.8984 66.8605 68.7333 67.6088C68.4073 67.6167 68.0799 67.6124 67.7538 67.6137C67.6913 66.8554 67.5043 66.0676 67.3886 65.3119L67.2772 67.601C66.8639 67.6195 66.4487 67.6079 66.0351 67.6039C66.2283 66.4381 66.425 64.784 66.538 63.7318L67.9559 63.7309ZM55.704 63.7582C56.1023 63.7339 56.8548 63.8928 56.8602 63.894L56.8651 65.0727C56.8651 65.0727 56.4762 64.526 56.2284 64.5531C55.9809 64.5803 55.8759 64.6852 55.8759 64.8695C55.9107 65.2125 56.7467 65.4439 56.9227 66.0229C57.0174 66.3344 56.9703 66.6789 56.8183 66.9633C56.6446 67.2889 56.3944 67.4831 56.0448 67.5863C55.5449 67.6948 54.8147 67.4364 54.7997 67.4311L54.7841 66.2895C55.1214 66.5696 55.6708 66.9013 55.8759 66.5356C56.1148 66.1081 54.975 65.8097 54.7997 65.2817C54.5711 64.5928 55.08 63.7964 55.704 63.7582ZM34.7919 63.7328L35.2157 64.9272L35.5751 63.7328L36.7772 63.7377L35.7313 65.9692V67.5971L34.6034 67.6098V65.9692L33.6474 63.7309L34.7919 63.7328ZM46.9755 66.7084L47.8417 66.7113V67.6078L45.8485 67.6049L45.8368 63.7348L46.9784 63.7309L46.9755 66.7084ZM12.8407 64.5863H12.1845V67.5639H11.0819V64.6L10.4589 64.5971V63.726H12.8407V64.5863ZM14.2831 65.1137H14.9384V63.7162L15.9862 63.7182V67.5619H14.9384V65.974H14.2831V67.5619H13.2333V63.7162H14.2831V65.1137ZM25.9472 64.7406C25.6718 64.7406 25.4481 65.2019 25.4481 65.7709C25.4482 66.3397 25.6719 66.8012 25.9472 66.8012C26.2223 66.8009 26.4451 66.3395 26.4452 65.7709C26.4452 65.2021 26.2224 64.741 25.9472 64.7406ZM72.1649 66.3647L72.6893 66.3725L72.4599 64.9418H72.4032L72.1649 66.3647ZM80.0722 66.3647L80.5966 66.3725L80.3671 64.9418H80.3104L80.0722 66.3647ZM22.1015 65.5111C22.1131 65.5125 22.6267 65.5698 22.6268 64.9584C22.6266 64.554 22.1144 64.5836 22.1015 64.5844V65.5111ZM29.0429 65.5111C29.0529 65.5124 29.5671 65.5708 29.5673 64.9584C29.5671 64.5519 29.0506 64.5839 29.0429 64.5844V65.5111Z" fill="var(--fill-0, #212021)"/>
<path d="M25.9677 63.81L25.9678 62.0375L25.9672 62.0375L25.9677 63.81ZM27.5634 65.8041L29.3359 65.8044V65.8041H27.5634ZM25.9677 67.7973L25.9672 69.5698H25.9678L25.9677 67.7973ZM24.3729 65.8041H22.6004V65.8044L24.3729 65.8041ZM18.8075 63.727L20.58 63.741C20.5837 63.2686 20.3987 62.8143 20.0661 62.4789C19.7335 62.1434 19.2807 61.9547 18.8083 61.9545L18.8075 63.727ZM18.8007 64.5912L18.7924 66.3637C19.7691 66.3683 20.5654 65.5819 20.5731 64.6052L18.8007 64.5912ZM17.7587 64.5863L17.767 62.8138C17.2955 62.8116 16.8425 62.9974 16.5083 63.3301C16.1741 63.6627 15.9862 64.1148 15.9862 64.5863H17.7587ZM17.7587 65.1781H15.9862C15.9862 66.1571 16.7798 66.9506 17.7587 66.9506V65.1781ZM18.6522 65.1781H20.4247C20.4247 64.1992 19.6312 63.4056 18.6522 63.4056V65.1781ZM18.6522 66.0072L18.6701 67.7797C19.642 67.7698 20.4247 66.9792 20.4247 66.0072H18.6522ZM17.7821 66.016L17.7642 64.2436C16.7923 64.2534 16.0096 65.0441 16.0096 66.016H17.7821ZM17.7821 66.7104H16.0096C16.0096 67.6873 16.8001 68.4801 17.777 68.4829L17.7821 66.7104ZM18.8056 66.7133L20.5781 66.7209C20.5801 66.2504 20.3949 65.7984 20.0634 65.4644C19.7319 65.1305 19.2812 64.9421 18.8106 64.9408L18.8056 66.7133ZM18.8017 67.6186L18.8116 69.391C19.7836 69.3856 20.57 68.5983 20.5741 67.6262L18.8017 67.6186ZM16.7099 67.6303L14.9373 67.6307C14.9375 68.1025 15.1256 68.5547 15.4602 68.8873C15.7947 69.2199 16.248 69.4054 16.7198 69.4028L16.7099 67.6303ZM16.7089 63.726L16.7097 61.9535C16.2394 61.9533 15.7883 62.14 15.4557 62.4725C15.1231 62.805 14.9362 63.2561 14.9364 63.7264L16.7089 63.726ZM33.2401 63.727L35.0126 63.741C35.0163 63.2686 34.8313 62.8143 34.4987 62.4789C34.1661 62.1434 33.7133 61.9547 33.241 61.9545L33.2401 63.727ZM33.2333 64.5912L33.225 66.3637C34.2017 66.3683 34.998 65.5819 35.0058 64.6052L33.2333 64.5912ZM32.1913 64.5863L32.1996 62.8138C31.7281 62.8116 31.2751 62.9974 30.9409 63.3301C30.6067 63.6627 30.4188 64.1148 30.4188 64.5863H32.1913ZM32.1913 65.1781H30.4188C30.4188 66.1571 31.2124 66.9506 32.1913 66.9506V65.1781ZM33.0849 65.1781H34.8574C34.8574 64.1992 34.0638 63.4056 33.0849 63.4056V65.1781ZM33.0849 66.0072L33.1028 67.7797C34.0747 67.7698 34.8574 66.9792 34.8574 66.0072H33.0849ZM32.2147 66.016L32.1968 64.2436C31.2249 64.2534 30.4422 65.0441 30.4422 66.016H32.2147ZM32.2147 66.7104H30.4422C30.4422 67.6873 31.2327 68.4801 32.2097 68.4829L32.2147 66.7104ZM33.2382 66.7133L35.0107 66.7209C35.0127 66.2504 34.8276 65.7984 34.496 65.4644C34.1645 65.1305 33.7138 64.9421 33.2432 64.9408L33.2382 66.7133ZM33.2343 67.6186L33.2442 69.391C34.2163 69.3856 35.0026 68.5983 35.0068 67.6262L33.2343 67.6186ZM31.1415 67.6303H29.369C29.369 68.1021 29.5571 68.5545 29.8917 68.8871C30.2262 69.2198 30.6796 69.4054 31.1514 69.4028L31.1415 67.6303ZM31.1415 63.726L31.1423 61.9535C30.6721 61.9533 30.221 62.1399 29.8884 62.4723C29.5558 62.8048 29.369 63.2557 29.369 63.726H31.1415ZM21.0399 63.7338L21.0209 61.9614C20.5507 61.9664 20.1018 62.1581 19.7729 62.4943C19.4441 62.8304 19.2623 63.2835 19.2675 63.7537L21.0399 63.7338ZM23.3026 64.0102L24.2857 62.5353L24.2854 62.535L23.3026 64.0102ZM23.5946 65.8363L25.0197 66.8903L25.0213 66.8882L23.5946 65.8363ZM22.1815 66.3949L22.1814 64.6224C21.2025 64.6225 20.409 65.4161 20.409 66.3949H22.1815ZM22.1815 67.6147L22.1999 69.3871C23.1716 69.377 23.954 68.5864 23.954 67.6147H22.1815ZM21.0497 67.6264L19.2772 67.616C19.2744 68.0911 19.4625 68.5474 19.7992 68.8825C20.1358 69.2177 20.593 69.4037 21.0681 69.3988L21.0497 67.6264ZM27.9813 63.7338L27.9625 61.9614C27.4922 61.9664 27.0432 62.1581 26.7144 62.4942C26.3855 62.8304 26.2037 63.2834 26.2089 63.7537L27.9813 63.7338ZM30.244 64.0102L31.2267 62.535L31.2266 62.5349L30.244 64.0102ZM30.537 65.8363L31.9624 66.89L31.9636 66.8883L30.537 65.8363ZM29.1229 66.3949V64.6224C28.144 64.6224 27.3504 65.416 27.3504 66.3949H29.1229ZM29.1229 67.6147L29.1413 69.3871C30.113 69.377 30.8955 68.5864 30.8955 67.6147H29.1229ZM27.9921 67.6264L26.2196 67.616C26.2168 68.0911 26.4049 68.5474 26.7415 68.8826C27.0782 69.2177 27.5354 69.4037 28.0104 69.3988L27.9921 67.6264ZM45.1386 67.6264L45.1258 69.3988C45.5971 69.4022 46.0504 69.2178 46.3854 68.8863C46.7204 68.5547 46.9095 68.1035 46.9111 67.6322L45.1386 67.6264ZM44.0526 67.6186L42.2801 67.6195C42.2806 68.5931 43.0663 69.384 44.0399 69.391L44.0526 67.6186ZM44.0507 63.7348L44.0444 61.9623C43.0676 61.9657 42.2777 62.7588 42.2782 63.7357L44.0507 63.7348ZM45.1513 63.7309L46.9238 63.7366C46.9253 63.2645 46.7384 62.8112 46.4044 62.4773C46.0705 62.1435 45.6172 61.9567 45.145 61.9584L45.1513 63.7309ZM39.2558 63.7318L41.0282 63.7459C41.032 63.2735 40.847 62.8192 40.5144 62.4838C40.1817 62.1483 39.729 61.9596 39.2566 61.9593L39.2558 63.7318ZM39.2489 64.5942L39.2407 66.3666C40.2174 66.3712 41.0136 65.5848 41.0214 64.6082L39.2489 64.5942ZM38.1913 64.5893L38.1995 62.8168C37.728 62.8146 37.275 63.0004 36.9408 63.333C36.6067 63.6657 36.4188 64.1178 36.4188 64.5893H38.1913ZM38.1913 65.1801H36.4188C36.4188 66.159 37.2124 66.9526 38.1913 66.9526V65.1801ZM39.0976 65.1801H40.8701C40.8701 64.2012 40.0765 63.4076 39.0976 63.4076V65.1801ZM39.0976 66.0072L39.1152 67.7797C40.0872 67.77 40.8701 66.9793 40.8701 66.0072H39.0976ZM38.2157 66.016L38.198 64.2436C37.2261 64.2533 36.4432 65.044 36.4432 66.016H38.2157ZM38.2157 66.7074H36.4432C36.4432 67.6838 37.2327 68.4763 38.209 68.4799L38.2157 66.7074ZM39.2538 66.7113L41.0263 66.719C41.0283 66.2487 40.8434 65.7969 40.5122 65.4631C40.181 65.1292 39.7307 64.9406 39.2605 64.9388L39.2538 66.7113ZM39.2499 67.6137L39.2597 69.3862C40.2318 69.3808 41.0182 68.5935 41.0224 67.6214L39.2499 67.6137ZM37.1268 67.6254L35.3543 67.6258C35.3545 68.0976 35.5426 68.5498 35.8771 68.8824C36.2116 69.215 36.6649 69.4005 37.1366 69.3979L37.1268 67.6254ZM37.1259 63.7309L37.1267 61.9584C36.6564 61.9581 36.2052 62.1449 35.8726 62.4774C35.54 62.8099 35.3532 63.261 35.3534 63.7313L37.1259 63.7309ZM74.0145 67.6117L74.0351 69.3841C74.5677 69.378 75.0694 69.1326 75.4012 68.7158C75.733 68.2991 75.8598 67.7552 75.7465 67.2347L74.0145 67.6117ZM72.9188 67.6244L71.1828 67.9823C71.3542 68.8135 72.0907 69.4067 72.9394 69.3968L72.9188 67.6244ZM72.8202 67.1459L74.5562 66.7881C74.3864 65.9644 73.6612 65.3734 72.8202 65.3734V67.1459ZM72.0175 67.1459V65.3734C71.1554 65.3734 70.4184 65.9936 70.271 66.843L72.0175 67.1459ZM71.9345 67.6244V69.3969C72.7965 69.3969 73.5336 68.7767 73.6809 67.9274L71.9345 67.6244ZM70.786 67.6244L69.0669 67.1927C68.9339 67.7224 69.0525 68.2839 69.3883 68.7145C69.7242 69.1452 70.2399 69.3969 70.786 69.3969V67.6244ZM71.7636 63.7318L71.7623 61.9593C70.9501 61.9599 70.2423 62.5124 70.0444 63.3001L71.7636 63.7318ZM73.1698 63.7309L74.9018 63.3539C74.7244 62.5388 74.0027 61.9578 73.1686 61.9584L73.1698 63.7309ZM81.9227 67.6117L81.9433 69.3841C82.4759 69.378 82.9776 69.1326 83.3094 68.7158C83.6412 68.2991 83.768 67.7552 83.6547 67.2347L81.9227 67.6117ZM80.8261 67.6244L79.0893 67.9789C79.2593 68.8117 79.9966 69.4067 80.8466 69.3968L80.8261 67.6244ZM80.7284 67.1459L82.4651 66.7915C82.2967 65.9662 81.5707 65.3734 80.7284 65.3734V67.1459ZM79.9257 67.1459V65.3734C79.0636 65.3734 78.3266 65.9936 78.1792 66.843L79.9257 67.1459ZM79.8427 67.6244V69.3969C80.7047 69.3969 81.4418 68.7767 81.5891 67.9274L79.8427 67.6244ZM78.6933 67.6244L76.9741 67.1927C76.8411 67.7224 76.9597 68.2839 77.2956 68.7145C77.6314 69.1452 78.1471 69.3969 78.6933 69.3969V67.6244ZM79.6708 63.7318L79.6696 61.9593C78.8574 61.9599 78.1495 62.5124 77.9517 63.3001L79.6708 63.7318ZM81.078 63.7309L82.81 63.3539C82.6326 62.5388 81.9109 61.9578 81.0768 61.9584L81.078 63.7309ZM62.3495 64.6596L62.3654 66.432C63.3393 66.4233 64.1237 65.6305 64.122 64.6566L62.3495 64.6596ZM61.6972 64.6654L61.6812 62.893C60.7058 62.9018 59.9208 63.697 59.9247 64.6725L61.6972 64.6654ZM61.7089 67.6127L61.7241 69.3852C62.6998 69.3767 63.4853 68.5814 63.4814 67.6057L61.7089 67.6127ZM60.5751 67.6225H58.8026C58.8026 68.0952 58.9914 68.5484 59.3271 68.8812C59.6629 69.2141 60.1176 69.399 60.5904 69.3949L60.5751 67.6225ZM60.5751 64.6654H62.3476C62.3476 63.6907 61.5606 62.8989 60.5859 62.893L60.5751 64.6654ZM59.9354 64.6615L58.1629 64.6559C58.1599 65.6328 58.9477 66.428 59.9246 66.434L59.9354 64.6615ZM59.9384 63.7338L59.9377 61.9613C58.9612 61.9617 58.169 62.7517 58.1659 63.7282L59.9384 63.7338ZM62.3505 63.7328L64.1226 63.7697C64.1325 63.2932 63.9501 62.8328 63.6166 62.4923C63.283 62.1519 62.8264 61.9601 62.3498 61.9603L62.3505 63.7328ZM59.6474 64.6615L59.6342 66.434C60.1059 66.4375 60.5596 66.2528 60.8947 65.9208C61.2299 65.5889 61.4189 65.137 61.4199 64.6653L59.6474 64.6615ZM58.5751 64.6615L58.3537 62.9029C57.4562 63.0159 56.7877 63.7866 56.8028 64.6911L58.5751 64.6615ZM58.5839 65.1889L56.8116 65.2184C56.8276 66.1804 57.6082 66.954 58.5703 66.9613L58.5839 65.1889ZM59.5292 65.1889H61.3017C61.3017 64.7147 61.1117 64.2602 60.7741 63.9272C60.4366 63.5941 59.9797 63.4102 59.5055 63.4165L59.5292 65.1889ZM59.5292 66.0854V67.8579C60.5081 67.8579 61.3017 67.0643 61.3017 66.0854H59.5292ZM58.6503 66.0854V64.3129C57.6757 64.3129 56.884 65.0996 56.8778 66.0742L58.6503 66.0854ZM58.6464 66.7045L56.8739 66.6933C56.8677 67.6712 57.6547 68.4693 58.6325 68.477L58.6464 66.7045ZM59.6444 66.7123L61.4169 66.7065C61.4138 65.7353 60.6295 64.9475 59.6583 64.9399L59.6444 66.7123ZM59.6474 67.6108L59.6839 69.3829C60.6506 69.363 61.423 68.5719 61.4199 67.605L59.6474 67.6108ZM57.5272 67.6215L55.7549 67.6446C55.7676 68.6177 56.5624 69.3985 57.5355 69.394L57.5272 67.6215ZM57.5204 63.7328V61.9603C57.0499 61.9603 56.5988 62.1473 56.2663 62.4802C55.9338 62.8131 55.7473 63.2644 55.7479 63.7349L57.5204 63.7328ZM59.6493 63.7328L61.4218 63.7366C61.4228 63.2658 61.2365 62.814 60.904 62.4808C60.5715 62.1476 60.1201 61.9603 59.6493 61.9603V63.7328ZM78.7714 63.7338L80.5439 63.7431C80.5463 63.2715 80.3608 62.8184 80.0283 62.484C79.6958 62.1496 79.2437 61.9615 78.7721 61.9613L78.7714 63.7338ZM78.7665 64.6625L78.7745 66.435C79.7467 66.4306 80.5339 65.644 80.539 64.6718L78.7665 64.6625ZM78.1161 64.6654L78.1081 62.8929C77.1306 62.8974 76.3412 63.6923 76.3436 64.6698L78.1161 64.6654ZM78.122 67.0717L79.8945 67.0749L79.8945 67.0674L78.122 67.0717ZM78.121 67.6186L78.1256 69.3911C79.1015 69.3885 79.8918 68.5976 79.8935 67.6217L78.121 67.6186ZM76.9989 67.6215L75.2268 67.6581C75.2468 68.6244 76.0371 69.3965 77.0035 69.394L76.9989 67.6215ZM76.9911 64.6664L78.7636 64.6641C78.7623 63.6902 77.9756 62.8998 77.0018 62.8939L76.9911 64.6664ZM76.3446 64.6625L74.5721 64.6551C74.568 65.6327 75.3563 66.4291 76.3339 66.435L76.3446 64.6625ZM76.3485 63.7328L76.3492 61.9603C75.3729 61.9599 74.5801 62.7491 74.576 63.7254L76.3485 63.7328ZM43.5116 63.7328L45.2841 63.7307C45.283 62.7533 44.4908 61.9613 43.5134 61.9603L43.5116 63.7328ZM43.5126 64.5512V66.3237C43.9831 66.3237 44.4342 66.1367 44.7667 65.8038C45.0992 65.4709 45.2857 65.0195 45.2851 64.5491L43.5126 64.5512ZM42.5507 64.5512V62.7787C41.5717 62.7787 40.7782 63.5723 40.7782 64.5512H42.5507ZM42.5507 65.185H40.7782C40.7782 66.1639 41.5717 66.9575 42.5507 66.9575V65.185ZM43.4423 65.185L45.2148 65.1934C45.217 64.7218 45.0313 64.2688 44.6986 63.9346C44.366 63.6004 43.9138 63.4125 43.4423 63.4125V65.185ZM43.4384 66.0072V67.7797C44.414 67.7797 45.2062 66.9913 45.2109 66.0157L43.4384 66.0072ZM42.619 66.0072V64.2347C42.1471 64.2347 41.6946 64.423 41.3619 64.7577C41.0292 65.0924 40.8437 65.5461 40.8466 66.018L42.619 66.0072ZM42.6288 67.6127L42.6398 69.3852C43.6186 69.3791 44.4072 68.5807 44.4013 67.6019L42.6288 67.6127ZM41.5311 67.6195L39.7586 67.6191C39.7585 68.0912 39.9467 68.5438 40.2815 68.8766C40.6164 69.2095 41.0701 69.395 41.5422 69.392L41.5311 67.6195ZM41.5321 63.7309L41.5339 61.9584C41.0635 61.9579 40.6123 62.1444 40.2795 62.4767C39.9468 62.8091 39.7597 63.2601 39.7596 63.7304L41.5321 63.7309ZM75.5653 63.7309L77.3377 63.7555C77.3443 63.2809 77.1602 62.8235 76.8268 62.4857C76.4934 62.1479 76.0384 61.9579 75.5638 61.9584L75.5653 63.7309ZM75.5624 66.7084H73.7899C73.7899 67.6827 74.5762 68.4743 75.5504 68.4809L75.5624 66.7084ZM76.4306 66.7143L78.2031 66.72C78.2062 65.7435 77.419 64.9484 76.4425 64.9418L76.4306 66.7143ZM76.4276 67.6147L76.4303 69.3872C77.4059 69.3857 78.197 68.5961 78.2001 67.6204L76.4276 67.6147ZM74.4599 67.6176L72.6873 67.6185C72.6876 68.0889 72.8748 68.5399 73.2077 68.8722C73.5407 69.2045 73.9921 69.3908 74.4625 69.3901L74.4599 67.6176ZM74.4579 63.7318L74.4563 61.9593C73.4777 61.9602 72.6849 62.7541 72.6854 63.7327L74.4579 63.7318ZM50.0819 63.7309L51.8242 63.4051C51.6673 62.5659 50.9345 61.9578 50.0807 61.9584L50.0819 63.7309ZM50.3876 65.7348L48.6272 65.9418C48.7302 66.8182 49.4623 67.4853 50.3445 67.5068C51.2266 67.5282 51.9903 66.8975 52.1358 66.0272L50.3876 65.7348ZM50.7743 63.7318L50.7793 61.9593C49.9309 61.957 49.1999 62.556 49.0354 63.3883L50.7743 63.7318ZM52.1679 63.7358L53.94 63.6998C53.9205 62.737 53.1358 61.9659 52.1728 61.9632L52.1679 63.7358ZM52.5722 67.6108L52.6203 69.3826C53.1283 69.3688 53.606 69.1376 53.932 68.7478C54.2579 68.3579 54.4009 67.8469 54.3245 67.3444L52.5722 67.6108ZM51.4013 67.6147L49.6293 67.6591C49.6535 68.6216 50.4415 69.3888 51.4043 69.3872L51.4013 67.6147ZM51.3192 65.3402L53.0845 65.1799C53.0065 64.3219 52.323 63.6443 51.4645 63.5737C50.6059 63.5031 49.8209 64.06 49.6039 64.8937L51.3192 65.3402ZM50.8602 67.6088L50.9034 69.3808C51.7188 69.3609 52.4153 68.7872 52.5911 67.9908L50.8602 67.6088ZM49.8798 67.6137L48.1133 67.7593C48.1893 68.6814 48.9617 69.3899 49.887 69.3862L49.8798 67.6137ZM49.5155 65.3119L51.2676 65.0435C51.1298 64.1439 50.3331 63.4949 49.4243 63.5418C48.5154 63.5886 47.7897 64.3161 47.7451 65.2251L49.5155 65.3119ZM49.4032 67.601L49.4825 69.3717C50.3962 69.3308 51.1288 68.6014 51.1736 67.6878L49.4032 67.601ZM48.161 67.6039L46.4124 67.3141C46.3277 67.8249 46.4706 68.3472 46.8036 68.7437C47.1366 69.1403 47.6263 69.3714 48.144 69.3763L48.161 67.6039ZM48.664 63.7318L48.6627 61.9593C47.7575 61.96 46.9982 62.6425 46.9016 63.5426L48.664 63.7318ZM67.9559 63.7309L69.6983 63.4051C69.5414 62.5659 68.8085 61.9578 67.9547 61.9584L67.9559 63.7309ZM68.2606 65.7348L66.5003 65.9418C66.6033 66.8182 67.3353 67.4853 68.2175 67.5068C69.0997 67.5282 69.8633 66.8975 70.0089 66.0272L68.2606 65.7348ZM68.6474 63.7318L68.6523 61.9593C67.804 61.957 67.0729 62.556 66.9085 63.3883L68.6474 63.7318ZM70.0419 63.7358L71.814 63.6998C71.7945 62.737 71.0098 61.9659 70.0469 61.9632L70.0419 63.7358ZM70.4462 67.6108L70.4944 69.3826C71.0024 69.3688 71.48 69.1376 71.806 68.7477C72.132 68.3579 72.2749 67.8468 72.1986 67.3444L70.4462 67.6108ZM69.2753 67.6147L67.5033 67.6591C67.5275 68.6216 68.3155 69.3888 69.2783 69.3872L69.2753 67.6147ZM69.1933 65.3402L70.9585 65.1799C70.8806 64.322 70.1971 63.6443 69.3385 63.5737C68.4799 63.5031 67.6949 64.06 67.4779 64.8937L69.1933 65.3402ZM68.7333 67.6088L68.7764 69.3808C69.5918 69.3609 70.2884 68.7872 70.4642 67.9908L68.7333 67.6088ZM67.7538 67.6137L65.9873 67.7593C66.0633 68.6814 66.8357 69.3899 67.761 69.3862L67.7538 67.6137ZM67.3886 65.3119L69.1406 65.0435C69.0028 64.1438 68.2059 63.4947 67.2969 63.5418C66.388 63.5888 65.6624 64.3167 65.6181 65.2258L67.3886 65.3119ZM67.2772 67.601L67.3566 69.3717C68.2706 69.3308 69.0032 68.6009 69.0477 67.6871L67.2772 67.601ZM66.0351 67.6039L64.2864 67.3141C64.2017 67.8249 64.3447 68.3472 64.6776 68.7437C65.0106 69.1403 65.5003 69.3714 66.018 69.3763L66.0351 67.6039ZM66.538 63.7318L66.5368 61.9593C65.6316 61.96 64.8723 62.6425 64.7756 63.5426L66.538 63.7318ZM55.704 63.7582L55.5959 61.989L55.5958 61.989L55.704 63.7582ZM56.8602 63.894L58.6327 63.8866C58.6293 63.0515 58.0434 62.3321 57.2263 62.1597L56.8602 63.894ZM56.8651 65.0727L55.4208 66.1002C55.8686 66.7297 56.6726 66.9966 57.408 66.76C58.1434 66.5234 58.6408 65.8378 58.6376 65.0653L56.8651 65.0727ZM56.2284 64.5531L56.0355 62.7912L56.0347 62.7912L56.2284 64.5531ZM55.8759 64.8695H54.1034C54.1034 64.9294 54.1064 64.9892 54.1124 65.0487L55.8759 64.8695ZM56.9227 66.0229L58.6186 65.5074L58.6186 65.5072L56.9227 66.0229ZM56.8183 66.9633L55.2551 66.1277L55.2543 66.1292L56.8183 66.9633ZM56.0448 67.5863L56.4206 69.3186C56.463 69.3094 56.5052 69.2986 56.5468 69.2863L56.0448 67.5863ZM54.7997 67.4311L53.0274 67.4553C53.0375 68.1965 53.5078 68.8531 54.2063 69.1013L54.7997 67.4311ZM54.7841 66.2895L55.9164 64.9258C55.3843 64.484 54.6439 64.392 54.0199 64.6902C53.3959 64.9883 53.0023 65.6222 53.0117 66.3137L54.7841 66.2895ZM55.8759 66.5356L57.422 67.4023L57.423 67.4005L55.8759 66.5356ZM54.7997 65.2817L53.1174 65.8399L53.1175 65.8402L54.7997 65.2817ZM34.7919 63.7328L36.4623 63.14C36.2117 62.4339 35.5442 61.9616 34.7949 61.9603L34.7919 63.7328ZM35.2157 64.9272L33.5453 65.5199C33.8015 66.2421 34.4928 66.7178 35.2589 66.6991C36.0249 66.6805 36.6923 66.1717 36.9131 65.4379L35.2157 64.9272ZM35.5751 63.7328L35.5823 61.9603C34.7974 61.9571 34.1039 62.4705 33.8778 63.2221L35.5751 63.7328ZM36.7772 63.7377L38.3822 64.49C38.639 63.9421 38.5986 63.3011 38.275 62.7898C37.9515 62.2786 37.3895 61.9677 36.7844 61.9652L36.7772 63.7377ZM35.7313 65.9692L34.1264 65.2169C34.016 65.4523 33.9588 65.7091 33.9588 65.9692H35.7313ZM35.7313 67.5971L35.7513 69.3695C36.7224 69.3586 37.5039 68.5682 37.5039 67.5971H35.7313ZM34.6034 67.6098H32.8309C32.8309 68.0833 33.0204 68.5372 33.3571 68.8702C33.6939 69.2031 34.1498 69.3875 34.6234 69.3822L34.6034 67.6098ZM34.6034 65.9692H36.3759C36.3759 65.7298 36.3275 65.493 36.2335 65.2729L34.6034 65.9692ZM33.6474 63.7309L33.6504 61.9584C33.0544 61.9573 32.4978 62.2559 32.169 62.753C31.8402 63.25 31.7832 63.8791 32.0173 64.4271L33.6474 63.7309ZM46.9755 66.7084L45.203 66.7067C45.202 67.6839 45.9922 68.4776 46.9695 68.4809L46.9755 66.7084ZM47.8417 66.7113H49.6142C49.6142 65.7347 48.8243 64.9421 47.8477 64.9388L47.8417 66.7113ZM47.8417 67.6078L47.8391 69.3803C48.3096 69.381 48.7612 69.1946 49.0941 68.8621C49.4271 68.5296 49.6142 68.0784 49.6142 67.6078H47.8417ZM45.8485 67.6049L44.076 67.6103C44.079 68.5861 44.8701 69.376 45.8459 69.3774L45.8485 67.6049ZM45.8368 63.7348L45.8307 61.9623C44.8521 61.9656 44.0613 62.7615 44.0643 63.7401L45.8368 63.7348ZM46.9784 63.7309L48.7509 63.7326C48.7514 63.2612 48.564 62.8089 48.2302 62.476C47.8965 62.143 47.4438 61.9568 46.9723 61.9584L46.9784 63.7309ZM12.8407 64.5863V66.3589C13.8196 66.3589 14.6132 65.5653 14.6132 64.5863H12.8407ZM12.1845 64.5863V62.8138C11.2055 62.8138 10.412 63.6074 10.412 64.5863H12.1845ZM12.1845 67.5639V69.3364C13.1634 69.3364 13.957 68.5428 13.957 67.5639H12.1845ZM11.0819 67.5639H9.30941C9.30941 68.5428 10.103 69.3364 11.0819 69.3364V67.5639ZM11.0819 64.6H12.8544C12.8544 63.6243 12.0659 62.8321 11.0903 62.8275L11.0819 64.6ZM10.4589 64.5971H8.68637C8.68637 65.5728 9.47488 66.365 10.4505 66.3696L10.4589 64.5971ZM10.4589 63.726V61.9535C9.47995 61.9535 8.68637 62.7471 8.68637 63.726H10.4589ZM12.8407 63.726H14.6132C14.6132 62.7471 13.8196 61.9535 12.8407 61.9535V63.726ZM14.2831 65.1137H12.5106C12.5106 66.0926 13.3042 66.8862 14.2831 66.8862V65.1137ZM14.9384 65.1137V66.8862C15.9173 66.8862 16.7109 66.0926 16.7109 65.1137H14.9384ZM14.9384 63.7162L14.9417 61.9437C14.471 61.9428 14.0193 62.1292 13.6862 62.4617C13.3531 62.7942 13.1659 63.2456 13.1659 63.7162H14.9384ZM15.9862 63.7182H17.7587C17.7587 62.7405 16.9672 61.9475 15.9895 61.9457L15.9862 63.7182ZM15.9862 67.5619V69.3344C16.9652 69.3344 17.7587 68.5409 17.7587 67.5619H15.9862ZM14.9384 67.5619H13.1659C13.1659 68.5409 13.9594 69.3344 14.9384 69.3344V67.5619ZM14.9384 65.974H16.7109C16.7109 64.9951 15.9173 64.2015 14.9384 64.2015V65.974ZM14.2831 65.974V64.2015C13.3042 64.2015 12.5106 64.9951 12.5106 65.974H14.2831ZM14.2831 67.5619V69.3344C15.262 69.3344 16.0556 68.5409 16.0556 67.5619H14.2831ZM13.2333 67.5619H11.4608C11.4608 68.5409 12.2544 69.3344 13.2333 69.3344V67.5619ZM13.2333 63.7162V61.9437C12.2544 61.9437 11.4608 62.7373 11.4608 63.7162H13.2333ZM14.2831 63.7162H16.0556C16.0556 62.7373 15.262 61.9437 14.2831 61.9437V63.7162ZM25.9472 64.7406L25.9492 62.9681H25.9472V64.7406ZM25.4481 65.7709H23.6756V65.7713L25.4481 65.7709ZM25.9472 66.8012V68.5737L25.9492 68.5737L25.9472 66.8012ZM26.4452 65.7709L28.2177 65.7713V65.7709H26.4452ZM72.1649 66.3647L70.4168 66.0719C70.3314 66.5815 70.4727 67.1029 70.8035 67.4997C71.1344 67.8966 71.6219 68.1293 72.1385 68.137L72.1649 66.3647ZM72.6893 66.3725L72.6629 68.1448C73.1866 68.1526 73.687 67.9284 74.0297 67.5323C74.3724 67.1362 74.5224 66.6089 74.4395 66.0917L72.6893 66.3725ZM72.4599 64.9418L74.21 64.6611C74.0721 63.8015 73.3304 63.1693 72.4599 63.1693V64.9418ZM72.4032 64.9418V63.1693C71.5373 63.1693 70.7981 63.795 70.655 64.649L72.4032 64.9418ZM80.0722 66.3647L78.324 66.0719C78.2387 66.5815 78.3799 67.1029 78.7108 67.4997C79.0416 67.8966 79.5292 68.1293 80.0458 68.137L80.0722 66.3647ZM80.5966 66.3725L80.5702 68.1448C81.0939 68.1526 81.5942 67.9284 81.9369 67.5323C82.2797 67.1362 82.4297 66.6089 82.3467 66.0917L80.5966 66.3725ZM80.3671 64.9418L82.1172 64.6611C81.9793 63.8015 81.2376 63.1693 80.3671 63.1693V64.9418ZM80.3104 64.9418V63.1693C79.4445 63.1693 78.7053 63.795 78.5623 64.649L80.3104 64.9418ZM22.1015 65.5111H20.3289C20.3289 66.4095 21.0011 67.1659 21.8933 67.2714L22.1015 65.5111ZM22.6268 64.9584L24.3994 64.9589L24.3994 64.9575L22.6268 64.9584ZM22.1015 64.5844L21.9896 62.8154C21.0559 62.8745 20.3289 63.6489 20.3289 64.5844H22.1015ZM29.0429 65.5111H27.2704C27.2704 66.4082 27.9405 67.1638 28.8312 67.271L29.0429 65.5111ZM29.5673 64.9584L31.3398 64.9589V64.9575L29.5673 64.9584ZM29.0429 64.5844L28.9267 62.8157C27.9948 62.8769 27.2704 63.6506 27.2704 64.5844H29.0429ZM25.9677 63.81L25.9675 65.5825C25.8816 65.5825 25.8087 65.5593 25.7602 65.5337C25.7155 65.5101 25.7037 65.4913 25.712 65.5016C25.7323 65.527 25.7909 65.6281 25.7909 65.8041H27.5634H29.3359C29.3359 64.1128 28.1757 62.0376 25.9678 62.0375L25.9677 63.81ZM27.5634 65.8041L25.7909 65.8038C25.7908 66.1363 25.7019 66.1906 25.7519 66.1324C25.7753 66.1053 25.8143 66.0732 25.8654 66.0504C25.9152 66.0281 25.9534 66.0248 25.9676 66.0248L25.9677 67.7973L25.9678 69.5698C26.8981 69.5697 27.7972 69.1909 28.4396 68.4441C29.0672 67.7144 29.3357 66.7721 29.3359 65.8044L27.5634 65.8041ZM25.9677 67.7973L25.9681 66.0248C25.9823 66.0248 26.0206 66.0281 26.0706 66.0505C26.1218 66.0734 26.161 66.1056 26.1844 66.1328C26.2345 66.191 26.1455 66.1366 26.1455 65.8038L24.3729 65.8041L22.6004 65.8044C22.6006 66.7716 22.8687 67.7137 23.4959 68.4434C24.1379 69.1905 25.0368 69.5696 25.9672 69.5698L25.9677 67.7973ZM24.3729 65.8041H26.1455C26.1455 65.471 26.2345 65.4163 26.1846 65.4744C26.1612 65.5016 26.1221 65.5338 26.0708 65.5567C26.0208 65.5791 25.9824 65.5825 25.9681 65.5825L25.9677 63.81L25.9672 62.0375C25.0364 62.0377 24.1374 62.4172 23.4954 63.1645C22.8684 63.8945 22.6004 64.8368 22.6004 65.8041H24.3729ZM18.8075 63.727L17.0351 63.7129L17.0282 64.5772L18.8007 64.5912L20.5731 64.6052L20.58 63.741L18.8075 63.727ZM18.8007 64.5912L18.809 62.8187L17.767 62.8138L17.7587 64.5863L17.7504 66.3588L18.7924 66.3637L18.8007 64.5912ZM17.7587 64.5863H15.9862V65.1781H17.7587H19.5312V64.5863H17.7587ZM17.7587 65.1781V66.9506H18.6522V65.1781V63.4056H17.7587V65.1781ZM18.6522 65.1781H16.8797V66.0072H18.6522H20.4247V65.1781H18.6522ZM18.6522 66.0072L18.6343 64.2348L17.7642 64.2436L17.7821 66.016L17.8 67.7884L18.6701 67.7797L18.6522 66.0072ZM17.7821 66.016H16.0096V66.7104H17.7821H19.5546V66.016H17.7821ZM17.7821 66.7104L17.777 68.4829L18.8005 68.4858L18.8056 66.7133L18.8106 64.9408L17.7872 64.9379L17.7821 66.7104ZM18.8056 66.7133L17.0331 66.7056L17.0292 67.6109L18.8017 67.6186L20.5741 67.6262L20.5781 66.7209L18.8056 66.7133ZM18.8017 67.6186L18.7917 65.8461L16.6999 65.8578L16.7099 67.6303L16.7198 69.4028L18.8116 69.391L18.8017 67.6186ZM16.7099 67.6303L18.4824 67.6298L18.4814 63.7255L16.7089 63.726L14.9364 63.7264L14.9373 67.6307L16.7099 67.6303ZM16.7089 63.726L16.7081 65.4985L18.8067 65.4995L18.8075 63.727L18.8083 61.9545L16.7097 61.9535L16.7089 63.726ZM33.2401 63.727L31.4677 63.7129L31.4608 64.5772L33.2333 64.5912L35.0058 64.6052L35.0126 63.741L33.2401 63.727ZM33.2333 64.5912L33.2416 62.8187L32.1996 62.8138L32.1913 64.5863L32.183 66.3588L33.225 66.3637L33.2333 64.5912ZM32.1913 64.5863H30.4188V65.1781H32.1913H33.9638V64.5863H32.1913ZM32.1913 65.1781V66.9506H33.0849V65.1781V63.4056H32.1913V65.1781ZM33.0849 65.1781H31.3123V66.0072H33.0849H34.8574V65.1781H33.0849ZM33.0849 66.0072L33.067 64.2348L32.1968 64.2436L32.2147 66.016L32.2326 67.7884L33.1028 67.7797L33.0849 66.0072ZM32.2147 66.016H30.4422V66.7104H32.2147H33.9873V66.016H32.2147ZM32.2147 66.7104L32.2097 68.4829L33.2331 68.4858L33.2382 66.7133L33.2432 64.9408L32.2198 64.9379L32.2147 66.7104ZM33.2382 66.7133L31.4657 66.7056L31.4618 67.6109L33.2343 67.6186L35.0068 67.6262L35.0107 66.7209L33.2382 66.7133ZM33.2343 67.6186L33.2243 65.8461L31.1316 65.8578L31.1415 67.6303L31.1514 69.4028L33.2442 69.391L33.2343 67.6186ZM31.1415 67.6303H32.914V63.726H31.1415H29.369V67.6303H31.1415ZM31.1415 63.726L31.1407 65.4985L33.2393 65.4995L33.2401 63.727L33.241 61.9545L31.1423 61.9535L31.1415 63.726ZM21.0399 63.7338L21.0589 65.5062C21.2547 65.5041 21.5009 65.4934 21.6558 65.4887C21.8394 65.4831 21.9883 65.4817 22.119 65.488C22.4214 65.5027 22.4208 65.5525 22.3199 65.4853L23.3026 64.0102L24.2854 62.535C23.5776 62.0635 22.7936 61.9715 22.2904 61.9471C21.8335 61.925 21.1899 61.9596 21.0209 61.9614L21.0399 63.7338ZM23.3026 64.0102L22.3195 65.4851C22.1273 65.3569 22.0775 65.1962 22.0671 65.1285C22.057 65.0631 22.0581 64.9335 22.168 64.7845L23.5946 65.8363L25.0213 66.8882C25.9893 65.5753 25.7638 63.5205 24.2857 62.5353L23.3026 64.0102ZM23.5946 65.8363L22.1695 64.7824C22.1992 64.7422 22.2418 64.6998 22.2935 64.6644C22.3429 64.6304 22.3828 64.6152 22.3987 64.61C22.4124 64.6055 22.4046 64.6097 22.3648 64.6143C22.3245 64.619 22.2664 64.6224 22.1814 64.6224L22.1815 66.3949L22.1817 68.1674C22.7913 68.1674 24.1274 68.0969 25.0197 66.8903L23.5946 65.8363ZM22.1815 66.3949H20.409V67.6147H22.1815H23.954V66.3949H22.1815ZM22.1815 67.6147L22.1632 65.8422L21.0313 65.854L21.0497 67.6264L21.0681 69.3988L22.1999 69.3871L22.1815 67.6147ZM21.0497 67.6264L22.8222 67.6368C22.8298 66.3298 22.827 65.0218 22.8123 63.7139L21.0399 63.7338L19.2675 63.7537C19.282 65.0402 19.2848 66.328 19.2772 67.616L21.0497 67.6264ZM27.9813 63.7338L28.0002 65.5062C28.1961 65.5041 28.4422 65.4934 28.5972 65.4887C28.7808 65.4831 28.9296 65.4817 29.0604 65.4881C29.3627 65.5027 29.3622 65.5525 29.2615 65.4854L30.244 64.0102L31.2266 62.5349C30.5188 62.0636 29.735 61.9715 29.2317 61.9472C28.775 61.9251 28.1311 61.9596 27.9625 61.9614L27.9813 63.7338ZM30.244 64.0102L29.2613 65.4853C29.0696 65.3576 29.0198 65.1974 29.0093 65.1296C28.9992 65.0641 29.0001 64.9339 29.1104 64.7843L30.537 65.8363L31.9636 66.8883C32.9331 65.5736 32.7038 63.519 31.2267 62.535L30.244 64.0102ZM30.537 65.8363L29.1116 64.7827C29.1415 64.7424 29.1842 64.6998 29.236 64.6643C29.2855 64.6303 29.3254 64.6151 29.3413 64.6099C29.355 64.6055 29.347 64.6097 29.307 64.6143C29.2666 64.619 29.2082 64.6224 29.1229 64.6224V66.3949V68.1674C29.7313 68.1674 31.0694 68.098 31.9624 66.89L30.537 65.8363ZM29.1229 66.3949H27.3504V67.6147H29.1229H30.8955V66.3949H29.1229ZM29.1229 67.6147L29.1046 65.8422L27.9737 65.854L27.9921 67.6264L28.0104 69.3988L29.1413 69.3871L29.1229 67.6147ZM27.9921 67.6264L29.7646 67.6368C29.7722 66.3289 29.7684 65.0209 29.7537 63.7139L27.9813 63.7338L26.2089 63.7537C26.2234 65.0411 26.2271 66.3289 26.2196 67.616L27.9921 67.6264ZM45.1386 67.6264L45.1513 65.8539L44.0654 65.8461L44.0526 67.6186L44.0399 69.391L45.1258 69.3988L45.1386 67.6264ZM44.0526 67.6186L45.8251 67.6177L45.8232 63.7339L44.0507 63.7348L42.2782 63.7357L42.2801 67.6195L44.0526 67.6186ZM44.0507 63.7348L44.057 65.5073L45.1576 65.5034L45.1513 63.7309L45.145 61.9584L44.0444 61.9623L44.0507 63.7348ZM45.1513 63.7309L43.3788 63.7251L43.3661 67.6206L45.1386 67.6264L46.9111 67.6322L46.9238 63.7366L45.1513 63.7309ZM39.2558 63.7318L37.4833 63.7178L37.4765 64.5801L39.2489 64.5942L41.0214 64.6082L41.0282 63.7459L39.2558 63.7318ZM39.2489 64.5942L39.2571 62.8217L38.1995 62.8168L38.1913 64.5893L38.1831 66.3618L39.2407 66.3666L39.2489 64.5942ZM38.1913 64.5893H36.4188V65.1801H38.1913H39.9638V64.5893H38.1913ZM38.1913 65.1801V66.9526H39.0976V65.1801V63.4076H38.1913V65.1801ZM39.0976 65.1801H37.325V66.0072H39.0976H40.8701V65.1801H39.0976ZM39.0976 66.0072L39.0799 64.2348L38.198 64.2436L38.2157 66.016L38.2334 67.7885L39.1152 67.7797L39.0976 66.0072ZM38.2157 66.016H36.4432V66.7074H38.2157H39.9882V66.016H38.2157ZM38.2157 66.7074L38.209 68.4799L39.2471 68.4838L39.2538 66.7113L39.2605 64.9388L38.2224 64.9349L38.2157 66.7074ZM39.2538 66.7113L37.4813 66.7037L37.4774 67.606L39.2499 67.6137L41.0224 67.6214L41.0263 66.719L39.2538 66.7113ZM39.2499 67.6137L39.2401 65.8412L37.1171 65.8529L37.1268 67.6254L37.1366 69.3979L39.2597 69.3862L39.2499 67.6137ZM37.1268 67.6254L38.8994 67.625L38.8984 63.7304L37.1259 63.7309L35.3534 63.7313L35.3543 67.6258L37.1268 67.6254ZM37.1259 63.7309L37.1251 65.5034L39.2549 65.5044L39.2558 63.7318L39.2566 61.9593L37.1267 61.9584L37.1259 63.7309ZM74.0145 67.6117L73.994 65.8393L72.8983 65.852L72.9188 67.6244L72.9394 69.3968L74.0351 69.3841L74.0145 67.6117ZM72.9188 67.6244L74.6549 67.2666L74.5562 66.7881L72.8202 67.1459L71.0842 67.5037L71.1828 67.9823L72.9188 67.6244ZM72.8202 67.1459V65.3734H72.0175V67.1459V68.9184H72.8202V67.1459ZM72.0175 67.1459L70.271 66.843L70.188 67.3215L71.9345 67.6244L73.6809 67.9274L73.7639 67.4489L72.0175 67.1459ZM71.9345 67.6244V65.8519H70.786V67.6244V69.3969H71.9345V67.6244ZM70.786 67.6244L72.5052 68.0561L73.4827 64.1636L71.7636 63.7318L70.0444 63.3001L69.0669 67.1927L70.786 67.6244ZM71.7636 63.7318L71.7648 65.5044L73.171 65.5034L73.1698 63.7309L73.1686 61.9584L71.7623 61.9593L71.7636 63.7318ZM73.1698 63.7309L71.4379 64.1079L72.2826 67.9887L74.0145 67.6117L75.7465 67.2347L74.9018 63.3539L73.1698 63.7309ZM81.9227 67.6117L81.9022 65.8393L80.8056 65.852L80.8261 67.6244L80.8466 69.3968L81.9433 69.3841L81.9227 67.6117ZM80.8261 67.6244L82.5628 67.27L82.4651 66.7915L80.7284 67.1459L78.9917 67.5003L79.0893 67.9789L80.8261 67.6244ZM80.7284 67.1459V65.3734H79.9257V67.1459V68.9184H80.7284V67.1459ZM79.9257 67.1459L78.1792 66.843L78.0962 67.3215L79.8427 67.6244L81.5891 67.9274L81.6721 67.4489L79.9257 67.1459ZM79.8427 67.6244V65.8519H78.6933V67.6244V69.3969H79.8427V67.6244ZM78.6933 67.6244L80.4124 68.0561L81.3899 64.1636L79.6708 63.7318L77.9517 63.3001L76.9741 67.1927L78.6933 67.6244ZM79.6708 63.7318L79.672 65.5044L81.0792 65.5034L81.078 63.7309L81.0768 61.9584L79.6696 61.9593L79.6708 63.7318ZM81.078 63.7309L79.3461 64.1079L80.1908 67.9887L81.9227 67.6117L83.6547 67.2347L82.81 63.3539L81.078 63.7309ZM62.3495 64.6596L62.3336 62.8871L61.6812 62.893L61.6972 64.6654L61.7131 66.4379L62.3654 66.432L62.3495 64.6596ZM61.6972 64.6654L59.9247 64.6725L59.9364 67.6198L61.7089 67.6127L63.4814 67.6057L63.4697 64.6584L61.6972 64.6654ZM61.7089 67.6127L61.6936 65.8403L60.5598 65.85L60.5751 67.6225L60.5904 69.3949L61.7241 69.3852L61.7089 67.6127ZM60.5751 67.6225H62.3476V64.6654H60.5751H58.8026V67.6225H60.5751ZM60.5751 64.6654L60.5859 62.893L59.9463 62.8891L59.9354 64.6615L59.9246 66.434L60.5643 66.4379L60.5751 64.6654ZM59.9354 64.6615L61.7079 64.6671L61.7109 63.7394L59.9384 63.7338L58.1659 63.7282L58.1629 64.6559L59.9354 64.6615ZM59.9384 63.7338L59.9391 65.5063L62.3512 65.5053L62.3505 63.7328L62.3498 61.9603L59.9377 61.9613L59.9384 63.7338ZM62.3505 63.7328L60.5784 63.6959C60.5714 64.031 60.5765 64.3878 60.577 64.6626L62.3495 64.6596L64.122 64.6566C64.1214 64.314 64.1167 64.052 64.1226 63.7697L62.3505 63.7328ZM59.6474 64.6615L59.6605 62.8891C59.4824 62.8878 59.4043 62.8799 59.1456 62.8725C58.9389 62.8666 58.6601 62.8643 58.3537 62.9029L58.5751 64.6615L58.7965 66.4202C58.8323 66.4157 58.8974 66.4119 59.0451 66.4161C59.141 66.4188 59.4279 66.4325 59.6342 66.434L59.6474 64.6615ZM58.5751 64.6615L56.8028 64.6911L56.8116 65.2184L58.5839 65.1889L60.3561 65.1593L60.3474 64.632L58.5751 64.6615ZM58.5839 65.1889L58.5703 66.9613C58.5809 66.9614 59.1889 66.9661 59.5529 66.9612L59.5292 65.1889L59.5055 63.4165C59.1861 63.4208 58.6178 63.4166 58.5974 63.4164L58.5839 65.1889ZM59.5292 65.1889H57.7567V66.0854H59.5292H61.3017V65.1889H59.5292ZM59.5292 66.0854V64.3129H58.6503V66.0854V67.8579H59.5292V66.0854ZM58.6503 66.0854L56.8778 66.0742L56.8739 66.6933L58.6464 66.7045L60.4189 66.7157L60.4228 66.0965L58.6503 66.0854ZM58.6464 66.7045L58.6325 68.477L59.6306 68.4848L59.6444 66.7123L59.6583 64.9399L58.6603 64.932L58.6464 66.7045ZM59.6444 66.7123L57.8719 66.7181L57.8749 67.6165L59.6474 67.6108L61.4199 67.605L61.4169 66.7065L59.6444 66.7123ZM59.6474 67.6108L59.6108 65.8386C58.922 65.8528 58.2616 65.8455 57.5189 65.849L57.5272 67.6215L57.5355 69.394C58.2051 69.3909 58.9608 69.3978 59.6839 69.3829L59.6474 67.6108ZM57.5272 67.6215L59.2996 67.5984C59.2829 66.316 59.2945 65.0512 59.2929 63.7308L57.5204 63.7328L55.7479 63.7349C55.7494 65.0059 55.7378 66.3359 55.7549 67.6446L57.5272 67.6215ZM57.5204 63.7328V65.5053H59.6493V63.7328V61.9603H57.5204V63.7328ZM59.6493 63.7328L57.8768 63.7291L57.8748 64.6578L59.6474 64.6615L61.4199 64.6653L61.4218 63.7366L59.6493 63.7328ZM78.7714 63.7338L76.9989 63.7245L76.994 64.6532L78.7665 64.6625L80.539 64.6718L80.5439 63.7431L78.7714 63.7338ZM78.7665 64.6625L78.7585 62.89L78.1081 62.8929L78.1161 64.6654L78.1241 66.4379L78.7745 66.435L78.7665 64.6625ZM78.1161 64.6654L76.3436 64.6698L76.3495 67.076L78.122 67.0717L79.8945 67.0674L79.8886 64.6611L78.1161 64.6654ZM78.122 67.0717L76.3495 67.0685L76.3485 67.6154L78.121 67.6186L79.8935 67.6217L79.8945 67.0749L78.122 67.0717ZM78.121 67.6186L78.1164 65.8461L76.9943 65.849L76.9989 67.6215L77.0035 69.394L78.1256 69.3911L78.121 67.6186ZM76.9989 67.6215L78.7711 67.5849C78.7512 66.6228 78.765 65.6857 78.7636 64.6641L76.9911 64.6664L75.2186 64.6688C75.2199 65.6157 75.206 66.6524 75.2268 67.6581L76.9989 67.6215ZM76.9911 64.6664L77.0018 62.8939L76.3553 62.89L76.3446 64.6625L76.3339 66.435L76.9804 66.4389L76.9911 64.6664ZM76.3446 64.6625L78.1171 64.67L78.121 63.7403L76.3485 63.7328L74.576 63.7254L74.5721 64.6551L76.3446 64.6625ZM76.3485 63.7328L76.3478 65.5053L78.7707 65.5063L78.7714 63.7338L78.7721 61.9613L76.3492 61.9603L76.3485 63.7328ZM43.5116 63.7328L41.7391 63.7349L41.7401 64.5533L43.5126 64.5512L45.2851 64.5491L45.2841 63.7307L43.5116 63.7328ZM43.5126 64.5512V62.7787H42.5507V64.5512V66.3237H43.5126V64.5512ZM42.5507 64.5512H40.7782V65.185H42.5507H44.3232V64.5512H42.5507ZM42.5507 65.185V66.9575H43.4423V65.185V63.4125H42.5507V65.185ZM43.4423 65.185L41.6698 65.1766L41.6659 65.9988L43.4384 66.0072L45.2109 66.0157L45.2148 65.1934L43.4423 65.185ZM43.4384 66.0072V64.2347H42.619V66.0072V67.7797H43.4384V66.0072ZM42.619 66.0072L40.8466 66.018L40.8563 67.6235L42.6288 67.6127L44.4013 67.6019L44.3915 65.9965L42.619 66.0072ZM42.6288 67.6127L42.6178 65.8402L41.5201 65.8471L41.5311 67.6195L41.5422 69.392L42.6398 69.3852L42.6288 67.6127ZM41.5311 67.6195L43.3037 67.62L43.3046 63.7313L41.5321 63.7309L39.7596 63.7304L39.7586 67.6191L41.5311 67.6195ZM41.5321 63.7309L41.5304 65.5034L43.5099 65.5053L43.5116 63.7328L43.5134 61.9603L41.5339 61.9584L41.5321 63.7309ZM75.5653 63.7309L73.793 63.7063C73.779 64.7136 73.7899 65.743 73.7899 66.7084H75.5624H77.3349C77.3349 65.69 77.3241 64.7314 77.3377 63.7555L75.5653 63.7309ZM75.5624 66.7084L75.5504 68.4809L76.4186 68.4867L76.4306 66.7143L76.4425 64.9418L75.5744 64.9359L75.5624 66.7084ZM76.4306 66.7143L74.6581 66.7085L74.6551 67.6089L76.4276 67.6147L78.2001 67.6204L78.2031 66.72L76.4306 66.7143ZM76.4276 67.6147L76.425 65.8421L74.4572 65.8451L74.4599 67.6176L74.4625 69.3901L76.4303 69.3872L76.4276 67.6147ZM74.4599 67.6176L76.2324 67.6167L76.2304 63.731L74.4579 63.7318L72.6854 63.7327L72.6873 67.6185L74.4599 67.6176ZM74.4579 63.7318L74.4595 65.5044L75.5669 65.5034L75.5653 63.7309L75.5638 61.9584L74.4563 61.9593L74.4579 63.7318ZM50.0819 63.7309L48.3396 64.0566C48.4567 64.6831 48.5532 65.3119 48.6272 65.9418L50.3876 65.7348L52.148 65.5278C52.0642 64.8154 51.9555 64.1073 51.8242 63.4051L50.0819 63.7309ZM50.3876 65.7348L52.1358 66.0272C52.2421 65.3915 52.374 64.7798 52.5132 64.0754L50.7743 63.7318L49.0354 63.3883C48.9112 64.0169 48.7571 64.7384 48.6394 65.4424L50.3876 65.7348ZM50.7743 63.7318L50.7693 65.5044L52.1629 65.5083L52.1679 63.7358L52.1728 61.9632L50.7793 61.9593L50.7743 63.7318ZM52.1679 63.7358L50.3957 63.7717C50.4228 65.109 50.6367 66.6723 50.8198 67.8771L52.5722 67.6108L54.3245 67.3444C54.1418 66.1422 53.962 64.7825 53.94 63.6998L52.1679 63.7358ZM52.5722 67.6108L52.524 65.8389C52.1634 65.8487 51.8377 65.8414 51.3983 65.8422L51.4013 67.6147L51.4043 69.3872C51.744 69.3866 52.2023 69.394 52.6203 69.3826L52.5722 67.6108ZM51.4013 67.6147L53.1732 67.5702C53.1561 66.8893 53.1601 66.0122 53.0845 65.1799L51.3192 65.3402L49.554 65.5006C49.6156 66.1787 49.6083 66.8241 49.6293 67.6591L51.4013 67.6147ZM51.3192 65.3402L49.6039 64.8937C49.4902 65.3303 49.4071 65.765 49.3363 66.1504C49.262 66.5546 49.2032 66.8924 49.1294 67.2268L50.8602 67.6088L52.5911 67.9908C52.6825 67.5769 52.757 67.1496 52.8229 66.7912C52.8922 66.414 52.956 66.0886 53.0346 65.7868L51.3192 65.3402ZM50.8602 67.6088L50.8171 65.8368C50.5133 65.8442 50.2418 65.8397 49.8726 65.8412L49.8798 67.6137L49.887 69.3862C50.1704 69.385 50.5548 69.3893 50.9034 69.3808L50.8602 67.6088ZM49.8798 67.6137L51.6463 67.4681C51.5786 66.6474 51.3505 65.5848 51.2676 65.0435L49.5155 65.3119L47.7634 65.5803C47.9121 66.5504 48.0559 67.0634 48.1133 67.7593L49.8798 67.6137ZM49.5155 65.3119L47.7451 65.2251L47.6328 67.5141L49.4032 67.601L51.1736 67.6878L51.2859 65.3988L49.5155 65.3119ZM49.4032 67.601L49.3239 65.8303C48.9738 65.8459 48.6363 65.8359 48.178 65.8315L48.161 67.6039L48.144 69.3763C48.5133 69.3799 49.0058 69.3931 49.4825 69.3717L49.4032 67.601ZM48.161 67.6039L49.9097 67.8938C50.1116 66.6758 50.3126 64.9803 50.4263 63.9211L48.664 63.7318L46.9016 63.5426C46.7893 64.5877 46.597 66.2005 46.4124 67.3141L48.161 67.6039ZM48.664 63.7318L48.6652 65.5044L50.0831 65.5034L50.0819 63.7309L50.0807 61.9584L48.6627 61.9593L48.664 63.7318ZM67.9559 63.7309L66.2136 64.0566C66.3304 64.6814 66.426 65.3103 66.5003 65.9418L68.2606 65.7348L70.021 65.5278C69.9375 64.8171 69.8299 64.109 69.6983 63.4051L67.9559 63.7309ZM68.2606 65.7348L70.0089 66.0272C70.1152 65.3915 70.2471 64.7798 70.3863 64.0754L68.6474 63.7318L66.9085 63.3883C66.7843 64.0169 66.6301 64.7384 66.5124 65.4424L68.2606 65.7348ZM68.6474 63.7318L68.6424 65.5044L70.0369 65.5083L70.0419 63.7358L70.0469 61.9632L68.6523 61.9593L68.6474 63.7318ZM70.0419 63.7358L68.2697 63.7717C68.2969 65.109 68.5107 66.6723 68.6938 67.8771L70.4462 67.6108L72.1986 67.3444C72.0159 66.1422 71.836 64.7825 71.814 63.6998L70.0419 63.7358ZM70.4462 67.6108L70.398 65.8389C70.0373 65.8487 69.7119 65.8414 69.2723 65.8422L69.2753 67.6147L69.2783 69.3872C69.618 69.3866 70.0762 69.394 70.4944 69.3826L70.4462 67.6108ZM69.2753 67.6147L71.0472 67.5702C71.0301 66.8893 71.0341 66.0122 70.9585 65.1799L69.1933 65.3402L67.428 65.5006C67.4896 66.1787 67.4824 66.8242 67.5033 67.6591L69.2753 67.6147ZM69.1933 65.3402L67.4779 64.8937C67.3644 65.3296 67.2811 65.7639 67.21 66.1493C67.1355 66.5535 67.0764 66.8918 67.0024 67.2268L68.7333 67.6088L70.4642 67.9908C70.5554 67.5775 70.6301 67.1507 70.6962 66.7923C70.7658 66.4152 70.8299 66.0893 70.9086 65.7868L69.1933 65.3402ZM68.7333 67.6088L68.6902 65.8368C68.3866 65.8442 68.1156 65.8397 67.7466 65.8412L67.7538 67.6137L67.761 69.3862C68.0443 69.385 68.428 69.3893 68.7764 69.3808L68.7333 67.6088ZM67.7538 67.6137L69.5203 67.4681C69.4528 66.6484 69.223 65.581 69.1406 65.0435L67.3886 65.3119L65.6365 65.5803C65.7857 66.5542 65.9298 67.0623 65.9873 67.7593L67.7538 67.6137ZM67.3886 65.3119L65.6181 65.2258L65.5068 67.5149L67.2772 67.601L69.0477 67.6871L69.159 65.398L67.3886 65.3119ZM67.2772 67.601L67.1979 65.8303C66.8479 65.8459 66.5103 65.8359 66.0521 65.8315L66.0351 67.6039L66.018 69.3763C66.3872 69.3799 66.8798 69.3931 67.3566 69.3717L67.2772 67.601ZM66.0351 67.6039L67.7837 67.8938C67.9856 66.6758 68.1866 64.9803 68.3004 63.9211L66.538 63.7318L64.7756 63.5426C64.6634 64.5877 64.471 66.2005 64.2864 67.3141L66.0351 67.6039ZM66.538 63.7318L66.5392 65.5044L67.9572 65.5034L67.9559 63.7309L67.9547 61.9584L66.5368 61.9593L66.538 63.7318ZM55.704 63.7582L55.8121 65.5274C55.7818 65.5293 55.802 65.5261 55.8917 65.5343C55.9698 65.5413 56.0625 65.5534 56.159 65.5683C56.2537 65.5829 56.3403 65.5984 56.4035 65.6104C56.4348 65.6163 56.4593 65.6212 56.4752 65.6244C56.4831 65.626 56.4888 65.6271 56.4919 65.6278C56.4935 65.6281 56.4945 65.6283 56.4948 65.6284C56.4949 65.6284 56.4949 65.6284 56.4947 65.6284C56.4947 65.6284 56.4946 65.6283 56.4944 65.6283C56.4943 65.6283 56.4941 65.6282 56.4941 65.6282L56.8602 63.894L57.2263 62.1597C57.2264 62.1597 57.2262 62.1596 57.2261 62.1596C57.2259 62.1596 57.2258 62.1595 57.2256 62.1595C57.2251 62.1594 57.2247 62.1593 57.2241 62.1592C57.2231 62.159 57.2218 62.1587 57.2204 62.1584C57.2175 62.1578 57.2139 62.1571 57.2095 62.1562C57.2009 62.1544 57.1894 62.152 57.1755 62.1492C57.1476 62.1436 57.1093 62.136 57.063 62.1273C56.9712 62.1099 56.8438 62.087 56.6999 62.0648C56.5578 62.0428 56.3874 62.0196 56.2122 62.0037C56.0486 61.9889 55.8253 61.975 55.5959 61.989L55.704 63.7582ZM56.8602 63.894L55.0878 63.9013L55.0926 65.08L56.8651 65.0727L58.6376 65.0653L58.6327 63.8866L56.8602 63.894ZM56.8651 65.0727C58.3094 64.0451 58.3093 64.0449 58.3091 64.0447C58.309 64.0446 58.3089 64.0444 58.3088 64.0442C58.3085 64.0439 58.3083 64.0435 58.308 64.0432C58.3076 64.0425 58.307 64.0418 58.3065 64.041C58.3054 64.0395 58.3042 64.0379 58.3029 64.0361C58.3003 64.0325 58.2973 64.0283 58.2939 64.0235C58.287 64.0141 58.2785 64.0025 58.2684 63.9889C58.2483 63.962 58.2214 63.9268 58.1889 63.8859C58.1264 63.807 58.0322 63.6936 57.9171 63.5739C57.8113 63.464 57.6378 63.2958 57.4142 63.1471C57.2514 63.0388 56.7365 62.7144 56.0355 62.7912L56.2284 64.5531L56.4213 66.3151C56.1095 66.3493 55.8645 66.285 55.7272 66.2356C55.5879 66.1855 55.4938 66.1273 55.4507 66.0987C55.3697 66.0448 55.3398 66.0082 55.3623 66.0315C55.3754 66.0451 55.3939 66.0667 55.412 66.0895C55.4199 66.0994 55.4254 66.1067 55.4275 66.1095C55.4285 66.1109 55.4286 66.111 55.4275 66.1095C55.427 66.1088 55.4262 66.1077 55.4251 66.1061C55.4245 66.1054 55.4239 66.1045 55.4232 66.1035C55.4228 66.103 55.4225 66.1025 55.4221 66.1019C55.4219 66.1017 55.4217 66.1014 55.4215 66.1011C55.4214 66.1009 55.4212 66.1007 55.4212 66.1006C55.421 66.1004 55.4208 66.1002 56.8651 65.0727ZM56.2284 64.5531L56.0347 62.7912C55.7327 62.8244 55.2115 62.9316 54.7588 63.3484C54.246 63.8205 54.1034 64.4209 54.1034 64.8695H55.8759H57.6484C57.6484 65.1339 57.5583 65.5897 57.1599 65.9564C56.8216 66.2679 56.4767 66.309 56.4221 66.315L56.2284 64.5531ZM55.8759 64.8695L54.1124 65.0487C54.1904 65.8164 54.6778 66.2784 54.8307 66.4188C55.0094 66.5827 55.2417 66.7456 55.2962 66.7856C55.4056 66.866 55.4195 66.8829 55.4084 66.8713C55.3901 66.8521 55.2886 66.7414 55.2269 66.5385L56.9227 66.0229L58.6186 65.5072C58.4689 65.0148 58.1969 64.6581 57.9712 64.4219C57.7528 64.1935 57.5225 64.0224 57.3965 63.9298C57.3129 63.8683 57.287 63.8503 57.242 63.8164C57.2054 63.7888 57.2085 63.7893 57.228 63.8072C57.2446 63.8224 57.3214 63.8935 57.4038 64.0187C57.4909 64.1508 57.6077 64.3794 57.6393 64.6904L55.8759 64.8695ZM56.9227 66.0229L55.2268 66.5383C55.1975 66.4419 55.1953 66.3582 55.2027 66.2955C55.21 66.2336 55.2281 66.1781 55.2551 66.1277L56.8183 66.9633L58.3814 67.7989C58.7311 67.1448 58.8644 66.3158 58.6186 65.5074L56.9227 66.0229ZM56.8183 66.9633L55.2543 66.1292C55.2684 66.1027 55.311 66.0373 55.3916 65.973C55.4702 65.9102 55.5343 65.8889 55.5428 65.8864L56.0448 67.5863L56.5468 69.2863C57.3266 69.056 57.9728 68.5652 58.3823 67.7974L56.8183 66.9633ZM56.0448 67.5863L55.6691 65.8541C55.7194 65.8432 55.7523 65.8411 55.7622 65.8406C55.7729 65.8401 55.7716 65.8408 55.7567 65.8398C55.7241 65.8377 55.6716 65.8307 55.6037 65.8165C55.4654 65.7875 55.3621 65.7498 55.3931 65.7608L54.7997 67.4311L54.2063 69.1013C54.2523 69.1176 54.5216 69.2118 54.8771 69.2862C55.1794 69.3496 55.7913 69.4551 56.4206 69.3186L56.0448 67.5863ZM54.7997 67.4311L56.572 67.4068L56.5564 66.2652L54.7841 66.2895L53.0117 66.3137L53.0274 67.4553L54.7997 67.4311ZM54.7841 66.2895L53.6518 67.6532C53.8782 67.8412 54.2914 68.1507 54.7909 68.3266C55.0406 68.4145 55.4773 68.5291 55.991 68.4333C56.5969 68.3204 57.1154 67.9493 57.422 67.4023L55.8759 66.5356L54.3297 65.6689C54.4172 65.5128 54.5529 65.3435 54.7491 65.2024C54.9456 65.0611 55.1539 64.9833 55.3414 64.9483C55.6839 64.8845 55.9237 64.9671 55.9682 64.9828C56.0575 65.0142 56.0273 65.0178 55.9164 64.9258L54.7841 66.2895ZM55.8759 66.5356L57.423 67.4005C57.636 67.0195 57.7348 66.5589 57.6522 66.0794C57.5767 65.6417 57.3734 65.3242 57.2248 65.1358C56.9622 64.8029 56.6176 64.5699 56.5101 64.4946C56.3124 64.3561 56.2692 64.3287 56.2252 64.2912C56.1719 64.2458 56.3706 64.3878 56.4819 64.7231L54.7997 65.2817L53.1175 65.8402C53.2216 66.1537 53.3794 66.3982 53.5203 66.5748C53.6607 66.7508 53.8076 66.8886 53.9256 66.9892C54.1372 67.1696 54.3968 67.3425 54.4762 67.3981C54.5046 67.418 54.5252 67.4327 54.5411 67.4445C54.5488 67.4502 54.5544 67.4544 54.5584 67.4575C54.5624 67.4606 54.5641 67.462 54.5639 67.4618C54.5637 67.4617 54.561 67.4594 54.5562 67.4552C54.5514 67.451 54.5437 67.444 54.5338 67.4344C54.5153 67.4165 54.4815 67.382 54.4415 67.3313C54.3689 67.2393 54.2169 67.0193 54.1587 66.6818C54.0933 66.3025 54.1755 65.9447 54.3287 65.6707L55.8759 66.5356ZM54.7997 65.2817L56.482 64.7234C56.5576 64.9511 56.4944 65.1185 56.4459 65.1981C56.4096 65.2576 56.2308 65.5018 55.8122 65.5274L55.704 63.7582L55.5958 61.989C54.5532 62.0528 53.8079 62.7143 53.4184 63.3538C53.0166 64.0134 52.8133 64.9234 53.1174 65.8399L54.7997 65.2817ZM34.7919 63.7328L33.1214 64.3256L33.5453 65.5199L35.2157 64.9272L36.8862 64.3344L36.4623 63.14L34.7919 63.7328ZM35.2157 64.9272L36.9131 65.4379L37.2724 64.2436L35.5751 63.7328L33.8778 63.2221L33.5184 64.4164L35.2157 64.9272ZM35.5751 63.7328L35.5679 65.5053L36.77 65.5102L36.7772 63.7377L36.7844 61.9652L35.5823 61.9603L35.5751 63.7328ZM36.7772 63.7377L35.1723 62.9854L34.1264 65.2169L35.7313 65.9692L37.3363 66.7214L38.3822 64.49L36.7772 63.7377ZM35.7313 65.9692H33.9588V67.5971H35.7313H37.5039V65.9692H35.7313ZM35.7313 67.5971L35.7114 65.8247L34.5835 65.8374L34.6034 67.6098L34.6234 69.3822L35.7513 69.3695L35.7313 67.5971ZM34.6034 67.6098H36.3759V65.9692H34.6034H32.8309V67.6098H34.6034ZM34.6034 65.9692L36.2335 65.2729L35.2774 63.0346L33.6474 63.7309L32.0173 64.4271L32.9734 66.6654L34.6034 65.9692ZM33.6474 63.7309L33.6443 65.5034L34.7889 65.5053L34.7919 63.7328L34.7949 61.9603L33.6504 61.9584L33.6474 63.7309ZM46.9755 66.7084L46.9695 68.4809L47.8357 68.4838L47.8417 66.7113L47.8477 64.9388L46.9815 64.9359L46.9755 66.7084ZM47.8417 66.7113H46.0692V67.6078H47.8417H49.6142V66.7113H47.8417ZM47.8417 67.6078L47.8443 65.8353L45.8511 65.8324L45.8485 67.6049L45.8459 69.3774L47.8391 69.3803L47.8417 67.6078ZM45.8485 67.6049L47.621 67.5995L47.6093 63.7294L45.8368 63.7348L44.0643 63.7401L44.076 67.6103L45.8485 67.6049ZM45.8368 63.7348L45.8429 65.5073L46.9845 65.5034L46.9784 63.7309L46.9723 61.9584L45.8307 61.9623L45.8368 63.7348ZM46.9784 63.7309L45.2059 63.7291L45.203 66.7067L46.9755 66.7084L48.748 66.7102L48.7509 63.7326L46.9784 63.7309ZM12.8407 64.5863V62.8138H12.1845V64.5863V66.3589H12.8407V64.5863ZM12.1845 64.5863H10.412V67.5639H12.1845H13.957V64.5863H12.1845ZM12.1845 67.5639V65.7914H11.0819V67.5639V69.3364H12.1845V67.5639ZM11.0819 67.5639H12.8544V64.6H11.0819H9.30941V67.5639H11.0819ZM11.0819 64.6L11.0903 62.8275L10.4672 62.8246L10.4589 64.5971L10.4505 66.3696L11.0736 66.3725L11.0819 64.6ZM10.4589 64.5971H12.2314V63.726H10.4589H8.68637V64.5971H10.4589ZM10.4589 63.726V65.4985H12.8407V63.726V61.9535H10.4589V63.726ZM12.8407 63.726H11.0682V64.5863H12.8407H14.6132V63.726H12.8407ZM14.2831 65.1137V66.8862H14.9384V65.1137V63.3412H14.2831V65.1137ZM14.9384 65.1137H16.7109V63.7162H14.9384H13.1659V65.1137H14.9384ZM14.9384 63.7162L14.9351 65.4887L15.9829 65.4907L15.9862 63.7182L15.9895 61.9457L14.9417 61.9437L14.9384 63.7162ZM15.9862 63.7182H14.2137V67.5619H15.9862H17.7587V63.7182H15.9862ZM15.9862 67.5619V65.7894H14.9384V67.5619V69.3344H15.9862V67.5619ZM14.9384 67.5619H16.7109V65.974H14.9384H13.1659V67.5619H14.9384ZM14.9384 65.974V64.2015H14.2831V65.974V67.7465H14.9384V65.974ZM14.2831 65.974H12.5106V67.5619H14.2831H16.0556V65.974H14.2831ZM14.2831 67.5619V65.7894H13.2333V67.5619V69.3344H14.2831V67.5619ZM13.2333 67.5619H15.0058V63.7162H13.2333H11.4608V67.5619H13.2333ZM13.2333 63.7162V65.4887H14.2831V63.7162V61.9437H13.2333V63.7162ZM14.2831 63.7162H12.5106V65.1137H14.2831H16.0556V63.7162H14.2831ZM25.9472 64.7406V62.9681C24.7464 62.9681 24.1701 63.917 23.9993 64.2695C23.7688 64.7453 23.6756 65.2782 23.6756 65.7709H25.4481H27.2206C27.2206 65.6946 27.2394 65.7125 27.1895 65.8153C27.1647 65.8665 27.0892 66.008 26.9191 66.1566C26.738 66.3148 26.4049 66.5131 25.9472 66.5131V64.7406ZM25.4481 65.7709L23.6756 65.7713C23.6757 66.2638 23.7689 66.7966 23.9993 67.2721C24.1698 67.624 24.746 68.5737 25.9472 68.5737V66.8012V65.0287C26.4053 65.0287 26.7384 65.2273 26.9195 65.3855C27.0894 65.534 27.1649 65.6755 27.1897 65.7266C27.2394 65.8292 27.2207 65.8468 27.2206 65.7706L25.4481 65.7709ZM25.9472 66.8012L25.9492 68.5737C27.1503 68.5723 27.7253 67.6221 27.8952 67.2704C28.125 66.7951 28.2176 66.2629 28.2177 65.7713L26.4452 65.7709L24.6727 65.7706C24.6727 65.8476 24.6539 65.8303 24.7034 65.7279C24.728 65.6769 24.8034 65.5354 24.9732 65.3866C25.1541 65.2282 25.4871 65.0292 25.9451 65.0287L25.9472 66.8012ZM26.4452 65.7709H28.2177C28.2177 65.2791 28.1251 64.7468 27.8952 64.2712C27.725 63.9189 27.1498 62.9695 25.9492 62.9681L25.9472 64.7406L25.9451 66.5131C25.4875 66.5126 25.1546 66.3139 24.9736 66.1554C24.8036 66.0067 24.7282 65.8651 24.7035 65.814C24.6539 65.7113 24.6727 65.6939 24.6727 65.7709H26.4452ZM72.1649 66.3647L72.1385 68.137L72.6629 68.1448L72.6893 66.3725L72.7157 64.6002L72.1913 64.5923L72.1649 66.3647ZM72.6893 66.3725L74.4395 66.0917L74.21 64.6611L72.4599 64.9418L70.7097 65.2225L70.9392 66.6532L72.6893 66.3725ZM72.4599 64.9418V63.1693H72.4032V64.9418V66.7143H72.4599V64.9418ZM72.4032 64.9418L70.655 64.649L70.4168 66.0719L72.1649 66.3647L73.9131 66.6574L74.1514 65.2346L72.4032 64.9418ZM80.0722 66.3647L80.0458 68.137L80.5702 68.1448L80.5966 66.3725L80.623 64.6002L80.0986 64.5923L80.0722 66.3647ZM80.5966 66.3725L82.3467 66.0917L82.1172 64.6611L80.3671 64.9418L78.6169 65.2225L78.8464 66.6532L80.5966 66.3725ZM80.3671 64.9418V63.1693H80.3104V64.9418V66.7143H80.3671V64.9418ZM80.3104 64.9418L78.5623 64.649L78.324 66.0719L80.0722 66.3647L81.8203 66.6574L82.0586 65.2346L80.3104 64.9418ZM22.1015 65.5111L21.8933 67.2714C21.9977 67.2837 22.5408 67.3461 23.1315 67.0645C23.4656 66.9051 23.8145 66.6344 24.0663 66.2148C24.3133 65.8032 24.3993 65.3609 24.3994 64.9589L22.6268 64.9584L20.8543 64.958C20.8544 64.8616 20.8761 64.6415 21.0264 64.391C21.1814 64.1326 21.4012 63.9621 21.6055 63.8647C21.9364 63.7069 22.2169 63.7399 22.3096 63.7509L22.1015 65.5111ZM22.6268 64.9584L24.3994 64.9575C24.3991 64.4455 24.2225 63.9454 23.8691 63.5492C23.5478 63.189 23.1741 63.0191 22.9273 62.9372C22.466 62.784 22.0567 62.8112 21.9896 62.8154L22.1015 64.5844L22.2133 66.3534C22.1591 66.3568 22.0124 66.3687 21.8105 66.3017C21.6935 66.2628 21.4487 66.1613 21.2239 65.9092C20.9669 65.6213 20.8545 65.2691 20.8543 64.9593L22.6268 64.9584ZM22.1015 64.5844H20.3289V65.5111H22.1015H23.874V64.5844H22.1015ZM29.0429 65.5111L28.8312 67.271C28.9364 67.2836 29.4794 67.3467 30.0705 67.0654C30.405 66.9061 30.7545 66.6354 31.0065 66.2154C31.2537 65.8035 31.3397 65.361 31.3398 64.9589L29.5673 64.9584L27.7948 64.958C27.7948 64.862 27.8164 64.6418 27.9669 64.3911C28.1221 64.1325 28.3423 63.9618 28.5471 63.8644C28.8785 63.7066 29.1594 63.7399 29.2545 63.7513L29.0429 65.5111ZM29.5673 64.9584L31.3398 64.9575C31.3395 64.4435 31.1617 63.9417 30.806 63.5451C30.483 63.1848 30.1079 63.0159 29.8613 62.9348C29.3999 62.7832 28.9914 62.8114 28.9267 62.8157L29.0429 64.5844L29.1591 66.3531C29.1021 66.3568 28.9557 66.3688 28.7546 66.3027C28.638 66.2644 28.3926 66.1636 28.1667 65.9117C27.9082 65.6234 27.7949 65.27 27.7948 64.9593L29.5673 64.9584ZM29.0429 64.5844H27.2704V65.5111H29.0429H30.8154V64.5844H29.0429Z" fill="var(--stroke-0, white)" mask="url(#path-2-outside-2_0_11)"/>
</g>
<path id="Vector" d="M5.4706 17.653C5.80167 17.4308 6.19132 17.2657 6.54944 17.0919C8.27865 16.2529 9.98338 15.8624 11.8753 15.6213C14.595 15.2747 17.4702 15.3026 19.7306 17.0793C21.4741 18.4497 22.5155 20.8201 22.7781 22.9935C23.2356 22.9375 23.6971 22.88 24.1582 22.8702C26.5011 22.8202 28.4878 23.8818 30.1428 25.4762C30.2849 23.0733 30.6472 20.6725 30.8172 18.2674C31.7313 17.9481 32.652 17.5952 33.5997 17.3926C36.2514 16.8258 40.2697 16.8412 42.8052 17.908C44.526 18.6322 45.8228 19.9372 46.5264 21.6755C47.3396 21.6063 48.157 21.4569 48.968 21.3562C51.3446 21.0611 53.7236 20.7226 56.1034 20.4615C56.1401 20.9357 56.2229 21.4122 56.2756 21.8858C56.8274 21.3398 57.4173 20.6269 58.061 20.2065C59.1835 21.765 60.4344 23.264 61.6229 24.774C62.1269 25.4144 62.6733 26.0478 63.1192 26.7305C63.7836 25.3289 64.355 23.8701 64.9683 22.4441C65.3723 21.5045 65.8812 20.541 66.1697 19.5626C68.4755 20.0463 70.808 20.4433 73.0985 20.9975C73.3077 20.6646 73.5045 20.3126 73.7786 20.0292C74.7192 19.7867 75.7949 19.7698 76.7618 19.6537L81.9626 18.9764C82.2085 20.8996 82.5194 22.8325 82.6467 24.7675C80.4717 24.8522 78.3025 25.0333 76.1275 25.1126C76.2449 25.8939 76.3708 26.6739 76.5053 27.4524L79.4589 27.5028C79.7639 28.8183 79.9856 30.1616 80.248 31.4868C79.2254 31.9655 78.1766 32.3884 77.1389 32.8334C77.0182 33.8047 77.0504 35.0098 76.9769 36.0319C79.4956 35.2137 81.9908 34.3255 84.5121 33.5146C84.4662 34.0675 84.3409 34.6274 84.2635 35.1782C83.9913 37.0479 83.6916 38.9133 83.3636 40.774C80.3549 40.913 77.3409 41.1969 74.3381 41.4399C72.9515 41.5521 71.5603 41.689 70.1704 41.7394C70.1586 40.3685 70.0852 38.9996 70.0465 37.6293L69.8812 30.9922C69.8458 29.7327 69.7749 28.4753 69.7782 27.2149C69.2279 27.9724 68.7694 28.8418 68.2775 29.6422C67.6274 30.6987 66.9125 31.7555 66.3314 32.8507C66.3418 33.7627 66.5116 34.7023 66.6152 35.6104L66.9853 39.1373C67.0863 40.0742 67.2162 41.01 67.2713 41.9512C64.6713 41.7768 62.0563 41.7636 59.4526 41.6459C59.5663 40.8926 59.5907 40.1058 59.6497 39.3455C59.8196 37.1545 59.8997 34.9491 60.1408 32.7644C59.2977 31.5809 58.1238 30.2835 57.1894 29.1344C56.2645 27.9972 55.1907 26.5183 54.1811 25.4944C52.8393 25.6355 51.4665 25.6826 50.1181 25.7491C50.3036 26.7903 50.4804 27.8331 50.6484 28.8773C51.6292 28.9291 52.6201 28.9145 53.6026 28.9254C53.8743 30.0222 54.0391 31.1522 54.277 32.2578C53.2739 32.6956 52.268 33.1267 51.2594 33.5512C51.6903 34.6959 52.0594 35.8622 52.4609 37.0177C53.8931 36.8942 55.359 36.5366 56.7757 36.277C56.9738 37.4504 57.1555 38.6295 57.3295 39.8069C57.4057 40.3222 57.4514 40.8408 57.5479 41.353C55.5276 41.5939 53.4848 41.6559 51.4574 41.8166L47.5169 42.131C46.7048 42.1953 45.8929 42.2827 45.0782 42.2988C45.0569 40.2616 44.9434 38.2111 44.8772 36.1737C44.8251 34.5736 44.8235 32.9707 44.7759 31.3696C44.3837 31.687 44.0381 32.0734 43.6452 32.3967C41.9843 33.7638 40.1571 34.7277 38.0316 35.0735C38.1511 35.7738 38.2036 36.4944 38.2809 37.2009C38.3761 38.0717 38.4929 38.946 38.5492 39.8203L38.024 39.9125C38.0929 40.2372 38.1154 40.5794 38.1534 40.9094C37.1741 40.9367 36.1443 41.1972 35.179 41.3664L31.5812 41.9656C30.552 42.1452 29.5185 42.361 28.4807 42.4785C28.6633 41.4388 28.6507 40.3587 28.8219 39.3127C27.7025 40.0155 26.5854 40.524 25.2705 40.7145C23.2034 41.0141 21.0694 40.3991 19.408 39.1396C17.4434 37.6502 16.3037 35.439 15.9635 33.0104C15.9515 33.1158 15.9682 33.2366 15.8782 33.3047C15.7155 33.4276 15.392 33.3675 15.2033 33.3357C15.1586 33.3282 15.1202 33.316 15.0773 33.3017C14.7784 33.3953 14.479 33.4871 14.179 33.5771C14.5881 35.4467 15.0468 37.3088 15.4694 39.176C12.3281 40.0147 9.25079 41.1007 6.11036 41.9462C6.02841 40.8642 6.03646 39.7718 6.00897 38.6874C5.94744 36.9079 5.89874 35.1279 5.86287 33.3476C5.68436 28.1174 5.55359 22.8857 5.4706 17.653Z" fill="var(--fill-0, white)"/>
<path id="Vector_2" d="M15.08 33.3002C15.3696 33.1856 15.6571 33.0578 15.9662 33.0089C15.9542 33.1142 15.9709 33.2351 15.8809 33.3031C15.7182 33.4261 15.3947 33.366 15.206 33.3342C15.1613 33.3267 15.1229 33.3145 15.08 33.3002Z" fill="var(--fill-0, #111010)"/>
<path id="Vector_3" d="M13.8685 16.5281C15.2854 16.4192 16.9069 16.65 18.1664 17.3199C19.8423 18.2113 20.8661 19.84 21.4105 21.628C21.983 23.5078 21.7068 25.1906 20.805 26.9063C19.6266 29.1484 17.6991 31.0978 15.3472 32.0714C14.5821 32.3882 13.735 32.5924 12.9436 32.8376C13.3293 34.7125 13.8445 36.5624 14.2173 38.4392C14.0478 38.4963 13.868 38.5376 13.6954 38.5857C11.5047 39.2539 9.31041 39.9103 7.11267 40.5548C7.05796 39.3341 7.06133 38.1103 7.02581 36.8889L6.77719 27.9533C6.69365 24.7251 6.51068 21.4853 6.5136 18.2568C7.12723 18.0041 7.72144 17.6921 8.34444 17.4651C10.1117 16.8211 12.0046 16.6193 13.8685 16.5281Z" fill="var(--fill-0, #EE1D22)"/>
<path id="Vector_4" d="M13.1279 20.3179C13.5446 20.2933 13.9996 20.3556 14.3994 20.4734C15.2289 20.7177 16.0096 21.3215 16.4252 22.0906C16.8086 22.8001 16.8837 23.7156 16.6458 24.4846C16.2906 25.633 15.2997 26.4312 14.2769 26.9612C13.1881 27.595 12.1245 27.4721 10.9341 27.3182C10.9138 25.2922 10.9675 23.2601 10.9872 21.2338C11.6308 20.6254 12.2696 20.4092 13.1279 20.3179Z" fill="var(--fill-0, white)"/>
<path id="Vector_5" d="M12.9063 21.3788C13.1279 21.3618 13.3691 21.3556 13.5899 21.3803C14.2488 21.4541 14.9136 21.7852 15.3218 22.3194C15.6502 22.7438 15.7935 23.2844 15.7192 23.8176C15.598 24.6671 14.9682 25.2494 14.3228 25.7362C13.5262 26.2548 12.8765 26.3195 11.955 26.2889C11.9868 24.7671 11.9748 23.2435 12.0187 21.7222C12.2993 21.5532 12.5871 21.4454 12.9063 21.3788Z" fill="var(--fill-0, #212021)"/>
<path id="Vector_6" d="M36.3326 18.1302C38.1833 18.037 39.9769 18.153 41.7626 18.6722C43.4418 19.1606 44.6302 20.3131 45.4604 21.8317L44.4633 21.9459C44.4633 21.9459 44.696 27.1399 44.7034 29.7249C42.6777 32.4159 39.7385 33.8986 36.4196 34.2351C36.5215 36.1616 36.9846 40.0094 36.9846 40.0094L29.6952 41.2205L29.9583 38.3726C30.9263 37.2342 31.7742 36.0258 32.1887 34.5622C32.9813 31.7637 32.6777 29.1166 31.0762 26.6313C31.4499 24.1182 31.5404 21.5457 31.8246 19.0181C33.3691 18.4951 34.7032 18.2081 36.3326 18.1302Z" fill="var(--fill-0, #EE1D22)"/>
<path id="Vector_7" d="M37.6814 21.8717C38.2129 21.8545 38.7609 21.9362 39.2567 22.1331C40.0754 22.4582 40.8007 23.126 41.1452 23.9472C41.4762 24.7361 41.4903 25.5575 41.1595 26.3478C40.6752 27.5049 39.6371 28.1316 38.5366 28.589C37.2956 29.0738 36.3449 28.8583 35.1112 28.5326C35.2406 27.2527 35.4095 25.9673 35.5776 24.692C35.6714 23.98 35.7281 23.2254 35.9008 22.5308C36.4309 22.0871 37.0094 21.9478 37.6814 21.8717Z" fill="var(--fill-0, white)"/>
<path id="Vector_8" d="M37.3029 22.9428C37.6038 22.9271 37.9182 22.898 38.2171 22.9434C38.8885 23.0454 39.5385 23.4033 39.9437 23.9605C40.2593 24.3946 40.4042 24.9604 40.3168 25.4933C40.2027 26.1882 39.7667 26.6526 39.2194 27.0474C38.3806 27.5093 37.6507 27.5965 36.7147 27.4346C36.8188 26.4834 36.9469 25.5298 37.063 24.5795C37.1253 24.0687 37.1354 23.4258 37.3029 22.9428Z" fill="var(--fill-0, #212021)"/>
<path id="Vector_9" d="M28.6067 25.496C32.0327 28.2717 32.4545 33.6248 29.7185 37.0368C28.419 38.6573 26.4006 39.6737 24.3298 39.7083C20.4188 39.7739 17.0546 36.2956 17.0058 32.3792C20.842 30.209 22.536 27.3959 23.2689 23.9228C25.827 23.7905 27.6568 24.7267 28.6067 25.496Z" fill="var(--fill-0, #EE1D22)"/>
<path id="Vector_10" d="M23.8149 29.9173C25.718 29.6127 27.5044 30.9251 27.8005 32.8454C28.0967 34.7657 26.7898 36.5633 24.8849 36.8559C22.9883 37.1473 21.2155 35.8364 20.9206 33.9245C20.6259 32.0126 21.9203 30.2206 23.8149 29.9173Z" fill="var(--fill-0, white)"/>
<path id="Vector_11" d="M24.0265 30.95C25.3572 30.7634 26.5858 31.7005 26.77 33.0426C26.9543 34.3848 26.0244 35.6233 24.6936 35.8083C23.3637 35.9932 22.137 35.0564 21.9529 33.7153C21.7687 32.3743 22.6969 31.1365 24.0265 30.95Z" fill="var(--fill-0, #212021)"/>
<path id="Vector_12" d="M24.1629 33.3722C24.2282 33.3743 24.2952 33.3738 24.3597 33.3863C24.5361 33.4203 24.7231 33.5726 24.8132 33.7272C24.9264 33.9211 24.9244 34.1534 24.8704 34.3658C24.7906 34.6792 24.5966 34.8217 24.338 34.978C24.3159 34.9759 24.2937 34.9746 24.2716 34.9718C24.0787 34.9475 23.8544 34.7856 23.7501 34.6227C23.6205 34.4202 23.6165 34.1738 23.6739 33.9468C23.7452 33.6644 23.9316 33.5175 24.1629 33.3722Z" fill="var(--fill-0, white)"/>
<path id="Vector_13" d="M81.0149 20.2103L81.482 23.7477L74.8611 24.1415L75.5931 28.482L78.6353 28.5262L79.0373 30.8563L76.15 32.1203L75.8358 37.55L83.2037 35.0418L82.4967 39.7514L71.1998 40.5952L70.8495 26.7998L74.3836 21.0026L81.0149 20.2103Z" fill="var(--fill-0, #EE1D22)"/>
<path id="Vector_14" d="M66.8496 20.7796L71.8398 21.7973L65.2625 32.5502L66.1018 40.836L60.5865 40.624L61.215 32.3765L54.9257 24.647L57.9156 21.7651L63.4018 28.7738L66.8496 20.7796Z" fill="var(--fill-0, #EE1D22)"/>
<path id="Vector_15" d="M55.1692 21.6383L52.3933 24.5179L48.8022 24.5981L49.7348 29.9114L52.7243 29.9443L53.0459 31.629L49.9733 32.962L51.7402 38.2187L55.9061 37.5338L56.2655 40.3893L46.1155 41.1082L45.5643 22.8358C47.6557 22.5821 55.1692 21.6383 55.1692 21.6383Z" fill="var(--fill-0, #EE1D22)"/>
<path id="Vector_16" d="M41.5869 44.1598L42.2336 44.1534C42.4637 47.6318 42.494 51.1206 42.722 54.5995C44.4219 54.4506 46.1237 54.3252 47.8269 54.2232C47.8447 55.5296 47.9225 56.8346 47.9582 58.1408L51.1135 44.9525C52.378 44.9426 53.6435 44.9569 54.9082 44.9611C55.3065 46.2154 55.8375 47.4466 56.3053 48.6776C57.0497 50.6366 57.7719 52.6087 58.5408 54.5577C59.1273 55.9788 59.6272 57.4412 60.1924 58.872C59.5567 58.9745 58.8829 58.9698 58.2396 59.0166C57.3893 59.0784 56.5413 59.1815 55.6895 59.2192C55.4125 58.3714 55.1262 57.5263 54.9027 56.6621C54.1459 56.7943 53.3868 56.9131 52.6259 57.0182C52.4868 57.7985 52.3577 58.5806 52.2388 59.3642C50.7511 59.3737 49.2396 59.124 47.7492 59.0552C47.819 58.8182 47.8662 58.5743 47.9181 58.333C46.8994 58.5111 45.4409 58.5266 44.3651 58.6058C42.4954 58.7435 40.596 58.9728 38.7222 58.9727C38.7107 58.0372 38.6209 57.1059 38.5833 56.1718C38.3886 52.1909 38.1609 48.2118 37.9003 44.2348C39.1269 44.2348 40.3593 44.1772 41.5869 44.1598Z" fill="var(--fill-0, white)"/>
<path id="Vector_17" d="M51.5345 45.5965L54.2007 45.5982L58.8894 58.0008L56.0408 58.2046L55.2578 55.6331L51.7627 56.1794L51.3843 58.3463L48.5761 58.1856L51.5345 45.5965Z" fill="var(--fill-0, #EE1D22)"/>
<path id="Vector_18" d="M52.8893 48.6334L54.5905 53.2363L50.7089 53.7966L51.3849 48.7602L52.8893 48.6334Z" fill="var(--fill-0, white)"/>
<path id="Vector_19" d="M52.3371 49.1222L53.6632 52.7304L51.8104 53.0168L52.3371 49.1222Z" fill="var(--fill-0, #212021)"/>
<path id="Vector_20" d="M38.5741 44.8319L41.3185 44.8148L41.7615 55.274L46.8849 54.9248L46.9403 57.3843C46.9403 57.3843 41.1623 57.873 39.3428 58.0136L38.5741 44.8319Z" fill="var(--fill-0, #EE1D22)"/>
<path id="Vector_21" d="M15.3048 44.3801C17.0424 44.3196 18.7993 44.3715 20.5385 44.3747C20.3642 45.1115 20.1163 45.8296 19.9081 46.5571L18.3543 51.9096L16.9324 56.8209C16.726 57.525 16.5714 58.2756 16.3091 58.9591C14.6698 59.1059 13.0003 59.1989 11.3554 59.2351C11.1813 58.7691 11.0616 58.2805 10.9149 57.8047C10.5828 56.7411 10.2589 55.6751 9.94323 54.6065C9.4181 53.0292 8.98106 51.4185 8.484 49.8318L7.60236 46.948C7.38862 46.2507 7.15314 45.5622 6.99208 44.8498C8.69068 44.784 10.4301 44.6165 12.119 44.4138C12.1926 45.0494 12.4018 45.706 12.5329 46.3354C12.8926 48.0636 13.2596 49.8163 13.6786 51.5298C14.232 49.1499 14.7324 46.755 15.3048 44.3801Z" fill="var(--fill-0, white)"/>
<path id="Vector_22" d="M15.78 44.9688L19.3148 44.9764L15.5407 58.0466L11.7589 58.2446L7.85732 45.417L11.3223 45.1008L12.7013 51.535L14.2609 51.5287L15.78 44.9688Z" fill="var(--fill-0, #EE1D22)"/>
<path id="Vector_23" d="M69.8697 44.3014C70.1682 44.2635 70.485 44.2714 70.7861 44.2589C70.7946 45.1431 71.1829 46.7749 71.3515 47.7226C69.364 48.1924 66.0066 47.8795 64.4358 49.2497C63.7273 49.8678 63.3872 50.7126 63.3268 51.6428C63.2675 52.5546 63.4451 53.472 64.0593 54.1717C65.3912 55.6892 67.6875 55.9002 69.5562 56.0164C69.5175 54.7661 69.2604 53.5259 69.2171 52.2718C68.5382 52.4525 67.8692 52.6609 67.1864 52.8316C67.1647 51.9759 67.0585 51.0613 66.9214 50.2163C68.7298 50.2095 70.5545 50.2218 72.3622 50.2889L72.3799 53.0617C72.3767 55.0641 72.397 57.0664 72.4416 59.0683C68.9928 59.2613 64.021 59.2149 61.2165 56.9489C59.9882 55.9565 59.1888 54.544 59.0194 52.9584C58.8218 51.1088 59.2736 49.3642 60.4359 47.9113C62.1909 45.7175 65.0457 44.7527 67.7373 44.4334C68.4438 44.3496 69.1594 44.3792 69.8697 44.3014Z" fill="var(--fill-0, white)"/>
<path id="Union_2" d="M70.2542 46.8846C70.1217 46.2209 70.0312 45.5559 69.9446 44.8851C67.0186 44.9445 63.5929 45.4816 61.4098 47.6396C60.2689 48.7673 59.601 50.2411 59.5918 51.861C59.5835 53.3173 60.0269 54.7004 61.067 55.7477C63.6026 58.3008 68.1572 58.0859 71.4761 58.0994C71.4479 55.6737 71.3975 50.8918 71.3975 50.8918L67.6561 50.8481L67.7033 51.5136L69.7379 51.0191C69.7379 51.0191 70.0749 54.8125 70.285 56.631C68.1139 56.6575 65.7701 56.4851 63.956 55.1389C62.1463 53.796 61.7894 50.9073 63.1579 49.1092C64.7581 47.0063 67.8824 47.2324 70.2542 46.8846Z" fill="var(--fill-0, #EE1D22)"/>
<path id="Vector_24" d="M81.3892 44.3002C81.5591 44.2684 81.7624 44.2774 81.9362 44.2689C82.0654 45.3605 82.1488 46.4648 82.3127 47.5512C80.6637 47.6533 78.9866 47.6781 77.3337 47.7035C77.415 48.4939 77.598 49.2906 77.7095 50.08C78.45 50.1428 79.1997 50.1192 79.9435 50.175C80.1108 50.9163 80.221 51.6652 80.3201 52.418C79.569 52.7091 78.8055 52.9597 78.0578 53.2636L77.8289 56.2927L83.4383 54.667C83.3104 55.6994 83.0756 56.7236 82.8755 57.744C82.7961 58.1028 82.722 58.4627 82.6545 58.8238C81.5158 58.9538 80.3751 58.9415 79.2332 58.9949C77.3054 59.1018 75.3777 59.1942 73.4486 59.2723L73.3378 45.0797C76.0238 44.8448 78.7078 44.585 81.3892 44.3002Z" fill="var(--fill-0, white)"/>
<path id="Vector_25" d="M81.0001 44.9871L81.2198 46.6077L76.229 46.6841L76.8711 50.648L79.1176 50.7558L79.2678 51.7444L77.119 52.542L76.753 57.2077L82.2214 55.655L81.8121 57.8995L74.0585 58.2685L73.9667 45.6012L81.0001 44.9871Z" fill="var(--fill-0, #EE1D22)"/>
<path id="Vector_26" d="M30.1987 44.6483C30.8303 44.6168 31.466 44.6211 32.0983 44.6121C32.105 45.5845 32.1902 46.5513 32.2266 47.5223L32.5418 55.0237C34.2342 54.921 35.9604 54.8385 37.6428 54.629C37.7185 56.018 37.7251 57.4052 37.7902 58.7933C36.9634 58.8327 36.137 58.9123 35.3108 58.9676C34.4553 58.9688 33.5908 59.0669 32.7373 59.1318L28.5873 59.4349C28.5606 58.2621 28.4444 57.0807 28.3781 55.9086L28.0344 49.5566C27.9382 47.9308 27.8074 46.3019 27.7577 44.6743C28.5714 44.671 29.3851 44.6623 30.1987 44.6483Z" fill="var(--fill-0, white)"/>
<path id="Vector_27" d="M31.162 45.2249L31.6112 55.7126L36.7368 55.3324L36.8128 57.8867L29.1377 58.363L28.3983 45.2955L31.162 45.2249Z" fill="var(--fill-0, #EE1D22)"/>
<path id="Vector_28" d="M25.6782 43.575C25.7312 43.5679 25.7966 43.5785 25.8506 43.581C25.9291 43.6905 25.9321 43.7997 25.9461 43.9308C26.0134 44.5623 26.0229 45.2034 26.0844 45.8376C26.3609 48.4477 26.6103 51.0607 26.8324 53.6761C26.9627 55.1689 27.1558 56.6592 27.2587 58.1538C25.8042 58.2116 24.3404 58.232 22.8842 58.2657C22.8236 58.2527 22.8087 58.2365 22.7624 58.1972C22.454 55.4629 22.2105 52.7227 21.9274 49.9863C21.7134 47.9179 21.4443 45.8463 21.289 43.7732C22.7526 43.7311 24.2148 43.6328 25.6782 43.575Z" fill="var(--fill-0, white)"/>
<path id="Vector_29" d="M25.0168 44.222L26.2364 57.2176L23.3124 57.3202L22.0214 44.3606L25.0168 44.222Z" fill="var(--fill-0, #EE1D22)"/>
<path id="Vector_30" d="M63.2811 65.1875L64.6319 65.1869L64.6254 65.9379L63.2836 65.9458L63.2811 65.1875Z" fill="var(--fill-0, #212021)"/>
</g>
</svg>
