<svg preserveAspectRatio="none" width="100%" height="100%" overflow="visible" style="display: block;" viewBox="0 0 117.467 81.1651" fill="none" xmlns="http://www.w3.org/2000/svg">
<g id="SVG">
<g id="Subtract">
<mask id="path-1-outside-1_0_135" maskUnits="userSpaceOnUse" x="-0.347128" y="-0.346901" width="118" height="78" fill="black">
<rect fill="white" x="-0.347128" y="-0.346901" width="118" height="78"/>
<path fill-rule="evenodd" clip-rule="evenodd" d="M67.8249 4.68582C69.707 4.44162 71.5504 5.58548 72.1595 7.40889C72.5606 8.57534 72.3547 9.64411 71.8439 10.7259C72.6543 11.6759 73.3598 12.7437 74.0631 13.7755C75.0233 13.0339 78.7738 10.77 79.859 10.345C80.3313 10.1606 80.9394 10.1396 81.2816 10.5796C81.5815 10.9655 81.3907 11.5163 81.1102 11.8583C80.2409 12.8971 75.7684 15.9349 75.7684 15.9349L79.5032 21.6189L84.8835 22.7758L85.2914 22.327L97.6087 20.8134L98.9249 31.713L94.7689 31.9211L96.0752 38.7605L101.329 37.0206C101.329 37.0206 100.01 45.5358 99.3052 49.7833C100.323 51.1131 101.929 52.291 103.678 51.8398C107.594 50.8299 109.843 45.7665 108.888 42.0303C107.757 42.3591 106.552 42.4435 105.52 41.767C107.386 39.5934 107.241 36.5844 106.454 33.9548C109.534 35.5388 112.888 38.1606 112.813 41.9429C112.185 41.4526 111.799 41.3737 111.009 41.4745C113.244 46.5713 111.013 51.527 107.961 55.7632C107.348 56.6133 106.639 57.4142 106.073 58.2943C105.077 59.8421 104.98 61.8432 105.347 63.6025C103.828 62.5606 102.308 62.0763 100.46 62.3957L98.6341 71.9841C93.5042 72.4957 88.2823 72.4713 83.135 72.6961V72.4356C80.8793 72.4418 78.6115 72.4482 76.3849 72.0317C75.5458 71.8748 74.7087 71.5534 73.863 71.4747C73.858 71.5941 73.8258 71.8357 73.8258 71.8357C70.8757 72.0638 67.9265 72.3034 64.9768 72.5378C62.8081 72.7316 60.872 72.7205 58.6782 72.5529C57.375 72.4534 52.4697 72.0741 52.4697 72.0741L52.3984 71.7921L43.0447 72.4599L43.0632 72.0741L30.8892 72.9636L30.8252 71.3273L24.1822 71.54L23.4213 63.9741C22.5738 66.6923 21.8238 69.4413 21.0348 72.1771C17.8078 72.3586 14.5621 72.6024 11.3302 72.6683C9.02392 65.3931 4.65287 50.7607 4.65287 50.7607L5.60994 50.6956C5.38659 40.4305 5.137 30.1596 4.76885 19.8984C9.63602 16.6204 17.6951 14.9962 22.8945 18.0633C25.7114 19.725 27.1846 22.4575 27.9869 25.5646C30.2929 25.6889 31.8645 26.0121 33.9099 27.1389C34.0334 25.2847 34.5547 20.2665 34.5547 20.2665C34.5547 20.2665 37.3428 19.1828 38.7984 18.7863C41.5998 18.0231 45.0951 18.0127 47.9483 18.4391C51.6802 18.9969 53.7316 20.3802 55.9315 23.3708C57.1157 23.1713 58.3206 23.0682 59.5123 22.9229L64.5938 22.2618C65.2458 22.1778 66.457 22.1567 67.014 21.932C67.4256 21.766 68.0985 21.008 68.0985 21.008C69.8782 23.2108 71.6093 25.4532 73.3638 27.6765L75.2251 23.3906L72.072 18.337C72.072 18.337 66.762 21.7784 65.6491 21.6569C65.1454 21.6049 64.7693 21.1773 64.8703 20.6652C65.0648 19.6803 66.2105 19.0826 66.9356 18.5452C68.2087 17.6016 69.515 16.71 70.8013 15.7858C70.246 14.7801 69.72 13.7794 69.2228 12.7428C66.9078 13.0291 64.6766 11.7297 64.3158 9.279C63.986 7.03962 65.6472 4.99101 67.8249 4.68582ZM41.3687 50.4927L39.9636 50.7039L40.4501 62.1516L42.2043 62.0138L41.3687 50.4927ZM57.3623 51.3735L51.8818 51.7885L52.3632 61.5852L55.0008 61.474L57.3623 51.3735ZM67.3595 50.5288L65.9146 50.7077C65.9146 50.7077 67.2089 54.1673 67.8717 55.8915C69.1526 53.6668 71.4202 52.1934 73.7274 51.2278C73.1991 51.2127 67.5075 50.9353 67.5075 50.9353L67.3595 50.5288ZM19.7303 46.7398L6.84173 50.5751L15.6587 49.8525L21.9923 49.8414L22.0701 49.3656L23.1031 49.3284C23.1031 49.3284 21.6365 48.5988 20.6237 47.6186C20.3102 47.3541 19.7303 46.7398 19.7303 46.7398ZM50.5337 41.3942C50.5337 41.3942 48.369 42.5624 47.1639 42.913C47.3948 45.0667 47.8223 49.3847 47.8223 49.3847L46.0362 49.6744L50.7832 49.6319L50.5337 41.3942ZM65.0877 35.4751L65.8108 39.1959L62.5148 40.5859L62.774 41.2247L68.2388 40.3571L68.2837 39.3438L65.0877 35.4751ZM68.681 7.39502C67.9656 7.60397 67.4242 8.27537 67.6873 9.04824C67.9477 9.83021 69.1031 10.3027 69.6195 9.50276C70.1036 8.75297 69.7317 7.32463 68.681 7.39502Z"/>
</mask>
<path fill-rule="evenodd" clip-rule="evenodd" d="M67.8249 4.68582C69.707 4.44162 71.5504 5.58548 72.1595 7.40889C72.5606 8.57534 72.3547 9.64411 71.8439 10.7259C72.6543 11.6759 73.3598 12.7437 74.0631 13.7755C75.0233 13.0339 78.7738 10.77 79.859 10.345C80.3313 10.1606 80.9394 10.1396 81.2816 10.5796C81.5815 10.9655 81.3907 11.5163 81.1102 11.8583C80.2409 12.8971 75.7684 15.9349 75.7684 15.9349L79.5032 21.6189L84.8835 22.7758L85.2914 22.327L97.6087 20.8134L98.9249 31.713L94.7689 31.9211L96.0752 38.7605L101.329 37.0206C101.329 37.0206 100.01 45.5358 99.3052 49.7833C100.323 51.1131 101.929 52.291 103.678 51.8398C107.594 50.8299 109.843 45.7665 108.888 42.0303C107.757 42.3591 106.552 42.4435 105.52 41.767C107.386 39.5934 107.241 36.5844 106.454 33.9548C109.534 35.5388 112.888 38.1606 112.813 41.9429C112.185 41.4526 111.799 41.3737 111.009 41.4745C113.244 46.5713 111.013 51.527 107.961 55.7632C107.348 56.6133 106.639 57.4142 106.073 58.2943C105.077 59.8421 104.98 61.8432 105.347 63.6025C103.828 62.5606 102.308 62.0763 100.46 62.3957L98.6341 71.9841C93.5042 72.4957 88.2823 72.4713 83.135 72.6961V72.4356C80.8793 72.4418 78.6115 72.4482 76.3849 72.0317C75.5458 71.8748 74.7087 71.5534 73.863 71.4747C73.858 71.5941 73.8258 71.8357 73.8258 71.8357C70.8757 72.0638 67.9265 72.3034 64.9768 72.5378C62.8081 72.7316 60.872 72.7205 58.6782 72.5529C57.375 72.4534 52.4697 72.0741 52.4697 72.0741L52.3984 71.7921L43.0447 72.4599L43.0632 72.0741L30.8892 72.9636L30.8252 71.3273L24.1822 71.54L23.4213 63.9741C22.5738 66.6923 21.8238 69.4413 21.0348 72.1771C17.8078 72.3586 14.5621 72.6024 11.3302 72.6683C9.02392 65.3931 4.65287 50.7607 4.65287 50.7607L5.60994 50.6956C5.38659 40.4305 5.137 30.1596 4.76885 19.8984C9.63602 16.6204 17.6951 14.9962 22.8945 18.0633C25.7114 19.725 27.1846 22.4575 27.9869 25.5646C30.2929 25.6889 31.8645 26.0121 33.9099 27.1389C34.0334 25.2847 34.5547 20.2665 34.5547 20.2665C34.5547 20.2665 37.3428 19.1828 38.7984 18.7863C41.5998 18.0231 45.0951 18.0127 47.9483 18.4391C51.6802 18.9969 53.7316 20.3802 55.9315 23.3708C57.1157 23.1713 58.3206 23.0682 59.5123 22.9229L64.5938 22.2618C65.2458 22.1778 66.457 22.1567 67.014 21.932C67.4256 21.766 68.0985 21.008 68.0985 21.008C69.8782 23.2108 71.6093 25.4532 73.3638 27.6765L75.2251 23.3906L72.072 18.337C72.072 18.337 66.762 21.7784 65.6491 21.6569C65.1454 21.6049 64.7693 21.1773 64.8703 20.6652C65.0648 19.6803 66.2105 19.0826 66.9356 18.5452C68.2087 17.6016 69.515 16.71 70.8013 15.7858C70.246 14.7801 69.72 13.7794 69.2228 12.7428C66.9078 13.0291 64.6766 11.7297 64.3158 9.279C63.986 7.03962 65.6472 4.99101 67.8249 4.68582ZM41.3687 50.4927L39.9636 50.7039L40.4501 62.1516L42.2043 62.0138L41.3687 50.4927ZM57.3623 51.3735L51.8818 51.7885L52.3632 61.5852L55.0008 61.474L57.3623 51.3735ZM67.3595 50.5288L65.9146 50.7077C65.9146 50.7077 67.2089 54.1673 67.8717 55.8915C69.1526 53.6668 71.4202 52.1934 73.7274 51.2278C73.1991 51.2127 67.5075 50.9353 67.5075 50.9353L67.3595 50.5288ZM19.7303 46.7398L6.84173 50.5751L15.6587 49.8525L21.9923 49.8414L22.0701 49.3656L23.1031 49.3284C23.1031 49.3284 21.6365 48.5988 20.6237 47.6186C20.3102 47.3541 19.7303 46.7398 19.7303 46.7398ZM50.5337 41.3942C50.5337 41.3942 48.369 42.5624 47.1639 42.913C47.3948 45.0667 47.8223 49.3847 47.8223 49.3847L46.0362 49.6744L50.7832 49.6319L50.5337 41.3942ZM65.0877 35.4751L65.8108 39.1959L62.5148 40.5859L62.774 41.2247L68.2388 40.3571L68.2837 39.3438L65.0877 35.4751ZM68.681 7.39502C67.9656 7.60397 67.4242 8.27537 67.6873 9.04824C67.9477 9.83021 69.1031 10.3027 69.6195 9.50276C70.1036 8.75297 69.7317 7.32463 68.681 7.39502Z" fill="var(--fill-0, #212021)"/>
<path fill-rule="evenodd" clip-rule="evenodd" d="M67.8249 4.68582C69.707 4.44162 71.5504 5.58548 72.1595 7.40889C72.5606 8.57534 72.3547 9.64411 71.8439 10.7259C72.6543 11.6759 73.3598 12.7437 74.0631 13.7755C75.0233 13.0339 78.7738 10.77 79.859 10.345C80.3313 10.1606 80.9394 10.1396 81.2816 10.5796C81.5815 10.9655 81.3907 11.5163 81.1102 11.8583C80.2409 12.8971 75.7684 15.9349 75.7684 15.9349L79.5032 21.6189L84.8835 22.7758L85.2914 22.327L97.6087 20.8134L98.9249 31.713L94.7689 31.9211L96.0752 38.7605L101.329 37.0206C101.329 37.0206 100.01 45.5358 99.3052 49.7833C100.323 51.1131 101.929 52.291 103.678 51.8398C107.594 50.8299 109.843 45.7665 108.888 42.0303C107.757 42.3591 106.552 42.4435 105.52 41.767C107.386 39.5934 107.241 36.5844 106.454 33.9548C109.534 35.5388 112.888 38.1606 112.813 41.9429C112.185 41.4526 111.799 41.3737 111.009 41.4745C113.244 46.5713 111.013 51.527 107.961 55.7632C107.348 56.6133 106.639 57.4142 106.073 58.2943C105.077 59.8421 104.98 61.8432 105.347 63.6025C103.828 62.5606 102.308 62.0763 100.46 62.3957L98.6341 71.9841C93.5042 72.4957 88.2823 72.4713 83.135 72.6961V72.4356C80.8793 72.4418 78.6115 72.4482 76.3849 72.0317C75.5458 71.8748 74.7087 71.5534 73.863 71.4747C73.858 71.5941 73.8258 71.8357 73.8258 71.8357C70.8757 72.0638 67.9265 72.3034 64.9768 72.5378C62.8081 72.7316 60.872 72.7205 58.6782 72.5529C57.375 72.4534 52.4697 72.0741 52.4697 72.0741L52.3984 71.7921L43.0447 72.4599L43.0632 72.0741L30.8892 72.9636L30.8252 71.3273L24.1822 71.54L23.4213 63.9741C22.5738 66.6923 21.8238 69.4413 21.0348 72.1771C17.8078 72.3586 14.5621 72.6024 11.3302 72.6683C9.02392 65.3931 4.65287 50.7607 4.65287 50.7607L5.60994 50.6956C5.38659 40.4305 5.137 30.1596 4.76885 19.8984C9.63602 16.6204 17.6951 14.9962 22.8945 18.0633C25.7114 19.725 27.1846 22.4575 27.9869 25.5646C30.2929 25.6889 31.8645 26.0121 33.9099 27.1389C34.0334 25.2847 34.5547 20.2665 34.5547 20.2665C34.5547 20.2665 37.3428 19.1828 38.7984 18.7863C41.5998 18.0231 45.0951 18.0127 47.9483 18.4391C51.6802 18.9969 53.7316 20.3802 55.9315 23.3708C57.1157 23.1713 58.3206 23.0682 59.5123 22.9229L64.5938 22.2618C65.2458 22.1778 66.457 22.1567 67.014 21.932C67.4256 21.766 68.0985 21.008 68.0985 21.008C69.8782 23.2108 71.6093 25.4532 73.3638 27.6765L75.2251 23.3906L72.072 18.337C72.072 18.337 66.762 21.7784 65.6491 21.6569C65.1454 21.6049 64.7693 21.1773 64.8703 20.6652C65.0648 19.6803 66.2105 19.0826 66.9356 18.5452C68.2087 17.6016 69.515 16.71 70.8013 15.7858C70.246 14.7801 69.72 13.7794 69.2228 12.7428C66.9078 13.0291 64.6766 11.7297 64.3158 9.279C63.986 7.03962 65.6472 4.99101 67.8249 4.68582ZM41.3687 50.4927L39.9636 50.7039L40.4501 62.1516L42.2043 62.0138L41.3687 50.4927ZM57.3623 51.3735L51.8818 51.7885L52.3632 61.5852L55.0008 61.474L57.3623 51.3735ZM67.3595 50.5288L65.9146 50.7077C65.9146 50.7077 67.2089 54.1673 67.8717 55.8915C69.1526 53.6668 71.4202 52.1934 73.7274 51.2278C73.1991 51.2127 67.5075 50.9353 67.5075 50.9353L67.3595 50.5288ZM19.7303 46.7398L6.84173 50.5751L15.6587 49.8525L21.9923 49.8414L22.0701 49.3656L23.1031 49.3284C23.1031 49.3284 21.6365 48.5988 20.6237 47.6186C20.3102 47.3541 19.7303 46.7398 19.7303 46.7398ZM50.5337 41.3942C50.5337 41.3942 48.369 42.5624 47.1639 42.913C47.3948 45.0667 47.8223 49.3847 47.8223 49.3847L46.0362 49.6744L50.7832 49.6319L50.5337 41.3942ZM65.0877 35.4751L65.8108 39.1959L62.5148 40.5859L62.774 41.2247L68.2388 40.3571L68.2837 39.3438L65.0877 35.4751ZM68.681 7.39502C67.9656 7.60397 67.4242 8.27537 67.6873 9.04824C67.9477 9.83021 69.1031 10.3027 69.6195 9.50276C70.1036 8.75297 69.7317 7.32463 68.681 7.39502Z" stroke="var(--stroke-0, white)" stroke-width="9.30569" stroke-linejoin="round" mask="url(#path-1-outside-1_0_135)"/>
</g>
<g id="Union">
<mask id="path-2-outside-2_0_135" maskUnits="userSpaceOnUse" x="9.2017" y="71.3296" width="89" height="10" fill="black">
<rect fill="white" x="9.2017" y="71.3296" width="89" height="10"/>
<path d="M30.2955 74.4448C31.3232 74.4448 32.1566 75.4865 32.1568 76.771C32.1568 78.2884 31.3233 79.0972 30.2955 79.0972C29.2677 79.0971 28.4341 78.2883 28.4341 76.771C28.4343 75.2541 29.2678 74.445 30.2955 74.4448ZM21.9419 74.3472L21.9331 75.355L20.7173 75.3501V76.0405H21.7603V77.0083L20.7456 77.0181V77.8277L21.939 77.8316L21.9351 78.8872L19.4937 78.9009L19.4927 74.3462L21.9419 74.3472ZM38.7788 74.3472L38.7701 75.355L37.5552 75.3501V76.0405H38.5972V77.0083L37.5826 77.0181V77.8277L38.7759 77.8316L38.772 78.8872L36.3306 78.9009V74.3462L38.7788 74.3472ZM24.5455 74.356C25.3573 74.3473 26.4769 74.2067 27.1851 74.6782C27.8586 75.1269 28.0062 76.1594 27.5269 76.8091C27.1126 77.3694 26.4743 77.4614 25.8775 77.4614V78.8833L24.5572 78.897C24.566 77.3833 24.5624 75.8694 24.5455 74.356ZM32.6441 74.356C33.456 74.3473 34.5757 74.2066 35.2837 74.6782C35.9571 75.1269 36.1047 76.1594 35.6255 76.8091C35.2113 77.3695 34.5729 77.4614 33.9761 77.4614V78.8833L32.6558 78.897C32.6647 77.3833 32.6611 75.8694 32.6441 74.356ZM52.6597 78.897L51.3941 78.8882L51.3921 74.357L52.6753 74.3521L52.6597 78.897ZM45.7974 74.353L45.7896 75.3589L44.5562 75.354V76.0425H45.6138V77.0083L44.5835 77.0181V77.8257L45.7955 77.8296L45.7906 78.8823L43.314 78.896L43.313 74.3521L45.7974 74.353ZM86.3492 78.8794L85.0708 78.8941L84.9556 78.3364H84.0191L83.9234 78.8941H82.5826L83.7222 74.354L85.3638 74.3521L86.3492 78.8794ZM95.5757 78.8794L94.2964 78.8941L94.1822 78.3364H93.2456L93.149 78.8941H91.8081L92.9488 74.354L94.5894 74.3521L95.5757 78.8794ZM69.5884 75.438C69.1399 75.4347 68.7367 75.3878 68.3374 75.438L68.3472 76.0532C68.3656 76.0534 69.0523 76.0586 69.4507 76.0532V77.0991H68.4244L68.4195 77.8218L69.5845 77.8306L69.5884 78.8784C68.7645 78.8954 67.938 78.8883 67.1138 78.8921C67.0941 77.3806 67.1078 75.8668 67.106 74.355H69.5894L69.5884 75.438ZM72.7408 75.4361L71.979 75.4429L71.9927 78.8814L70.6705 78.8921L70.6695 75.4429L69.9244 75.439L69.9283 74.356L72.7417 74.355C72.7343 74.7151 72.7402 75.076 72.7408 75.4361ZM91.8941 75.439L91.1343 75.4429L91.1421 78.2495L91.1402 78.8882L89.8306 78.8911C89.8069 77.7432 89.8243 76.5922 89.8228 75.4439L89.0679 75.439L89.0728 74.355H91.899L91.8941 75.439ZM50.7632 74.355L50.7642 75.3091H49.6412V76.0493H50.6822L50.6783 77.0083H49.7212L49.733 78.8804L48.4517 78.8892L48.4527 74.3521L50.7632 74.355ZM88.1587 74.3521C88.1427 75.509 88.1548 76.6685 88.1548 77.8257L89.1675 77.8335L89.1646 78.8843L86.8687 78.8872L86.8667 74.353L88.1587 74.3521ZM58.4283 74.3521C58.5732 75.1272 58.6917 75.9079 58.7837 76.6909C58.9144 75.9095 59.0813 75.1316 59.2349 74.354L60.8619 74.3579C60.8905 75.7697 61.1201 77.4752 61.3335 78.8794C60.8792 78.8918 60.422 78.8826 59.9673 78.8833C59.9451 77.9991 59.9517 77.111 59.8716 76.23C59.6474 77.0915 59.5282 78.0035 59.3355 78.8765C58.9549 78.8858 58.5726 78.8808 58.1919 78.8823C58.119 77.9978 57.9022 77.0792 57.7671 76.1978L57.6363 78.8677C57.1539 78.8893 56.6698 78.8753 56.1871 78.8706C56.4125 77.5104 56.6421 75.5805 56.774 74.353L58.4283 74.3521ZM79.2808 74.3521C79.4257 75.1272 79.5442 75.9079 79.6363 76.6909C79.767 75.9095 79.9338 75.1316 80.0874 74.354L81.7144 74.3579C81.743 75.7697 81.9727 77.4752 82.1861 78.8794C81.7318 78.8918 81.2745 78.8826 80.8199 78.8833C80.7977 77.9991 80.8042 77.111 80.7242 76.23C80.4999 77.0915 80.3807 78.0035 80.188 78.8765C79.8075 78.8858 79.4252 78.8808 79.0445 78.8823C78.9716 77.9978 78.7547 77.0792 78.6197 76.1978L78.4888 78.8677C78.0065 78.8893 77.5223 78.8753 77.0396 78.8706C77.265 77.5104 77.4947 75.5805 77.6265 74.353L79.2808 74.3521ZM64.9869 74.3843C65.4533 74.3558 66.3365 74.5425 66.3365 74.5425L66.3413 75.9175C66.3413 75.9175 65.8883 75.2794 65.5992 75.3111C65.3104 75.3427 65.1882 75.4653 65.188 75.6802C65.2287 76.0803 66.2043 76.3504 66.4097 77.0259C66.5202 77.3894 66.464 77.7917 66.2867 78.1236C66.0841 78.5032 65.793 78.7297 65.3853 78.8501C64.8044 78.9765 63.9562 78.678 63.9322 78.6695L63.9136 77.3364C64.3073 77.6634 64.949 78.0512 65.188 77.6236C65.4662 77.125 64.1368 76.7775 63.9322 76.1616C63.6654 75.358 64.2589 74.429 64.9869 74.3843ZM40.5894 74.355L41.0835 75.7476L41.5035 74.355L42.9058 74.3599L41.6851 76.9634V78.8628L40.3697 78.8775V76.9634L39.2544 74.3521L40.5894 74.355ZM54.8033 77.8267L55.814 77.8296V78.8755L53.4888 78.8716L53.4751 74.357L54.8072 74.3521L54.8033 77.8267ZM14.979 75.3501H14.2144V78.8238H12.9273V75.3657L12.2017 75.3628V74.3462H14.979V75.3501ZM16.6626 75.9673H17.4283V74.3355L18.6499 74.3384V78.8238H17.4283V76.9702H16.6626V78.8238H15.438V74.3355H16.6626V75.9673ZM30.2701 75.5308C29.9491 75.5313 29.6891 76.0696 29.689 76.7329C29.689 77.3964 29.9491 77.9345 30.2701 77.9351C30.5913 77.9351 30.8521 77.3967 30.8521 76.7329C30.852 76.0693 30.5912 75.5308 30.2701 75.5308ZM84.191 77.4243L84.8033 77.4351L84.5347 75.7652H84.4693L84.191 77.4243ZM93.4165 77.4243L94.0288 77.4351L93.7613 75.7652H93.6949L93.4165 77.4243ZM33.8824 76.4292C33.8936 76.4306 34.4945 76.4995 34.4947 75.7847C34.4946 75.3113 33.8943 75.3474 33.8824 75.3482V76.4292ZM25.7847 76.4292C25.7998 76.431 26.3969 76.4971 26.397 75.7847C26.3969 75.3125 25.7994 75.3472 25.7847 75.3482V76.4292Z"/>
</mask>
<path d="M30.2955 74.4448C31.3232 74.4448 32.1566 75.4865 32.1568 76.771C32.1568 78.2884 31.3233 79.0972 30.2955 79.0972C29.2677 79.0971 28.4341 78.2883 28.4341 76.771C28.4343 75.2541 29.2678 74.445 30.2955 74.4448ZM21.9419 74.3472L21.9331 75.355L20.7173 75.3501V76.0405H21.7603V77.0083L20.7456 77.0181V77.8277L21.939 77.8316L21.9351 78.8872L19.4937 78.9009L19.4927 74.3462L21.9419 74.3472ZM38.7788 74.3472L38.7701 75.355L37.5552 75.3501V76.0405H38.5972V77.0083L37.5826 77.0181V77.8277L38.7759 77.8316L38.772 78.8872L36.3306 78.9009V74.3462L38.7788 74.3472ZM24.5455 74.356C25.3573 74.3473 26.4769 74.2067 27.1851 74.6782C27.8586 75.1269 28.0062 76.1594 27.5269 76.8091C27.1126 77.3694 26.4743 77.4614 25.8775 77.4614V78.8833L24.5572 78.897C24.566 77.3833 24.5624 75.8694 24.5455 74.356ZM32.6441 74.356C33.456 74.3473 34.5757 74.2066 35.2837 74.6782C35.9571 75.1269 36.1047 76.1594 35.6255 76.8091C35.2113 77.3695 34.5729 77.4614 33.9761 77.4614V78.8833L32.6558 78.897C32.6647 77.3833 32.6611 75.8694 32.6441 74.356ZM52.6597 78.897L51.3941 78.8882L51.3921 74.357L52.6753 74.3521L52.6597 78.897ZM45.7974 74.353L45.7896 75.3589L44.5562 75.354V76.0425H45.6138V77.0083L44.5835 77.0181V77.8257L45.7955 77.8296L45.7906 78.8823L43.314 78.896L43.313 74.3521L45.7974 74.353ZM86.3492 78.8794L85.0708 78.8941L84.9556 78.3364H84.0191L83.9234 78.8941H82.5826L83.7222 74.354L85.3638 74.3521L86.3492 78.8794ZM95.5757 78.8794L94.2964 78.8941L94.1822 78.3364H93.2456L93.149 78.8941H91.8081L92.9488 74.354L94.5894 74.3521L95.5757 78.8794ZM69.5884 75.438C69.1399 75.4347 68.7367 75.3878 68.3374 75.438L68.3472 76.0532C68.3656 76.0534 69.0523 76.0586 69.4507 76.0532V77.0991H68.4244L68.4195 77.8218L69.5845 77.8306L69.5884 78.8784C68.7645 78.8954 67.938 78.8883 67.1138 78.8921C67.0941 77.3806 67.1078 75.8668 67.106 74.355H69.5894L69.5884 75.438ZM72.7408 75.4361L71.979 75.4429L71.9927 78.8814L70.6705 78.8921L70.6695 75.4429L69.9244 75.439L69.9283 74.356L72.7417 74.355C72.7343 74.7151 72.7402 75.076 72.7408 75.4361ZM91.8941 75.439L91.1343 75.4429L91.1421 78.2495L91.1402 78.8882L89.8306 78.8911C89.8069 77.7432 89.8243 76.5922 89.8228 75.4439L89.0679 75.439L89.0728 74.355H91.899L91.8941 75.439ZM50.7632 74.355L50.7642 75.3091H49.6412V76.0493H50.6822L50.6783 77.0083H49.7212L49.733 78.8804L48.4517 78.8892L48.4527 74.3521L50.7632 74.355ZM88.1587 74.3521C88.1427 75.509 88.1548 76.6685 88.1548 77.8257L89.1675 77.8335L89.1646 78.8843L86.8687 78.8872L86.8667 74.353L88.1587 74.3521ZM58.4283 74.3521C58.5732 75.1272 58.6917 75.9079 58.7837 76.6909C58.9144 75.9095 59.0813 75.1316 59.2349 74.354L60.8619 74.3579C60.8905 75.7697 61.1201 77.4752 61.3335 78.8794C60.8792 78.8918 60.422 78.8826 59.9673 78.8833C59.9451 77.9991 59.9517 77.111 59.8716 76.23C59.6474 77.0915 59.5282 78.0035 59.3355 78.8765C58.9549 78.8858 58.5726 78.8808 58.1919 78.8823C58.119 77.9978 57.9022 77.0792 57.7671 76.1978L57.6363 78.8677C57.1539 78.8893 56.6698 78.8753 56.1871 78.8706C56.4125 77.5104 56.6421 75.5805 56.774 74.353L58.4283 74.3521ZM79.2808 74.3521C79.4257 75.1272 79.5442 75.9079 79.6363 76.6909C79.767 75.9095 79.9338 75.1316 80.0874 74.354L81.7144 74.3579C81.743 75.7697 81.9727 77.4752 82.1861 78.8794C81.7318 78.8918 81.2745 78.8826 80.8199 78.8833C80.7977 77.9991 80.8042 77.111 80.7242 76.23C80.4999 77.0915 80.3807 78.0035 80.188 78.8765C79.8075 78.8858 79.4252 78.8808 79.0445 78.8823C78.9716 77.9978 78.7547 77.0792 78.6197 76.1978L78.4888 78.8677C78.0065 78.8893 77.5223 78.8753 77.0396 78.8706C77.265 77.5104 77.4947 75.5805 77.6265 74.353L79.2808 74.3521ZM64.9869 74.3843C65.4533 74.3558 66.3365 74.5425 66.3365 74.5425L66.3413 75.9175C66.3413 75.9175 65.8883 75.2794 65.5992 75.3111C65.3104 75.3427 65.1882 75.4653 65.188 75.6802C65.2287 76.0803 66.2043 76.3504 66.4097 77.0259C66.5202 77.3894 66.464 77.7917 66.2867 78.1236C66.0841 78.5032 65.793 78.7297 65.3853 78.8501C64.8044 78.9765 63.9562 78.678 63.9322 78.6695L63.9136 77.3364C64.3073 77.6634 64.949 78.0512 65.188 77.6236C65.4662 77.125 64.1368 76.7775 63.9322 76.1616C63.6654 75.358 64.2589 74.429 64.9869 74.3843ZM40.5894 74.355L41.0835 75.7476L41.5035 74.355L42.9058 74.3599L41.6851 76.9634V78.8628L40.3697 78.8775V76.9634L39.2544 74.3521L40.5894 74.355ZM54.8033 77.8267L55.814 77.8296V78.8755L53.4888 78.8716L53.4751 74.357L54.8072 74.3521L54.8033 77.8267ZM14.979 75.3501H14.2144V78.8238H12.9273V75.3657L12.2017 75.3628V74.3462H14.979V75.3501ZM16.6626 75.9673H17.4283V74.3355L18.6499 74.3384V78.8238H17.4283V76.9702H16.6626V78.8238H15.438V74.3355H16.6626V75.9673ZM30.2701 75.5308C29.9491 75.5313 29.6891 76.0696 29.689 76.7329C29.689 77.3964 29.9491 77.9345 30.2701 77.9351C30.5913 77.9351 30.8521 77.3967 30.8521 76.7329C30.852 76.0693 30.5912 75.5308 30.2701 75.5308ZM84.191 77.4243L84.8033 77.4351L84.5347 75.7652H84.4693L84.191 77.4243ZM93.4165 77.4243L94.0288 77.4351L93.7613 75.7652H93.6949L93.4165 77.4243ZM33.8824 76.4292C33.8936 76.4306 34.4945 76.4995 34.4947 75.7847C34.4946 75.3113 33.8943 75.3474 33.8824 75.3482V76.4292ZM25.7847 76.4292C25.7998 76.431 26.3969 76.4971 26.397 75.7847C26.3969 75.3125 25.7994 75.3472 25.7847 75.3482V76.4292Z" fill="var(--fill-0, #212021)"/>
<path d="M30.2955 74.4448V72.3769H30.2952L30.2955 74.4448ZM32.1568 76.771H34.2247V76.7707L32.1568 76.771ZM30.2955 79.0972L30.2952 81.1651H30.2955V79.0972ZM28.4341 76.771L26.3662 76.7708V76.771H28.4341ZM21.9419 74.3472L24.0098 74.3652C24.0146 73.8138 23.799 73.2833 23.4108 72.8916C23.0227 72.4999 22.4942 72.2795 21.9428 72.2793L21.9419 74.3472ZM21.9331 75.355L21.9248 77.4229C23.0631 77.4275 23.9911 76.5113 24.001 75.373L21.9331 75.355ZM20.7173 75.3501L20.7256 73.2822C20.1757 73.28 19.6476 73.4969 19.258 73.8849C18.8684 74.273 18.6494 74.8002 18.6494 75.3501H20.7173ZM20.7173 76.0405H18.6494C18.6494 77.1826 19.5752 78.1085 20.7173 78.1085V76.0405ZM21.7603 76.0405H23.8282C23.8282 74.8985 22.9024 73.9726 21.7603 73.9726V76.0405ZM21.7603 77.0083L21.7802 79.0762C22.9145 79.0652 23.8282 78.1426 23.8282 77.0083H21.7603ZM20.7456 77.0181L20.7257 74.9503C19.5915 74.9612 18.6777 75.8838 18.6777 77.0181H20.7456ZM20.7456 77.8277H18.6777C18.6777 78.9671 19.5994 79.8918 20.7389 79.8956L20.7456 77.8277ZM21.939 77.8316L24.0069 77.8392C24.009 77.2906 23.7929 76.7637 23.4063 76.3744C23.0198 75.9852 22.4944 75.7654 21.9458 75.7636L21.939 77.8316ZM21.9351 78.8872L21.9467 80.9551C23.0812 80.9488 23.9988 80.0295 24.003 78.8949L21.9351 78.8872ZM19.4937 78.9009L17.4258 78.9013C17.4259 79.4517 17.6454 79.9794 18.0357 80.3674C18.426 80.7554 18.9549 80.9719 19.5053 80.9688L19.4937 78.9009ZM19.4927 74.3462L19.4935 72.2783C18.9449 72.2781 18.4186 72.4959 18.0306 72.8838C17.6426 73.2718 17.4247 73.798 17.4248 74.3467L19.4927 74.3462ZM38.7788 74.3472L40.8467 74.3652C40.8515 73.8138 40.6359 73.2833 40.2477 72.8916C39.8596 72.4999 39.3311 72.2795 38.7797 72.2793L38.7788 74.3472ZM38.7701 75.355L38.7617 77.4229C39.9 77.4275 40.828 76.5113 40.8379 75.373L38.7701 75.355ZM37.5552 75.3501L37.5635 73.2822C37.0136 73.28 36.4855 73.4969 36.0959 73.8849C35.7063 74.273 35.4873 74.8002 35.4873 75.3501H37.5552ZM37.5552 76.0405H35.4873C35.4873 77.1826 36.4131 78.1085 37.5552 78.1085V76.0405ZM38.5972 76.0405H40.6651C40.6651 74.8985 39.7393 73.9726 38.5972 73.9726V76.0405ZM38.5972 77.0083L38.6171 79.0762C39.7514 79.0652 40.6651 78.1426 40.6651 77.0083H38.5972ZM37.5826 77.0181L37.5627 74.9503C36.4284 74.9612 35.5146 75.8838 35.5146 77.0181H37.5826ZM37.5826 77.8277H35.5146C35.5146 78.9671 36.4364 79.8918 37.5758 79.8956L37.5826 77.8277ZM38.7759 77.8316L40.8438 77.8392C40.8459 77.2906 40.6298 76.7637 40.2433 76.3744C39.8567 75.9852 39.3313 75.7654 38.7827 75.7636L38.7759 77.8316ZM38.772 78.8872L38.7836 80.9551C39.9182 80.9488 40.8357 80.0295 40.8399 78.8949L38.772 78.8872ZM36.3306 78.9009H34.2627C34.2627 79.4514 34.4821 79.9791 34.8725 80.3672C35.2628 80.7554 35.7917 80.9719 36.3422 80.9688L36.3306 78.9009ZM36.3306 74.3462L36.3314 72.2783C35.7828 72.2781 35.2566 72.4958 34.8687 72.8837C34.4807 73.2715 34.2627 73.7976 34.2627 74.3462H36.3306ZM24.5455 74.356L24.5234 72.2882C23.9748 72.294 23.451 72.5176 23.0673 72.9098C22.6836 73.302 22.4715 73.8306 22.4776 74.3792L24.5455 74.356ZM27.1851 74.6782L28.3316 72.9572L28.3312 72.957L27.1851 74.6782ZM27.5269 76.8091L29.1897 78.0386L29.191 78.0368L27.5269 76.8091ZM25.8775 77.4614L25.8774 75.3935C24.7354 75.3935 23.8096 76.3194 23.8096 77.4614H25.8775ZM25.8775 78.8833L25.8989 80.9511C27.0326 80.9394 27.9454 80.0171 27.9454 78.8833H25.8775ZM24.5572 78.897L22.4893 78.8849C22.486 79.4391 22.7054 79.9715 23.0982 80.3625C23.491 80.7536 24.0243 80.9706 24.5786 80.9648L24.5572 78.897ZM32.6441 74.356L32.622 72.2882C32.0734 72.294 31.5496 72.5177 31.1659 72.9098C30.7822 73.302 30.5701 73.8306 30.5763 74.3792L32.6441 74.356ZM35.2837 74.6782L36.4303 72.9573L36.4302 72.9572L35.2837 74.6782ZM35.6255 76.8091L37.2885 78.0383L37.2898 78.0366L35.6255 76.8091ZM33.9761 77.4614L33.9759 75.3935C32.8339 75.3936 31.9082 76.3194 31.9082 77.4614H33.9761ZM33.9761 78.8833L33.9975 80.9511C35.1312 80.9394 36.044 80.0171 36.044 78.8833H33.9761ZM32.6558 78.897L30.5879 78.8849C30.5847 79.4391 30.804 79.9715 31.1968 80.3625C31.5896 80.7536 32.123 80.9706 32.6772 80.9648L32.6558 78.897ZM52.6597 78.897L52.6453 80.9649C53.195 80.9687 53.7236 80.7535 54.1143 80.3668C54.5051 79.9801 54.7257 79.4538 54.7276 78.9041L52.6597 78.897ZM51.3941 78.8882L49.3262 78.8891C49.3266 80.0252 50.2436 80.9482 51.3797 80.9561L51.3941 78.8882ZM51.3921 74.357L51.3843 72.289C50.2449 72.2934 49.3237 73.2185 49.3242 74.3578L51.3921 74.357ZM52.6753 74.3521L54.7432 74.3592C54.7451 73.8081 54.527 73.2791 54.1373 72.8896C53.7476 72.5 53.2185 72.2821 52.6675 72.2842L52.6753 74.3521ZM45.7974 74.353L47.8653 74.3691C47.8696 73.818 47.6537 73.288 47.2656 72.8968C46.8775 72.5055 46.3493 72.2853 45.7982 72.2851L45.7974 74.353ZM45.7896 75.3589L45.7814 77.4268C46.9204 77.4313 47.8486 76.5139 47.8575 75.375L45.7896 75.3589ZM44.5562 75.354L44.5644 73.2861C44.0145 73.2839 43.4864 73.5008 43.0968 73.8889C42.7073 74.2769 42.4883 74.8042 42.4883 75.354H44.5562ZM44.5562 76.0425H42.4883C42.4883 77.1846 43.4141 78.1104 44.5562 78.1104V76.0425ZM45.6138 76.0425H47.6817C47.6817 74.9004 46.7559 73.9746 45.6138 73.9746V76.0425ZM45.6138 77.0083L45.6334 79.0762C46.7678 79.0654 47.6817 78.1428 47.6817 77.0083H45.6138ZM44.5835 77.0181L44.5639 74.9503C43.4295 74.961 42.5156 75.8836 42.5156 77.0181H44.5835ZM44.5835 77.8257H42.5156C42.5156 78.9652 43.4374 79.89 44.5769 79.8936L44.5835 77.8257ZM45.7955 77.8296L47.8634 77.8392C47.8659 77.2903 47.6501 76.7628 47.2634 76.3731C46.8768 75.9834 46.3511 75.7635 45.8021 75.7617L45.7955 77.8296ZM45.7906 78.8823L45.802 80.9502C46.9359 80.944 47.8532 80.0258 47.8585 78.8919L45.7906 78.8823ZM43.314 78.896L41.2461 78.8965C41.2462 79.4468 41.4657 79.9744 41.856 80.3625C42.2462 80.7505 42.7751 80.967 43.3254 80.9639L43.314 78.896ZM43.313 74.3521L43.3138 72.2841C42.7652 72.2839 42.2389 72.5018 41.8509 72.8897C41.4629 73.2776 41.245 73.8039 41.2451 74.3525L43.313 74.3521ZM86.3492 78.8794L86.3729 80.9472C86.9943 80.9401 87.5796 80.6538 87.9668 80.1676C88.354 79.6815 88.502 79.0469 88.3698 78.4396L86.3492 78.8794ZM85.0708 78.8941L83.0457 79.3126C83.246 80.2818 84.1049 80.9732 85.0945 80.9619L85.0708 78.8941ZM84.9556 78.3364L86.9807 77.9179C86.7823 76.9575 85.9364 76.2685 84.9556 76.2685V78.3364ZM84.0191 78.3364V76.2685C83.012 76.2685 82.1513 76.994 81.981 77.9866L84.0191 78.3364ZM83.9234 78.8941V80.962C84.9305 80.962 85.7912 80.2365 85.9615 79.2439L83.9234 78.8941ZM82.5826 78.8941L80.5769 78.3906C80.4217 79.0086 80.5601 79.6635 80.952 80.1659C81.3439 80.6683 81.9454 80.962 82.5826 80.962V78.8941ZM83.7222 74.354L83.7198 72.2861C82.7725 72.2872 81.9471 72.9318 81.7165 73.8506L83.7222 74.354ZM85.3638 74.3521L87.3844 73.9123C87.1774 72.961 86.3349 72.283 85.3614 72.2841L85.3638 74.3521ZM95.5757 78.8794L95.5994 80.9472C96.2209 80.9401 96.8063 80.6538 97.1935 80.1675C97.5807 79.6812 97.7286 79.0466 97.5963 78.4392L95.5757 78.8794ZM94.2964 78.8941L92.2706 79.3092C92.4695 80.28 93.3292 80.9732 94.3201 80.9619L94.2964 78.8941ZM94.1822 78.3364L96.208 77.9213C96.0109 76.9593 95.1643 76.2685 94.1822 76.2685V78.3364ZM93.2456 78.3364V76.2685C92.2399 76.2685 91.3799 76.9922 91.2081 77.9832L93.2456 78.3364ZM93.149 78.8941V80.962C94.1547 80.962 95.0147 80.2383 95.1865 79.2473L93.149 78.8941ZM91.8081 78.8941L89.8025 78.3902C89.6473 79.0082 89.7856 79.6633 90.1775 80.1657C90.5693 80.6682 91.1709 80.962 91.8081 80.962V78.8941ZM92.9488 74.354L92.9463 72.2861C91.9992 72.2872 91.1739 72.9316 90.9432 73.8501L92.9488 74.354ZM94.5894 74.3521L96.6099 73.9119C96.4027 72.9608 95.5603 72.283 94.5869 72.2841L94.5894 74.3521ZM69.5884 75.438L69.5731 77.5059C70.1239 77.51 70.6535 77.2942 71.0446 76.9063C71.4357 76.5185 71.6559 75.9907 71.6563 75.4399L69.5884 75.438ZM68.3374 75.438L68.0792 73.3863C67.0327 73.518 66.253 74.4162 66.2698 75.4708L68.3374 75.438ZM68.3472 76.0532L66.2795 76.0861C66.2974 77.2091 67.2083 78.1125 68.3314 78.1211L68.3472 76.0532ZM69.4507 76.0532H71.5187C71.5187 75.5 71.297 74.9698 70.9032 74.5812C70.5093 74.1927 69.9763 73.9781 69.4231 73.9855L69.4507 76.0532ZM69.4507 77.0991V79.1671C70.5928 79.1671 71.5187 78.2412 71.5187 77.0991H69.4507ZM68.4244 77.0991V75.0312C67.2877 75.0312 66.3642 75.9486 66.3565 77.0852L68.4244 77.0991ZM68.4195 77.8218L66.3516 77.8078C66.3439 78.9493 67.2625 79.8811 68.4039 79.8897L68.4195 77.8218ZM69.5845 77.8306L71.6524 77.8229C71.6482 76.6899 70.7331 75.7713 69.6001 75.7627L69.5845 77.8306ZM69.5884 78.8784L69.631 80.9459C70.7593 80.9227 71.6605 79.9992 71.6563 78.8707L69.5884 78.8784ZM67.1138 78.8921L65.0461 78.9191C65.0609 80.0544 65.9882 80.9653 67.1235 80.96L67.1138 78.8921ZM67.106 74.355V72.2871C66.5571 72.2871 66.0308 72.5053 65.6429 72.8936C65.255 73.2819 65.0374 73.8085 65.0381 74.3574L67.106 74.355ZM69.5894 74.355L71.6573 74.3569C71.6578 73.8081 71.4402 73.2816 71.0523 72.8934C70.6644 72.5052 70.1382 72.2871 69.5894 72.2871V74.355ZM72.7408 75.4361L72.7593 77.5039C73.8955 77.4937 74.8106 76.5688 74.8087 75.4325L72.7408 75.4361ZM71.979 75.4429L71.9605 73.375C70.8225 73.3853 69.9066 74.3131 69.9111 75.4511L71.979 75.4429ZM71.9927 78.8814L72.0095 80.9492C73.1482 80.94 74.0652 80.0119 74.0606 78.8731L71.9927 78.8814ZM70.6705 78.8921L68.6025 78.8927C68.6027 79.444 68.8229 79.9723 69.2144 80.3605C69.6058 80.7487 70.136 80.9645 70.6873 80.96L70.6705 78.8921ZM70.6695 75.4429L72.7374 75.4423C72.7371 74.3047 71.8179 73.381 70.6803 73.375L70.6695 75.4429ZM69.9244 75.439L67.8564 75.4315C67.8523 76.5723 68.7728 77.5009 69.9135 77.5069L69.9244 75.439ZM69.9283 74.356L69.9275 72.288C68.7886 72.2884 67.8645 73.2096 67.8603 74.3485L69.9283 74.356ZM72.7417 74.355L74.8092 74.398C74.8208 73.8421 74.608 73.3049 74.2189 72.9078C73.8297 72.5106 73.297 72.2869 72.741 72.2871L72.7417 74.355ZM91.8941 75.439L91.9047 77.5069C93.039 77.5011 93.9569 76.5826 93.962 75.4483L91.8941 75.439ZM91.1343 75.4429L91.1237 73.375C89.9835 73.3809 89.0632 74.3085 89.0664 75.4486L91.1343 75.4429ZM91.1421 78.2495L93.2101 78.2559L93.2101 78.2438L91.1421 78.2495ZM91.1402 78.8882L91.1448 80.9561C92.2826 80.9536 93.2046 80.0323 93.2081 78.8945L91.1402 78.8882ZM89.8306 78.8911L87.7631 78.9339C87.7864 80.0609 88.708 80.9616 89.8352 80.9591L89.8306 78.8911ZM89.8228 75.4439L91.8907 75.4411C91.8892 74.3053 90.9719 73.3833 89.8362 73.376L89.8228 75.4439ZM89.0679 75.439L87 75.4297C86.9949 76.5702 87.9141 77.4995 89.0545 77.5069L89.0679 75.439ZM89.0728 74.355V72.2871C87.9343 72.2871 87.01 73.2072 87.0049 74.3457L89.0728 74.355ZM91.899 74.355L93.9669 74.3643C93.9694 73.8143 93.7526 73.2859 93.3645 72.8961C92.9764 72.5062 92.449 72.2871 91.899 72.2871V74.355ZM50.7632 74.355L52.8312 74.3529C52.83 73.2127 51.9061 72.2885 50.7658 72.2871L50.7632 74.355ZM50.7642 75.3091V77.377C51.313 77.377 51.8393 77.1589 52.2272 76.7706C52.6151 76.3823 52.8327 75.8558 52.8321 75.307L50.7642 75.3091ZM49.6412 75.3091V73.2412C48.4991 73.2412 47.5732 74.167 47.5732 75.3091H49.6412ZM49.6412 76.0493H47.5732C47.5732 77.1914 48.4991 78.1173 49.6412 78.1173V76.0493ZM50.6822 76.0493L52.7501 76.0578C52.7523 75.5079 52.5354 74.9797 52.1474 74.5901C51.7593 74.2004 51.2321 73.9814 50.6822 73.9814V76.0493ZM50.6783 77.0083V79.0763C51.8171 79.0763 52.7415 78.1555 52.7462 77.0167L50.6783 77.0083ZM49.7212 77.0083V74.9404C49.1705 74.9404 48.6426 75.16 48.2544 75.5507C47.8662 75.9413 47.6499 76.4706 47.6533 77.0213L49.7212 77.0083ZM49.733 78.8804L49.7471 80.9483C50.8887 80.9404 51.808 80.009 51.8008 78.8674L49.733 78.8804ZM48.4517 78.8892L46.3838 78.8887C46.3836 79.4397 46.6034 79.968 46.9943 80.3563C47.3852 80.7446 47.9149 80.9608 48.4659 80.9571L48.4517 78.8892ZM48.4527 74.3521L48.4553 72.2841C47.9065 72.2834 47.3799 72.501 46.9915 72.8887C46.6031 73.2765 46.3849 73.8028 46.3847 74.3516L48.4527 74.3521ZM88.1587 74.3521L90.2265 74.3808C90.2342 73.8271 90.0195 73.2935 89.6305 72.8995C89.2416 72.5054 88.7109 72.2837 88.1572 72.2841L88.1587 74.3521ZM88.1548 77.8257H86.0869C86.0869 78.9616 87.003 79.8848 88.1389 79.8936L88.1548 77.8257ZM89.1675 77.8335L91.2354 77.8393C91.2386 76.7012 90.3216 75.7744 89.1835 75.7656L89.1675 77.8335ZM89.1646 78.8843L89.1672 80.9522C90.306 80.9508 91.2293 80.0289 91.2325 78.8901L89.1646 78.8843ZM86.8687 78.8872L84.8008 78.8881C84.801 79.4369 85.0193 79.963 85.4077 80.3507C85.7961 80.7384 86.3226 80.9559 86.8713 80.9552L86.8687 78.8872ZM86.8667 74.353L86.8652 72.2851C85.7234 72.286 84.7983 73.2121 84.7988 74.3539L86.8667 74.353ZM58.4283 74.3521L60.461 73.972C60.2779 72.993 59.423 72.2836 58.427 72.2841L58.4283 74.3521ZM58.7837 76.6909L56.7299 76.9324C56.8502 77.9549 57.7042 78.7332 58.7334 78.7583C59.7626 78.7833 60.6535 78.0475 60.8233 77.032L58.7837 76.6909ZM59.2349 74.354L59.2399 72.2861C58.2505 72.2837 57.398 72.9825 57.2062 73.9532L59.2349 74.354ZM60.8619 74.3579L62.9294 74.316C62.9066 73.1924 61.9906 72.2927 60.8668 72.29L60.8619 74.3579ZM61.3335 78.8794L61.3897 80.9466C61.9824 80.9305 62.5397 80.6607 62.92 80.2059C63.3003 79.7511 63.4671 79.1549 63.378 78.5687L61.3335 78.8794ZM59.9673 78.8833L57.9 78.9352C57.9282 80.0581 58.8476 80.9532 59.9708 80.9513L59.9673 78.8833ZM59.8716 76.23L61.9311 76.0429C61.8401 75.042 61.0427 74.2514 60.0411 74.169C59.0394 74.0867 58.1236 74.7364 57.8704 75.7091L59.8716 76.23ZM59.3355 78.8765L59.3858 80.9438C60.3371 80.9206 61.1498 80.2513 61.3548 79.3221L59.3355 78.8765ZM58.1919 78.8823L56.131 79.0522C56.2197 80.128 57.1209 80.9546 58.2003 80.9503L58.1919 78.8823ZM57.7671 76.1978L59.8112 75.8846C59.6504 74.8351 58.7209 74.0779 57.6606 74.1326C56.6003 74.1873 55.7537 75.0361 55.7017 76.0965L57.7671 76.1978ZM57.6363 78.8677L57.7288 80.9336C58.7949 80.8858 59.6495 80.0347 59.7017 78.9689L57.6363 78.8677ZM56.1871 78.8706L54.147 78.5325C54.0482 79.1284 54.2149 79.7378 54.6034 80.2004C54.9918 80.663 55.5632 80.9327 56.1672 80.9385L56.1871 78.8706ZM56.774 74.353L56.7727 72.2851C55.7166 72.2857 54.8306 73.0821 54.7179 74.1322L56.774 74.353ZM79.2808 74.3521L81.3135 73.972C81.1305 72.993 80.2756 72.2836 79.2796 72.2841L79.2808 74.3521ZM79.6363 76.6909L77.5825 76.9324C77.7027 77.9549 78.5567 78.7332 79.586 78.7583C80.6152 78.7833 81.5061 78.0475 81.6759 77.032L79.6363 76.6909ZM80.0874 74.354L80.0924 72.2861C79.103 72.2837 78.2505 72.9825 78.0587 73.9532L80.0874 74.354ZM81.7144 74.3579L83.7819 74.316C83.7591 73.1924 82.8432 72.2927 81.7194 72.29L81.7144 74.3579ZM82.1861 78.8794L82.2423 80.9466C82.8349 80.9305 83.3922 80.6607 83.7725 80.2059C84.1528 79.7511 84.3196 79.1549 84.2305 78.5687L82.1861 78.8794ZM80.8199 78.8833L78.7526 78.9352C78.7808 80.0581 79.7001 80.9532 80.8234 80.9513L80.8199 78.8833ZM80.7242 76.23L82.7836 76.0429C82.6927 75.042 81.8953 74.2514 80.8936 74.169C79.8919 74.0867 78.9761 74.7364 78.7229 75.7091L80.7242 76.23ZM80.188 78.8765L80.2384 80.9438C81.1896 80.9206 82.0023 80.2513 82.2074 79.3221L80.188 78.8765ZM79.0445 78.8823L76.9835 79.0522C77.0722 80.128 77.9734 80.9546 79.0529 80.9503L79.0445 78.8823ZM78.6197 76.1978L80.6637 75.8846C80.5029 74.8351 79.5735 74.0779 78.5131 74.1326C77.4528 74.1873 76.6062 75.0361 76.5542 76.0965L78.6197 76.1978ZM78.4888 78.8677L78.5814 80.9336C79.6474 80.8858 80.502 80.0347 80.5543 78.9689L78.4888 78.8677ZM77.0396 78.8706L74.9995 78.5325C74.9007 79.1284 75.0675 79.7378 75.4559 80.2004C75.8444 80.663 76.4157 80.9327 77.0197 80.9385L77.0396 78.8706ZM77.6265 74.353L77.6253 72.2851C76.5691 72.2857 75.6832 73.0821 75.5704 74.1322L77.6265 74.353ZM64.9869 74.3843L64.8608 72.3202L64.8601 72.3203L64.9869 74.3843ZM66.3365 74.5425L68.4044 74.5352C68.4009 73.5607 67.7176 72.7208 66.7641 72.5193L66.3365 74.5425ZM66.3413 75.9175L64.6552 77.1147C65.1771 77.8497 66.1149 78.1619 66.9732 77.8866C67.8314 77.6112 68.4125 76.8115 68.4093 75.9102L66.3413 75.9175ZM65.5992 75.3111L65.3741 73.2554L65.3737 73.2555L65.5992 75.3111ZM65.188 75.6802L63.1201 75.679C63.1201 75.7492 63.1236 75.8193 63.1307 75.8891L65.188 75.6802ZM66.4097 77.0259L68.3883 76.4246L68.3882 76.4243L66.4097 77.0259ZM66.2867 78.1236L64.463 77.1486L64.4622 77.1501L66.2867 78.1236ZM65.3853 78.8501L65.8247 80.8708C65.8739 80.8601 65.9227 80.8476 65.971 80.8334L65.3853 78.8501ZM63.9322 78.6695L61.8644 78.6982C61.8765 79.5633 62.4258 80.3294 63.2412 80.6185L63.9322 78.6695ZM63.9136 77.3364L65.2349 75.7457C64.6141 75.2301 63.7501 75.1227 63.022 75.4706C62.2938 75.8186 61.8347 76.5583 61.8459 77.3652L63.9136 77.3364ZM65.188 77.6236L66.9931 78.6326L66.9938 78.6313L65.188 77.6236ZM63.9322 76.1616L61.9696 76.8133L61.9697 76.8136L63.9322 76.1616ZM40.5894 74.355L42.5383 73.6635C42.2461 72.84 41.4678 72.289 40.5939 72.2871L40.5894 74.355ZM41.0835 75.7476L39.1347 76.4391C39.4335 77.2814 40.2398 77.8364 41.1333 77.8149C42.0268 77.7934 42.8054 77.2003 43.0634 76.3446L41.0835 75.7476ZM41.5035 74.355L41.5107 72.2871C40.5959 72.2839 39.7877 72.8821 39.5236 73.758L41.5035 74.355ZM42.9058 74.3599L44.7781 75.2378C45.0779 74.5984 45.0307 73.8503 44.653 73.2537C44.2752 72.657 43.6191 72.2944 42.913 72.292L42.9058 74.3599ZM41.6851 76.9634L39.8128 76.0855C39.6839 76.3603 39.6172 76.66 39.6172 76.9634H41.6851ZM41.6851 78.8628L41.7081 80.9306C42.8412 80.918 43.753 79.9959 43.753 78.8628H41.6851ZM40.3697 78.8775H38.3017C38.3017 79.4299 38.5228 79.9594 38.9156 80.3478C39.3084 80.7363 39.8403 80.9514 40.3927 80.9453L40.3697 78.8775ZM40.3697 76.9634H42.4376C42.4376 76.6842 42.3811 76.4079 42.2714 76.1512L40.3697 76.9634ZM39.2544 74.3521L39.259 72.2841C38.5635 72.2826 37.9139 72.6308 37.53 73.2107C37.1462 73.7906 37.0795 74.5247 37.3527 75.1643L39.2544 74.3521ZM54.8033 77.8267L52.7353 77.8244C52.7341 78.965 53.6566 79.8913 54.7973 79.8946L54.8033 77.8267ZM55.814 77.8296H57.8819C57.8819 76.6899 56.9597 75.765 55.82 75.7617L55.814 77.8296ZM55.814 78.8755L55.8105 80.9434C56.3596 80.9444 56.8865 80.7269 57.275 80.339C57.6636 79.9511 57.8819 79.4246 57.8819 78.8755H55.814ZM53.4888 78.8716L51.4209 78.8779C51.4243 80.0161 52.3471 80.9376 53.4853 80.9395L53.4888 78.8716ZM53.4751 74.357L53.4676 72.289C52.326 72.2932 51.4038 73.2217 51.4072 74.3632L53.4751 74.357ZM54.8072 74.3521L56.8751 74.3544C56.8757 73.8042 56.6571 73.2765 56.2676 72.888C55.878 72.4994 55.3498 72.2821 54.7996 72.2842L54.8072 74.3521ZM14.979 75.3501V77.4181C16.1211 77.4181 17.047 76.4922 17.047 75.3501H14.979ZM14.2144 75.3501V73.2822C13.0723 73.2822 12.1465 74.208 12.1465 75.3501H14.2144ZM14.2144 78.8238V80.8917C15.3565 80.8917 16.2823 79.9658 16.2823 78.8238H14.2144ZM12.9273 78.8238H10.8594C10.8594 79.9658 11.7852 80.8917 12.9273 80.8917V78.8238ZM12.9273 75.3657H14.9952C14.9952 74.2269 14.0745 73.3024 12.9356 73.2978L12.9273 75.3657ZM12.2017 75.3628H10.1338C10.1338 76.5016 11.0545 77.4261 12.1934 77.4307L12.2017 75.3628ZM12.2017 74.3462V72.2783C11.0596 72.2783 10.1338 73.2041 10.1338 74.3462H12.2017ZM14.979 74.3462H17.047C17.047 73.2041 16.1211 72.2783 14.979 72.2783V74.3462ZM16.6626 75.9673H14.5947C14.5947 77.1094 15.5206 78.0352 16.6626 78.0352V75.9673ZM17.4283 75.9673V78.0352C18.5703 78.0352 19.4962 77.1094 19.4962 75.9673H17.4283ZM17.4283 74.3355L17.4332 72.2675C16.8839 72.2662 16.3567 72.4835 15.9678 72.8715C15.5789 73.2594 15.3603 73.7862 15.3603 74.3355H17.4283ZM18.6499 74.3384H20.7179C20.7179 73.1983 19.795 72.2732 18.6549 72.2705L18.6499 74.3384ZM18.6499 78.8238V80.8917C19.792 80.8917 20.7179 79.9658 20.7179 78.8238H18.6499ZM17.4283 78.8238H15.3603C15.3603 79.9658 16.2862 80.8917 17.4283 80.8917V78.8238ZM17.4283 76.9702H19.4962C19.4962 75.8282 18.5703 74.9023 17.4283 74.9023V76.9702ZM16.6626 76.9702V74.9023C15.5206 74.9023 14.5947 75.8282 14.5947 76.9702H16.6626ZM16.6626 78.8238V80.8917C17.8047 80.8917 18.7306 79.9658 18.7306 78.8238H16.6626ZM15.438 78.8238H13.3701C13.3701 79.9658 14.2959 80.8917 15.438 80.8917V78.8238ZM15.438 74.3355V72.2675C14.2959 72.2675 13.3701 73.1934 13.3701 74.3355H15.438ZM16.6626 74.3355H18.7306C18.7306 73.1934 17.8047 72.2675 16.6626 72.2675V74.3355ZM30.2701 75.5308V73.4629L30.2666 73.4629L30.2701 75.5308ZM29.689 76.7329L27.6211 76.7326V76.7329H29.689ZM30.2701 77.9351L30.2666 80.003H30.2701V77.9351ZM30.8521 76.7329H32.92V76.7326L30.8521 76.7329ZM84.191 77.4243L82.1515 77.0822C82.0519 77.6759 82.216 78.2834 82.6007 78.7463C82.9855 79.2091 83.5529 79.4814 84.1547 79.492L84.191 77.4243ZM84.8033 77.4351L84.767 79.5027C85.3791 79.5134 85.9644 79.2524 86.3655 78.79C86.7666 78.3275 86.9422 77.7111 86.845 77.1067L84.8033 77.4351ZM84.5347 75.7652L86.5764 75.4368C86.4152 74.4344 85.5501 73.6972 84.5347 73.6972V75.7652ZM84.4693 75.7652V73.6972C83.4592 73.6972 82.5969 74.4269 82.4298 75.4231L84.4693 75.7652ZM93.4165 77.4243L91.3771 77.0822C91.2775 77.6759 91.4415 78.2834 91.8263 78.7463C92.2111 79.2091 92.7784 79.4814 93.3803 79.492L93.4165 77.4243ZM94.0288 77.4351L93.9926 79.5027C94.6044 79.5134 95.1896 79.2526 95.5907 78.7904C95.9918 78.3282 96.1676 77.7121 96.0707 77.1079L94.0288 77.4351ZM93.7613 75.7652L95.8032 75.438C95.6424 74.435 94.7771 73.6972 93.7613 73.6972V75.7652ZM93.6949 75.7652V73.6972C92.6848 73.6972 91.8225 74.4269 91.6554 75.4231L93.6949 75.7652ZM33.8824 76.4292H31.8144C31.8144 77.4758 32.5964 78.3574 33.6355 78.4824L33.8824 76.4292ZM34.4947 75.7847L36.5626 75.7852V75.7843L34.4947 75.7847ZM33.8824 75.3482L33.75 73.2845C32.6615 73.3543 31.8144 74.2575 31.8144 75.3482H33.8824ZM25.7847 76.4292H23.7168C23.7168 77.4771 24.5006 78.3594 25.5412 78.4828L25.7847 76.4292ZM26.397 75.7847L28.4649 75.7852V75.7843L26.397 75.7847ZM25.7847 75.3482L25.6531 73.2844C24.5643 73.3539 23.7168 74.2572 23.7168 75.3482H25.7847ZM30.2955 74.4448V76.5128C30.1951 76.5128 30.1099 76.4858 30.0533 76.4558C30.0009 76.4281 29.9872 76.4062 29.9968 76.4182C30.0204 76.4477 30.0888 76.5658 30.0888 76.7714L32.1568 76.771L34.2247 76.7707C34.2244 74.7986 32.8718 72.3769 30.2955 72.3769V74.4448ZM32.1568 76.771H30.0888C30.0888 77.1595 29.985 77.223 30.0434 77.1551C30.0707 77.1234 30.1163 77.0859 30.1761 77.0592C30.2343 77.0332 30.2789 77.0293 30.2955 77.0293V79.0972V81.1651C31.3812 81.1651 32.4304 80.7229 33.1797 79.8512C33.9118 78.9995 34.2247 77.9 34.2247 76.771H32.1568ZM30.2955 79.0972L30.2957 77.0293C30.3122 77.0293 30.3569 77.0332 30.415 77.0592C30.4747 77.0859 30.5203 77.1233 30.5475 77.155C30.6058 77.2228 30.5021 77.1593 30.5021 76.771H28.4341H26.3662C26.3662 77.9 26.6792 78.9995 27.4112 79.8511C28.1605 80.7227 29.2095 81.165 30.2952 81.1651L30.2955 79.0972ZM28.4341 76.771L30.5021 76.7713C30.5021 76.3832 30.6059 76.3194 30.5477 76.3871C30.5206 76.4187 30.475 76.4561 30.4153 76.4828C30.3572 76.5088 30.3124 76.5128 30.2957 76.5128L30.2955 74.4448L30.2952 72.3769C29.2092 72.3771 28.1603 72.8197 27.4113 73.6912C26.6794 74.5426 26.3663 75.6419 26.3662 76.7708L28.4341 76.771ZM21.9419 74.3472L19.8741 74.3292L19.8653 75.337L21.9331 75.355L24.001 75.373L24.0098 74.3652L21.9419 74.3472ZM21.9331 75.355L21.9415 73.2871L20.7256 73.2822L20.7173 75.3501L20.709 77.418L21.9248 77.4229L21.9331 75.355ZM20.7173 75.3501H18.6494V76.0405H20.7173H22.7853V75.3501H20.7173ZM20.7173 76.0405V78.1085H21.7603V76.0405V73.9726H20.7173V76.0405ZM21.7603 76.0405H19.6924V77.0083H21.7603H23.8282V76.0405H21.7603ZM21.7603 77.0083L21.7404 74.9405L20.7257 74.9503L20.7456 77.0181L20.7655 79.0859L21.7802 79.0762L21.7603 77.0083ZM20.7456 77.0181H18.6777V77.8277H20.7456H22.8136V77.0181H20.7456ZM20.7456 77.8277L20.7389 79.8956L21.9322 79.8995L21.939 77.8316L21.9458 75.7636L20.7524 75.7597L20.7456 77.8277ZM21.939 77.8316L19.8711 77.8239L19.8672 78.8796L21.9351 78.8872L24.003 78.8949L24.0069 77.8392L21.939 77.8316ZM21.9351 78.8872L21.9235 76.8193L19.4821 76.833L19.4937 78.9009L19.5053 80.9688L21.9467 80.9551L21.9351 78.8872ZM19.4937 78.9009L21.5616 78.9005L21.5606 74.3458L19.4927 74.3462L17.4248 74.3467L17.4258 78.9013L19.4937 78.9009ZM19.4927 74.3462L19.4919 76.4141L21.9411 76.4151L21.9419 74.3472L21.9428 72.2793L19.4935 72.2783L19.4927 74.3462ZM38.7788 74.3472L36.711 74.3292L36.7022 75.337L38.7701 75.355L40.8379 75.373L40.8467 74.3652L38.7788 74.3472ZM38.7701 75.355L38.7784 73.2871L37.5635 73.2822L37.5552 75.3501L37.5469 77.418L38.7617 77.4229L38.7701 75.355ZM37.5552 75.3501H35.4873V76.0405H37.5552H39.6231V75.3501H37.5552ZM37.5552 76.0405V78.1085H38.5972V76.0405V73.9726H37.5552V76.0405ZM38.5972 76.0405H36.5293V77.0083H38.5972H40.6651V76.0405H38.5972ZM38.5972 77.0083L38.5773 74.9405L37.5627 74.9503L37.5826 77.0181L37.6025 79.0859L38.6171 79.0762L38.5972 77.0083ZM37.5826 77.0181H35.5146V77.8277H37.5826H39.6505V77.0181H37.5826ZM37.5826 77.8277L37.5758 79.8956L38.7691 79.8995L38.7759 77.8316L38.7827 75.7636L37.5893 75.7597L37.5826 77.8277ZM38.7759 77.8316L36.708 77.8239L36.7041 78.8796L38.772 78.8872L40.8399 78.8949L40.8438 77.8392L38.7759 77.8316ZM38.772 78.8872L38.7604 76.8193L36.319 76.833L36.3306 78.9009L36.3422 80.9688L38.7836 80.9551L38.772 78.8872ZM36.3306 78.9009H38.3985V74.3462H36.3306H34.2627V78.9009H36.3306ZM36.3306 74.3462L36.3298 76.4141L38.778 76.4151L38.7788 74.3472L38.7797 72.2793L36.3314 72.2783L36.3306 74.3462ZM24.5455 74.356L24.5675 76.4238C24.796 76.4214 25.0831 76.4089 25.2639 76.4033C25.4781 76.3968 25.6518 76.3952 25.8044 76.4026C26.1571 76.4196 26.1565 76.4778 26.039 76.3995L27.1851 74.6782L28.3312 72.957C27.5055 72.4072 26.5911 72.2999 26.004 72.2715C25.4714 72.2458 24.72 72.2861 24.5234 72.2882L24.5455 74.356ZM27.1851 74.6782L26.0386 76.3993C25.815 76.2503 25.7569 76.0634 25.7447 75.9845C25.7329 75.9082 25.734 75.7561 25.8628 75.5814L27.5269 76.8091L29.191 78.0368C30.3229 76.5026 30.0547 74.1051 28.3316 72.9572L27.1851 74.6782ZM27.5269 76.8091L25.8641 75.5797C25.8988 75.5328 25.9484 75.4834 26.0085 75.4422C26.066 75.4027 26.1123 75.385 26.1308 75.3789C26.1467 75.3738 26.1375 75.3787 26.091 75.3841C26.0441 75.3895 25.9764 75.3935 25.8774 75.3935L25.8775 77.4614L25.8775 79.5294C26.59 79.5294 28.1488 79.4463 29.1897 78.0386L27.5269 76.8091ZM25.8775 77.4614H23.8096V78.8833H25.8775H27.9454V77.4614H25.8775ZM25.8775 78.8833L25.8561 76.8155L24.5358 76.8292L24.5572 78.897L24.5786 80.9648L25.8989 80.9511L25.8775 78.8833ZM24.5572 78.897L26.6251 78.9091C26.634 77.384 26.6304 75.8584 26.6133 74.3328L24.5455 74.356L22.4776 74.3792C22.4945 75.8804 22.4981 77.3825 22.4893 78.8849L24.5572 78.897ZM32.6441 74.356L32.6662 76.4238C32.8948 76.4213 33.1819 76.4088 33.3627 76.4033C33.5769 76.3968 33.7506 76.3951 33.9031 76.4025C34.2558 76.4195 34.255 76.4777 34.1373 76.3993L35.2837 74.6782L36.4302 72.9572C35.6044 72.4071 34.6898 72.2998 34.1026 72.2715C33.57 72.2457 32.8185 72.2861 32.622 72.2882L32.6441 74.356ZM35.2837 74.6782L34.1371 76.3992C33.9134 76.2501 33.8554 76.0633 33.8432 75.9844C33.8314 75.9083 33.8325 75.7563 33.9613 75.5816L35.6255 76.8091L37.2898 78.0366C38.4212 76.5025 38.1533 74.1053 36.4303 72.9573L35.2837 74.6782ZM35.6255 76.8091L33.9626 75.5799C33.9973 75.5329 34.047 75.4835 34.1071 75.4422C34.1647 75.4027 34.2111 75.3849 34.2296 75.3789C34.2454 75.3737 34.2362 75.3787 34.1897 75.3841C34.1427 75.3895 34.0749 75.3935 33.9759 75.3935L33.9761 77.4614L33.9763 79.5294C34.6881 79.5293 36.2476 79.4465 37.2885 78.0383L35.6255 76.8091ZM33.9761 77.4614H31.9082V78.8833H33.9761H36.044V77.4614H33.9761ZM33.9761 78.8833L33.9547 76.8155L32.6344 76.8292L32.6558 78.897L32.6772 80.9648L33.9975 80.9511L33.9761 78.8833ZM32.6558 78.897L34.7237 78.9091C34.7326 77.384 34.729 75.8584 34.7119 74.3328L32.6441 74.356L30.5763 74.3792C30.5931 75.8804 30.5967 77.3825 30.5879 78.8849L32.6558 78.897ZM52.6597 78.897L52.6741 76.8291L51.4084 76.8203L51.3941 78.8882L51.3797 80.9561L52.6453 80.9649L52.6597 78.897ZM51.3941 78.8882L53.462 78.8873L53.4601 74.3561L51.3921 74.357L49.3242 74.3578L49.3262 78.8891L51.3941 78.8882ZM51.3921 74.357L51.4 76.4249L52.6832 76.42L52.6753 74.3521L52.6675 72.2842L51.3843 72.289L51.3921 74.357ZM52.6753 74.3521L50.6074 74.345L50.5918 78.8899L52.6597 78.897L54.7276 78.9041L54.7432 74.3592L52.6753 74.3521ZM45.7974 74.353L43.7295 74.337L43.7217 75.3428L45.7896 75.3589L47.8575 75.375L47.8653 74.3691L45.7974 74.353ZM45.7896 75.3589L45.7978 73.291L44.5644 73.2861L44.5562 75.354L44.548 77.4219L45.7814 77.4268L45.7896 75.3589ZM44.5562 75.354H42.4883V76.0425H44.5562H46.6241V75.354H44.5562ZM44.5562 76.0425V78.1104H45.6138V76.0425V73.9746H44.5562V76.0425ZM45.6138 76.0425H43.5459V77.0083H45.6138H47.6817V76.0425H45.6138ZM45.6138 77.0083L45.5942 74.9405L44.5639 74.9503L44.5835 77.0181L44.6031 79.0859L45.6334 79.0762L45.6138 77.0083ZM44.5835 77.0181H42.5156V77.8257H44.5835H46.6515V77.0181H44.5835ZM44.5835 77.8257L44.5769 79.8936L45.7888 79.8975L45.7955 77.8296L45.8021 75.7617L44.5902 75.7578L44.5835 77.8257ZM45.7955 77.8296L43.7275 77.82L43.7227 78.8728L45.7906 78.8823L47.8585 78.8919L47.8634 77.8392L45.7955 77.8296ZM45.7906 78.8823L45.7792 76.8144L43.3026 76.8281L43.314 78.896L43.3254 80.9639L45.802 80.9502L45.7906 78.8823ZM43.314 78.896L45.3819 78.8956L45.381 74.3516L43.313 74.3521L41.2451 74.3525L41.2461 78.8965L43.314 78.896ZM43.313 74.3521L43.3122 76.42L45.7966 76.421L45.7974 74.353L45.7982 72.2851L43.3138 72.2841L43.313 74.3521ZM86.3492 78.8794L86.3255 76.8116L85.0471 76.8263L85.0708 78.8941L85.0945 80.9619L86.3729 80.9472L86.3492 78.8794ZM85.0708 78.8941L87.096 78.4756L86.9807 77.9179L84.9556 78.3364L82.9305 78.755L83.0457 79.3126L85.0708 78.8941ZM84.9556 78.3364V76.2685H84.0191V78.3364V80.4044H84.9556V78.3364ZM84.0191 78.3364L81.981 77.9866L81.8852 78.5443L83.9234 78.8941L85.9615 79.2439L86.0572 78.6862L84.0191 78.3364ZM83.9234 78.8941V76.8261H82.5826V78.8941V80.962H83.9234V78.8941ZM82.5826 78.8941L84.5883 79.3975L85.7279 74.8575L83.7222 74.354L81.7165 73.8506L80.5769 78.3906L82.5826 78.8941ZM83.7222 74.354L83.7247 76.422L85.3663 76.42L85.3638 74.3521L85.3614 72.2841L83.7198 72.2861L83.7222 74.354ZM85.3638 74.3521L83.3432 74.7919L84.3285 79.3192L86.3492 78.8794L88.3698 78.4396L87.3844 73.9123L85.3638 74.3521ZM95.5757 78.8794L95.552 76.8116L94.2728 76.8263L94.2964 78.8941L94.3201 80.9619L95.5994 80.9472L95.5757 78.8794ZM94.2964 78.8941L96.3223 78.479L96.208 77.9213L94.1822 78.3364L92.1563 78.7516L92.2706 79.3092L94.2964 78.8941ZM94.1822 78.3364V76.2685H93.2456V78.3364V80.4044H94.1822V78.3364ZM93.2456 78.3364L91.2081 77.9832L91.1114 78.5408L93.149 78.8941L95.1865 79.2473L95.2832 78.6897L93.2456 78.3364ZM93.149 78.8941V76.8261H91.8081V78.8941V80.962H93.149V78.8941ZM91.8081 78.8941L93.8137 79.3979L94.9544 74.8579L92.9488 74.354L90.9432 73.8501L89.8025 78.3902L91.8081 78.8941ZM92.9488 74.354L92.9512 76.422L94.5919 76.42L94.5894 74.3521L94.5869 72.2841L92.9463 72.2861L92.9488 74.354ZM94.5894 74.3521L92.5689 74.7923L93.5552 79.3196L95.5757 78.8794L97.5963 78.4392L96.6099 73.9119L94.5894 74.3521ZM69.5884 75.438L69.6037 73.3701C69.3959 73.3686 69.3048 73.3594 69.0031 73.3508C68.7618 73.344 68.4366 73.3413 68.0792 73.3863L68.3374 75.438L68.5957 77.4898C68.6375 77.4845 68.7135 77.4801 68.8858 77.485C68.9977 77.4882 69.3324 77.5041 69.5731 77.5059L69.5884 75.438ZM68.3374 75.438L66.2698 75.4708L66.2795 76.0861L68.3472 76.0532L70.4149 76.0204L70.4051 75.4052L68.3374 75.438ZM68.3472 76.0532L68.3314 78.1211C68.344 78.1212 69.0539 78.1267 69.4784 78.121L69.4507 76.0532L69.4231 73.9855C69.0506 73.9905 68.3871 73.9856 68.363 73.9854L68.3472 76.0532ZM69.4507 76.0532H67.3828V77.0991H69.4507H71.5187V76.0532H69.4507ZM69.4507 77.0991V75.0312H68.4244V77.0991V79.1671H69.4507V77.0991ZM68.4244 77.0991L66.3565 77.0852L66.3516 77.8078L68.4195 77.8218L70.4874 77.8358L70.4922 77.1131L68.4244 77.0991ZM68.4195 77.8218L68.4039 79.8897L69.5689 79.8985L69.5845 77.8306L69.6001 75.7627L68.4351 75.7539L68.4195 77.8218ZM69.5845 77.8306L67.5166 77.8383L67.5205 78.8861L69.5884 78.8784L71.6563 78.8707L71.6524 77.8229L69.5845 77.8306ZM69.5884 78.8784L69.5458 76.8109C68.7425 76.8275 67.9665 76.8202 67.1041 76.8242L67.1138 78.8921L67.1235 80.96C67.9095 80.9563 68.7864 80.9633 69.631 80.9459L69.5884 78.8784ZM67.1138 78.8921L69.1816 78.8651C69.162 77.3689 69.1757 75.8936 69.1739 74.3526L67.106 74.355L65.0381 74.3574C65.0398 75.84 65.0261 77.3922 65.0461 78.9191L67.1138 78.8921ZM67.106 74.355V76.4229H69.5894V74.355V72.2871H67.106V74.355ZM69.5894 74.355L67.5215 74.3531L67.5205 75.4361L69.5884 75.438L71.6563 75.4399L71.6573 74.3569L69.5894 74.355ZM72.7408 75.4361L72.7222 73.3682L71.9605 73.375L71.979 75.4429L71.9976 77.5107L72.7593 77.5039L72.7408 75.4361ZM71.979 75.4429L69.9111 75.4511L69.9248 78.8896L71.9927 78.8814L74.0606 78.8731L74.047 75.4347L71.979 75.4429ZM71.9927 78.8814L71.9759 76.8135L70.6537 76.8242L70.6705 78.8921L70.6873 80.96L72.0095 80.9492L71.9927 78.8814ZM70.6705 78.8921L72.7384 78.8915L72.7374 75.4423L70.6695 75.4429L68.6015 75.4435L68.6025 78.8927L70.6705 78.8921ZM70.6695 75.4429L70.6803 73.375L69.9352 73.3711L69.9244 75.439L69.9135 77.5069L70.6586 77.5108L70.6695 75.4429ZM69.9244 75.439L71.9923 75.4464L71.9962 74.3634L69.9283 74.356L67.8603 74.3485L67.8564 75.4315L69.9244 75.439ZM69.9283 74.356L69.929 76.4239L72.7425 76.4229L72.7417 74.355L72.741 72.2871L69.9275 72.288L69.9283 74.356ZM72.7417 74.355L70.6743 74.312C70.6661 74.7027 70.6723 75.1203 70.6728 75.4396L72.7408 75.4361L74.8087 75.4325C74.808 75.0317 74.8024 74.7274 74.8092 74.398L72.7417 74.355ZM91.8941 75.439L91.8834 73.3711L91.1237 73.375L91.1343 75.4429L91.145 77.5108L91.9047 77.5069L91.8941 75.439ZM91.1343 75.4429L89.0664 75.4486L89.0742 78.2553L91.1421 78.2495L93.2101 78.2438L93.2022 75.4371L91.1343 75.4429ZM91.1421 78.2495L89.0742 78.2432L89.0723 78.8819L91.1402 78.8882L93.2081 78.8945L93.2101 78.2559L91.1421 78.2495ZM91.1402 78.8882L91.1356 76.8203L89.826 76.8232L89.8306 78.8911L89.8352 80.9591L91.1448 80.9561L91.1402 78.8882ZM89.8306 78.8911L91.8981 78.8484C91.8749 77.7255 91.8923 76.6367 91.8907 75.4411L89.8228 75.4439L87.7549 75.4466C87.7563 76.5478 87.7389 77.761 87.7631 78.9339L89.8306 78.8911ZM89.8228 75.4439L89.8362 73.376L89.0813 73.3711L89.0679 75.439L89.0545 77.5069L89.8094 77.5118L89.8228 75.4439ZM89.0679 75.439L91.1358 75.4483L91.1407 74.3643L89.0728 74.355L87.0049 74.3457L87 75.4297L89.0679 75.439ZM89.0728 74.355V76.4229H91.899V74.355V72.2871H89.0728V74.355ZM91.899 74.355L89.8311 74.3457L89.8262 75.4297L91.8941 75.439L93.962 75.4483L93.9669 74.3643L91.899 74.355ZM50.7632 74.355L48.6953 74.3571L48.6963 75.3112L50.7642 75.3091L52.8321 75.307L52.8312 74.3529L50.7632 74.355ZM50.7642 75.3091V73.2412H49.6412V75.3091V77.377H50.7642V75.3091ZM49.6412 75.3091H47.5732V76.0493H49.6412H51.7091V75.3091H49.6412ZM49.6412 76.0493V78.1173H50.6822V76.0493V73.9814H49.6412V76.0493ZM50.6822 76.0493L48.6143 76.0409L48.6103 76.9999L50.6783 77.0083L52.7462 77.0167L52.7501 76.0578L50.6822 76.0493ZM50.6783 77.0083V74.9404H49.7212V77.0083V79.0763H50.6783V77.0083ZM49.7212 77.0083L47.6533 77.0213L47.6651 78.8933L49.733 78.8804L51.8008 78.8674L51.7891 76.9954L49.7212 77.0083ZM49.733 78.8804L49.7188 76.8125L48.4375 76.8213L48.4517 78.8892L48.4659 80.9571L49.7471 80.9483L49.733 78.8804ZM48.4517 78.8892L50.5196 78.8896L50.5206 74.3525L48.4527 74.3521L46.3847 74.3516L46.3838 78.8887L48.4517 78.8892ZM48.4527 74.3521L48.4501 76.42L50.7606 76.4229L50.7632 74.355L50.7658 72.2871L48.4553 72.2841L48.4527 74.3521ZM88.1587 74.3521L86.091 74.3234C86.0747 75.4988 86.0869 76.6981 86.0869 77.8257H88.1548H90.2228C90.2228 76.6389 90.2106 75.5192 90.2265 74.3808L88.1587 74.3521ZM88.1548 77.8257L88.1389 79.8936L89.1516 79.9014L89.1675 77.8335L89.1835 75.7656L88.1708 75.7578L88.1548 77.8257ZM89.1675 77.8335L87.0996 77.8278L87.0967 78.8785L89.1646 78.8843L91.2325 78.8901L91.2354 77.8393L89.1675 77.8335ZM89.1646 78.8843L89.162 76.8164L86.8661 76.8193L86.8687 78.8872L86.8713 80.9552L89.1672 80.9522L89.1646 78.8843ZM86.8687 78.8872L88.9366 78.8863L88.9347 74.3522L86.8667 74.353L84.7988 74.3539L84.8008 78.8881L86.8687 78.8872ZM86.8667 74.353L86.8683 76.421L88.1603 76.42L88.1587 74.3521L88.1572 72.2841L86.8652 72.2851L86.8667 74.353ZM58.4283 74.3521L56.3956 74.7321C56.5318 75.4609 56.6433 76.1954 56.7299 76.9324L58.7837 76.6909L60.8375 76.4495C60.7401 75.6205 60.6146 74.7936 60.461 73.972L58.4283 74.3521ZM58.7837 76.6909L60.8233 77.032C60.9474 76.2905 61.1013 75.5766 61.2636 74.7549L59.2349 74.354L57.2062 73.9532C57.0613 74.6867 56.8815 75.5285 56.7441 76.3499L58.7837 76.6909ZM59.2349 74.354L59.2299 76.422L60.8569 76.4259L60.8619 74.3579L60.8668 72.29L59.2399 72.2861L59.2349 74.354ZM60.8619 74.3579L58.7944 74.3999C58.826 75.9602 59.0754 77.7844 59.2891 79.1901L61.3335 78.8794L63.378 78.5687C63.1648 77.1661 62.955 75.5793 62.9294 74.316L60.8619 74.3579ZM61.3335 78.8794L61.2773 76.8123C60.8558 76.8237 60.4813 76.8145 59.9638 76.8154L59.9673 78.8833L59.9708 80.9513C60.3626 80.9506 60.9026 80.9598 61.3897 80.9466L61.3335 78.8794ZM59.9673 78.8833L62.0346 78.8314C62.0147 78.0371 62.0193 77.0139 61.9311 76.0429L59.8716 76.23L57.8122 76.4171C57.884 77.2082 57.8756 77.9611 57.9 78.9352L59.9673 78.8833ZM59.8716 76.23L57.8704 75.7091C57.7379 76.2179 57.6408 76.7247 57.558 77.1744C57.4712 77.6458 57.4023 78.0403 57.3161 78.4308L59.3355 78.8765L61.3548 79.3221C61.4613 78.8397 61.5484 78.3416 61.6254 77.9234C61.7065 77.4835 61.7811 77.1036 61.8729 76.7509L59.8716 76.23ZM59.3355 78.8765L59.2852 76.8092C58.9309 76.8178 58.6129 76.8127 58.1835 76.8144L58.1919 78.8823L58.2003 80.9503C58.5324 80.9489 58.9789 80.9537 59.3858 80.9438L59.3355 78.8765ZM58.1919 78.8823L60.2529 78.7125C60.1739 77.755 59.908 76.5163 59.8112 75.8846L57.7671 76.1978L55.7231 76.511C55.8964 77.6422 56.0641 78.2406 56.131 79.0522L58.1919 78.8823ZM57.7671 76.1978L55.7017 76.0965L55.5708 78.7665L57.6363 78.8677L59.7017 78.9689L59.8326 76.299L57.7671 76.1978ZM57.6363 78.8677L57.5437 76.8018C57.1355 76.8201 56.7441 76.8079 56.2069 76.8028L56.1871 78.8706L56.1672 80.9385C56.5954 80.9426 57.1723 80.9585 57.7288 80.9336L57.6363 78.8677ZM56.1871 78.8706L58.2271 79.2088C58.4627 77.7878 58.6974 75.8096 58.8301 74.5739L56.774 74.353L54.7179 74.1322C54.5869 75.3513 54.3623 77.233 54.147 78.5325L56.1871 78.8706ZM56.774 74.353L56.7752 76.421L58.4295 76.42L58.4283 74.3521L58.427 72.2841L56.7727 72.2851L56.774 74.353ZM79.2808 74.3521L77.2481 74.7321C77.3844 75.4609 77.4958 76.1954 77.5825 76.9324L79.6363 76.6909L81.6901 76.4495C81.5926 75.6205 81.4671 74.7936 81.3135 73.972L79.2808 74.3521ZM79.6363 76.6909L81.6759 77.032C81.7999 76.2905 81.9538 75.5766 82.1162 74.7549L80.0874 74.354L78.0587 73.9532C77.9138 74.6867 77.734 75.5285 77.5967 76.3499L79.6363 76.6909ZM80.0874 74.354L80.0825 76.422L81.7094 76.4259L81.7144 74.3579L81.7194 72.29L80.0924 72.2861L80.0874 74.354ZM81.7144 74.3579L79.6469 74.3999C79.6785 75.9602 79.928 77.7844 80.1416 79.1901L82.1861 78.8794L84.2305 78.5687C84.0174 77.1661 83.8075 75.5793 83.7819 74.316L81.7144 74.3579ZM82.1861 78.8794L82.1299 76.8123C81.7084 76.8237 81.3338 76.8145 80.8164 76.8154L80.8199 78.8833L80.8234 80.9513C81.2151 80.9506 81.7551 80.9598 82.2423 80.9466L82.1861 78.8794ZM80.8199 78.8833L82.8871 78.8314C82.8672 78.0371 82.8718 77.0139 82.7836 76.0429L80.7242 76.23L78.6647 76.4171C78.7366 77.2082 78.7281 77.9611 78.7526 78.9352L80.8199 78.8833ZM80.7242 76.23L78.7229 75.7091C78.5905 76.2179 78.4933 76.7247 78.4105 77.1744C78.3237 77.6458 78.2549 78.0403 78.1687 78.4308L80.188 78.8765L82.2074 79.3221C82.3138 78.8397 82.401 78.3416 82.478 77.9235C82.559 77.4835 82.6336 77.1036 82.7254 76.7509L80.7242 76.23ZM80.188 78.8765L80.1377 76.8092C79.7835 76.8178 79.4655 76.8127 79.0361 76.8144L79.0445 78.8823L79.0529 80.9503C79.3849 80.9489 79.8315 80.9537 80.2384 80.9438L80.188 78.8765ZM79.0445 78.8823L81.1054 78.7125C81.0265 77.755 80.7605 76.5163 80.6637 75.8846L78.6197 76.1978L76.5756 76.511C76.7489 77.6422 76.9166 78.2406 76.9835 79.0522L79.0445 78.8823ZM78.6197 76.1978L76.5542 76.0965L76.4234 78.7665L78.4888 78.8677L80.5543 78.9689L80.6851 76.299L78.6197 76.1978ZM78.4888 78.8677L78.3963 76.8018C77.9881 76.8201 77.5967 76.8079 77.0594 76.8028L77.0396 78.8706L77.0197 80.9385C77.448 80.9426 78.0249 80.9585 78.5814 80.9336L78.4888 78.8677ZM77.0396 78.8706L79.0797 79.2088C79.3152 77.7878 79.5499 75.8096 79.6826 74.5739L77.6265 74.353L75.5704 74.1322C75.4395 75.3513 75.2149 77.233 74.9995 78.5325L77.0396 78.8706ZM77.6265 74.353L77.6277 76.421L79.282 76.42L79.2808 74.3521L79.2796 72.2841L77.6253 72.2851L77.6265 74.353ZM64.9869 74.3843L65.1129 76.4484C65.1008 76.4491 65.2404 76.4531 65.5209 76.4964C65.6318 76.5135 65.733 76.5317 65.8065 76.5456C65.8428 76.5525 65.8711 76.5581 65.8892 76.5617C65.8982 76.5635 65.9045 76.5648 65.9079 76.5655C65.9096 76.5659 65.9105 76.5661 65.9107 76.5661C65.9108 76.5661 65.9107 76.5661 65.9104 76.5661C65.9102 76.566 65.91 76.566 65.9097 76.5659C65.9096 76.5659 65.9095 76.5659 65.9093 76.5658C65.9092 76.5658 65.9091 76.5658 65.9091 76.5658C65.9089 76.5658 65.9088 76.5657 66.3365 74.5425C66.7641 72.5193 66.764 72.5192 66.7639 72.5192C66.7638 72.5192 66.7637 72.5192 66.7635 72.5192C66.7633 72.5191 66.7631 72.5191 66.7629 72.519C66.7624 72.5189 66.7619 72.5188 66.7613 72.5187C66.7601 72.5184 66.7587 72.5181 66.7571 72.5178C66.7539 72.5171 66.7498 72.5163 66.745 72.5153C66.7352 72.5133 66.7221 72.5106 66.706 72.5073C66.674 72.5009 66.6297 72.4921 66.5759 72.4819C66.4692 72.4617 66.3205 72.435 66.1522 72.409C65.8745 72.3661 65.3393 72.291 64.8608 72.3202L64.9869 74.3843ZM66.3365 74.5425L64.2685 74.5498L64.2734 75.9248L66.3413 75.9175L68.4093 75.9102L68.4044 74.5352L66.3365 74.5425ZM66.3413 75.9175C68.0275 74.7203 68.0273 74.72 68.0271 74.7197C68.027 74.7196 68.0268 74.7194 68.0267 74.7192C68.0264 74.7188 68.0261 74.7184 68.0259 74.718C68.0253 74.7172 68.0247 74.7164 68.024 74.7155C68.0228 74.7137 68.0214 74.7118 68.0199 74.7097C68.0169 74.7054 68.0133 74.7006 68.0093 74.6951C68.0013 74.684 67.9914 74.6705 67.9796 74.6546C67.9562 74.6232 67.9249 74.582 67.887 74.5343C67.8141 74.4422 67.7044 74.3098 67.5701 74.17C67.4468 74.0416 67.2445 73.8452 66.9834 73.6714C66.7934 73.5448 66.1926 73.1658 65.3741 73.2554L65.5992 75.3111L65.8242 77.3667C65.4602 77.4066 65.1742 77.3315 65.0137 77.2737C64.851 77.2152 64.7411 77.1471 64.6907 77.1136C64.596 77.0505 64.5611 77.0077 64.5872 77.0348C64.6024 77.0506 64.624 77.0757 64.645 77.1023C64.6542 77.1139 64.6606 77.1223 64.663 77.1256C64.6642 77.1272 64.6643 77.1273 64.663 77.1256C64.6624 77.1248 64.6615 77.1235 64.6602 77.1217C64.6596 77.1208 64.6588 77.1198 64.658 77.1186C64.6576 77.118 64.6571 77.1174 64.6567 77.1168C64.6565 77.1164 64.6562 77.1161 64.656 77.1158C64.6559 77.1156 64.6557 77.1153 64.6556 77.1153C64.6554 77.115 64.6552 77.1147 66.3413 75.9175ZM65.5992 75.3111L65.3737 73.2555C65.0205 73.2942 64.4119 73.4195 63.8836 73.9065C63.286 74.4576 63.1204 75.1575 63.1201 75.679L65.188 75.6802L67.256 75.6814C67.2558 75.988 67.1514 76.5192 66.687 76.9473C66.2921 77.3114 65.889 77.3596 65.8246 77.3667L65.5992 75.3111ZM65.188 75.6802L63.1307 75.8891C63.2217 76.785 63.7905 77.3241 63.9689 77.4878C64.1773 77.6791 64.4484 77.869 64.512 77.9158C64.6396 78.0096 64.6559 78.0293 64.6431 78.0159C64.6217 77.9935 64.5032 77.8643 64.4312 77.6275L66.4097 77.0259L68.3882 76.4243C68.2135 75.8497 67.8961 75.4335 67.6327 75.158C67.3779 74.8915 67.1092 74.6919 66.9622 74.5838C66.8647 74.5121 66.8344 74.491 66.7818 74.4515C66.7391 74.4193 66.7427 74.4199 66.7655 74.4408C66.7847 74.4584 66.8743 74.5414 66.9705 74.6874C67.0721 74.8416 67.2085 75.1083 67.2454 75.4713L65.188 75.6802ZM66.4097 77.0259L64.4311 77.6272C64.3963 77.5126 64.3941 77.414 64.4028 77.3413C64.4114 77.2696 64.4322 77.2061 64.463 77.1486L66.2867 78.1236L68.1104 79.0985C68.5163 78.3392 68.6761 77.3715 68.3883 76.4246L66.4097 77.0259ZM66.2867 78.1236L64.4622 77.1501C64.4781 77.1202 64.5276 77.044 64.6218 76.9687C64.7139 76.8951 64.7892 76.8699 64.7996 76.8669L65.3853 78.8501L65.971 80.8334C66.8823 80.5642 67.6343 79.9907 68.1111 79.097L66.2867 78.1236ZM65.3853 78.8501L64.9459 76.8294C65.0044 76.8167 65.0429 76.8142 65.0546 76.8136C65.0671 76.813 65.0658 76.8138 65.0487 76.8127C65.0112 76.8103 64.9504 76.8023 64.8714 76.7858C64.7105 76.7523 64.5894 76.7084 64.6232 76.7204L63.9322 78.6695L63.2412 80.6185C63.299 80.639 63.614 80.7486 64.0284 80.8349C64.3812 80.9083 65.0927 81.03 65.8247 80.8708L65.3853 78.8501ZM63.9322 78.6695L65.9999 78.6407L65.9813 77.3077L63.9136 77.3364L61.8459 77.3652L61.8644 78.6982L63.9322 78.6695ZM63.9136 77.3364L62.5923 78.9272C62.8564 79.1466 63.3387 79.5081 63.9218 79.7135C64.2132 79.8161 64.7233 79.95 65.3233 79.8378C66.0313 79.7055 66.636 79.2713 66.9931 78.6326L65.188 77.6236L63.383 76.6145C63.4847 76.4325 63.6428 76.2347 63.8718 76.0697C64.101 75.9045 64.3443 75.8133 64.5635 75.7724C64.9637 75.6976 65.2439 75.7942 65.2958 75.8125C65.3999 75.8492 65.3645 75.8533 65.2349 75.7457L63.9136 77.3364ZM65.188 77.6236L66.9938 78.6313C67.242 78.1865 67.3568 77.6489 67.2599 77.0897C67.1714 76.5793 66.9341 76.2091 66.7607 75.9896C66.4542 75.6017 66.0523 75.3301 65.9269 75.2424C65.6964 75.0811 65.6459 75.0491 65.5948 75.0056C65.5328 74.9527 65.7646 75.1184 65.8946 75.5097L63.9322 76.1616L61.9697 76.8136C62.0912 77.1794 62.2754 77.4645 62.4399 77.6706C62.6037 77.8759 62.7752 78.0367 62.9129 78.154C63.1599 78.3644 63.4628 78.566 63.5554 78.6308C63.5886 78.6541 63.6127 78.6713 63.6313 78.685C63.6402 78.6916 63.6468 78.6966 63.6514 78.7001C63.6561 78.7037 63.6581 78.7054 63.6579 78.7052C63.6577 78.705 63.6545 78.7024 63.6489 78.6975C63.6433 78.6926 63.6344 78.6845 63.6229 78.6734C63.6012 78.6524 63.5619 78.6123 63.5152 78.5532C63.4305 78.446 63.253 78.1896 63.1848 77.7961C63.1081 77.3537 63.2036 76.936 63.3822 76.6158L65.188 77.6236ZM63.9322 76.1616L65.8948 75.51C65.9829 75.7757 65.9093 75.971 65.8527 76.064C65.8103 76.1336 65.6017 76.4184 65.1136 76.4483L64.9869 74.3843L64.8601 72.3203C63.6441 72.3949 62.7747 73.1666 62.3203 73.9128C61.8516 74.6823 61.6146 75.744 61.9696 76.8133L63.9322 76.1616ZM40.5894 74.355L38.6405 75.0465L39.1347 76.4391L41.0835 75.7476L43.0324 75.056L42.5383 73.6635L40.5894 74.355ZM41.0835 75.7476L43.0634 76.3446L43.4833 74.952L41.5035 74.355L39.5236 73.758L39.1037 75.1506L41.0835 75.7476ZM41.5035 74.355L41.4963 76.4229L42.8986 76.4278L42.9058 74.3599L42.913 72.292L41.5107 72.2871L41.5035 74.355ZM42.9058 74.3599L41.0335 73.482L39.8128 76.0855L41.6851 76.9634L43.5574 77.8413L44.7781 75.2378L42.9058 74.3599ZM41.6851 76.9634H39.6172V78.8628H41.6851H43.753V76.9634H41.6851ZM41.6851 78.8628L41.6621 76.795L40.3466 76.8097L40.3697 78.8775L40.3927 80.9453L41.7081 80.9306L41.6851 78.8628ZM40.3697 78.8775H42.4376V76.9634H40.3697H38.3017V78.8775H40.3697ZM40.3697 76.9634L42.2714 76.1512L41.1562 73.5399L39.2544 74.3521L37.3527 75.1643L38.4679 77.7756L40.3697 76.9634ZM39.2544 74.3521L39.2499 76.42L40.5849 76.4229L40.5894 74.355L40.5939 72.2871L39.259 72.2841L39.2544 74.3521ZM54.8033 77.8267L54.7973 79.8946L55.808 79.8975L55.814 77.8296L55.82 75.7617L54.8093 75.7588L54.8033 77.8267ZM55.814 77.8296H53.7461V78.8755H55.814H57.8819V77.8296H55.814ZM55.814 78.8755L55.8175 76.8076L53.4923 76.8037L53.4888 78.8716L53.4853 80.9395L55.8105 80.9434L55.814 78.8755ZM53.4888 78.8716L55.5567 78.8653L55.5431 74.3507L53.4751 74.357L51.4072 74.3632L51.4209 78.8779L53.4888 78.8716ZM53.4751 74.357L53.4827 76.4249L54.8147 76.42L54.8072 74.3521L54.7996 72.2842L53.4676 72.289L53.4751 74.357ZM54.8072 74.3521L52.7392 74.3497L52.7353 77.8244L54.8033 77.8267L56.8712 77.829L56.8751 74.3544L54.8072 74.3521ZM14.979 75.3501V73.2822H14.2144V75.3501V77.4181H14.979V75.3501ZM14.2144 75.3501H12.1465V78.8238H14.2144H16.2823V75.3501H14.2144ZM14.2144 78.8238V76.7558H12.9273V78.8238V80.8917H14.2144V78.8238ZM12.9273 78.8238H14.9952V75.3657H12.9273H10.8594V78.8238H12.9273ZM12.9273 75.3657L12.9356 73.2978L12.21 73.2949L12.2017 75.3628L12.1934 77.4307L12.9189 77.4337L12.9273 75.3657ZM12.2017 75.3628H14.2696V74.3462H12.2017H10.1338V75.3628H12.2017ZM12.2017 74.3462V76.4141H14.979V74.3462V72.2783H12.2017V74.3462ZM14.979 74.3462H12.9111V75.3501H14.979H17.047V74.3462H14.979ZM16.6626 75.9673V78.0352H17.4283V75.9673V73.8994H16.6626V75.9673ZM17.4283 75.9673H19.4962V74.3355H17.4283H15.3603V75.9673H17.4283ZM17.4283 74.3355L17.4233 76.4034L18.645 76.4063L18.6499 74.3384L18.6549 72.2705L17.4332 72.2675L17.4283 74.3355ZM18.6499 74.3384H16.582V78.8238H18.6499H20.7179V74.3384H18.6499ZM18.6499 78.8238V76.7558H17.4283V78.8238V80.8917H18.6499V78.8238ZM17.4283 78.8238H19.4962V76.9702H17.4283H15.3603V78.8238H17.4283ZM17.4283 76.9702V74.9023H16.6626V76.9702V79.0382H17.4283V76.9702ZM16.6626 76.9702H14.5947V78.8238H16.6626H18.7306V76.9702H16.6626ZM16.6626 78.8238V76.7558H15.438V78.8238V80.8917H16.6626V78.8238ZM15.438 78.8238H17.506V74.3355H15.438H13.3701V78.8238H15.438ZM15.438 74.3355V76.4034H16.6626V74.3355V72.2675H15.438V74.3355ZM16.6626 74.3355H14.5947V75.9673H16.6626H18.7306V74.3355H16.6626ZM30.2701 75.5308L30.2666 73.4629C28.866 73.4652 28.1956 74.5733 27.9973 74.9835C27.7293 75.5381 27.6212 76.159 27.6211 76.7326L29.689 76.7329L31.7569 76.7332C31.7569 76.6436 31.7788 76.6637 31.7211 76.7831C31.6924 76.8426 31.6046 77.0075 31.4067 77.1809C31.1959 77.3656 30.8078 77.5978 30.2735 77.5987L30.2701 75.5308ZM29.689 76.7329H27.6211C27.6211 77.3067 27.7292 77.9278 27.9973 78.4825C28.1958 78.8932 28.8664 80.0007 30.2666 80.003L30.2701 77.9351L30.2735 75.8672C30.8075 75.868 31.1955 76.1 31.4064 76.2847C31.6044 76.4582 31.6922 76.6232 31.721 76.6827C31.7788 76.8023 31.7569 76.8226 31.7569 76.7329H29.689ZM30.2701 77.9351V80.003C31.6714 80.003 32.3437 78.8952 32.5427 78.4842C32.8115 77.9292 32.92 77.3076 32.92 76.7329H30.8521H28.7842C28.7842 76.8221 28.7623 76.8015 28.8203 76.6816C28.8492 76.622 28.9374 76.4568 29.1358 76.2835C29.3471 76.0988 29.7358 75.8672 30.2701 75.8672V77.9351ZM30.8521 76.7329L32.92 76.7326C32.9199 76.1582 32.8114 75.5366 32.5427 74.9818C32.3439 74.5713 31.6718 73.4629 30.2701 73.4629V75.5308V77.5987C29.7355 77.5987 29.3467 77.3669 29.1355 77.1822C28.9371 77.0088 28.8491 76.8438 28.8202 76.7842C28.7623 76.6645 28.7841 76.6441 28.7842 76.7332L30.8521 76.7329ZM84.191 77.4243L84.1547 79.492L84.767 79.5027L84.8033 77.4351L84.8395 75.3675L84.2272 75.3567L84.191 77.4243ZM84.8033 77.4351L86.845 77.1067L86.5764 75.4368L84.5347 75.7652L82.493 76.0935L82.7616 77.7634L84.8033 77.4351ZM84.5347 75.7652V73.6972H84.4693V75.7652V77.8331H84.5347V75.7652ZM84.4693 75.7652L82.4298 75.4231L82.1515 77.0822L84.191 77.4243L86.2304 77.7664L86.5087 76.1073L84.4693 75.7652ZM93.4165 77.4243L93.3803 79.492L93.9926 79.5027L94.0288 77.4351L94.0651 75.3675L93.4528 75.3567L93.4165 77.4243ZM94.0288 77.4351L96.0707 77.1079L95.8032 75.438L93.7613 75.7652L91.7194 76.0923L91.987 77.7623L94.0288 77.4351ZM93.7613 75.7652V73.6972H93.6949V75.7652V77.8331H93.7613V75.7652ZM93.6949 75.7652L91.6554 75.4231L91.3771 77.0822L93.4165 77.4243L95.456 77.7664L95.7343 76.1073L93.6949 75.7652ZM33.8824 76.4292L33.6355 78.4824C33.7556 78.4968 34.3891 78.5712 35.0791 78.2438C35.4696 78.0585 35.8781 77.7429 36.1728 77.2526C36.462 76.7716 36.5625 76.2547 36.5626 75.7852L34.4947 75.7847L32.4267 75.7842C32.4268 75.672 32.4521 75.4146 32.6282 75.1216C32.8099 74.8194 33.0674 74.6205 33.3062 74.5072C33.6929 74.3237 34.0203 74.363 34.1292 74.3761L33.8824 76.4292ZM34.4947 75.7847L36.5626 75.7843C36.5625 75.1859 36.356 74.6011 35.9423 74.1384C35.5663 73.7179 35.1293 73.5201 34.8414 73.425C34.303 73.2472 33.8257 73.2796 33.75 73.2845L33.8824 75.3482L34.0147 77.4119C33.9509 77.4159 33.7798 77.43 33.5445 77.3523C33.4081 77.3072 33.122 77.1891 32.859 76.895C32.5582 76.5586 32.4268 76.1468 32.4267 75.7851L34.4947 75.7847ZM33.8824 75.3482H31.8144V76.4292H33.8824H35.9503V75.3482H33.8824ZM25.7847 76.4292L25.5412 78.4828C25.665 78.4974 26.2993 78.57 26.9887 78.2403C27.3787 78.0538 27.785 77.7374 28.0778 77.2482C28.365 76.7684 28.4648 76.2532 28.4649 75.7852L26.397 75.7847L24.3291 75.7842C24.3291 75.6724 24.3543 75.4161 24.529 75.1242C24.7093 74.8229 24.9654 74.6235 25.2042 74.5092C25.5913 74.3241 25.9195 74.3628 26.0282 74.3757L25.7847 76.4292ZM26.397 75.7847L28.4649 75.7843C28.4648 75.1875 28.2594 74.6039 27.8472 74.1414C27.4724 73.7207 27.0362 73.5222 26.7481 73.4265C26.2097 73.2477 25.732 73.2794 25.6531 73.2844L25.7847 75.3482L25.9164 77.4119C25.8521 77.416 25.6806 77.4299 25.4446 77.3515C25.3077 77.3061 25.0218 77.1873 24.7595 76.8929C24.4598 76.5567 24.3291 76.1458 24.3291 75.7851L26.397 75.7847ZM25.7847 75.3482H23.7168V76.4292H25.7847H27.8526V75.3482H25.7847Z" fill="var(--stroke-0, white)" mask="url(#path-2-outside-2_0_135)"/>
</g>
<path id="Vector" d="M6.38334 20.5959C6.7696 20.3367 7.22418 20.144 7.64199 19.9413C9.6594 18.9625 11.6483 18.5069 13.8555 18.2257C17.0284 17.8213 20.3829 17.8538 23.02 19.9267C25.0541 21.5254 26.269 24.2909 26.5755 26.8265C27.1092 26.7612 27.6476 26.6941 28.1855 26.6827C30.9189 26.6244 33.2367 27.8629 35.1676 29.723C35.3334 26.9196 35.7561 24.1186 35.9544 21.3128C37.0208 20.9403 38.095 20.5285 39.2006 20.2921C42.2943 19.6309 46.9823 19.6488 49.9404 20.8935C51.948 21.7383 53.4609 23.2608 54.2818 25.2889C55.2305 25.2081 56.1841 25.0338 57.1303 24.9163C59.903 24.572 62.6785 24.1772 65.4549 23.8725C65.4978 24.4258 65.5944 24.9816 65.6558 25.5342C66.2996 24.8972 66.9878 24.0654 67.7388 23.575C69.0483 25.3933 70.5078 27.1421 71.8943 28.9037C72.4824 29.6509 73.1199 30.3899 73.64 31.1864C74.4152 29.5511 75.0818 27.8493 75.7973 26.1856C76.2687 25.0894 76.8624 23.9653 77.199 22.8238C79.8891 23.3882 82.6103 23.8513 85.2825 24.4978C85.5266 24.1095 85.7562 23.6988 86.0761 23.3682C87.1734 23.0853 88.4284 23.0656 89.5564 22.9301L95.624 22.14C95.9109 24.3836 96.2736 26.6387 96.4221 28.8962C93.8846 28.9951 91.3539 29.2063 88.8164 29.2988C88.9534 30.2103 89.1003 31.1203 89.2572 32.0285L92.703 32.0873C93.0589 33.6221 93.3175 35.1893 93.6236 36.7353C92.4306 37.2939 91.207 37.7872 89.9964 38.3064C89.8556 39.4396 89.8931 40.8456 89.8074 42.038C92.7459 41.0834 95.6569 40.0472 98.5984 39.1012C98.5449 39.7462 98.3987 40.3994 98.3084 41.042C97.9908 43.2233 97.6411 45.3997 97.2585 47.5704C93.7484 47.7326 90.2321 48.0638 86.7288 48.3473C85.1111 48.4782 83.488 48.6379 81.8665 48.6968C81.8527 47.0974 81.767 45.5003 81.7218 43.9016L81.529 36.1584C81.4877 34.6889 81.405 33.2219 81.4089 31.7514C80.7668 32.6352 80.2319 33.6495 79.658 34.5833C78.8996 35.816 78.0655 37.0489 77.3876 38.3266C77.3997 39.3906 77.5978 40.4867 77.7187 41.5463L78.1505 45.6609C78.2683 46.7541 78.4198 47.8458 78.4841 48.9438C75.4509 48.7404 72.3999 48.7249 69.3624 48.5876C69.495 47.7088 69.5235 46.7909 69.5923 45.9039C69.7905 43.3477 69.8839 40.7747 70.1653 38.2259C69.1816 36.8451 67.8121 35.3315 66.7219 33.9909C65.6429 32.6642 64.3902 30.9388 63.2122 29.7442C61.6469 29.9089 60.0452 29.9638 58.472 30.0414C58.6885 31.2561 58.8948 32.4727 59.0908 33.6909C60.2351 33.7514 61.3911 33.7343 62.5373 33.747C62.8543 35.0267 63.0466 36.345 63.3242 37.6349C62.1539 38.1456 60.9803 38.6486 59.8036 39.1439C60.3063 40.4793 60.737 41.84 61.2053 43.1881C62.8763 43.044 64.5865 42.6268 66.2393 42.3239C66.4704 43.693 66.6824 45.0686 66.8854 46.4422C66.9742 47.0434 67.0276 47.6484 67.1402 48.2459C64.7831 48.527 62.3999 48.5993 60.0347 48.7869L55.4373 49.1536C54.49 49.2286 53.5427 49.3306 52.5922 49.3494C52.5674 46.9726 52.435 44.5804 52.3577 42.2034C52.2969 40.3366 52.2951 38.4666 52.2395 36.5987C51.782 36.9689 51.3787 37.4198 50.9204 37.797C48.9826 39.3919 46.8509 40.5165 44.3712 40.9199C44.5106 41.7369 44.5718 42.5776 44.662 43.4018C44.7731 44.4177 44.9094 45.4377 44.9751 46.4578L44.3623 46.5653C44.4427 46.9441 44.4689 47.3434 44.5133 47.7284C43.3707 47.7603 42.1694 48.0642 41.0432 48.2616L36.8458 48.9606C35.645 49.1701 34.4392 49.4219 33.2285 49.559C33.4415 48.3461 33.4267 47.0859 33.6265 45.8656C32.3205 46.6856 31.0173 47.2788 29.4832 47.501C27.0717 47.8505 24.582 47.1331 22.6437 45.6637C20.3516 43.926 19.022 41.3463 18.625 38.5129C18.611 38.6358 18.6305 38.7769 18.5255 38.8562C18.3358 38.9997 17.9583 38.9296 17.7381 38.8924C17.686 38.8837 17.6412 38.8694 17.5911 38.8527C17.2425 38.962 16.8931 39.0691 16.5432 39.174C17.0205 41.3553 17.5556 43.5278 18.0486 45.7062C14.3838 46.6846 10.7936 47.9516 7.12972 48.938C7.03412 47.6757 7.04351 46.4013 7.01144 45.1361C6.93965 43.0599 6.88284 40.9833 6.84099 38.9063C6.63272 32.8044 6.48017 26.7007 6.38334 20.5959Z" fill="var(--fill-0, white)"/>
<path id="Vector_2" d="M17.5943 38.8521C17.9322 38.7183 18.2676 38.5694 18.6282 38.5122C18.6142 38.6351 18.6337 38.7762 18.5287 38.8555C18.3389 38.999 17.9615 38.9289 17.7413 38.8917C17.6892 38.883 17.6443 38.8687 17.5943 38.8521Z" fill="var(--fill-0, #111010)"/>
<path id="Vector_3" d="M16.1809 19.2826C17.8339 19.1555 19.7257 19.4248 21.1951 20.2064C23.1503 21.2463 24.3447 23.1465 24.98 25.2324C25.6479 27.4256 25.3255 29.3888 24.2735 31.3905C22.8987 34.0063 20.6499 36.2805 17.9061 37.4164C17.0134 37.786 16.0251 38.0242 15.1019 38.3103C15.5518 40.4977 16.1529 42.6559 16.5878 44.8455C16.3901 44.9121 16.1803 44.9603 15.979 45.0164C13.4231 45.7961 10.8631 46.5619 8.29909 47.3138C8.23526 45.8895 8.23919 44.4618 8.19775 43.0368L7.9077 32.612C7.81024 28.8457 7.59677 25.066 7.60018 21.2994C8.31608 21.0046 9.00933 20.6406 9.73615 20.3758C11.798 19.6244 14.0063 19.3889 16.1809 19.2826Z" fill="var(--fill-0, #EE1D22)"/>
<path id="Vector_4" d="M15.3152 23.705C15.8014 23.6762 16.3322 23.7489 16.7986 23.8863C17.7664 24.1714 18.6772 24.8759 19.1621 25.7731C19.6093 26.6008 19.697 27.6689 19.4195 28.566C19.0051 29.9059 17.8491 30.8372 16.6557 31.4555C15.3854 32.1949 14.1446 32.0515 12.7558 31.872C12.7321 29.5083 12.7947 27.1376 12.8178 24.7735C13.5686 24.0637 14.3139 23.8115 15.3152 23.705Z" fill="var(--fill-0, white)"/>
<path id="Vector_5" d="M15.0596 24.9435C15.3181 24.9236 15.5995 24.9164 15.8571 24.9453C16.6259 25.0313 17.4014 25.4176 17.8777 26.0408C18.2608 26.5359 18.4281 27.1667 18.3413 27.7887C18.2 28.7798 17.4652 29.4592 16.7122 30.0271C15.7828 30.6322 15.0248 30.7076 13.9497 30.672C13.9869 28.8965 13.9729 27.119 14.0241 25.3441C14.3514 25.147 14.6872 25.0212 15.0596 24.9435Z" fill="var(--fill-0, #212021)"/>
<path id="Vector_6" d="M42.3887 21.1535C44.5478 21.0449 46.6404 21.1801 48.7237 21.7859C50.6828 22.3557 52.0692 23.7002 53.0378 25.472L51.8745 25.6052C51.8745 25.6052 52.146 31.6649 52.1547 34.6808C49.7913 37.8202 46.3622 39.55 42.4901 39.9427C42.6091 42.1903 43.1493 46.6793 43.1493 46.6793L34.6451 48.0922L34.952 44.7697C36.0813 43.4416 37.0705 42.0318 37.5541 40.3242C38.4788 37.0594 38.1246 33.9711 36.2562 31.0716C36.6922 28.1396 36.7978 25.1383 37.1293 22.1894C38.9313 21.5793 40.4877 21.2445 42.3887 21.1535Z" fill="var(--fill-0, #EE1D22)"/>
<path id="Vector_7" d="M43.9601 25.5185C44.5801 25.4984 45.2194 25.5937 45.7979 25.8234C46.753 26.2027 47.5992 26.9818 48.0011 27.9399C48.3873 28.8603 48.4037 29.8186 48.0178 30.7406C47.4528 32.0906 46.2416 32.8218 44.9578 33.3553C43.5099 33.9209 42.4007 33.6696 40.9615 33.2895C41.1124 31.7963 41.3095 30.2967 41.5056 28.8088C41.6151 27.9782 41.6811 27.0979 41.8827 26.2875C42.5011 25.7698 43.176 25.6072 43.9601 25.5185Z" fill="var(--fill-0, white)"/>
<path id="Vector_8" d="M43.5207 26.7667C43.8718 26.7484 44.2385 26.7145 44.5872 26.7674C45.3705 26.8865 46.1289 27.304 46.6016 27.9541C46.9699 28.4605 47.1389 29.1207 47.0369 29.7423C46.9038 30.553 46.3952 31.0948 45.7566 31.5555C44.7781 32.0944 43.9264 32.1961 42.8345 32.0072C42.956 30.8975 43.1054 29.7849 43.2408 28.6763C43.3135 28.0803 43.3253 27.3303 43.5207 26.7667Z" fill="var(--fill-0, #212021)"/>
<path id="Vector_9" d="M33.3749 29.7459C37.3718 32.9841 37.8639 39.2294 34.6719 43.2101C33.1559 45.1007 30.801 46.2865 28.3851 46.3269C23.8223 46.4034 19.8974 42.3454 19.8404 37.7763C24.316 35.2444 26.2923 31.9624 27.1474 27.9105C30.1318 27.7561 32.2666 28.8483 33.3749 29.7459Z" fill="var(--fill-0, #EE1D22)"/>
<path id="Vector_10" d="M27.7854 34.9043C30.0057 34.5489 32.0898 36.0801 32.4352 38.3204C32.7807 40.5607 31.2561 42.6579 29.0337 42.9994C26.821 43.3393 24.7527 41.8099 24.4087 39.5794C24.0648 37.3489 25.5749 35.2581 27.7854 34.9043Z" fill="var(--fill-0, white)"/>
<path id="Vector_11" d="M28.031 36.1099C29.5834 35.8922 31.0167 36.9854 31.2317 38.5513C31.4467 40.1171 30.3618 41.562 28.8091 41.778C27.2577 41.9936 25.8265 40.9007 25.6117 39.3361C25.3969 37.7716 26.4798 36.3275 28.031 36.1099Z" fill="var(--fill-0, #212021)"/>
<path id="Vector_12" d="M28.1904 38.9358C28.2666 38.9383 28.3447 38.9377 28.4199 38.9523C28.6258 38.9919 28.8439 39.1697 28.9491 39.3501C29.0811 39.5763 29.0788 39.8473 29.0158 40.095C28.9227 40.4606 28.6964 40.6269 28.3947 40.8093C28.3688 40.8069 28.343 40.8053 28.3172 40.8021C28.0921 40.7737 27.8305 40.5848 27.7088 40.3947C27.5575 40.1585 27.5529 39.8711 27.6199 39.6062C27.7031 39.2767 27.9205 39.1054 28.1904 38.9358Z" fill="var(--fill-0, white)"/>
<path id="Vector_13" d="M94.5184 23.5803L95.0633 27.7073L87.3389 28.1667L88.1929 33.2307L91.7421 33.2822L92.2112 36.0007L88.8426 37.4754L88.4761 43.81L97.072 40.8837L96.2471 46.3783L83.0674 47.3627L82.6587 31.2681L86.7818 24.5047L94.5184 23.5803Z" fill="var(--fill-0, #EE1D22)"/>
<path id="Vector_14" d="M77.9918 24.2429L83.8138 25.4302L76.1402 37.9753L77.1194 47.6421L70.6849 47.3947L71.4181 37.7727L64.0806 28.7549L67.5688 25.3927L73.9694 33.5694L77.9918 24.2429Z" fill="var(--fill-0, #EE1D22)"/>
<path id="Vector_15" d="M64.3644 25.2459L61.1258 28.6055L56.9363 28.699L58.0243 34.8978L61.512 34.9363L61.8872 36.9017L58.3025 38.4569L60.3638 44.5897L65.2241 43.7906L65.6435 47.122L53.8018 47.9607L53.1587 26.6429C55.5987 26.347 64.3644 25.2459 64.3644 25.2459Z" fill="var(--fill-0, #EE1D22)"/>
<path id="Vector_16" d="M48.5184 51.5199L49.2728 51.5125C49.5413 55.5706 49.5766 59.6408 49.8427 63.6996C51.8259 63.5259 53.8113 63.3796 55.7984 63.2605C55.8192 64.7847 55.91 66.3072 55.9516 67.8311L59.6327 52.4447C61.108 52.4332 62.5845 52.4499 64.0598 52.4548C64.5246 53.9181 65.1441 55.3545 65.6899 56.7906C66.5583 59.0762 67.4009 61.377 68.298 63.6508C68.9822 65.3088 69.5653 67.0149 70.2248 68.6841C69.4832 68.8037 68.697 68.7982 67.9465 68.8528C66.9545 68.9249 65.9652 69.0452 64.9714 69.0892C64.6482 68.1001 64.3143 67.1141 64.0535 66.1059C63.1706 66.2602 62.2849 66.3987 61.3972 66.5214C61.2349 67.4317 61.0843 68.3442 60.9455 69.2584C59.2099 69.2695 57.4466 68.9782 55.7078 68.8979C55.7892 68.6215 55.8442 68.3369 55.9048 68.0553C54.7163 68.2631 53.0147 68.2812 51.7596 68.3736C49.5783 68.5343 47.3624 68.8017 45.1762 68.8016C45.1629 67.7103 45.058 66.6237 45.0142 65.5339C44.787 60.8896 44.5214 56.2472 44.2173 51.6074C45.6484 51.6074 47.0861 51.5403 48.5184 51.5199Z" fill="var(--fill-0, white)"/>
<path id="Vector_17" d="M60.1239 53.1968L63.2345 53.1987L68.7046 67.6685L65.3813 67.9062L64.4677 64.9062L60.3901 65.5435L59.9487 68.0716L56.6724 67.8841L60.1239 53.1968Z" fill="var(--fill-0, #EE1D22)"/>
<path id="Vector_18" d="M61.7064 56.7398L63.6912 62.1099L59.1626 62.7635L59.9514 56.8878L61.7064 56.7398Z" fill="var(--fill-0, white)"/>
<path id="Vector_19" d="M61.0603 57.3108L62.6074 61.5205L60.4458 61.8546L61.0603 57.3108Z" fill="var(--fill-0, #212021)"/>
<path id="Vector_20" d="M45.0025 52.3052L48.2042 52.2852L48.7211 64.4876L54.6984 64.0802L54.763 66.9496C54.763 66.9496 48.022 67.5198 45.8993 67.6838L45.0025 52.3052Z" fill="var(--fill-0, #EE1D22)"/>
<path id="Vector_21" d="M17.857 51.7772C19.8841 51.7066 21.9338 51.7672 23.9629 51.7709C23.7596 52.6306 23.4704 53.4683 23.2274 54.3171L21.4147 60.5616L19.7558 66.2916C19.5149 67.1129 19.3346 67.9887 19.0286 68.786C17.1161 68.9574 15.1683 69.0659 13.2492 69.1081C13.0461 68.5644 12.9065 67.9943 12.7354 67.4393C12.3479 66.1985 11.97 64.9547 11.6017 63.708C10.9891 61.8678 10.4792 59.9887 9.89931 58.1375L8.87073 54.7731C8.62136 53.9596 8.34663 53.1564 8.15873 52.3252C10.1404 52.2484 12.1698 52.0531 14.1401 51.8165C14.226 52.5581 14.4701 53.3241 14.623 54.0585C15.0427 56.0747 15.4708 58.1195 15.9596 60.1186C16.6053 57.342 17.1891 54.548 17.857 51.7772Z" fill="var(--fill-0, white)"/>
<path id="Vector_22" d="M18.4097 52.4636L22.5336 52.4724L18.1305 67.7211L13.7184 67.952L9.16654 52.9865L13.2091 52.6177L14.8179 60.1242L16.6374 60.1168L18.4097 52.4636Z" fill="var(--fill-0, #EE1D22)"/>
<path id="Vector_23" d="M81.5144 51.6868C81.8626 51.6426 82.2322 51.6518 82.5834 51.6372C82.5934 52.6688 83.0464 54.5726 83.243 55.6783C80.9244 56.2263 77.0074 55.8613 75.1748 57.4599C74.3482 58.181 73.9514 59.1666 73.8809 60.2518C73.8117 61.3156 74.0189 62.3859 74.7355 63.2022C76.2894 64.9726 78.9684 65.2188 81.1486 65.3544C81.1034 63.8956 80.8035 62.4487 80.753 60.9856C79.9609 61.1965 79.1804 61.4396 78.3838 61.6387C78.3585 60.6405 78.2346 59.5734 78.0746 58.5875C80.1844 58.5796 82.3133 58.594 84.4223 58.6723L84.4429 61.9072C84.4391 64.2433 84.4628 66.5794 84.5149 68.9149C80.4912 69.14 74.6909 69.086 71.4189 66.4422C69.986 65.2845 69.0532 63.6366 68.8556 61.7866C68.6251 59.6289 69.1522 57.5934 70.5082 55.8984C72.5557 53.3389 75.8863 52.2134 79.0266 51.8409C79.8507 51.7431 80.6856 51.7777 81.5144 51.6868Z" fill="var(--fill-0, white)"/>
<path id="Union_2" d="M81.9636 54.6988C81.809 53.9245 81.7034 53.1486 81.6024 52.366C78.1887 52.4352 74.192 53.0619 71.6451 55.5795C70.314 56.8952 69.5348 58.6146 69.5241 60.5046C69.5145 62.2035 70.0317 63.8172 71.2451 65.0391C74.2034 68.0177 79.517 67.767 83.3891 67.7826C83.3562 64.9527 83.2974 59.3738 83.2974 59.3738L78.9324 59.3229L78.9875 60.0992L81.3613 59.5223C81.3613 59.5223 81.7544 63.9479 81.9995 66.0696C79.4666 66.1005 76.7321 65.8993 74.6157 64.3287C72.5044 62.762 72.0879 59.3919 73.6845 57.2941C75.5514 54.8407 79.1965 55.1045 81.9636 54.6988Z" fill="var(--fill-0, #EE1D22)"/>
<path id="Vector_24" d="M94.9563 51.684C95.1545 51.6469 95.3918 51.6574 95.5946 51.6475C95.7453 52.921 95.8425 54.2093 96.0338 55.4769C94.11 55.596 92.1533 55.6248 90.2249 55.6546C90.3198 56.5766 90.5333 57.5061 90.6634 58.4271C91.5273 58.5004 92.402 58.4728 93.2698 58.5379C93.4649 59.4028 93.5935 60.2765 93.709 61.1548C92.8328 61.4944 91.9421 61.7867 91.0697 62.1413L90.8026 65.6752L97.347 63.7786C97.1977 64.9831 96.9238 66.1779 96.6904 67.3684C96.5978 67.787 96.5113 68.207 96.4325 68.6282C95.104 68.7799 93.7733 68.7656 92.441 68.8278C90.192 68.9525 87.9429 69.0604 85.6924 69.1515L85.563 52.5934C88.6967 52.3194 91.828 52.0163 94.9563 51.684Z" fill="var(--fill-0, white)"/>
<path id="Vector_25" d="M94.5011 52.4866L94.7575 54.3773L88.9348 54.4664L89.6839 59.091L92.3049 59.2166L92.4801 60.37L89.9732 61.3005L89.5462 66.7438L95.926 64.9325L95.4485 67.551L86.4026 67.9815L86.2955 53.203L94.5011 52.4866Z" fill="var(--fill-0, #EE1D22)"/>
<path id="Vector_26" d="M35.2312 52.0905C35.968 52.0538 36.7097 52.0589 37.4474 52.0484C37.4552 53.1827 37.5546 54.3107 37.5971 55.4435L37.9648 64.1952C39.9392 64.0753 41.9532 63.9791 43.916 63.7347C44.0043 65.3551 44.012 66.9736 44.0879 68.5931C43.1233 68.639 42.1592 68.7319 41.1953 68.7964C40.1972 68.7977 39.1886 68.9122 38.1929 68.988L33.3512 69.3416C33.3201 67.9733 33.1845 66.595 33.1072 65.2276L32.7061 57.8169C32.5939 55.9201 32.4413 54.0197 32.3833 52.1209C33.3327 52.117 34.282 52.1069 35.2312 52.0905Z" fill="var(--fill-0, white)"/>
<path id="Vector_27" d="M36.3556 52.7627L36.8798 64.9983L42.8596 64.5547L42.9483 67.5347L33.994 68.0904L33.1314 52.8451L36.3556 52.7627Z" fill="var(--fill-0, #EE1D22)"/>
<path id="Vector_28" d="M29.9573 50.8383C30.0191 50.83 30.0953 50.8424 30.1584 50.8453C30.25 50.973 30.2535 51.1004 30.2698 51.2534C30.3483 51.9901 30.3594 52.7381 30.4311 53.478C30.7538 56.5231 31.0447 59.5716 31.3038 62.6229C31.4559 64.3645 31.6811 66.1032 31.8012 67.8469C30.1042 67.9143 28.3964 67.9381 26.6976 67.9774C26.6269 67.9622 26.6095 67.9433 26.5555 67.8975C26.1957 64.7074 25.9116 61.5106 25.5814 58.3181C25.3317 55.905 25.0177 53.4881 24.8365 51.0695C26.544 51.0204 28.25 50.9057 29.9573 50.8383Z" fill="var(--fill-0, white)"/>
<path id="Vector_29" d="M29.1866 51.5935L30.6094 66.755L27.1981 66.8747L25.6919 51.7552L29.1866 51.5935Z" fill="var(--fill-0, #EE1D22)"/>
<path id="Vector_30" d="M73.8287 76.0521L75.4045 76.0513L75.3969 76.9275L73.8316 76.9368L73.8287 76.0521Z" fill="var(--fill-0, #212021)"/>
</g>
</svg>
