<svg width="80" height="80" viewBox="0 0 80 80" fill="none" xmlns="http://www.w3.org/2000/svg">
<g clip-path="url(#clip0_408_4343)">
<path d="M20.229 23.2596C20.0164 23.365 19.5204 23.5055 18.9181 23.5055C17.3238 23.5055 16.3672 22.5218 16.3672 21.011C16.3672 19.3597 17.5009 18.376 19.0598 18.376C19.6621 18.376 20.0873 18.5165 20.2644 18.5868L20.0519 19.3246C19.8039 19.2192 19.485 19.1489 19.0598 19.1489C18.0324 19.1489 17.2884 19.7813 17.2884 20.9759C17.2884 22.065 17.9261 22.7677 19.0244 22.7677C19.3787 22.7677 19.7684 22.6975 20.0164 22.5921L20.229 23.2596Z" fill="#333333"/>
<path d="M23.8422 21.2219H21.929V22.6624H24.0548V23.4002H21.0078V18.4463H23.9485V19.1841H21.929V20.4841H23.8422V21.2219Z" fill="#333333"/>
<path d="M24.8711 18.5156C25.2254 18.4453 25.7214 18.4102 26.2528 18.4102C26.9614 18.4102 27.4575 18.5156 27.8117 18.7966C28.0952 19.0426 28.2369 19.3588 28.2369 19.7804C28.2369 20.4128 27.8117 20.8695 27.3157 21.0101V21.0452C27.67 21.1857 27.8826 21.5371 28.0243 21.9938C28.166 22.6262 28.3078 23.1884 28.4141 23.364H27.4575C27.3866 23.2235 27.2803 22.8019 27.1386 22.2046C26.9969 21.5722 26.7489 21.3614 26.2528 21.3263H25.7923V23.3992H24.8711V18.5156ZM25.7568 20.6939H26.2883C26.8906 20.6939 27.2803 20.3777 27.2803 19.8858C27.2803 19.3236 26.8906 19.0777 26.2883 19.0777C26.0048 19.0777 25.8277 19.1128 25.7214 19.1128C25.7568 19.148 25.7568 20.6939 25.7568 20.6939Z" fill="#333333"/>
<path d="M30.0793 19.1841H28.6621V18.4463H32.4531V19.1841H31.0005V23.4002H30.0793V19.1841Z" fill="#333333"/>
<path d="M33.9407 18.4463H33.0195V23.4353H33.9407V18.4463Z" fill="#333333"/>
<path d="M35.0039 18.4463H37.8737V19.1841H35.9251V20.5543H37.7674V21.2921H35.9251V23.4002H35.0039V18.4463Z" fill="#333333"/>
<path d="M39.7161 18.4463H38.7949V23.4353H39.7161V18.4463Z" fill="#333333"/>
<path d="M44.3208 23.2596C44.1082 23.365 43.6122 23.5055 43.0099 23.5055C41.4156 23.5055 40.459 22.5218 40.459 21.011C40.459 19.3597 41.5927 18.376 43.1516 18.376C43.7539 18.376 44.1791 18.5165 44.3562 18.5868L44.1437 19.3246C43.8957 19.2192 43.5768 19.1489 43.1516 19.1489C42.1242 19.1489 41.3802 19.7813 41.3802 20.9759C41.3802 22.065 42.0179 22.7677 43.1162 22.7677C43.5059 22.7677 43.8602 22.6975 44.1082 22.5921L44.3208 23.2596Z" fill="#333333"/>
<path d="M46.165 21.9938L45.7398 23.3992H44.7832L46.3775 18.4102H47.5467L49.1765 23.3992H48.1844L47.7239 21.9938H46.165ZM47.6176 21.3263L47.2278 20.0966C47.1216 19.7804 47.0507 19.4642 46.9798 19.1831C46.909 19.4642 46.8381 19.8155 46.7318 20.0966L46.3421 21.3263H47.6176Z" fill="#333333"/>
<path d="M50.2749 19.1841H48.8223V18.4463H52.6132V19.1841H51.1606V23.4002H50.2749V19.1841Z" fill="#333333"/>
<path d="M56.0138 21.2219H54.136V22.6624H56.2264V23.4002H53.2148V18.4463H56.1201V19.1841H54.136V20.4841H56.0138V21.2219Z" fill="#333333"/>
<path d="M61.8596 21.2217C61.8596 22.4514 61.0093 23.4703 59.7693 23.4703C58.8481 23.4703 58.2812 22.8379 58.2812 21.9946C58.2812 20.765 59.1316 19.7109 60.3716 19.7109C61.3636 19.7461 61.8596 20.4488 61.8596 21.2217ZM59.167 21.9946C59.167 22.4865 59.4504 22.8379 59.8756 22.8379C60.5133 22.8379 60.9385 21.9595 60.9385 21.2217C60.9385 20.8704 60.7613 20.3785 60.2299 20.3785C59.5921 20.4136 59.167 21.3271 59.167 21.9946Z" fill="#333333"/>
<path d="M62.3555 23.4L62.9223 20.4839H62.4618L62.6035 19.8163H63.0641L63.0995 19.6406C63.1704 19.1839 63.3475 18.7272 63.7018 18.4461C63.9852 18.2002 64.3041 18.1299 64.6584 18.1299C64.9064 18.1299 65.0835 18.165 65.1898 18.2353L65.0127 18.9028C64.9064 18.8677 64.8001 18.8326 64.6584 18.8326C64.2332 18.8326 64.0207 19.219 63.9498 19.6758L63.9144 19.8514H64.6584L64.5167 20.519H63.7727L63.2058 23.4351C63.2058 23.4 62.3555 23.4 62.3555 23.4Z" fill="#333333"/>
<path d="M15.5881 29.5834H12.86V31.6914H15.9424V32.7806H11.5137V25.543H15.7652V26.6321H12.86V28.4942H15.5881V29.5834Z" fill="#333333"/>
<path d="M21.009 32.7806L20.1942 31.3401C19.8753 30.7779 19.6627 30.3915 19.4856 29.9698H19.4501C19.273 30.3915 19.0959 30.7779 18.777 31.3401L18.0684 32.7806H16.5449L18.7061 29.1266L16.6158 25.543H18.1393L18.9187 27.0186C19.1667 27.4753 19.3439 27.8267 19.521 28.2132H19.5564C19.7336 27.7564 19.9107 27.4402 20.1233 27.0186L20.9028 25.543H22.4262L20.3005 29.0564L22.5325 32.7454L21.009 32.7806Z" fill="#333333"/>
<path d="M28.3791 32.5687C28.0603 32.7444 27.3871 32.8849 26.5014 32.8849C24.1984 32.8849 22.7812 31.4444 22.7812 29.231C22.7812 26.8419 24.4464 25.4014 26.6785 25.4014C27.5642 25.4014 28.1665 25.577 28.45 25.7176L28.1665 26.7716C27.8122 26.6311 27.3517 26.4905 26.7494 26.4905C25.2613 26.4905 24.1984 27.404 24.1984 29.1607C24.1984 30.7417 25.155 31.7606 26.7494 31.7606C27.2808 31.7606 27.8477 31.6552 28.202 31.4795L28.3791 32.5687Z" fill="#333333"/>
<path d="M33.5861 29.5834H30.8226V31.6914H33.905V32.7806H29.5117V25.543H33.7278V26.6321H30.8226V28.4942H33.5861V29.5834Z" fill="#333333"/>
<path d="M35.0742 25.543H36.3851V31.6914H39.3966V32.7806H35.0742V25.543Z" fill="#333333"/>
<path d="M40.3887 25.543H41.735V31.6914H44.7111V32.7806H40.3887V25.543Z" fill="#333333"/>
<path d="M49.7775 29.5834H47.0495V31.6914H50.1318V32.7806H45.7031V25.543H49.9547V26.6321H47.0495V28.4942H49.7775V29.5834Z" fill="#333333"/>
<path d="M51.3008 32.7806V25.543H52.8243L54.702 28.6348C55.198 29.4428 55.6232 30.2861 55.9421 31.059H55.9775C55.9066 30.1104 55.8712 29.1618 55.8712 28.0726V25.543H57.1112V32.7806H55.7295L53.8163 29.5834C53.3557 28.8104 52.8597 27.8969 52.5054 27.0889H52.47C52.5408 28.0375 52.5408 28.9861 52.5408 30.1807V32.7454C52.5054 32.7806 51.3008 32.7806 51.3008 32.7806Z" fill="#333333"/>
<path d="M63.8069 32.5687C63.488 32.7444 62.8148 32.8849 61.9291 32.8849C59.6262 32.8849 58.209 31.4444 58.209 29.231C58.209 26.8419 59.8742 25.4014 62.1062 25.4014C62.992 25.4014 63.5943 25.577 63.8777 25.7176L63.5943 26.7716C63.24 26.6311 62.7794 26.4905 62.1771 26.4905C60.6891 26.4905 59.6262 27.404 59.6262 29.1607C59.6262 30.7417 60.5828 31.7606 62.1771 31.7606C62.7085 31.7606 63.2754 31.6552 63.6297 31.4795L63.8069 32.5687Z" fill="#333333"/>
<path d="M69.0158 29.5834H66.2877V31.6914H69.3347V32.7806H64.9414V25.543H69.193V26.6321H66.2877V28.4942H69.0158V29.5834Z" fill="#333333"/>
<path d="M30.0436 60.184C25.5441 60.184 21.8594 56.5652 21.8594 52.0681C21.8594 47.6061 25.5086 43.9521 30.0436 43.9521C34.5786 43.9521 38.2278 47.5709 38.2278 52.0681C38.2278 56.5652 34.5786 60.184 30.0436 60.184Z" fill="white"/>
<path d="M50.3795 60.184C45.8446 60.184 42.1953 56.5652 42.1953 52.0681C42.1953 47.6061 45.8446 43.9521 50.3795 43.9521C54.8791 43.9521 58.5638 47.5709 58.5638 52.0681C58.5638 56.5652 54.8791 60.184 50.3795 60.184Z" fill="white"/>
<path d="M30.0078 41.9851C32.913 40.7203 36.5269 40.0527 40.1407 40.0527C43.7899 40.0527 47.0494 40.7203 49.9901 41.9851C44.5339 42.1608 40.1407 46.5877 40.1407 52.0334C40.1407 46.5174 35.6057 42.0202 30.0078 41.9851Z" fill="#F8C40F"/>
<path d="M29.9367 50.4531C29.0155 50.4531 28.2715 51.1909 28.2715 52.1044C28.2715 53.0179 29.0155 53.7557 29.9367 53.7557C30.8578 53.7557 31.6019 53.0179 31.6019 52.1044C31.5664 51.1909 30.8224 50.4531 29.9367 50.4531Z" fill="#EF6945"/>
<path d="M50.3449 50.4531C49.4237 50.4531 48.6797 51.1909 48.6797 52.1044C48.6797 53.0179 49.4237 53.7557 50.3449 53.7557C51.2661 53.7557 52.0101 53.0179 52.0101 52.1044C52.0101 51.1909 51.2661 50.4531 50.3449 50.4531Z" fill="#00AF87"/>
<path d="M29.9375 47.1487C27.2095 47.1487 25.0128 49.327 25.0128 52.0323C25.0128 54.7377 27.2095 56.916 29.9375 56.916C32.6656 56.916 34.8623 54.7377 34.8623 52.0323C34.8623 49.3622 32.6656 47.1487 29.9375 47.1487ZM29.9375 55.4403C28.0598 55.4403 26.5363 53.9296 26.5363 52.0675C26.5363 50.2054 28.0598 48.6946 29.9375 48.6946C31.8153 48.6946 33.3388 50.2054 33.3388 52.0675C33.3742 53.9296 31.8153 55.4403 29.9375 55.4403ZM60.6196 42.1246H53.8171C50.345 39.8057 45.6329 38.3652 40.2121 38.3652C34.7914 38.3652 29.725 39.8057 26.2883 42.1246H19.8047C20.8676 43.3543 21.647 45.0056 21.8242 46.1298C20.6196 47.7811 19.8755 49.8189 19.8755 52.0323C19.8755 57.5835 24.4105 62.1158 30.0438 62.1158C33.2325 62.1158 36.0669 60.6753 37.9446 58.3916C38.6887 59.2699 39.9641 61.0266 40.2121 61.5536C40.2121 61.5536 41.6647 59.4105 42.4796 58.3916C44.3574 60.6753 47.1918 62.1158 50.345 62.1158C55.9429 62.1158 60.5133 57.6186 60.5133 52.0323C60.5133 49.8189 59.8047 47.7811 58.5647 46.1298C58.7772 45.0407 59.5567 43.3543 60.6196 42.1246ZM30.0438 60.1834C25.5443 60.1834 21.8596 56.5646 21.8596 52.0675C21.8596 47.6055 25.5089 43.9515 30.0438 43.9515C34.5788 43.9515 38.2281 47.5703 38.2281 52.0675C38.2281 56.5646 34.5788 60.1834 30.0438 60.1834ZM30.0793 41.984C32.9845 40.7192 36.5983 40.0517 40.2121 40.0517C43.8614 40.0517 47.1563 40.7192 50.0616 41.984C44.6054 42.1597 40.2121 46.5866 40.2121 52.0323C40.2121 46.5163 35.6771 42.0192 30.0793 41.984ZM50.3804 60.1834C45.8454 60.1834 42.1962 56.5646 42.1962 52.0675C42.1962 47.6055 45.8454 43.9515 50.3804 43.9515C54.88 43.9515 58.5647 47.5703 58.5647 52.0675C58.5647 56.5646 54.88 60.1834 50.3804 60.1834ZM50.3804 47.1487C47.6523 47.1487 45.4557 49.327 45.4557 52.0323C45.4557 54.7377 47.6523 56.916 50.3804 56.916C53.1085 56.916 55.3051 54.7377 55.3051 52.0323C55.3051 49.327 53.1085 47.1487 50.3804 47.1487ZM50.3804 55.4052C48.5026 55.4052 46.9792 53.8944 46.9792 52.0323C46.9792 50.1702 48.5026 48.6595 50.3804 48.6595C52.2582 48.6595 53.7817 50.1702 53.7817 52.0323C53.7817 53.8944 52.2582 55.4052 50.3804 55.4052Z" fill="#333333"/>
<path d="M62.9224 43.7765H62.6035V42.4414H63.0995C63.3475 42.4414 63.631 42.4765 63.631 42.8279C63.631 43.0035 63.5601 43.1441 63.3475 43.1792L63.6664 43.7765H63.3121L63.0287 43.2144H62.9224V43.7765ZM62.9224 43.0035C63.0995 43.0035 63.135 43.0035 63.1704 43.0035C63.2767 42.9684 63.2767 42.8981 63.2767 42.8279C63.2767 42.7225 63.2413 42.6873 63.1704 42.6522C63.135 42.6522 63.0641 42.6522 62.887 42.6522V43.0035H62.9224Z" fill="#333333"/>
<path d="M63.1346 41.915C62.4614 41.915 61.8945 42.4772 61.8945 43.1447C61.8945 43.8123 62.4614 44.3744 63.1346 44.3744C63.8077 44.3744 64.3746 43.8474 64.3746 43.1447C64.3392 42.4772 63.8077 41.915 63.1346 41.915ZM63.1346 44.1285C62.5677 44.1285 62.1425 43.6717 62.1425 43.1447C62.1425 42.5826 62.6031 42.161 63.1346 42.161C63.7014 42.161 64.1266 42.6177 64.1266 43.1447C64.1266 43.7069 63.666 44.1285 63.1346 44.1285Z" fill="#333333"/>
<path d="M12.4 71.4611V70.372H10.5931V68.7207L9.21133 69.1423V70.372H8.14844V71.4611H9.21133V75.0097C9.21133 76.5907 9.84906 77.3988 11.1245 77.3988C11.5851 77.3988 11.9748 77.3285 12.3291 77.2231H12.3646L12.2937 76.134L12.2228 76.1691C12.0457 76.2394 11.7977 76.2394 11.4788 76.2394C11.16 76.2394 10.9474 76.134 10.8057 75.9583C10.6639 75.7475 10.5931 75.4313 10.5931 74.9745V71.5314L12.4 71.4611Z" fill="#333333"/>
<path d="M17.2193 70.2304C17.0776 70.1953 16.9358 70.1953 16.865 70.1953C16.4398 70.1953 16.0501 70.3358 15.6604 70.6169C15.3415 70.8277 15.1289 71.1439 14.9518 71.5304L14.8809 70.371H13.6055V70.4412C13.6409 71.0034 13.6763 71.7061 13.6763 72.5844V77.2572H15.0935V73.6384C15.0935 72.9709 15.2707 72.479 15.5895 72.0925C15.9084 71.7412 16.2981 71.5655 16.7587 71.5655C16.9358 71.5655 17.0776 71.5655 17.1839 71.6007H17.2547V70.2656L17.2193 70.2304Z" fill="#333333"/>
<path d="M19.9113 70.3711H18.4941V77.2222H19.9113V70.3711Z" fill="#333333"/>
<path d="M19.2041 69.2469C19.4875 69.2469 19.7001 69.1767 19.8418 69.001C20.019 68.8253 20.0898 68.6145 20.0898 68.3686C20.0898 68.1226 20.019 67.9118 19.8418 67.7362C19.6647 67.5605 19.4521 67.4902 19.2041 67.4902C18.9561 67.4902 18.7081 67.5605 18.5664 67.7362C18.3892 67.9118 18.3184 68.1226 18.3184 68.3686C18.3184 68.6145 18.3892 68.8253 18.5664 69.001C18.7435 69.1415 18.9561 69.2469 19.2041 69.2469Z" fill="#333333"/>
<path d="M26.8554 71.1449C26.2885 70.4773 25.5799 70.1611 24.765 70.1611C23.7376 70.1611 22.9581 70.5476 22.4267 71.3206L22.3558 70.3017H21.0449V70.4071C21.0804 70.9692 21.0804 71.707 21.0804 72.6205V79.9986H22.4975V76.4852C22.7101 76.7312 22.9581 76.942 23.2416 77.1177C23.6313 77.2933 24.0564 77.3987 24.4816 77.3987C25.3673 77.3987 26.1468 77.0474 26.7137 76.3798C27.316 75.7123 27.5994 74.7988 27.5994 73.6745C27.7057 72.6556 27.4222 71.8124 26.8554 71.1449ZM23.3478 71.707C23.6667 71.4962 23.9856 71.3908 24.3399 71.3908C24.9067 71.3908 25.3673 71.6016 25.6862 72.0584C26.0405 72.5151 26.2176 73.0772 26.2176 73.7448C26.2176 74.5177 26.0405 75.115 25.6862 75.5718C25.3319 76.0285 24.8713 76.2393 24.269 76.2393C23.773 76.2393 23.3478 76.0636 23.029 75.7123C22.6747 75.361 22.4975 74.9394 22.4975 74.4123V73.2881C22.4975 73.0773 22.5684 72.8313 22.6747 72.5151C22.8518 72.1989 23.0644 71.9178 23.3478 71.707Z" fill="#333333"/>
<path d="M71.3189 71.673H71V70.3379H71.496C71.744 70.3379 72.0275 70.373 72.0275 70.7244C72.0275 70.9 71.9566 71.0054 71.744 71.0757L72.0629 71.673H71.7086L71.4252 71.1108H71.3189V71.673ZM71.3189 70.9C71.496 70.9 71.5314 70.9 71.5669 70.9C71.6732 70.8649 71.6732 70.7946 71.6732 70.7244C71.6732 70.619 71.6377 70.5838 71.5669 70.5487C71.5314 70.5487 71.4606 70.5487 71.2834 70.5487L71.3189 70.9Z" fill="#00AF87"/>
<path d="M71.533 69.8105C70.8598 69.8105 70.293 70.3376 70.293 71.0402C70.293 71.7078 70.8598 72.2699 71.533 72.2699C72.2062 72.2699 72.773 71.7078 72.773 71.0402C72.773 70.3727 72.2062 69.8105 71.533 69.8105ZM71.533 72.024C70.9661 72.024 70.541 71.5672 70.541 71.0402C70.541 70.4781 71.0016 70.0565 71.533 70.0565C72.0999 70.0565 72.525 70.5132 72.525 71.0402C72.525 71.5672 72.0999 72.024 71.533 72.024Z" fill="#00AF87"/>
<path d="M34.0482 77.1528C33.9773 76.7663 33.9419 76.2042 33.9419 75.5366V73.0773C33.9419 72.1638 33.6939 71.426 33.2333 70.9341C32.7727 70.4422 32.0641 70.1963 31.1784 70.1963C30.2572 70.1963 29.4778 70.4071 28.8046 70.8287L28.7692 70.8638L29.088 71.8124L29.1589 71.7773C29.6903 71.426 30.2926 71.2854 31.0012 71.2854C31.4973 71.2854 31.887 71.426 32.135 71.6719C32.383 71.9179 32.5247 72.3043 32.5247 72.7611V72.8313C31.1784 72.8313 30.1155 73.0421 29.4069 73.4989C28.6629 73.9556 28.3086 74.588 28.3086 75.4312C28.3086 75.9934 28.5212 76.4501 28.9109 76.8366C29.3006 77.2231 29.8321 77.4339 30.5052 77.4339C31.391 77.4339 32.0996 77.1177 32.631 76.4853L32.7727 77.2582H34.0836L34.0482 77.1528ZM32.0641 75.8529C31.7453 76.1339 31.3201 76.3096 30.8595 76.3096C30.5407 76.3096 30.2572 76.2042 30.0446 76.0285C29.8321 75.8529 29.7258 75.5718 29.7258 75.2204C29.7258 74.7988 29.9384 74.4475 30.3281 74.2016C30.7532 73.9556 31.4618 73.8151 32.5247 73.8151V74.8691C32.5601 75.2204 32.383 75.5718 32.0641 75.8529Z" fill="#00AF87"/>
<path d="M41.2771 77.2592V77.1538C41.2417 76.7322 41.2063 76.1349 41.2063 75.3971V67.1406H39.7891V71.0054C39.6119 70.7946 39.3639 70.5837 39.0805 70.4432C38.7262 70.2324 38.2656 70.1621 37.805 70.1621C36.9193 70.1621 36.1753 70.5135 35.6084 71.2162C35.0061 71.9188 34.7227 72.7972 34.7227 73.8863C34.7227 74.9052 35.0061 75.7484 35.573 76.3808C36.1398 77.0484 36.8484 77.3646 37.6987 77.3646C38.2302 77.3646 38.6908 77.2592 39.1159 77.0133C39.4348 76.8025 39.7182 76.5565 39.9308 76.2403L40.0017 77.2241L41.2771 77.2592ZM39.7891 73.1837V74.2728C39.7891 74.8701 39.6119 75.3268 39.2576 75.6782C38.9033 76.0295 38.5136 76.2052 38.053 76.2052C37.4507 76.2052 36.9901 75.9944 36.6713 75.5376C36.3524 75.0809 36.1753 74.5188 36.1753 73.8161C36.1753 73.0783 36.3524 72.481 36.7067 72.0242C37.061 71.5675 37.5216 71.3567 38.0885 71.3567C38.5491 71.3567 38.9742 71.5324 39.2931 71.8486C39.6119 72.1999 39.7891 72.6567 39.7891 73.1837Z" fill="#00AF87"/>
<path d="M47.1216 70.3721C47.1216 70.3721 45.3501 73.9557 45.2084 74.3773C45.0313 73.8855 43.2952 70.3721 43.2952 70.3721H41.7363L45.2084 77.2232L48.6097 70.3721H47.1216Z" fill="#00AF87"/>
<path d="M50.7355 70.3721H49.3184V77.2232H50.7355V70.3721Z" fill="#00AF87"/>
<path d="M50.0264 69.2479C50.3098 69.2479 50.5224 69.1776 50.6641 69.002C50.8412 68.8263 50.9121 68.6155 50.9121 68.3696C50.9121 68.1236 50.8412 67.9128 50.6641 67.7371C50.487 67.5615 50.2744 67.4912 50.0264 67.4912C49.7784 67.4912 49.5303 67.5615 49.3886 67.7371C49.2115 67.9128 49.1406 68.1236 49.1406 68.3696C49.1406 68.6155 49.2115 68.8263 49.3886 69.002C49.5658 69.1425 49.7784 69.2479 50.0264 69.2479Z" fill="#00AF87"/>
<path d="M56.3693 74.0268C56.0859 73.7106 55.5898 73.4296 54.9167 73.1836C54.3852 73.008 54.0309 72.8323 53.8538 72.6566C53.6766 72.5161 53.6058 72.3053 53.6058 72.0945C53.6058 71.8485 53.7121 71.6377 53.8892 71.4972C54.0664 71.3567 54.3498 71.2513 54.6687 71.2513C55.1647 71.2513 55.6253 71.3918 56.1213 71.6377L56.1921 71.6729L56.5464 70.6189L56.511 70.5837C56.015 70.3026 55.4127 70.1621 54.7395 70.1621C53.9955 70.1621 53.3932 70.3729 52.9326 70.7594C52.472 71.1459 52.2595 71.6377 52.2595 72.235C52.2595 73.1134 52.8972 73.7809 54.1726 74.2025C54.6332 74.343 54.9521 74.5187 55.1647 74.6944C55.3418 74.8701 55.4481 75.0809 55.4481 75.3619C55.4481 75.643 55.3418 75.8538 55.1293 76.0295C54.9167 76.2051 54.5978 76.2754 54.1726 76.2754C53.6058 76.2754 53.0389 76.0997 52.472 75.7835L52.4012 75.7484L52.0469 76.8376L52.0823 76.8727C52.6846 77.1889 53.3578 77.3646 54.1018 77.3646C54.9167 77.3646 55.5898 77.1538 56.0504 76.8024C56.5464 76.416 56.7944 75.8889 56.7944 75.2565C56.7944 74.7647 56.6527 74.3782 56.3693 74.0268Z" fill="#00AF87"/>
<path d="M63.3492 71.18C62.7469 70.5125 61.9321 70.1963 60.9755 70.1963C59.9834 70.1963 59.1685 70.5476 58.5308 71.18C57.8931 71.8476 57.5742 72.7259 57.5742 73.8151C57.5742 74.8691 57.8931 75.7123 58.4954 76.3447C59.1331 77.0123 59.9126 77.3285 60.8692 77.3285C61.4715 77.3285 62.0738 77.1879 62.6052 76.8717C63.1367 76.5907 63.5618 76.1339 63.8453 75.6069C64.1287 75.0448 64.2704 74.4124 64.2704 73.6745C64.235 72.6908 63.9515 71.8476 63.3492 71.18ZM60.8337 76.3096C60.2669 76.3096 59.8063 76.0637 59.452 75.6069C59.0977 75.1502 58.8851 74.5178 58.8851 73.8151C58.8851 73.0773 59.0623 72.48 59.4166 71.9881C59.7709 71.5314 60.2669 71.2854 60.8692 71.2854C61.4715 71.2854 61.9321 71.5314 62.2864 71.9881C62.6406 72.48 62.8178 73.0773 62.8178 73.7448C62.8178 74.4826 62.6406 75.115 62.2509 75.5718C61.8966 76.0637 61.4006 76.3096 60.8337 76.3096Z" fill="#00AF87"/>
<path d="M69.0162 70.2314C68.8744 70.1963 68.7327 70.1963 68.6619 70.1963C68.2367 70.1963 67.847 70.3368 67.4573 70.6179C67.1384 70.8287 66.9258 71.1449 66.7487 71.5314L66.6778 70.372H65.4023V70.4422C65.4378 71.0044 65.4732 71.707 65.4732 72.5854V77.2582H66.8904V73.6394C66.8904 72.9719 67.0675 72.48 67.3864 72.0935C67.7053 71.7422 68.095 71.5665 68.5556 71.5665C68.7327 71.5665 68.8744 71.5665 68.9807 71.6016H69.0516V70.2666L69.0162 70.2314Z" fill="#00AF87"/>
<path d="M1.06289 39.7004C1.06289 18.3741 18.5297 1.05304 40 1.05304C61.4703 1.05304 78.9371 18.3741 78.9371 39.6653C78.9371 49.6082 75.1107 58.7079 68.8751 65.559H70.2923C76.3507 58.6025 80 49.573 80 39.6653C80 17.7768 62.0372 -0.000976562 40 -0.000976562C17.9628 -0.000976562 0 17.8119 0 39.7004C0 49.573 3.64925 58.6376 9.70771 65.5941H11.1249C4.88928 58.7079 1.06289 49.6433 1.06289 39.7004Z" fill="#00AF87"/>
<path d="M2.19746 39.7005C2.19746 19.0417 19.1682 2.21256 40.0008 2.21256C60.8334 2.21256 77.8042 19.0417 77.8042 39.7005C77.8042 49.7137 73.8006 58.8485 67.317 65.5942H68.0611C74.4384 58.8134 78.3356 49.7137 78.3356 39.7005C78.3356 18.7255 61.1523 1.68555 40.0008 1.68555C18.8494 1.68555 1.66602 18.7255 1.66602 39.7005C1.66602 49.6785 5.56327 58.7782 11.9406 65.5942H12.6846C6.201 58.8485 2.19746 49.7137 2.19746 39.7005Z" fill="#00AF87"/>
<path d="M33.6934 14.511V14.0191L34.1894 13.5624C35.1814 12.6489 35.642 12.157 35.642 11.63C35.642 11.2787 35.4294 10.9273 34.898 10.9273C34.5437 10.9273 34.2248 11.103 34.0122 11.2787L33.7996 10.7165C34.0831 10.4706 34.5437 10.2949 35.0751 10.2949C35.9963 10.2949 36.4569 10.8571 36.4569 11.5597C36.4569 12.2976 35.9254 12.8597 35.2168 13.5272L34.8625 13.8435H36.5632V14.4759H33.6934V14.511Z" fill="#333333"/>
<path d="M40.035 12.4371C40.035 13.7722 39.5035 14.5803 38.5115 14.5803C37.5549 14.5803 37.0589 13.702 37.0234 12.4723C37.0234 11.2075 37.5549 10.3291 38.5469 10.3291C39.5744 10.3291 40.035 11.2075 40.035 12.4371ZM37.8383 12.4723C37.8383 13.456 38.1218 13.983 38.5469 13.983C39.0075 13.983 39.2555 13.4209 39.2555 12.4371C39.2555 11.4885 39.0429 10.9264 38.5469 10.9264C38.1218 10.9264 37.8383 11.4183 37.8383 12.4723Z" fill="#333333"/>
<path d="M41.7708 11.104L40.9913 11.4905L40.8496 10.8932L41.8416 10.4014H42.5148V14.512H41.7708V11.104Z" fill="#333333"/>
<path d="M46.4826 10.9625C46.3763 10.9625 46.2346 10.9625 46.0928 10.9977C45.2071 11.1031 44.8174 11.6301 44.7111 12.1922H44.7465C44.9591 11.9463 45.278 11.8057 45.6677 11.8057C46.3763 11.8057 46.9432 12.2976 46.9432 13.1408C46.9432 13.9138 46.3763 14.6164 45.4905 14.6164C44.4985 14.6164 43.9316 13.8435 43.9316 12.8597C43.9316 12.0517 44.2151 11.4193 44.6402 10.9977C45.03 10.6463 45.526 10.4355 46.1283 10.4004C46.3054 10.3652 46.4117 10.3652 46.518 10.4004L46.4826 10.9625ZM46.1283 13.1408C46.1283 12.6489 45.8803 12.3327 45.4197 12.3327C45.1362 12.3327 44.8528 12.5084 44.7465 12.7543C44.7111 12.8246 44.7111 12.8949 44.7111 13.0003C44.7111 13.5273 44.9945 13.984 45.4905 13.984C45.8448 13.984 46.1283 13.6327 46.1283 13.1408Z" fill="#333333"/>
</g>
<defs>
<clipPath id="clip0_408_4343">
<rect width="80" height="80" fill="white"/>
</clipPath>
</defs>
</svg>
