<svg width="80" height="80" viewBox="0 0 80 80" fill="none" xmlns="http://www.w3.org/2000/svg">
<g clip-path="url(#clip0_408_4463)">
<path d="M20.231 23.2586C20.0184 23.364 19.5224 23.5046 18.9201 23.5046C17.3257 23.5046 16.3691 22.5208 16.3691 21.01C16.3691 19.3588 17.5029 18.375 19.0618 18.375C19.6641 18.375 20.0892 18.5155 20.2664 18.5858L20.0538 19.3236C19.8058 19.2182 19.4869 19.1479 19.0618 19.1479C18.0343 19.1479 17.2903 19.7804 17.2903 20.9749C17.2903 22.0641 17.928 22.7667 19.0264 22.7667C19.3807 22.7667 19.7704 22.6965 20.0184 22.5911L20.231 23.2586Z" fill="#333333"/>
<path d="M23.8461 21.2199H21.9329V22.6604H24.0587V23.3982H21.0117V18.4443H23.9524V19.1821H21.9329V20.4821H23.8461V21.2199Z" fill="#333333"/>
<path d="M24.873 18.5146C25.2273 18.4443 25.7234 18.4092 26.2548 18.4092C26.9634 18.4092 27.4594 18.5146 27.8137 18.7957C28.0971 19.0416 28.2389 19.3578 28.2389 19.7794C28.2389 20.4118 27.8137 20.8686 27.3177 21.0091V21.0442C27.672 21.1848 27.8846 21.5361 28.0263 21.9928C28.168 22.6253 28.3097 23.1874 28.416 23.3631H27.4594C27.3885 23.2225 27.2823 22.8009 27.1405 22.2036C26.9988 21.5712 26.7508 21.3604 26.2548 21.3253H25.7942V23.3982H24.873V18.5146ZM25.7588 20.6929H26.2902C26.8925 20.6929 27.2823 20.3767 27.2823 19.8848C27.2823 19.3227 26.8925 19.0767 26.2902 19.0767C26.0068 19.0767 25.8296 19.1119 25.7234 19.1119C25.7588 19.147 25.7588 20.6929 25.7588 20.6929Z" fill="#333333"/>
<path d="M30.0812 19.1821H28.6641V18.4443H32.455V19.1821H31.0024V23.3982H30.0812V19.1821Z" fill="#333333"/>
<path d="M33.9427 18.4443H33.0215V23.4334H33.9427V18.4443Z" fill="#333333"/>
<path d="M35.0059 18.4443H37.8757V19.1821H35.927V20.5524H37.7694V21.2902H35.927V23.3982H35.0059V18.4443Z" fill="#333333"/>
<path d="M39.718 18.4443H38.7969V23.4334H39.718V18.4443Z" fill="#333333"/>
<path d="M44.3228 23.2586C44.1102 23.364 43.6142 23.5046 43.0119 23.5046C41.4175 23.5046 40.4609 22.5208 40.4609 21.01C40.4609 19.3588 41.5947 18.375 43.1536 18.375C43.7559 18.375 44.181 18.5155 44.3582 18.5858L44.1456 19.3236C43.8976 19.2182 43.5787 19.1479 43.1536 19.1479C42.1261 19.1479 41.3821 19.7804 41.3821 20.9749C41.3821 22.0641 42.0198 22.7667 43.1182 22.7667C43.5079 22.7667 43.8622 22.6965 44.1102 22.5911L44.3228 23.2586Z" fill="#333333"/>
<path d="M46.165 21.9928L45.7398 23.3982H44.7832L46.3775 18.4092H47.5467L49.1765 23.3982H48.1844L47.7239 21.9928H46.165ZM47.6176 21.3253L47.2278 20.0956C47.1216 19.7794 47.0507 19.4632 46.9798 19.1821C46.909 19.4632 46.8381 19.8145 46.7318 20.0956L46.3421 21.3253H47.6176Z" fill="#333333"/>
<path d="M50.2749 19.1821H48.8223V18.4443H52.6132V19.1821H51.1606V23.3982H50.2749V19.1821Z" fill="#333333"/>
<path d="M56.0157 21.2199H54.138V22.6604H56.2283V23.3982H53.2168V18.4443H56.122V19.1821H54.138V20.4821H56.0157V21.2199Z" fill="#333333"/>
<path d="M61.8616 21.2207C61.8616 22.4504 61.0113 23.4693 59.7712 23.4693C58.8501 23.4693 58.2832 22.8369 58.2832 21.9937C58.2832 20.764 59.1335 19.71 60.3735 19.71C61.3656 19.7451 61.8616 20.4478 61.8616 21.2207ZM59.1689 21.9937C59.1689 22.4855 59.4524 22.8369 59.8775 22.8369C60.5153 22.8369 60.9404 21.9585 60.9404 21.2207C60.9404 20.8694 60.7633 20.3775 60.2318 20.3775C59.5941 20.4126 59.1689 21.3261 59.1689 21.9937Z" fill="#333333"/>
<path d="M62.3574 23.399L62.9243 20.4829H62.4637L62.6054 19.8153H63.066L63.1014 19.6397C63.1723 19.1829 63.3495 18.7262 63.7037 18.4451C63.9872 18.1992 64.306 18.1289 64.6603 18.1289C64.9084 18.1289 65.0855 18.164 65.1918 18.2343L65.0146 18.9019C64.9084 18.8667 64.8021 18.8316 64.6603 18.8316C64.2352 18.8316 64.0226 19.2181 63.9518 19.6748L63.9163 19.8505H64.6603L64.5186 20.518H63.7746L63.2077 23.4341C63.2077 23.399 62.3574 23.399 62.3574 23.399Z" fill="#333333"/>
<path d="M15.59 29.5824H12.8619V31.6904H15.9443V32.7796H11.5156V25.542H15.7672V26.6311H12.8619V28.4932H15.59V29.5824Z" fill="#333333"/>
<path d="M21.011 32.7796L20.1961 31.3391C19.8773 30.777 19.6647 30.3905 19.4875 29.9689H19.4521C19.275 30.3905 19.0978 30.777 18.7789 31.3391L18.0703 32.7796H16.5469L18.7081 29.1257L16.6177 25.542H18.1412L18.9207 27.0176C19.1687 27.4744 19.3458 27.8257 19.523 28.2122H19.5584C19.7355 27.7554 19.9127 27.4392 20.1253 27.0176L20.9047 25.542H22.4282L20.3024 29.0554L22.5345 32.7445L21.011 32.7796Z" fill="#333333"/>
<path d="M28.3811 32.5687C28.0622 32.7444 27.389 32.8849 26.5033 32.8849C24.2004 32.8849 22.7832 31.4444 22.7832 29.231C22.7832 26.8419 24.4484 25.4014 26.6805 25.4014C27.5662 25.4014 28.1685 25.577 28.4519 25.7176L28.1685 26.7716C27.8142 26.6311 27.3536 26.4905 26.7513 26.4905C25.2633 26.4905 24.2004 27.404 24.2004 29.1607C24.2004 30.7417 25.157 31.7606 26.7513 31.7606C27.2828 31.7606 27.8496 31.6552 28.2039 31.4795L28.3811 32.5687Z" fill="#333333"/>
<path d="M33.5881 29.5824H30.8246V31.6904H33.9069V32.7796H29.5137V25.542H33.7298V26.6311H30.8246V28.4932H33.5881V29.5824Z" fill="#333333"/>
<path d="M35.0762 25.542H36.3871V31.6904H39.3986V32.7796H35.0762V25.542Z" fill="#333333"/>
<path d="M40.3906 25.542H41.737V31.6904H44.713V32.7796H40.3906V25.542Z" fill="#333333"/>
<path d="M49.7795 29.5824H47.0514V31.6904H50.1338V32.7796H45.7051V25.542H49.9566V26.6311H47.0514V28.4932H49.7795V29.5824Z" fill="#333333"/>
<path d="M51.3027 32.7796V25.542H52.8262L54.704 28.6338C55.2 29.4419 55.6251 30.2851 55.944 31.058H55.9794C55.9086 30.1094 55.8731 29.1608 55.8731 28.0716V25.542H57.1132V32.7796H55.7314L53.8182 29.5824C53.3576 28.8094 52.8616 27.896 52.5073 27.0879H52.4719C52.5428 28.0365 52.5428 28.9851 52.5428 30.1797V32.7445C52.5073 32.7796 51.3027 32.7796 51.3027 32.7796Z" fill="#333333"/>
<path d="M63.8088 32.5687C63.4899 32.7444 62.8168 32.8849 61.931 32.8849C59.6281 32.8849 58.2109 31.4444 58.2109 29.231C58.2109 26.8419 59.8761 25.4014 62.1082 25.4014C62.9939 25.4014 63.5962 25.577 63.8797 25.7176L63.5962 26.7716C63.2419 26.6311 62.7814 26.4905 62.179 26.4905C60.691 26.4905 59.6281 27.404 59.6281 29.1607C59.6281 30.7417 60.5847 31.7606 62.179 31.7606C62.7105 31.7606 63.2774 31.6552 63.6317 31.4795L63.8088 32.5687Z" fill="#333333"/>
<path d="M69.0178 29.5824H66.2897V31.6904H69.3366V32.7796H64.9434V25.542H69.1949V26.6311H66.2897V28.4932H69.0178V29.5824Z" fill="#333333"/>
<path d="M30.0436 60.185C25.5441 60.185 21.8594 56.5662 21.8594 52.0691C21.8594 47.6071 25.5086 43.9531 30.0436 43.9531C34.5786 43.9531 38.2278 47.5719 38.2278 52.0691C38.2278 56.5662 34.5786 60.185 30.0436 60.185Z" fill="white"/>
<path d="M50.3795 60.185C45.8446 60.185 42.1953 56.5662 42.1953 52.0691C42.1953 47.6071 45.8446 43.9531 50.3795 43.9531C54.8791 43.9531 58.5638 47.5719 58.5638 52.0691C58.5638 56.5662 54.8791 60.185 50.3795 60.185Z" fill="white"/>
<path d="M30.0078 41.9851C32.913 40.7203 36.5269 40.0527 40.1407 40.0527C43.7899 40.0527 47.0494 40.7203 49.9901 41.9851C44.5339 42.1608 40.1407 46.5877 40.1407 52.0334C40.1407 46.5174 35.6057 42.0202 30.0078 41.9851Z" fill="#F8C40F"/>
<path d="M29.9367 50.4521C29.0155 50.4521 28.2715 51.19 28.2715 52.1034C28.2715 53.0169 29.0155 53.7547 29.9367 53.7547C30.8578 53.7547 31.6019 53.0169 31.6019 52.1034C31.5664 51.19 30.8224 50.4521 29.9367 50.4521Z" fill="#EF6945"/>
<path d="M50.3449 50.4521C49.4237 50.4521 48.6797 51.19 48.6797 52.1034C48.6797 53.0169 49.4237 53.7547 50.3449 53.7547C51.2661 53.7547 52.0101 53.0169 52.0101 52.1034C52.0101 51.19 51.2661 50.4521 50.3449 50.4521Z" fill="#00AF87"/>
<path d="M29.9375 47.1497C27.2095 47.1497 25.0128 49.328 25.0128 52.0333C25.0128 54.7386 27.2095 56.9169 29.9375 56.9169C32.6656 56.9169 34.8623 54.7386 34.8623 52.0333C34.8623 49.3631 32.6656 47.1497 29.9375 47.1497ZM29.9375 55.4413C28.0598 55.4413 26.5363 53.9306 26.5363 52.0685C26.5363 50.2064 28.0598 48.6956 29.9375 48.6956C31.8153 48.6956 33.3388 50.2064 33.3388 52.0685C33.3742 53.9306 31.8153 55.4413 29.9375 55.4413ZM60.6196 42.1255H53.8171C50.345 39.8067 45.6329 38.3662 40.2121 38.3662C34.7914 38.3662 29.725 39.8067 26.2883 42.1255H19.8047C20.8676 43.3552 21.647 45.0065 21.8242 46.1308C20.6196 47.7821 19.8755 49.8199 19.8755 52.0333C19.8755 57.5845 24.4105 62.1168 30.0438 62.1168C33.2325 62.1168 36.0669 60.6763 37.9446 58.3926C38.6887 59.2709 39.9641 61.0276 40.2121 61.5546C40.2121 61.5546 41.6647 59.4114 42.4796 58.3926C44.3574 60.6763 47.1918 62.1168 50.345 62.1168C55.9429 62.1168 60.5133 57.6196 60.5133 52.0333C60.5133 49.8199 59.8047 47.7821 58.5647 46.1308C58.7772 45.0417 59.5567 43.3552 60.6196 42.1255ZM30.0438 60.1844C25.5443 60.1844 21.8596 56.5656 21.8596 52.0685C21.8596 47.6064 25.5089 43.9525 30.0438 43.9525C34.5788 43.9525 38.2281 47.5713 38.2281 52.0685C38.2281 56.5656 34.5788 60.1844 30.0438 60.1844ZM30.0793 41.985C32.9845 40.7202 36.5983 40.0526 40.2121 40.0526C43.8614 40.0526 47.1563 40.7202 50.0616 41.985C44.6054 42.1607 40.2121 46.5876 40.2121 52.0333C40.2121 46.5173 35.6771 42.0201 30.0793 41.985ZM50.3804 60.1844C45.8454 60.1844 42.1962 56.5656 42.1962 52.0685C42.1962 47.6064 45.8454 43.9525 50.3804 43.9525C54.88 43.9525 58.5647 47.5713 58.5647 52.0685C58.5647 56.5656 54.88 60.1844 50.3804 60.1844ZM50.3804 47.1497C47.6523 47.1497 45.4557 49.328 45.4557 52.0333C45.4557 54.7386 47.6523 56.9169 50.3804 56.9169C53.1085 56.9169 55.3051 54.7386 55.3051 52.0333C55.3051 49.328 53.1085 47.1497 50.3804 47.1497ZM50.3804 55.4062C48.5026 55.4062 46.9792 53.8954 46.9792 52.0333C46.9792 50.1712 48.5026 48.6605 50.3804 48.6605C52.2582 48.6605 53.7817 50.1712 53.7817 52.0333C53.7817 53.8954 52.2582 55.4062 50.3804 55.4062Z" fill="#333333"/>
<path d="M62.9224 43.7765H62.6035V42.4414H63.0995C63.3475 42.4414 63.631 42.4765 63.631 42.8279C63.631 43.0035 63.5601 43.1441 63.3475 43.1792L63.6664 43.7765H63.3121L63.0287 43.2144H62.9224V43.7765ZM62.9224 43.0035C63.0995 43.0035 63.135 43.0035 63.1704 43.0035C63.2767 42.9684 63.2767 42.8981 63.2767 42.8279C63.2767 42.7225 63.2413 42.6873 63.1704 42.6522C63.135 42.6522 63.0641 42.6522 62.887 42.6522V43.0035H62.9224Z" fill="#333333"/>
<path d="M63.1346 41.915C62.4614 41.915 61.8945 42.4772 61.8945 43.1447C61.8945 43.8123 62.4614 44.3744 63.1346 44.3744C63.8077 44.3744 64.3746 43.8474 64.3746 43.1447C64.3392 42.4772 63.8077 41.915 63.1346 41.915ZM63.1346 44.1285C62.5677 44.1285 62.1425 43.6717 62.1425 43.1447C62.1425 42.5826 62.6031 42.161 63.1346 42.161C63.7014 42.161 64.1266 42.6177 64.1266 43.1447C64.1266 43.7069 63.666 44.1285 63.1346 44.1285Z" fill="#333333"/>
<path d="M12.4 71.4621V70.373H10.5931V68.7217L9.21133 69.1433V70.373H8.14844V71.4621H9.21133V75.0107C9.21133 76.5917 9.84906 77.3998 11.1245 77.3998C11.5851 77.3998 11.9748 77.3295 12.3291 77.2241H12.3646L12.2937 76.1349L12.2228 76.1701C12.0457 76.2403 11.7977 76.2403 11.4788 76.2403C11.16 76.2403 10.9474 76.1349 10.8057 75.9593C10.6639 75.7485 10.5931 75.4323 10.5931 74.9755V71.5324L12.4 71.4621Z" fill="#333333"/>
<path d="M17.2193 70.2324C17.0776 70.1973 16.9358 70.1973 16.865 70.1973C16.4398 70.1973 16.0501 70.3378 15.6604 70.6189C15.3415 70.8297 15.1289 71.1459 14.9518 71.5324L14.8809 70.3729H13.6055V70.4432C13.6409 71.0053 13.6763 71.708 13.6763 72.5864V77.2592H15.0935V73.6404C15.0935 72.9728 15.2707 72.481 15.5895 72.0945C15.9084 71.7432 16.2981 71.5675 16.7587 71.5675C16.9358 71.5675 17.0776 71.5675 17.1839 71.6026H17.2547V70.2675L17.2193 70.2324Z" fill="#333333"/>
<path d="M19.9113 70.373H18.4941V77.2242H19.9113V70.373Z" fill="#333333"/>
<path d="M19.2021 69.2489C19.4856 69.2489 19.6982 69.1786 19.8399 69.0029C20.017 68.8273 20.0879 68.6165 20.0879 68.3705C20.0879 68.1246 20.017 67.9138 19.8399 67.7381C19.6627 67.5625 19.4502 67.4922 19.2021 67.4922C18.9541 67.4922 18.7061 67.5625 18.5644 67.7381C18.3873 67.9138 18.3164 68.1246 18.3164 68.3705C18.3164 68.6165 18.3873 68.8273 18.5644 69.0029C18.7416 69.1435 18.9541 69.2489 19.2021 69.2489Z" fill="#333333"/>
<path d="M26.8554 71.1449C26.2885 70.4773 25.5799 70.1611 24.765 70.1611C23.7376 70.1611 22.9581 70.5476 22.4267 71.3206L22.3558 70.3017H21.0449V70.4071C21.0804 70.9692 21.0804 71.707 21.0804 72.6205V79.9986H22.4975V76.4852C22.7101 76.7312 22.9581 76.942 23.2416 77.1177C23.6313 77.2933 24.0564 77.3987 24.4816 77.3987C25.3673 77.3987 26.1468 77.0474 26.7137 76.3798C27.316 75.7123 27.5994 74.7988 27.5994 73.6745C27.7057 72.6556 27.4222 71.8124 26.8554 71.1449ZM23.3478 71.707C23.6667 71.4962 23.9856 71.3908 24.3399 71.3908C24.9067 71.3908 25.3673 71.6016 25.6862 72.0584C26.0405 72.5151 26.2176 73.0772 26.2176 73.7448C26.2176 74.5177 26.0405 75.115 25.6862 75.5718C25.3319 76.0285 24.8713 76.2393 24.269 76.2393C23.773 76.2393 23.3478 76.0636 23.029 75.7123C22.6747 75.361 22.4975 74.9394 22.4975 74.4123V73.2881C22.4975 73.0773 22.5684 72.8313 22.6747 72.5151C22.8518 72.1989 23.0644 71.9178 23.3478 71.707Z" fill="#333333"/>
<path d="M71.3208 71.673H71.002V70.3379H71.498C71.746 70.3379 72.0294 70.373 72.0294 70.7244C72.0294 70.9 71.9586 71.0054 71.746 71.0757L72.0648 71.673H71.7105L71.4271 71.1108H71.3208V71.673ZM71.3208 70.9C71.498 70.9 71.5334 70.9 71.5688 70.9C71.6751 70.8649 71.6751 70.7946 71.6751 70.7244C71.6751 70.619 71.6397 70.5838 71.5688 70.5487C71.5334 70.5487 71.4625 70.5487 71.2854 70.5487L71.3208 70.9Z" fill="#00AF87"/>
<path d="M71.533 69.8115C70.8598 69.8115 70.293 70.3385 70.293 71.0412C70.293 71.7088 70.8598 72.2709 71.533 72.2709C72.2062 72.2709 72.773 71.7088 72.773 71.0412C72.773 70.3737 72.2062 69.8115 71.533 69.8115ZM71.533 72.025C70.9661 72.025 70.541 71.5682 70.541 71.0412C70.541 70.4791 71.0016 70.0575 71.533 70.0575C72.0999 70.0575 72.525 70.5142 72.525 71.0412C72.525 71.5682 72.0999 72.025 71.533 72.025Z" fill="#00AF87"/>
<path d="M34.0482 77.1538C33.9773 76.7673 33.9419 76.2052 33.9419 75.5376V73.0782C33.9419 72.1648 33.6939 71.427 33.2333 70.9351C32.7727 70.4432 32.0641 70.1973 31.1784 70.1973C30.2572 70.1973 29.4778 70.4081 28.8046 70.8297L28.7692 70.8648L29.088 71.8134L29.1589 71.7783C29.6903 71.427 30.2926 71.2864 31.0012 71.2864C31.4973 71.2864 31.887 71.427 32.135 71.6729C32.383 71.9188 32.5247 72.3053 32.5247 72.762V72.8323C31.1784 72.8323 30.1155 73.0431 29.4069 73.4999C28.6629 73.9566 28.3086 74.589 28.3086 75.4322C28.3086 75.9944 28.5212 76.4511 28.9109 76.8376C29.3006 77.2241 29.8321 77.4349 30.5052 77.4349C31.391 77.4349 32.0996 77.1187 32.631 76.4862L32.7727 77.2592H34.0836L34.0482 77.1538ZM32.0641 75.8538C31.7453 76.1349 31.3201 76.3106 30.8595 76.3106C30.5407 76.3106 30.2572 76.2052 30.0446 76.0295C29.8321 75.8538 29.7258 75.5728 29.7258 75.2214C29.7258 74.7998 29.9384 74.4485 30.3281 74.2025C30.7532 73.9566 31.4618 73.8161 32.5247 73.8161V74.8701C32.5601 75.2214 32.383 75.5728 32.0641 75.8538Z" fill="#00AF87"/>
<path d="M41.2752 77.2592V77.1538C41.2397 76.7322 41.2043 76.1349 41.2043 75.3971V67.1406H39.7871V71.0054C39.61 70.7946 39.362 70.5837 39.0785 70.4432C38.7242 70.2324 38.2637 70.1621 37.8031 70.1621C36.9173 70.1621 36.1733 70.5135 35.6064 71.2162C35.0041 71.9188 34.7207 72.7972 34.7207 73.8863C34.7207 74.9052 35.0041 75.7484 35.571 76.3808C36.1379 77.0484 36.8465 77.3646 37.6968 77.3646C38.2282 77.3646 38.6888 77.2592 39.114 77.0133C39.4328 76.8025 39.7163 76.5565 39.9289 76.2403L39.9997 77.2241L41.2752 77.2592ZM39.7871 73.1837V74.2728C39.7871 74.8701 39.61 75.3268 39.2557 75.6782C38.9014 76.0295 38.5117 76.2052 38.0511 76.2052C37.4488 76.2052 36.9882 75.9944 36.6693 75.5376C36.3505 75.0809 36.1733 74.5188 36.1733 73.8161C36.1733 73.0783 36.3505 72.481 36.7048 72.0242C37.0591 71.5675 37.5196 71.3567 38.0865 71.3567C38.5471 71.3567 38.9723 71.5324 39.2911 71.8486C39.61 72.1999 39.7871 72.6567 39.7871 73.1837Z" fill="#00AF87"/>
<path d="M47.1216 70.373C47.1216 70.373 45.3501 73.9567 45.2084 74.3783C45.0313 73.8864 43.2952 70.373 43.2952 70.373H41.7363L45.2084 77.2242L48.6097 70.373H47.1216Z" fill="#00AF87"/>
<path d="M50.7355 70.373H49.3184V77.2242H50.7355V70.373Z" fill="#00AF87"/>
<path d="M50.0264 69.2479C50.3098 69.2479 50.5224 69.1776 50.6641 69.002C50.8412 68.8263 50.9121 68.6155 50.9121 68.3696C50.9121 68.1236 50.8412 67.9128 50.6641 67.7371C50.487 67.5615 50.2744 67.4912 50.0264 67.4912C49.7784 67.4912 49.5303 67.5615 49.3886 67.7371C49.2115 67.9128 49.1406 68.1236 49.1406 68.3696C49.1406 68.6155 49.2115 68.8263 49.3886 69.002C49.5658 69.1425 49.7784 69.2479 50.0264 69.2479Z" fill="#00AF87"/>
<path d="M56.3693 74.0268C56.0859 73.7106 55.5898 73.4296 54.9167 73.1836C54.3852 73.008 54.0309 72.8323 53.8538 72.6566C53.6766 72.5161 53.6058 72.3053 53.6058 72.0945C53.6058 71.8485 53.7121 71.6377 53.8892 71.4972C54.0664 71.3567 54.3498 71.2513 54.6687 71.2513C55.1647 71.2513 55.6253 71.3918 56.1213 71.6377L56.1921 71.6729L56.5464 70.6189L56.511 70.5837C56.015 70.3026 55.4127 70.1621 54.7395 70.1621C53.9955 70.1621 53.3932 70.3729 52.9326 70.7594C52.472 71.1459 52.2595 71.6377 52.2595 72.235C52.2595 73.1134 52.8972 73.7809 54.1726 74.2025C54.6332 74.343 54.9521 74.5187 55.1647 74.6944C55.3418 74.8701 55.4481 75.0809 55.4481 75.3619C55.4481 75.643 55.3418 75.8538 55.1293 76.0295C54.9167 76.2051 54.5978 76.2754 54.1726 76.2754C53.6058 76.2754 53.0389 76.0997 52.472 75.7835L52.4012 75.7484L52.0469 76.8376L52.0823 76.8727C52.6846 77.1889 53.3578 77.3646 54.1018 77.3646C54.9167 77.3646 55.5898 77.1538 56.0504 76.8024C56.5464 76.416 56.7944 75.8889 56.7944 75.2565C56.7944 74.7647 56.6527 74.3782 56.3693 74.0268Z" fill="#00AF87"/>
<path d="M63.3492 71.181C62.7469 70.5135 61.9321 70.1973 60.9755 70.1973C59.9834 70.1973 59.1685 70.5486 58.5308 71.181C57.8931 71.8486 57.5742 72.7269 57.5742 73.8161C57.5742 74.8701 57.8931 75.7133 58.4954 76.3457C59.1331 77.0133 59.9126 77.3295 60.8692 77.3295C61.4715 77.3295 62.0738 77.1889 62.6052 76.8727C63.1367 76.5916 63.5618 76.1349 63.8453 75.6079C64.1287 75.0457 64.2704 74.4133 64.2704 73.6755C64.235 72.6918 63.9515 71.8486 63.3492 71.181ZM60.8337 76.3106C60.2669 76.3106 59.8063 76.0646 59.452 75.6079C59.0977 75.1512 58.8851 74.5187 58.8851 73.8161C58.8851 73.0783 59.0623 72.481 59.4166 71.9891C59.7709 71.5324 60.2669 71.2864 60.8692 71.2864C61.4715 71.2864 61.9321 71.5324 62.2864 71.9891C62.6406 72.481 62.8178 73.0782 62.8178 73.7458C62.8178 74.4836 62.6406 75.116 62.2509 75.5728C61.8966 76.0646 61.4006 76.3106 60.8337 76.3106Z" fill="#00AF87"/>
<path d="M69.0181 70.2324C68.8764 70.1973 68.7347 70.1973 68.6638 70.1973C68.2387 70.1973 67.8489 70.3378 67.4592 70.6189C67.1403 70.8297 66.9278 71.1459 66.7506 71.5324L66.6798 70.3729H65.4043V70.4432C65.4397 71.0053 65.4752 71.708 65.4752 72.5864V77.2592H66.8923V73.6404C66.8923 72.9728 67.0695 72.481 67.3884 72.0945C67.7072 71.7432 68.0969 71.5675 68.5575 71.5675C68.7347 71.5675 68.8764 71.5675 68.9827 71.6026H69.0535V70.2675L69.0181 70.2324Z" fill="#00AF87"/>
<path d="M1.06289 39.7014C1.06289 18.3751 18.5297 1.05402 40 1.05402C61.4703 1.05402 78.9371 18.3751 78.9371 39.6662C78.9371 49.6091 75.1107 58.7088 68.8751 65.56H70.2923C76.3507 58.6034 80 49.574 80 39.6662C80 17.7778 62.0372 0 40 0C17.9628 0 0 17.8129 0 39.7014C0 49.574 3.64925 58.6386 9.70771 65.5951H11.1249C4.88928 58.7088 1.06289 49.6443 1.06289 39.7014Z" fill="#00AF87"/>
<path d="M2.19551 39.7015C2.19551 19.0427 19.1663 2.21353 39.9989 2.21353C60.8315 2.21353 77.8022 19.0427 77.8022 39.7015C77.8022 49.7146 73.7987 58.8495 67.3151 65.5952H68.0591C74.4364 58.8143 78.3337 49.7146 78.3337 39.7015C78.3337 18.7265 61.1503 1.68652 39.9989 1.68652C18.8474 1.68652 1.66406 18.7265 1.66406 39.7015C1.66406 49.6795 5.56132 58.7792 11.9386 65.5952H12.6827C6.19905 58.8495 2.19551 49.7146 2.19551 39.7015Z" fill="#00AF87"/>
<path d="M33.6934 14.51V14.0181L34.1894 13.5614C35.1814 12.6479 35.642 12.156 35.642 11.629C35.642 11.2777 35.4294 10.9264 34.898 10.9264C34.5437 10.9264 34.2248 11.102 34.0122 11.2777L33.7996 10.7156C34.0831 10.4696 34.5437 10.2939 35.0751 10.2939C35.9963 10.2939 36.4569 10.8561 36.4569 11.5588C36.4569 12.2966 35.9254 12.8587 35.2168 13.5263L34.8625 13.8425H36.5632V14.4749H33.6934V14.51Z" fill="#333333"/>
<path d="M40.035 12.4371C40.035 13.7722 39.5035 14.5803 38.5115 14.5803C37.5549 14.5803 37.0589 13.702 37.0234 12.4723C37.0234 11.2075 37.5549 10.3291 38.5469 10.3291C39.5744 10.3291 40.035 11.2075 40.035 12.4371ZM37.8383 12.4723C37.8383 13.456 38.1218 13.983 38.5469 13.983C39.0075 13.983 39.2555 13.4209 39.2555 12.4371C39.2555 11.4885 39.0429 10.9264 38.5469 10.9264C38.1218 10.9264 37.8383 11.4183 37.8383 12.4723Z" fill="#333333"/>
<path d="M41.7708 11.1021L40.9913 11.4886L40.8496 10.8913L41.8416 10.3994H42.5148V14.5101H41.7708V11.1021Z" fill="#333333"/>
<path d="M43.8965 13.456C43.8965 12.929 44.1799 12.5777 44.6759 12.402V12.3669C44.2508 12.1561 44.0382 11.8047 44.0382 11.4534C44.0382 10.7858 44.6405 10.3291 45.42 10.3291C46.3057 10.3291 46.7308 10.8561 46.7308 11.3831C46.7308 11.7345 46.5537 12.0858 46.0931 12.2966C46.5537 12.4723 46.8726 12.8236 46.8726 13.3506C46.8726 14.0884 46.2348 14.5803 45.3491 14.5803C44.3925 14.5803 43.8965 14.0182 43.8965 13.456ZM46.0931 13.4209C46.0931 12.9993 45.7743 12.7885 45.3137 12.6479C44.9239 12.7533 44.7114 13.0344 44.7114 13.3858C44.7114 13.7371 44.9594 14.0533 45.42 14.0533C45.8097 14.0182 46.0931 13.7722 46.0931 13.4209ZM44.7822 11.4183C44.7822 11.7696 45.0657 11.9453 45.4554 12.0507C45.7388 11.9804 45.9868 11.7345 45.9868 11.4183C45.9868 11.1372 45.8097 10.821 45.3845 10.821C44.9948 10.8561 44.7822 11.1372 44.7822 11.4183Z" fill="#333333"/>
</g>
<defs>
<clipPath id="clip0_408_4463">
<rect width="80" height="80" fill="white"/>
</clipPath>
</defs>
</svg>
