<svg xmlns="http://www.w3.org/2000/svg" width="80" height="80" fill="none"><g clip-path="url(#a)"><path fill="#333" d="m20.2 23.3-1.3.2q-2.5-.1-2.5-2.5.2-2.5 2.7-2.6l1.2.2-.2.7-1-.2q-1.7 0-1.8 1.9 0 1.6 1.7 1.8l1-.2zM23.8 21.2H22v1.5h2.2v.7h-3v-5H24v.8h-2v1.3h1.8zM24.9 18.5h1.4q1 0 1.5.3.4.4.4 1 0 .9-.9 1.2.6.3.7 1l.4 1.4h-1l-.3-1.2q-.1-.8-.8-.9h-.5v2.1h-1zm.9 2.2h.5q1 0 1-.8t-1-.8h-.6zM30 19.2h-1.3v-.8h3.8v.8H31v4.2h-1zM34 18.4h-1v5h1zM35 18.4H38v.8h-2v1.4h1.9v.7h-1.9v2.1H35zM39.7 18.4h-.9v5h1zM44.3 23.3l-1.3.2q-2.5-.1-2.5-2.5 0-2.5 2.7-2.6l1.2.2-.3.7-1-.2q-1.6 0-1.7 1.9 0 1.6 1.7 1.8l1-.2zM46.2 22l-.5 1.4h-1l1.7-5h1.1l1.7 5h-1l-.5-1.4zm1.4-.7-.4-1.2-.2-1q0 .6-.3 1l-.4 1.2zM50.3 19.2h-1.5v-.8h3.8v.8h-1.4v4.2h-1zM56 21.2h-1.9v1.5h2.1v.7h-3v-5h3v.8h-2v1.3H56zM61.9 21.2q-.1 2.1-2.1 2.3-1.5-.2-1.5-1.5c0-1.2.8-2.3 2-2.3q1.5.1 1.6 1.5m-2.7.8q0 .8.7.8c.6 0 1-.8 1-1.6q.1-.6-.7-.8c-.6 0-1 1-1 1.6M62.4 23.4l.5-3h-.4l.1-.6h.5v-.2q0-.7.6-1.2.4-.3 1-.3l.5.1-.2.7h-.3q-.7 0-.7.8v.2h.7l-.2.6h-.7l-.6 3zM15.6 29.6h-2.7v2h3v1.2h-4.4v-7.3h4.3v1.1h-3v1.9h2.8zM21 32.8l-.8-1.5-.7-1.3-.7 1.3-.7 1.5h-1.6l2.2-3.7-2-3.6H18L19 27l.6 1.2.6-1.2.8-1.5h1.5l-2.1 3.6 2.2 3.6zM28.4 32.6q-.5.2-1.9.3-3.6-.2-3.7-3.7c0-2.4 1.6-3.8 3.9-3.8q1.3 0 1.8.3l-.3 1-1.4-.2q-2.4 0-2.6 2.7.1 2.4 2.6 2.6.8 0 1.4-.3zM33.6 29.6h-2.8v2H34v1.2h-4.4v-7.3h4.2v1.1h-2.9v1.9h2.8zM35 25.5h1.4v6.2h3v1h-4.3zM40.4 25.5h1.3v6.2h3v1h-4.3zM49.8 29.6H47v2h3v1.2h-4.4v-7.3H50v1.1h-3v1.9h2.8zM51.3 32.8v-7.3h1.5l1.9 3.1q.8 1.3 1.2 2.5v-5.6H57v7.3h-1.4l-1.9-3.2-1.3-2.5v5.6zM63.8 32.6q-.5.2-1.9.3-3.6-.2-3.7-3.7c0-2.4 1.7-3.8 4-3.8q1.2 0 1.7.3l-.3 1-1.4-.2q-2.4 0-2.6 2.7.1 2.4 2.6 2.6.8 0 1.4-.3zM69 29.6h-2.7v2h3v1.2H65v-7.3h4.3v1.1h-3v1.9H69z"/><path fill="#fff" d="M30 60.2A8 8 0 0 1 22 52c0-4.5 3.6-8.1 8.1-8.1a8.1 8.1 0 1 1 0 16.2M50.4 60.2a8.1 8.1 0 1 1 0-16.2c4.5 0 8.2 3.6 8.2 8 0 4.6-3.7 8.2-8.2 8.2"/><path fill="#f8c40f" d="M30 42a26 26 0 0 1 20 0c-5.5.2-9.9 4.6-9.9 10 0-5.5-4.5-10-10-10"/><path fill="#ef6945" d="M30 50.5q-1.6.1-1.7 1.6.1 1.6 1.6 1.7 1.6-.2 1.7-1.7-.2-1.5-1.7-1.6"/><path fill="#00af87" d="M50.3 50.5q-1.5.1-1.6 1.6.1 1.6 1.6 1.7Q52 53.6 52 52q-.1-1.5-1.7-1.6"/><path fill="#333" d="M30 47.1a4.9 4.9 0 1 0 0 9.8c2.7 0 4.9-2.2 4.9-4.9a5 5 0 0 0-5-4.9m0 8.3a3.4 3.4 0 0 1-3.5-3.3c0-1.9 1.6-3.4 3.4-3.4 2 0 3.4 1.5 3.4 3.4s-1.5 3.3-3.4 3.3m30.6-13.3h-6.8a25 25 0 0 0-13.6-3.7c-5.4 0-10.5 1.4-14 3.7h-6.4c1 1.3 1.8 3 2 4a10 10 0 0 0-2 6c0 5.5 4.6 10 10.2 10q4.9-.1 8-3.7c.7.9 2 2.6 2.2 3.2l2.3-3.2a10.2 10.2 0 0 0 18-6.4q0-3.3-2-5.9c.3-1 1-2.7 2.1-4M30 60.1a8 8 0 0 1-8.1-8c0-4.5 3.6-8.1 8.1-8.1a8.1 8.1 0 1 1 0 16.2M30 42a26 26 0 0 1 20 0c-5.4.2-9.8 4.6-9.8 10 0-5.5-4.5-10-10.1-10m20.4 18.2a8.1 8.1 0 1 1 0-16.2c4.5 0 8.2 3.6 8.2 8 0 4.6-3.7 8.2-8.2 8.2m0-13a4.9 4.9 0 1 0 0 9.7 4.9 4.9 0 1 0 0-9.8m0 8.2A3.4 3.4 0 0 1 47 52c0-1.8 1.5-3.3 3.4-3.3s3.4 1.5 3.4 3.3c0 1.9-1.5 3.4-3.4 3.4M63 43.8h-.4v-1.4h.5q.4-.1.5.4 0 .3-.3.4l.4.6h-.4l-.3-.6zm0-.8h.2v-.3h-.3v.3"/><path fill="#333" d="M63.1 42q-1 .1-1.2 1.1.1 1.2 1.2 1.3 1.2-.1 1.3-1.3-.1-1-1.3-1.2m0 2.1a1 1 0 0 1-1-1q.1-.9 1-1 1 .1 1 1t-1 1M12.4 71.5v-1.1h-1.8v-1.7l-1.4.4v1.3h-1v1h1V75q0 2.4 2 2.4.6 0 1.1-.2v-1h-.8q-.5 0-.7-.2l-.2-1v-3.5zM17.2 70.2H17a2 2 0 0 0-1.2.4l-.7 1-.1-1.2h-1.3v6.9h1.5v-3.7q0-.9.5-1.5t1.2-.5h.4zM20 70.4h-1.5v6.8h1.4zM19.2 69.2q.5 0 .6-.2l.3-.6a.8.8 0 0 0-.9-1l-.6.3q-.3.3-.3.7t.3.6zM26.9 71.1q-.9-1-2.1-1-1.5 0-2.4 1.2v-1H21V80h1.5v-3.5l.7.6q.6.3 1.3.3 1.3 0 2.2-1t.9-2.7q.1-1.5-.7-2.6m-3.6.6 1-.3q.9 0 1.4.7t.5 1.6q0 1.2-.5 1.9t-1.4.6-1.3-.5q-.5-.5-.5-1.3v-1.1q0-.3.2-.8z"/><path fill="#00af87" d="M71.3 71.7H71v-1.4h.5q.4-.1.5.4 0 .3-.3.4l.4.6h-.4l-.3-.6zm0-.8h.3v-.4h-.3z"/><path fill="#00af87" d="M71.5 69.8a1.2 1.2 0 1 0 0 2.5q1.2-.1 1.3-1.3-.1-1-1.3-1.2m0 2.2a1 1 0 1 1 0-2 1 1 0 1 1 0 2M34 77.2V73a3 3 0 0 0-.8-2.2q-.6-.7-2-.7t-2.4.6l.3 1q.9-.6 1.9-.5.8 0 1.1.4.4.3.4 1v.1q-2 0-3 .7-1.2.6-1.2 2 0 .8.6 1.3t1.6.6q1.3 0 2.1-1l.2.9zm-2-1.3q-.5.3-1.1.4-.5 0-.9-.3-.3-.2-.3-.8t.6-1 2.2-.4v1q0 .7-.4 1M41.3 77.3v-.1l-.1-1.8v-8.3h-1.4v4l-.7-.7q-.6-.2-1.3-.2-1.3 0-2.2 1a4 4 0 0 0-.9 2.7q0 1.5.9 2.5t2.1 1q.8 0 1.4-.4.5-.2.8-.8l.1 1zm-1.5-4.1v1q0 1-.5 1.5t-1.2.5q-1 0-1.4-.7a3 3 0 0 1-.5-1.7q0-1 .5-1.8.6-.6 1.4-.6t1.2.4.5 1.4M47.1 70.4l-1.9 4-1.9-4h-1.6l3.5 6.8 3.4-6.8zM50.7 70.4h-1.4v6.8h1.4zM50 69.2q.4 0 .7-.2l.2-.6a.8.8 0 0 0-.9-1l-.6.3q-.3.3-.3.7l.3.6zM56.4 74q-.4-.5-1.5-.8l-1-.5-.3-.6q0-.5.3-.6l.8-.2q.8 0 1.4.3l.4-1q-.7-.4-1.8-.4-1 0-1.8.6-.6.5-.6 1.4 0 1.4 1.9 2l1 .5.2.7q0 .4-.3.6-.3.3-1 .3t-1.6-.5h-.1l-.4 1q1 .6 2.1.6t2-.6q.6-.7.7-1.5t-.4-1.3M63.3 71.2a3 3 0 0 0-2.3-1q-1.5 0-2.5 1t-1 2.6 1 2.5q.9 1 2.4 1a3 3 0 0 0 3-1.7q.4-.8.4-2 0-1.5-1-2.4m-2.5 5.1q-.8 0-1.3-.7a3 3 0 0 1-.6-1.8q0-1 .5-1.8.6-.7 1.5-.7t1.4.7.5 1.7q0 1.2-.5 1.9t-1.5.7M69 70.2h-.3a2 2 0 0 0-1.2.4l-.7 1-.1-1.2h-1.3v6.9H67v-3.7q0-.9.5-1.5t1.2-.5h.4zM1 39.7A39 39 0 0 1 40 1.1a38.4 38.4 0 0 1 28.9 64.5h1.4A39.9 39.9 0 0 0 40 0 40 40 0 0 0 0 39.7c0 9.9 3.6 19 9.7 25.9h1.4c-6.2-6.9-10-16-10-25.9"/><path fill="#00af87" d="M2.2 39.7C2.2 19 19.2 2.2 40 2.2a37.3 37.3 0 0 1 27.3 63.4h.8a38 38 0 0 0 10.2-25.9c0-21-17.1-38-38.3-38s-38.3 17-38.3 38c0 10 3.9 19 10.2 25.9h.8A37 37 0 0 1 2.2 39.7"/><path fill="#333" d="M33.7 14.5V14l.5-.4q1.4-1.3 1.4-2T35 11q-.6 0-.9.4l-.2-.6a2 2 0 0 1 1.3-.4q1.4.1 1.4 1.3-.1 1-1.3 2l-.3.2h1.7v.7zM40 12.4q0 2.2-1.5 2.2-1.4-.2-1.5-2.1 0-2 1.5-2.2c1 0 1.5 1 1.5 2.1m-2.2 0q0 1.6.7 1.6.8 0 .8-1.6 0-1.5-.8-1.5-.7 0-.7 1.6M41.8 11.1l-.8.4-.2-.6 1-.5h.7v4.1h-.7zM43.9 13.5q0-1 .8-1.1-.7-.3-.7-1 .1-1 1.4-1 1.4.1 1.3 1 0 .5-.6.9.8.3.8 1-.1 1.3-1.6 1.3-1.4-.2-1.4-1.1m2.2 0q0-.7-.8-.9-.6.3-.6.8t.7.7q.7 0 .7-.7m-1.3-2q0 .4.7.6.4-.2.5-.7t-.6-.6q-.6 0-.6.6"/></g><defs><clipPath id="a"><path fill="#fff" d="M0 0h80v80H0z"/></clipPath></defs></svg>