<svg width="512" height="512" viewBox="0 0 512 512" fill="none" xmlns="http://www.w3.org/2000/svg">
<path d="M256.001 352C297.238 352 330.667 318.571 330.667 277.334C330.667 236.096 297.238 202.667 256.001 202.667C214.763 202.667 181.334 236.096 181.334 277.334C181.334 318.571 214.763 352 256.001 352Z" fill="black"/>
<path d="M422.55 128H396.374C391.027 128.005 385.815 126.326 381.476 123.201C377.137 120.077 373.893 115.665 372.203 110.592C367.696 97.0283 359.032 85.2282 347.441 76.8652C335.85 68.5022 321.92 64.001 307.627 64H204.395C190.091 63.9876 176.147 68.4825 164.543 76.8465C152.94 85.2104 144.266 97.018 139.755 110.592C138.068 115.658 134.83 120.065 130.5 123.189C126.17 126.313 120.967 127.996 115.627 128H89.4513C71.3924 128.023 54.0796 135.206 41.31 147.976C28.5404 160.746 21.3566 178.058 21.334 196.117V379.883C21.3566 397.942 28.5404 415.254 41.31 428.024C54.0796 440.794 71.3924 447.977 89.4513 448H422.55C440.609 447.977 457.922 440.794 470.691 428.024C483.461 415.254 490.645 397.942 490.667 379.883V196.117C490.645 178.058 483.461 160.746 470.691 147.976C457.922 135.206 440.609 128.023 422.55 128ZM106.667 234.667C102.448 234.667 98.3234 233.416 94.8152 231.071C91.3069 228.727 88.5726 225.395 86.9579 221.497C85.3432 217.599 84.9207 213.31 85.7439 209.171C86.567 205.033 88.5989 201.232 91.5824 198.248C94.5659 195.265 98.3671 193.233 102.505 192.41C106.644 191.587 110.933 192.009 114.831 193.624C118.729 195.239 122.061 197.973 124.405 201.481C126.749 204.989 128.001 209.114 128.001 213.333C128.001 218.991 125.753 224.418 121.752 228.418C117.751 232.419 112.325 234.667 106.667 234.667ZM256.001 394.667C232.794 394.667 210.109 387.785 190.814 374.892C171.518 362 156.479 343.675 147.599 322.235C138.718 300.795 136.395 277.203 140.922 254.443C145.449 231.682 156.624 210.776 173.033 194.366C189.443 177.957 210.35 166.782 233.11 162.255C255.87 157.727 279.462 160.051 300.902 168.932C322.342 177.812 340.667 192.851 353.56 212.146C366.452 231.442 373.334 254.127 373.334 277.333C373.294 308.44 360.92 338.261 338.924 360.257C316.928 382.253 287.107 394.627 256.001 394.667Z" fill="black"/>
</svg>
