<svg width="24" height="24" viewBox="0 0 24 24" fill="none" xmlns="http://www.w3.org/2000/svg">
<path d="M12 16C13.6569 16 15 14.6569 15 13C15 11.3431 13.6569 10 12 10C10.3431 10 9 11.3431 9 13C9 14.6569 10.3431 16 12 16Z" stroke="#333333" stroke-linecap="round" stroke-linejoin="round"/>
<path d="M4.125 16.2V9.55C4.125 8.56991 4.125 8.07986 4.31574 7.70552C4.48351 7.37623 4.75123 7.10851 5.08052 6.94074C5.45486 6.75 5.94491 6.75 6.925 6.75H7.84781C7.95538 6.75 8.00917 6.75 8.05879 6.74431C8.3177 6.71466 8.54992 6.57114 8.69223 6.35283C8.7195 6.31099 8.74357 6.26287 8.79166 6.16666C8.88788 5.97424 8.93599 5.87803 8.99054 5.79434C9.27516 5.35772 9.7396 5.07068 10.2574 5.01137C10.3567 5 10.4642 5 10.6794 5H13.3206C13.5358 5 13.6433 5 13.7426 5.01137C14.2604 5.07068 14.7248 5.35772 15.0095 5.79434C15.064 5.87802 15.1121 5.97427 15.2084 6.16666C15.2564 6.26288 15.2805 6.31099 15.3078 6.35283C15.4501 6.57114 15.6823 6.71466 15.9412 6.74431C15.9909 6.75 16.0446 6.75 16.1522 6.75H17.075C18.0551 6.75 18.5452 6.75 18.9195 6.94074C19.2488 7.10851 19.5165 7.37623 19.6842 7.70552C19.875 8.07986 19.875 8.56991 19.875 9.55V16.2C19.875 17.1801 19.875 17.6702 19.6842 18.0445C19.5165 18.3738 19.2488 18.6415 18.9195 18.8092C18.5452 19 18.0551 19 17.075 19H6.925C5.94491 19 5.45486 19 5.08052 18.8092C4.75123 18.6415 4.48351 18.3738 4.31574 18.0445C4.125 17.6702 4.125 17.1801 4.125 16.2Z" stroke="#333333" stroke-width="1.25" stroke-linecap="round" stroke-linejoin="round"/>
</svg>
