<svg width="512" height="512" viewBox="0 0 512 512" fill="none" xmlns="http://www.w3.org/2000/svg">
<path d="M237.717 0C227.69 0 219.583 8.18133 219.583 18.2827H219.434V164.587C219.434 169.437 217.507 174.089 214.078 177.518C210.648 180.948 205.996 182.875 201.146 182.875C196.296 182.875 191.644 180.948 188.214 177.518C184.785 174.089 182.858 169.437 182.858 164.587V18.2827H182.719C182.719 8.18133 174.591 0 164.575 0C154.549 0 146.431 8.18133 146.431 18.2827H146.293V164.587C146.293 169.437 144.366 174.089 140.936 177.518C137.507 180.948 132.855 182.875 128.005 182.875C123.154 182.875 118.503 180.948 115.073 177.518C111.643 174.089 109.717 169.437 109.717 164.587V18.2827C109.717 8.18133 101.589 0 91.5833 0C81.5566 0 73.4286 8.18133 73.4286 18.2827H73.1406V201.141C73.1406 223.637 95.7113 242.965 127.999 251.435V475.435C128.163 485.026 132.088 494.168 138.929 500.893C145.769 507.618 154.978 511.386 164.57 511.386C174.162 511.386 183.371 507.618 190.211 500.893C197.052 494.168 200.977 485.026 201.141 475.435V251.435C233.429 242.965 255.999 223.637 255.999 201.141V18.2827H255.861C255.861 8.18133 247.733 0 237.717 0ZM429.717 0C364.074 0 310.869 114.613 310.869 256C310.869 268.416 311.274 280.629 312.074 292.576H365.727V475.413C365.891 485.004 369.816 494.147 376.657 500.872C383.497 507.596 392.706 511.365 402.298 511.365C411.89 511.365 421.099 507.596 427.939 500.872C434.78 494.147 438.705 485.004 438.869 475.413V0.746667C435.843 0.249794 432.783 7.96311e-05 429.717 0Z" fill="black"/>
</svg>
