<svg preserveAspectRatio="none" width="100%" height="100%" overflow="visible" style="display: block;" viewBox="0 0 24 24" fill="none" xmlns="http://www.w3.org/2000/svg">
<g id="Phone">
<path id="Vector" fill-rule="evenodd" clip-rule="evenodd" d="M5.86445 6.36122C6.74548 5.43472 7.05685 5.17486 7.43229 5.05392C7.69212 4.98596 7.96461 4.98218 8.22623 5.04293C8.57063 5.14288 8.66174 5.21883 9.79104 6.34223C10.7832 7.3287 10.8823 7.43565 10.9774 7.62854C11.1593 7.96714 11.1878 8.36714 11.0555 8.72795C10.9554 9.00281 10.8132 9.18471 10.2115 9.78739L9.81907 10.1802C9.71605 10.2848 9.69182 10.4435 9.759 10.574C10.631 12.059 11.8681 13.2975 13.3532 14.1721C13.5242 14.2634 13.7348 14.234 13.8738 14.0991L14.2513 13.7283C14.4846 13.4896 14.7317 13.2647 14.9912 13.0547C15.3988 12.8048 15.9067 12.7825 16.3347 12.9957C16.544 13.0957 16.6131 13.1576 17.6363 14.1771C18.6915 15.2275 18.7215 15.2605 18.8377 15.5014C19.0562 15.9001 19.0539 16.383 18.8317 16.7797C18.7185 17.0036 18.6495 17.0845 18.0558 17.6902C17.6973 18.056 17.3599 18.3898 17.3059 18.4388C16.8161 18.8436 16.1878 19.0422 15.5538 18.9925C14.3941 18.887 13.2714 18.5291 12.2649 17.9441C10.0355 16.7648 8.13752 15.0467 6.74448 12.9467C6.44107 12.5072 6.17132 12.0454 5.93753 11.5655C5.31037 10.4924 4.98651 9.2696 5.00043 8.02733C5.04831 7.37744 5.3605 6.77542 5.86445 6.36122Z" stroke="var(--stroke-0, #333333)" stroke-linecap="round" stroke-linejoin="round"/>
</g>
</svg>
