<svg preserveAspectRatio="none" width="100%" height="100%" overflow="visible" style="display: block;" viewBox="0 0 24 15.3914" fill="none" xmlns="http://www.w3.org/2000/svg">
<g id="SVGRepo_iconCarrier">
<path id="Vector" d="M22.1205 3.263V3.43499H22.4147V4.24517H22.6016V3.43752H22.8908V3.26048L22.1205 3.26285V3.263ZM23.0652 3.27051V4.24273H23.2148V3.4924L23.4482 4.14434L23.6056 4.14323L23.8479 3.50235V4.25512H24V3.26806H23.7208L23.5239 3.96185L23.322 3.27051H23.0652ZM6.90206e-05 9.11338V6.36144C6.90206e-05 6.36144 -0.0298588 5.17491 1.15667 3.98838C2.34321 2.80185 3.46996 2.93151 3.46996 2.93151H5.02542C5.02542 2.93151 6.97981 0 10.8484 0C14.7171 0 16.9305 2.89155 16.9305 2.89155H18.6855C18.6855 2.89155 19.1285 2.87149 19.6852 3.15111C20.248 3.43381 20.7544 3.75946 21.2698 4.55946C21.7868 5.36174 21.8562 5.93977 21.8562 6.36136V9.37255C21.8562 10.0003 21.7963 10.4893 20.7394 11.5461C19.6826 12.603 18.3264 12.4834 18.3264 12.4834H16.7113C16.7113 12.4834 14.6938 15.3914 10.9082 15.3914C7.12203 15.3914 5.18485 12.5034 5.18485 12.5034H3.39013C3.39013 12.5034 2.2036 12.5732 1.05694 11.4264C-0.0896356 10.2799 0.0199683 9.11338 6.90206e-05 9.11338ZM1.90447 5.15485L3.02128 9.97095H4.24761L4.79603 7.19903L5.32446 9.97095H6.5808L7.69761 5.18486H6.36151L5.97269 7.8073L5.42427 5.17499H4.21776L3.66943 7.83723L3.26062 5.16504L1.90447 5.15501V5.15485ZM8.3287 6.50224V9.9666H9.50725V6.50224H8.3287ZM9.68579 5.52362C9.68579 5.85875 9.35303 6.13079 8.94289 6.13079C8.5329 6.13079 8.20006 5.85875 8.20006 5.52354C8.20006 5.18834 8.5329 4.91646 8.94289 4.91646C9.35303 4.91646 9.68579 5.18849 9.68579 5.52362ZM9.97149 11.8022C9.97149 11.8022 11.4429 10.6855 11.4429 9.0236V6.22349C11.4429 5.77339 11.6737 5.13559 12.3643 4.44504C13.0548 3.7544 13.6634 3.64504 14.0857 3.64504H18.4715C19.2169 3.6553 19.7962 3.96785 20.3287 4.46643C20.822 4.98476 21.1429 5.63433 21.1429 6.34502V9.02352C21.1429 9.55085 21.0016 10.315 20.3001 10.9593C19.5985 11.6036 19.058 11.8022 18.5001 11.8022H9.97149ZM18.0715 6.50579V9.97H19.2501V6.50579H18.0715ZM19.4287 5.52718C19.4287 5.8623 19.0959 6.13426 18.6859 6.13426C18.2758 6.13426 17.943 5.8623 17.943 5.52718C17.943 5.19205 18.2758 4.91993 18.6859 4.91993C19.0959 4.91993 19.4287 5.19205 19.4287 5.52718ZM13.1144 9.94513H14.4358V8.50219H16.9501V7.42353H14.4286V6.29511H17.2786V5.17365H13.1072L13.1144 9.94513Z" fill="var(--fill-0, #333333)"/>
<path id="Vector_2" d="M3.02874 9.89863C2.99336 9.79321 1.95679 5.27916 1.95679 5.2306C1.95679 5.1923 2.11314 5.18006 2.60328 5.18006C2.95886 5.18006 3.24969 5.19364 3.24961 5.21038C3.24929 5.26155 3.61498 7.65831 3.63954 7.7661C3.66094 7.85991 3.66465 7.86125 3.69189 7.78631C3.708 7.74193 3.83798 7.13682 3.98043 6.44185L4.23967 5.17817L4.82386 5.18922L5.40804 5.20043L5.67266 6.48022C5.81819 7.18412 5.9484 7.77115 5.96199 7.78473C5.99444 7.81711 6.00068 7.78181 6.20307 6.40252L6.37655 5.22065H7.01522C7.36662 5.22065 7.65405 5.23218 7.65405 5.24631C7.65405 5.27553 6.61045 9.76866 6.57839 9.87747C6.55975 9.94064 6.49413 9.94814 5.95693 9.94814C5.41997 9.94814 5.35403 9.94072 5.33516 9.87747C5.32355 9.83862 5.20384 9.22616 5.06913 8.5165C4.93441 7.80684 4.8158 7.21784 4.80562 7.20757C4.77403 7.17599 4.75476 7.2623 4.49173 8.61474L4.23636 9.92793L3.64112 9.93922C3.18643 9.94751 3.04201 9.93804 3.02874 9.89863ZM8.34097 8.23081V6.51347H9.47239V9.94799H8.34097V8.23081ZM8.67658 6.06692C8.60559 6.04521 8.48437 5.96798 8.4073 5.89517C8.13977 5.64288 8.18233 5.28619 8.50554 5.07227C8.64538 4.97981 8.72135 4.95904 8.92295 4.95849C9.8549 4.95588 9.91617 6.03383 8.98746 6.09448C8.88749 6.10103 8.74757 6.08864 8.67658 6.06684V6.06692ZM10.3699 11.45C10.8437 10.9541 11.1416 10.4712 11.3343 9.88742C11.4246 9.6138 11.4284 9.54432 11.4517 7.7661C11.4776 5.79015 11.4744 5.82055 11.7043 5.36192C11.8387 5.09399 12.1644 4.67887 12.4565 4.40328C12.7798 4.09832 13.1076 3.89064 13.4726 3.75932L13.7352 3.6648H16.2404C18.9971 3.6648 18.9564 3.66164 19.5133 3.92262C20.2198 4.25372 20.8728 5.05048 21.0485 5.79615C21.1373 6.17281 21.1364 9.30008 21.0474 9.64665C20.8631 10.3641 20.3509 11.0048 19.6055 11.4502C19.0396 11.7882 19.3978 11.7664 14.4534 11.7664H10.0677L10.3699 11.45ZM19.2507 8.23081V6.47304H18.0384V9.98842H19.2507V8.23081ZM14.4422 9.24093V8.53388H16.9878V7.40246H14.4422V6.31148H17.3111V5.13963H13.0558L13.0824 5.81289C13.097 6.18308 13.109 7.26498 13.109 8.21707V9.94799H14.4422V9.24093ZM18.9788 6.10711C19.4136 5.9863 19.5926 5.45431 19.2987 5.15708C18.9563 4.81106 18.3673 4.82069 18.0671 5.17746C17.8628 5.42027 17.8732 5.69902 18.0948 5.92052C18.3032 6.12899 18.6422 6.20061 18.9788 6.10711Z" fill="var(--fill-0, white)"/>
</g>
</svg>
