<svg preserveAspectRatio="none" width="100%" height="100%" overflow="visible" style="display: block;" viewBox="0 0 24 24" fill="none" xmlns="http://www.w3.org/2000/svg">
<g id="location_pointer_mark">
<path id="Oval" d="M12 21.708C12 21.708 19 15.866 19 9C19 7.14348 18.2625 5.36301 16.9497 4.05025C15.637 2.7375 13.8565 2 12 2C10.1435 2 8.36301 2.7375 7.05025 4.05025C5.7375 5.36301 5 7.14348 5 9C5 15.866 12 21.708 12 21.708Z" stroke="var(--stroke-0, #333333)" stroke-miterlimit="10"/>
<path id="Oval 2" d="M12 12C13.6569 12 15 10.6569 15 9C15 7.34315 13.6569 6 12 6C10.3431 6 9 7.34315 9 9C9 10.6569 10.3431 12 12 12Z" stroke="var(--stroke-0, #333333)" stroke-miterlimit="10"/>
</g>
</svg>
