<svg width="512" height="512" viewBox="0 0 512 512" fill="none" xmlns="http://www.w3.org/2000/svg">
<path d="M87.0933 266.667C85.9285 263.231 85.3339 259.628 85.3333 256C86.0972 245.413 91.006 235.555 98.9943 228.565C106.983 221.575 117.405 218.019 128 218.667C138.595 218.019 149.018 221.575 157.006 228.565C164.994 235.555 169.903 245.413 170.667 256C170.666 259.628 170.072 263.231 168.907 266.667H224V202.976C224 200.041 224.804 197.161 226.326 194.651C227.847 192.14 230.027 190.095 232.629 188.736C235.158 187.396 238.005 186.775 240.862 186.941C243.719 187.106 246.475 188.052 248.832 189.675C250.923 191.173 253.428 191.986 256 192C264.672 192 272 182.23 272 170.667C272 159.104 264.672 149.334 256 149.334C253.431 149.348 250.928 150.152 248.832 151.638C246.473 153.26 243.715 154.206 240.856 154.371C237.998 154.537 235.149 153.916 232.619 152.576C230.016 151.223 227.835 149.179 226.315 146.67C224.795 144.16 223.994 141.281 224 138.347V74.6669H74.6667C63.3508 74.6669 52.4983 79.1621 44.4968 87.1636C36.4952 95.1652 32 106.018 32 117.334V266.667H87.0933ZM272 120.8C274.753 118.437 277.873 116.539 281.237 115.179C291.344 111.927 302.325 112.791 311.798 117.583C321.271 122.376 328.473 130.71 331.84 140.779C336.407 150.36 337.012 161.356 333.524 171.381C330.035 181.405 322.734 189.65 313.205 194.326C309.839 195.676 306.277 196.472 302.656 196.683L323.296 247.766L382.347 223.904C385.066 222.799 388.037 222.463 390.934 222.934C393.831 223.404 396.543 224.662 398.773 226.571C400.962 228.415 402.605 230.824 403.522 233.535C404.44 236.247 404.598 239.157 403.979 241.952C403.381 244.436 403.567 247.045 404.512 249.419C407.488 253.2 411.612 255.913 416.263 257.149C420.914 258.386 425.84 258.079 430.301 256.274C434.763 254.47 438.517 251.266 441.001 247.145C443.485 243.023 444.564 238.206 444.075 233.419C443.095 231.042 441.408 229.023 439.243 227.638C436.852 226.06 434.941 223.855 433.718 221.265C432.495 218.675 432.008 215.798 432.309 212.95C432.591 210.031 433.669 207.245 435.426 204.898C437.183 202.55 439.551 200.73 442.272 199.638L501.333 175.819L445.397 37.3335C443.299 32.1367 440.198 27.4042 436.27 23.4063C432.342 19.4084 427.666 16.2234 422.507 14.0333C417.348 11.8432 411.809 10.6909 406.204 10.6422C400.6 10.5935 395.041 11.6494 389.845 13.7495L251.392 69.7282L272 120.8ZM382.24 288C383.405 291.436 383.999 295.039 384 298.667C383.236 309.254 378.327 319.112 370.339 326.102C362.351 333.092 351.928 336.648 341.333 336C330.739 336.648 320.316 333.092 312.328 326.102C304.339 319.112 299.431 309.254 298.667 298.667C298.667 295.039 299.262 291.436 300.427 288H245.333V351.68C245.34 354.614 244.539 357.494 243.019 360.003C241.499 362.513 239.318 364.556 236.715 365.91C234.188 367.253 231.342 367.877 228.485 367.716C225.628 367.554 222.871 366.612 220.512 364.992C218.417 363.494 215.909 362.681 213.333 362.667C204.661 362.667 197.333 372.438 197.333 384C197.333 395.563 204.661 405.334 213.333 405.334C215.914 405.318 218.426 404.501 220.523 402.998C222.879 401.384 225.632 400.444 228.484 400.281C231.336 400.117 234.178 400.736 236.704 402.07C239.307 403.427 241.488 405.473 243.009 407.983C244.531 410.494 245.335 413.374 245.333 416.31V480H394.667C405.983 480 416.835 475.505 424.837 467.503C432.838 459.502 437.333 448.649 437.333 437.334V288H382.24Z" fill="black"/>
<path d="M224 424.907C220.564 426.072 216.961 426.666 213.333 426.667C202.746 425.903 192.888 420.994 185.898 413.006C178.909 405.018 175.352 394.595 176 384C175.352 373.405 178.909 362.982 185.898 354.994C192.888 347.006 202.746 342.097 213.333 341.333C216.961 341.334 220.564 341.928 224 343.093V288H160.32C157.386 288.006 154.507 287.205 151.997 285.685C149.488 284.165 147.444 281.984 146.091 279.381C144.748 276.855 144.123 274.008 144.285 271.152C144.446 268.295 145.388 265.537 147.008 263.179C148.507 261.084 149.319 258.576 149.333 256C149.333 247.328 139.563 240 128 240C116.437 240 106.667 247.328 106.667 256C106.683 258.58 107.499 261.092 109.003 263.189C110.62 265.545 111.561 268.298 111.725 271.15C111.889 274.003 111.268 276.846 109.931 279.371C108.573 281.974 106.528 284.154 104.017 285.676C101.506 287.197 98.6264 288.001 95.6907 288H32V437.333C32 448.649 36.4952 459.502 44.4968 467.503C52.4983 475.505 63.3508 480 74.6667 480H224V424.907Z" fill="black"/>
</svg>
