<svg xmlns="http://www.w3.org/2000/svg" width="512" height="512" fill="none"><path fill="#000" d="M414.6 224c-18.5 0-36.6-4.5-52.8-13.2a114 114 0 0 1-105.7 0 114 114 0 0 1-105.7 0 114 114 0 0 1-100.5 2.6 32 32 0 0 1-17-38l25.5-88.3A32 32 0 0 1 89.1 64H423a32 32 0 0 1 30.7 23l25.6 88.5a32 32 0 0 1-17 38c-15 7-31.2 10.5-47.6 10.5m0 32q-27.3 0-53-10a147 147 0 0 1-105.5 0 147 147 0 0 1-105.7 0 145 145 0 0 1-86.4 5.9V400a48 48 0 0 0 48 48h16V320a16 16 0 0 1 16-16h64a16 16 0 0 1 16 16v128h176a48 48 0 0 0 48-48V252q-16.5 4-33.4 4M384 368a16 16 0 0 1-16 16h-64a16 16 0 0 1-16-16v-48a16 16 0 0 1 16-16h64a16 16 0 0 1 16 16z"/></svg>