<svg xmlns="http://www.w3.org/2000/svg" width="200" height="200" fill="none"><circle cx="107" cy="30" r="21" fill="#000"/><path fill="#000" d="M87 67.2a15 15 0 0 1 16-7l24.2 5.2a5 5 0 0 1 3.3 7.4l-30.6 53a5 5 0 0 1-6.8 1.8l-18-10.4a15 15 0 0 1-5.5-20.6z"/><rect width="20.8" height="66.9" x="165.6" y="53.9" fill="#000" rx="10.4" transform="rotate(90.8 165.6 54)"/><rect width="20.8" height="53.8" x="84.6" y="74.3" fill="#000" rx="10.4" transform="rotate(134 84.6 74.3)"/><rect width="20.8" height="53.8" x="32.8" y="120.3" fill="#000" rx="10.4" transform="rotate(-91.7 32.8 120.3)"/><rect width="20.8" height="53.8" x="80.4" y="158.7" fill="#000" rx="10.4" transform="rotate(-149.8 80.4 158.7)"/><rect width="20.8" height="53.8" x="169.2" y="20.4" fill="#000" rx="10.4" transform="rotate(30.8 169.2 20.4)"/><rect width="20.8" height="58.4" x="114.6" y="51.1" fill="#000" rx="10.4" transform="rotate(74 114.6 51)"/><rect width="20.8" height="53.8" x="30.7" y="154" fill="#000" rx="10.4" transform="rotate(-151.7 30.7 154)"/><rect width="20.8" height="53.8" x="107.9" y="178.4" fill="#000" rx="10.4" transform="rotate(150.3 108 178.4)"/></svg>