<svg xmlns="http://www.w3.org/2000/svg" width="128" height="128" fill="none"><path fill="#000" d="M114.7 45a14 14 0 0 1 0-18 3.8 3.8 0 0 0-6-4.6c-6.2 8.2-6.2 19 0 27.2a14 14 0 0 1 0 17.9 3.7 3.7 0 1 0 6 4.6c6.3-8.1 6.3-19 0-27.1m-15 0a14 14 0 0 1 0-18 3.8 3.8 0 0 0-6-4.6c-6.3 8.3-6.3 19 0 27.2q3.3 4 3.3 9a3.7 3.7 0 1 0 7.5 0A22 22 0 0 0 99.7 45M30.5 48.8l48.5 28-8 13.8-48.5-28zM11.4 40 26 48.5l-6 10.4-14.7-8.5zM88.4 70.6l28.5 16.5-18.8 32.7a6 6 0 0 1-8.2 2.2l-18.2-10.5a6 6 0 0 1-2.2-8.2z"/></svg>