<svg xmlns="http://www.w3.org/2000/svg" width="128" height="128" fill="none"><path fill="#000" d="M82.5 105.2A48 48 0 1 0 58 112h60.2v-6.8zm-5.3-64.5a10.4 10.4 0 1 1 10.4 18 10.4 10.4 0 0 1-10.4-18m-3.8 32.1a10.4 10.4 0 1 1 18 10.4 10.4 10.4 0 0 1-18-10.4M57.9 25.2A10.4 10.4 0 1 1 58 46a10.4 10.4 0 0 1 0-20.8M62.7 64a4.8 4.8 0 1 1-9.6 0 4.8 4.8 0 0 1 9.6 0M24.4 44.5a10.4 10.4 0 1 1 18 10.4 10.4 10.4 0 0 1-18-10.4M38.6 87a10.4 10.4 0 1 1-10.4-18 10.4 10.4 0 0 1 10.4 18m9 5.1a10.4 10.4 0 1 1 20.7 0 10.4 10.4 0 0 1-20.8 0"/></svg>