<svg xmlns="http://www.w3.org/2000/svg" width="512" height="512" fill="none"><g clip-path="url(#a)"><mask id="b" width="512" height="512" x="0" y="0" maskUnits="userSpaceOnUse" style="mask-type:luminance"><path fill="#fff" d="M512 0H0v512h512z"/></mask><g mask="url(#b)"><path fill="#000" d="M100.3 168.2c16-28.4 39.5-51.8 68-67.9L90.6 71.5a15 15 0 0 0-19.2 19.2zM83.8 208 8.7 242.5a15 15 0 0 0 0 27l75 34.5a180 180 0 0 1 0-96M304 83.8 269.5 8.7a15 15 0 0 0-27 0l-34.5 75c31.3-8.6 64.7-8.6 96 0m107.7 84.4 28.8-77.5a15 15 0 0 0-19.2-19.2l-77.5 28.8c28.4 16 51.8 39.5 67.9 68M208 428.2l34.5 75.1a15 15 0 0 0 27 0l34.5-75a180 180 0 0 1-96 0m-107.7-84.4-28.8 77.5a15 15 0 0 0 19.2 19.2l77.5-28.8a180 180 0 0 1-67.9-68m403-101.3-75-34.5c8.6 31.2 8.6 64.8 0 96l75-34.5a15 15 0 0 0 0-27m-91.6 101.3a180 180 0 0 1-68 67.9l77.6 28.8a15 15 0 0 0 19.2-19.2zM256 405c-82.1 0-149-66.9-149-149S174 107 256 107 405 174 405 256 338 405 256 405"/></g></g><defs><clipPath id="a"><path fill="#fff" d="M0 0h512v512H0z"/></clipPath></defs></svg>