<svg xmlns="http://www.w3.org/2000/svg" width="128" height="128" fill="none"><g clip-path="url(#a)"><path fill="#000" d="M74.3 0h7.5l-31 128h-7.5zM11.5 22.8a15 15 0 0 0 30 0c0-8.3-6.7-15.3-15-15.3s-15 7-15 15.3m90 15a15 15 0 0 0 15-15c0-8.3-6.7-15.3-15-15.3s-15 7-15 15.3a15 15 0 0 0 15 15m-52 17.9a8 8 0 0 0-7.7-10.5H11a8 8 0 0 0-7.7 10.5L23.6 119a3 3 0 0 0 5.7 0zM96 45.2a8 8 0 0 0-7.6 5.5l-9.6 29a8 8 0 0 0 7.5 10.5h4l8.4 28.3a3 3 0 0 0 5.7 0l8.6-28.2h3.8a8 8 0 0 0 7.6-10.6l-9.8-29a8 8 0 0 0-7.6-5.5z"/></g><defs><clipPath id="a"><path fill="#fff" d="M0 0h128v128H0z"/></clipPath></defs></svg>