<svg xmlns="http://www.w3.org/2000/svg" width="128" height="128" fill="none"><g clip-path="url(#a)"><path fill="#000" d="m96.1 93.5-58-9 1.4-8.7 58 9.1zm-15.3-92A19 19 0 0 1 96.5 17q1.6 0 3.1.2a21 21 0 0 1 2.1 41l-3.3 21-58-9 3.2-21a21 21 0 0 1 17.6-37.8 19 19 0 0 1 19.6-9.9"/><path fill="#030104" d="M64.9 112C53.9 98.4 45 125 34 114.6c9.7 15.1 19.5 15 30.8 7.5 8.7 10 23.3 3.7 30.2-7.5-11 10.4-19.3-16.2-30.1-2.4"/></g><defs><clipPath id="a"><path fill="#fff" d="M0 0h128v128H0z"/></clipPath></defs></svg>