<svg xmlns="http://www.w3.org/2000/svg" xml:space="preserve" width="800" height="800" viewBox="0 0 512 512"><path d="M74 414.2a32.1 32.1 0 0 0 45.4 45.4l122.5-122.5-42.9-48zM499.4 118.3a16.7 16.7 0 0 0-23.7 0L396 198.1a4.6 4.6 0 0 1-6.5 0l-11.2-11.3a4.6 4.6 0 0 1 0-6.5l79.1-79.2a17.6 17.6 0 0 0-24.8-24.9l-79.2 79.2a4.6 4.6 0 0 1-6.5 0l-11.3-11.2a4.6 4.6 0 0 1 0-6.6L415.3 58a16.7 16.7 0 0 0-23.7-23.7l-86.4 86.4a76 76 0 0 0-17.6 80l-14 13.8 45.5 45.5 14-14a76 76 0 0 0 79.8-17.5l86.5-86.4a16.7 16.7 0 0 0 0-23.7"/><path d="M78.4 54.1a40 40 0 0 0-60.1 52.8l106.2 137.5a48 48 0 0 0 71.9 4.6l174.2 195c6.3 7.1 15.3 11.3 24.8 11.6h1a34.6 34.6 0 0 0 24.4-59z"/></svg>