<svg xmlns="http://www.w3.org/2000/svg" width="128" height="128" fill="none"><path fill="#000" d="M67.8 85.5c19-4.8 32.2-20.4 29.4-40.9-.9-13-5-28.8-10-40.8H40.8c-5.1 12-9.2 27.8-10.1 40.8-2.8 20.5 10.4 36 29.4 41v29.3l-26.6 3.8.4 5.5h60l.4-5.5-26.6-3.8zm-29.6-40v-.3c0-.1 1-17.3 7.7-34H82c6.7 16.7 7.6 33.9 7.6 34v.3C93.5 72 68.4 78 64 78.7c-16.3-3.2-28.1-16-25.8-33.2"/><path fill="#000" d="M85.5 42s-3.1-3-11.5-3c-4.6 0-13.3 6-20.4 6-6.2 0-11-3-11-3-1.5 10.6-.6 20.7 9 27.3a22 22 0 0 0 13 4.7c4.2-.2 8.4-2.2 12-4.7 9.2-6.5 10.3-17 9-27.3"/></svg>