<svg xmlns="http://www.w3.org/2000/svg" width="512" height="512" fill="none"><path fill="#000" fill-rule="evenodd" d="M231.8 130.3c4 4 10.3 4 14.2 0l3.5-3.5c4-4 4-10.3 0-14.2l-8-8L300 45.9a40 40 0 0 1 56.6 0L378.9 68a45 45 0 0 0 63.6 63.6l22.4 22.4a40 40 0 0 1 0 56.5l-58.7 58.7-8.2-8.2a10 10 0 0 0-14.1 0l-3.6 3.6a10 10 0 0 0 0 14.1l8.2 8.2L211 464.5a40 40 0 0 1-56.5 0L132 442h.2a45 45 0 1 0-63.7-63.7l-.1.1-22.2-22.2a40 40 0 0 1 0-56.6l177.5-177.5zm92.7 78.5c-4 3.9-4 10.2 0 14.1l26.1 26.2a10 10 0 0 0 14.2 0l3.5-3.5c4-4 4-10.3 0-14.2l-26.2-26.1c-3.9-4-10.2-4-14 0zm-63-63a10 10 0 0 0 0 14.2l26.2 26.2a10 10 0 0 0 14.1 0l3.6-3.6a10 10 0 0 0 0-14.1l-26.2-26.2c-3.9-3.9-10.2-3.9-14.1 0z" clip-rule="evenodd"/></svg>