<svg width="24" height="24" viewBox="0 0 24 24" fill="none" xmlns="http://www.w3.org/2000/svg">
<path fill-rule="evenodd" clip-rule="evenodd" d="M4.64481 4.02641C4.8955 3.95646 5.16416 4.02776 5.34809 4.21303L19.7885 18.7583C20.0705 19.0423 20.0705 19.5028 19.7885 19.7868C19.5066 20.0709 19.0494 20.0709 18.7675 19.7868L13.5018 14.4829L12.7178 15.2726C12.1546 15.84 11.2407 15.8418 10.6762 15.2731L5.77109 10.3324C4.53654 9.08892 4.12911 7.63793 4.02824 6.52038C3.97785 5.96216 4.00294 5.48036 4.04097 5.1356C4.06251 4.94024 4.08984 4.74335 4.13674 4.55225C4.19898 4.3001 4.39617 4.09577 4.64481 4.02641ZM5.4664 6.38921C5.54612 7.27155 5.86081 8.36578 6.79216 9.30388L11.6968 14.2441L12.4807 13.4544L5.4664 6.38921Z" fill="#333333"/>
<path d="M16.5389 4.57727C16.8209 4.86128 16.8209 5.32177 16.5389 5.60578L14.4481 7.71181C14.1908 7.97089 14.1876 8.34521 14.3666 8.64585L16.9619 6.0318C17.2438 5.74778 17.701 5.74778 17.983 6.0318C18.2649 6.31581 18.2649 6.7763 17.983 7.06031L15.3878 9.67436C15.6862 9.85475 16.0578 9.85145 16.3151 9.59236L18.4059 7.48633C18.6879 7.20232 19.1451 7.20232 19.427 7.48633C19.709 7.77035 19.709 8.23083 19.427 8.51484L17.3362 10.6208C16.6334 11.3288 15.5424 11.4641 14.6901 10.949L14.3352 10.7345L14.0118 11.0602C13.7299 11.3443 13.2727 11.3443 12.9908 11.0602C12.7088 10.7762 12.7088 10.3158 12.9908 10.0318L13.3142 9.70601L13.1012 9.34858C12.5899 8.4901 12.7242 7.39122 13.427 6.68329L15.5178 4.57727C15.7998 4.29325 16.257 4.29325 16.5389 4.57727Z" fill="#333333"/>
<path d="M9.31893 15.7874C9.60089 15.5034 9.60089 15.0429 9.31893 14.7589C9.03696 14.4749 8.5798 14.4749 8.29783 14.7589L4.32671 18.7589C4.04474 19.0429 4.04474 19.5034 4.32671 19.7874C4.60868 20.0714 5.06584 20.0714 5.3478 19.7874L9.31893 15.7874Z" fill="#333333"/>
</svg>
