<svg width="24" height="24" viewBox="0 0 24 24" fill="none" xmlns="http://www.w3.org/2000/svg">
<g clip-path="url(#clip0_389_2670)">
<path d="M10.5006 0.532199C11.3411 -0.1774 12.6979 -0.1774 13.5144 0.532199L15.4116 2.15586C15.7719 2.45653 16.4563 2.7091 16.9366 2.7091H18.9779C20.2507 2.7091 21.2953 3.75546 21.2953 5.03033V7.07494C21.2953 7.55602 21.5475 8.22954 21.8477 8.59035L23.4687 10.4906C24.1771 11.3325 24.1771 12.6915 23.4687 13.5094L21.8477 15.4097C21.5475 15.7705 21.2953 16.444 21.2953 16.9251V18.9697C21.2953 20.2445 20.2507 21.2909 18.9779 21.2909H16.9366C16.4563 21.2909 15.7839 21.5435 15.4236 21.8441L13.5265 23.4678C12.6859 24.1774 11.3291 24.1774 10.5126 23.4678L8.6154 21.8441C8.25517 21.5435 7.57073 21.2909 7.10244 21.2909H5.00113C3.72833 21.2909 2.68368 20.2445 2.68368 18.9697V16.913C2.68368 16.444 2.44353 15.7584 2.14334 15.4097L0.522326 13.4973C-0.174109 12.6675 -0.174109 11.3204 0.522326 10.4906L2.14334 8.57832C2.44353 8.21751 2.68368 7.54399 2.68368 7.07494V5.04236C2.68368 3.76749 3.72833 2.72113 5.00113 2.72113H7.07842C7.55872 2.72113 8.23114 2.46856 8.59137 2.16788L10.5006 0.532199Z" fill="#00C8FF"/>
</g>
<defs>
<clipPath id="clip0_389_2670">
<rect width="24" height="24" rx="12" fill="white"/>
</clipPath>
</defs>
</svg>
