<svg width="512" height="512" viewBox="0 0 512 512" fill="none" xmlns="http://www.w3.org/2000/svg">
<path d="M470.72 129.44L262.72 33.4396C260.614 32.4648 258.321 31.96 256 31.96C253.679 31.96 251.386 32.4648 249.28 33.4396L41.28 129.44C38.5028 130.725 36.1523 132.78 34.5075 135.36C32.8627 137.941 31.9925 140.939 32 144V176C32 180.243 33.6858 184.313 36.6863 187.313C39.6869 190.314 43.7566 192 48 192H464C468.244 192 472.313 190.314 475.314 187.313C478.314 184.313 480 180.243 480 176V144C480.008 140.939 479.137 137.941 477.493 135.36C475.848 132.78 473.497 130.725 470.72 129.44Z" fill="black"/>
<path d="M464 416H48C39.1634 416 32 423.163 32 432V464C32 472.837 39.1634 480 48 480H464C472.837 480 480 472.837 480 464V432C480 423.163 472.837 416 464 416Z" fill="black"/>
<path d="M224 224H288V384H224V224ZM80 224H144V384H80V224ZM368 224H432V384H368V224Z" fill="black"/>
</svg>
