<svg width="24" height="24" viewBox="0 0 24 24" fill="none" xmlns="http://www.w3.org/2000/svg">
<g clip-path="url(#clip0_614_4901)">
<path fill-rule="evenodd" clip-rule="evenodd" d="M2.65124 3.40725C3.99377 1.99544 4.46823 1.59946 5.04033 1.41518C5.43626 1.31161 5.85148 1.30586 6.25014 1.39842C6.77495 1.55072 6.91378 1.66647 8.63461 3.37831C10.1465 4.88151 10.2975 5.04447 10.4425 5.33841C10.7197 5.85437 10.763 6.46388 10.5615 7.0137C10.4089 7.43252 10.1923 7.70971 9.27537 8.62807L8.67733 9.22668C8.52035 9.38599 8.48342 9.62784 8.58579 9.82674C9.91459 12.0896 11.7996 13.9768 14.0627 15.3095C14.3233 15.4487 14.6441 15.4038 14.856 15.1983L15.4312 14.6333C15.7866 14.2695 16.1632 13.9268 16.5586 13.6068C17.1798 13.2261 17.9538 13.1921 18.606 13.517C18.9248 13.6693 19.0301 13.7637 20.5893 15.3171C22.1972 16.9178 22.243 16.9681 22.42 17.3351C22.753 17.9426 22.7495 18.6785 22.4108 19.283C22.2384 19.6242 22.1332 19.7475 21.2285 20.6705C20.6823 21.2279 20.1682 21.7366 20.0858 21.8112C19.3395 22.428 18.382 22.7306 17.416 22.6549C15.6487 22.4941 13.9381 21.9487 12.4044 21.0573C9.00717 19.2603 6.11497 16.6423 3.99224 13.4423C3.52989 12.7725 3.11885 12.0689 2.76261 11.3376C1.80694 9.70232 1.31343 7.83907 1.33464 5.94608C1.40759 4.95577 1.88332 4.03841 2.65124 3.40725Z" stroke="#333333" stroke-width="2" stroke-linecap="round" stroke-linejoin="round"/>
</g>
<defs>
<clipPath id="clip0_614_4901">
<rect width="24" height="24" fill="white"/>
</clipPath>
</defs>
</svg>
