<svg width="512" height="512" viewBox="0 0 512 512" fill="none" xmlns="http://www.w3.org/2000/svg">
<g clip-path="url(#clip0_629_4958)">
<path d="M259.286 190.015C230.442 190.015 207.059 213.397 207.059 242.242C207.059 271.085 230.441 294.469 259.286 294.469C288.129 294.469 311.513 271.086 311.513 242.242C311.513 213.397 288.13 190.015 259.286 190.015ZM259.286 269.598C244.177 269.598 231.928 257.349 231.928 242.24C231.928 227.131 244.177 214.883 259.286 214.883C274.395 214.883 286.643 227.131 286.643 242.24C286.643 257.349 274.395 269.598 259.286 269.598Z" fill="black"/>
<path d="M467.57 70.6383L128.097 32.0911C121.583 31.165 114.947 31.6282 108.625 33.4499C102.302 35.2717 96.4372 38.4109 91.4147 42.6612C86.3879 46.559 82.1998 51.4317 79.1015 56.9872C76.0033 62.5426 74.0586 68.6664 73.3841 74.9916L67.1672 125.975H47.8918C20.5346 125.975 0.0168024 150.222 0.0168024 177.58V431.873C-0.672243 457.96 19.917 479.668 46.0055 480.357C46.6339 480.374 47.2634 480.378 47.8918 480.369H389.23C416.587 480.369 441.457 459.23 441.457 431.873V421.925C449.938 420.287 457.984 416.899 465.083 411.978C475.157 403.496 481.607 391.485 483.114 378.404L511.715 125.975C514.63 98.5548 494.953 73.8884 467.57 70.6383ZM416.587 431.873C416.587 445.552 402.908 455.499 389.23 455.499H47.8918C35.5354 455.862 25.2247 446.139 24.8617 433.783C24.8427 433.146 24.851 432.509 24.8867 431.873V385.864L121.258 314.985C132.835 306.097 149.141 306.887 159.806 316.85L227.577 376.538C237.869 385.179 250.824 390.009 264.26 390.216C274.766 390.345 285.1 387.546 294.105 382.133L416.588 311.254V431.873H416.587ZM416.587 282.032L281.046 360.994C275.368 364.358 268.783 365.866 262.207 365.309C255.631 364.752 249.393 362.157 244.363 357.886L175.971 297.576C156.369 280.733 127.72 279.7 106.957 295.089L24.8867 354.776V177.58C24.8867 163.901 34.2132 150.845 47.8918 150.845H389.23C403.844 151.451 415.646 162.985 416.587 177.58V282.032ZM486.868 122.618C486.86 122.7 486.853 122.783 486.843 122.865L457.621 375.294C457.646 378.524 456.931 381.716 455.529 384.626C454.128 387.536 452.079 390.086 449.539 392.081C447.051 394.568 441.456 395.812 441.456 397.055V177.58C440.474 149.255 417.563 126.616 389.229 125.975H92.0359L97.6316 77.4788C98.8454 71.199 102.129 65.5072 106.958 61.313C112.411 57.5431 119.005 55.7847 125.611 56.3386L464.463 95.5082C478.135 96.8066 488.167 108.944 486.868 122.618Z" fill="black"/>
</g>
<defs>
<clipPath id="clip0_629_4958">
<rect width="512" height="512" fill="white"/>
</clipPath>
</defs>
</svg>
