<svg width="512" height="512" viewBox="0 0 512 512" fill="none" xmlns="http://www.w3.org/2000/svg">
<g clip-path="url(#clip0_637_5115)">
<path d="M96.0303 193.898C54.9804 193.898 21.5815 160.5 21.5815 119.449C21.5815 78.3979 54.9794 45 96.0313 45C137.083 45 170.479 78.3979 170.479 119.45C170.479 160.502 137.081 193.898 96.0303 193.898ZM96.0303 466.749C92.9715 466.749 89.9847 465.821 87.4642 464.088C84.9438 462.355 83.0083 459.898 81.9133 457.042L0.999497 245.937C0.121886 243.647 -0.185615 241.178 0.103509 238.743C0.392634 236.308 1.26971 233.98 2.6591 231.959C4.04849 229.939 5.9085 228.286 8.07874 227.145C10.249 226.003 12.6643 225.407 15.1165 225.407H176.94C179.392 225.407 181.807 226.004 183.977 227.146C186.147 228.287 188.007 229.94 189.396 231.96C190.786 233.98 191.663 236.308 191.952 238.743C192.242 241.178 191.935 243.647 191.058 245.937L110.148 457.042C109.053 459.898 107.118 462.355 104.597 464.089C102.076 465.822 99.0893 466.749 96.0303 466.749ZM415.968 193.898C374.917 193.898 341.518 160.5 341.518 119.449C341.518 78.3979 374.918 45 415.969 45C457.02 45 490.418 78.3979 490.418 119.45C490.418 160.502 457.02 193.898 415.968 193.898ZM496.882 466.749H335.058C332.606 466.749 330.191 466.153 328.021 465.012C325.85 463.871 323.99 462.219 322.601 460.198C321.211 458.178 320.334 455.85 320.045 453.415C319.755 450.981 320.063 448.512 320.94 446.222L401.85 235.113C402.945 232.256 404.88 229.799 407.401 228.066C409.922 226.333 412.909 225.405 415.968 225.406C422.233 225.406 427.847 229.266 430.085 235.113L510.998 446.222C511.875 448.512 512.182 450.98 511.893 453.415C511.604 455.85 510.726 458.177 509.337 460.197C507.948 462.218 506.088 463.87 503.918 465.011C501.748 466.152 499.333 466.749 496.882 466.749ZM255.999 466.749C247.651 466.749 240.882 459.979 240.882 451.632V60.117C240.882 51.77 247.652 45 255.999 45C264.346 45 271.116 51.77 271.116 60.117V451.632C271.116 459.979 264.351 466.749 255.999 466.749Z" fill="black"/>
</g>
<defs>
<clipPath id="clip0_637_5115">
<rect width="512" height="512" fill="white"/>
</clipPath>
</defs>
</svg>
