<svg preserveAspectRatio="none" width="100%" height="100%" overflow="visible" style="display: block;" viewBox="0 0 28.6667 29.3333" fill="none" xmlns="http://www.w3.org/2000/svg">
<g id="SVGRepo_iconCarrier">
<path id="Vector" d="M12.3333 1V3.13333M3.13333 12.3333H1M5.6016 5.60183L4.09309 4.09333M19.0664 5.60183L20.5749 4.09333M23.6667 12.3333H21.5333M7.00009 12.3335C7.00009 9.38791 9.38791 7.00009 12.3335 7.00009C14.3415 7.00009 16.0903 8.1098 17.0001 9.74941M6.33333 28.3333C3.38781 28.3333 1 25.9455 1 23C1 20.0545 3.38781 17.6667 6.33333 17.6667C6.95225 17.6667 7.54655 17.7721 8.09923 17.966C9.05415 15.4528 11.4852 13.6667 14.3333 13.6667C17.1815 13.6667 19.6125 15.4528 20.5675 17.966C21.1201 17.7721 21.7144 17.6667 22.3333 17.6667C25.2788 17.6667 27.6667 20.0545 27.6667 23C27.6667 25.9455 25.2788 28.3333 22.3333 28.3333C16.1463 28.3333 11.5056 28.3333 6.33333 28.3333Z" stroke="var(--stroke-0, white)" stroke-width="2" stroke-linecap="round" stroke-linejoin="round"/>
</g>
</svg>
