<svg preserveAspectRatio="none" width="100%" height="100%" overflow="visible" style="display: block;" viewBox="0 0 28.6667 26.4333" fill="none" xmlns="http://www.w3.org/2000/svg">
<g id="SVGRepo_iconCarrier">
<path id="Vector" d="M6.41341 24.8833C8.02675 25.6167 10.0801 25.6167 11.6935 24.8833C13.3068 24.15 15.3601 24.15 16.9735 24.8833C18.5868 25.6167 20.6401 25.6167 22.2535 24.8833M14.3333 1V3.66667M3.66667 14.3333H1M6.75216 6.75216L4.86653 4.86653M21.914 6.75216L23.7997 4.86653M27.6667 14.3333H25M7.66667 14.3333C7.66667 10.6515 10.6514 7.66667 14.3333 7.66667C18.0152 7.66667 21 10.6515 21 14.3333M1.13347 20.2167C2.7468 19.4833 4.80013 19.4833 6.41347 20.2167C8.0268 20.95 10.0801 20.95 11.6935 20.2167C13.3068 19.4833 15.3601 19.4833 16.9735 20.2167C18.5868 20.95 20.6401 20.95 22.2535 20.2167C23.8668 19.4833 25.9201 19.4833 27.5335 20.2167" stroke="var(--stroke-0, white)" stroke-width="2" stroke-linecap="round" stroke-linejoin="round"/>
</g>
</svg>
