<svg width="512" height="512" viewBox="0 0 512 512" fill="none" xmlns="http://www.w3.org/2000/svg">
<path d="M414.561 224C396.142 223.999 378.008 219.46 361.761 210.784C345.456 219.329 327.321 223.792 308.913 223.792C290.504 223.792 272.37 219.329 256.065 210.784C239.761 219.333 221.626 223.798 203.217 223.798C184.808 223.798 166.673 219.333 150.369 210.784C134.945 218.903 117.861 223.364 100.437 223.822C83.0129 224.28 65.7174 220.722 49.8889 213.424C42.9783 210.183 37.4588 204.571 34.3323 197.607C31.2058 190.644 30.6795 182.79 32.8489 175.472L58.4489 87.088C60.4072 80.4547 64.4487 74.628 69.9755 70.47C75.5023 66.3119 82.2208 64.0434 89.1369 64H422.865C429.791 64.028 436.522 66.2898 442.06 70.4494C447.597 74.609 451.645 80.4443 453.601 87.088L479.201 175.472C481.37 182.79 480.844 190.644 477.718 197.607C474.591 204.571 469.072 210.183 462.161 213.424C447.271 220.424 431.014 224.036 414.561 224ZM414.561 256C396.455 255.984 378.512 252.57 361.665 245.936C327.688 259.061 290.041 259.061 256.065 245.936C222.058 259.078 184.375 259.078 150.369 245.936C122.861 256.68 92.7257 258.763 64.0009 251.904V400C64.0009 412.73 69.0581 424.939 78.0598 433.941C87.0615 442.943 99.2705 448 112.001 448H128.001V320C128.001 315.757 129.687 311.687 132.687 308.686C135.688 305.686 139.757 304 144.001 304H208.001C212.244 304 216.314 305.686 219.315 308.686C222.315 311.687 224.001 315.757 224.001 320V448H400.001C412.731 448 424.94 442.943 433.942 433.941C442.944 424.939 448.001 412.73 448.001 400V252.016C437.047 254.641 425.825 255.978 414.561 256ZM384.001 368C384.001 372.243 382.315 376.313 379.315 379.314C376.314 382.314 372.244 384 368.001 384H304.001C299.757 384 295.688 382.314 292.687 379.314C289.687 376.313 288.001 372.243 288.001 368V320C288.001 315.757 289.687 311.687 292.687 308.686C295.688 305.686 299.757 304 304.001 304H368.001C372.244 304 376.314 305.686 379.315 308.686C382.315 311.687 384.001 315.757 384.001 320V368Z" fill="black"/>
</svg>
