<svg width="512" height="512" viewBox="0 0 512 512" fill="none" xmlns="http://www.w3.org/2000/svg">
<g clip-path="url(#clip0_635_5095)">
<path d="M100.307 168.213C116.379 139.849 139.848 116.38 168.212 100.308L90.7003 71.5473C88.0263 70.555 85.1237 70.3511 82.3372 70.9597C79.5507 71.5683 76.9974 72.9638 74.9806 74.9806C72.9638 76.9974 71.5683 79.5507 70.9597 82.3372C70.3511 85.1237 70.555 88.0263 71.5473 90.7003L100.307 168.213ZM77.2203 256C77.2203 239.383 79.5073 223.29 83.7693 208.014L8.68734 242.457C6.09499 243.647 3.89842 245.555 2.3585 247.955C0.818571 250.356 0 253.148 0 256C0 258.852 0.818571 261.645 2.3585 264.045C3.89842 266.446 6.09499 268.354 8.68734 269.543L83.7703 303.986C79.415 288.363 77.2113 272.219 77.2203 256ZM256 77.2203C272.219 77.2109 288.363 79.4143 303.986 83.7693L269.543 8.68734C268.354 6.09499 266.446 3.89842 264.045 2.3585C261.645 0.818571 258.852 0 256 0C253.148 0 250.356 0.818571 247.955 2.3585C245.555 3.89842 243.647 6.09499 242.457 8.68734L208.014 83.7703C223.637 79.4144 239.782 77.2108 256 77.2203ZM411.693 168.213L440.453 90.7003C441.446 88.0263 441.65 85.1237 441.041 82.3372C440.432 79.5507 439.037 76.9974 437.02 74.9806C435.003 72.9638 432.45 71.5683 429.663 70.9597C426.877 70.3511 423.974 70.555 421.3 71.5473L343.787 100.307C372.151 116.379 395.621 139.849 411.693 168.213ZM256 434.78C239.782 434.79 223.637 432.586 208.014 428.231L242.457 503.314C243.647 505.907 245.555 508.103 247.956 509.643C250.356 511.183 253.149 512.001 256.001 512.001C258.853 512.001 261.645 511.182 264.045 509.642C266.446 508.102 268.354 505.906 269.543 503.313L303.987 428.23C288.364 432.586 272.219 434.789 256 434.78ZM100.307 343.787L71.5473 421.3C70.555 423.974 70.3511 426.877 70.9597 429.663C71.5683 432.45 72.9638 435.003 74.9806 437.02C76.9974 439.037 79.5507 440.432 82.3372 441.041C85.1237 441.65 88.0263 441.446 90.7003 440.453L168.213 411.693C139.849 395.621 116.379 372.151 100.307 343.787ZM503.313 242.457L428.23 208.013C432.492 223.29 434.779 239.382 434.779 255.999C434.779 272.616 432.492 288.709 428.23 303.985L503.313 269.542C505.905 268.353 508.102 266.445 509.641 264.044C511.181 261.644 512 258.852 512 256C512 253.148 511.181 250.356 509.641 247.955C508.102 245.555 505.905 243.647 503.313 242.457ZM411.693 343.787C395.622 372.152 372.153 395.621 343.788 411.692L421.301 440.452C423.975 441.445 426.878 441.649 429.664 441.04C432.451 440.431 435.004 439.035 437.02 437.018C439.037 435.002 440.433 432.449 441.041 429.662C441.65 426.876 441.446 423.973 440.454 421.299L411.693 343.787ZM256 404.98C173.852 404.98 107.02 338.148 107.02 256C107.02 173.852 173.852 107.02 256 107.02C338.148 107.02 404.98 173.852 404.98 256C404.98 338.148 338.148 404.98 256 404.98Z" fill="black"/>
</g>
<defs>
<clipPath id="clip0_635_5095">
<rect width="512" height="512" fill="white"/>
</clipPath>
</defs>
</svg>
